<?xml version="1.0" standalone="no"?>
<!DOCTYPE svg PUBLIC "-//W3C//DTD SVG 1.1//EN" "http://www.w3.org/Graphics/SVG/1.1/DTD/svg11.dtd" >
<svg xmlns="http://www.w3.org/2000/svg" xmlns:xlink="http://www.w3.org/1999/xlink" version="1.1">
<metadata>
Created by FontForge 20170731 at Tue Jun 15 22:01:04 2021
 By Aleksey,,,
Jorge Cisterna
</metadata>
<defs>
<font id="Queulat-Regular" horiz-adv-x="0" >
  <font-face 
    font-family="Queulat"
    font-weight="400"
    font-stretch="normal"
    units-per-em="2048"
    panose-1="0 0 5 0 0 0 0 0 0 0"
    ascent="1597"
    descent="-451"
    x-height="1065"
    cap-height="1495"
    bbox="-1645 -481 2908 2077"
    underline-thickness="102"
    underline-position="-307"
    unicode-range="U+0020-FB02"
  />
<missing-glyph horiz-adv-x="1228" 
 />
    <glyph glyph-name="fi" unicode="fi" horiz-adv-x="1476" 
d="M590 1597q121 0 194 -62t64 -153q-4 -41 -29 -64.5t-63 -23.5q-41 0 -65.5 24.5t-24.5 61.5q0 36 24 60q-31 35 -96 35q-152 0 -152 -177v-233h293v-135h-293v-801h263v-129h-627v129h211v801h-223v135h223v205q0 159 76.5 243t224.5 84zM1135 1309q-52 0 -87.5 36
t-35.5 89q0 50 35.5 84t87.5 34q51 0 86.5 -34.5t35.5 -83.5q0 -52 -35.5 -88.5t-86.5 -36.5zM1229 129h190v-129h-549v129h205v807h-201v129h355v-936z" />
    <glyph glyph-name="fl" unicode="fl" horiz-adv-x="1443" 
d="M590 1597q121 0 194 -62t64 -153q-4 -41 -29 -64.5t-63 -23.5q-41 0 -65.5 24.5t-24.5 61.5q0 36 24 60q-31 35 -96 35q-152 0 -152 -177v-233h293v-135h-293v-801h263v-129h-627v129h211v801h-223v135h223v205q0 159 76.5 243t224.5 84zM1196 129h190v-129h-546v129h202
v1339h-200v129h354v-1468z" />
    <glyph glyph-name=".notdef" horiz-adv-x="1228" 
 />
    <glyph glyph-name=".null" 
 />
    <glyph glyph-name="nonmarkingreturn" horiz-adv-x="682" 
 />
    <glyph glyph-name="space" unicode=" " horiz-adv-x="557" 
 />
    <glyph glyph-name="exclam" unicode="!" horiz-adv-x="587" 
d="M373 1597l-25 -1228h-108l-25 1228h158zM293 -20q-48 0 -82.5 35t-34.5 85q0 47 35 81t82 34q49 0 84 -34t35 -81q0 -51 -34.5 -85.5t-84.5 -34.5z" />
    <glyph glyph-name="quotedbl" unicode="&#x22;" horiz-adv-x="731" 
d="M283 1597v-475h-136v475h136zM592 1597v-475h-135v475h135z" />
    <glyph glyph-name="numbersign" unicode="#" horiz-adv-x="1622" 
d="M1540 895h-348l-72 -403h318v-113h-336l-68 -379h-121l68 379h-457l-67 -379h-121l67 379h-319v113h338l72 403h-308v111h328l74 419h121l-74 -419h457l73 419h121l-74 -419h328v-111zM999 492l72 403h-457l-71 -403h456z" />
    <glyph glyph-name="dollar" unicode="$" horiz-adv-x="1329" 
d="M705 690q202 -27 286 -55q175 -59 212 -198q11 -41 11 -89q0 -169 -146.5 -267.5t-418.5 -98.5h-12l-14 -152l-111 8l14 150q-204 21 -315 111t-107 241q3 45 29 71.5t70 26.5q43 0 69.5 -25.5t26.5 -64.5q0 -22 -13 -43.5t-32 -28.5q13 -58 90 -101t195 -60l45 465
q-53 7 -94 15.5t-88 22.5t-81.5 31.5t-67.5 45t-54 61.5t-34 81t-13 103q0 164 134 267t359 104h10l13 137l108 -8l-12 -137q192 -24 302.5 -123.5t98.5 -255.5q-5 -43 -31 -69t-69 -26q-40 0 -67 26t-27 63q0 24 12.5 44.5t34.5 26.5q-11 71 -80 120.5t-186 66.5zM293 942
q0 -58 22.5 -100t67 -68t94 -41.5t119.5 -27.5l45 477q-165 0 -256.5 -66.5t-91.5 -173.5zM651 109q206 0 314 62.5t108 174.5q0 36 -11.5 64.5t-28 49t-48 37t-58.5 26.5t-72.5 19t-77 13.5t-85.5 11.5l-43 -458h2z" />
    <glyph glyph-name="percent" unicode="%" horiz-adv-x="1955" 
d="M422 735h-2q-154 2 -248 108.5t-94 282.5q0 175 94 281.5t248 108.5h2q154 -2 248 -108.5t94 -281.5q0 -176 -94 -282.5t-248 -108.5zM1247 1489l115 -41l-631 -1405l-117 45zM201 1126q0 -126 61 -203t160 -77q98 0 158.5 77t60.5 203t-60.5 202.5t-158.5 76.5
q-99 0 -160 -76.5t-61 -202.5zM1532 760q155 0 249.5 -107t94.5 -282q0 -177 -94.5 -284t-249.5 -107t-249.5 107t-94.5 284q0 175 94.5 282t249.5 107zM1532 90q98 0 159.5 77.5t61.5 203.5q0 125 -61 201.5t-160 76.5q-100 0 -160.5 -76t-60.5 -202t60.5 -203.5
t160.5 -77.5z" />
    <glyph glyph-name="ampersand" unicode="&#x26;" horiz-adv-x="1529" 
d="M1274 129h178v-129h-262l-154 160q-186 -178 -458 -178q-215 0 -345.5 113.5t-130.5 299.5q0 83 26.5 151t73 116t101.5 80.5t121 54.5q-75 82 -114.5 158.5t-39.5 170.5q0 158 104.5 250t284.5 92q179 0 282.5 -91.5t80.5 -211.5q-5 -37 -29.5 -61.5t-64.5 -24.5
q-37 0 -60.5 23.5t-23.5 58.5q0 37 26 47q-2 46 -62 84.5t-151 38.5q-107 0 -168 -57t-61 -154q0 -86 59 -170.5t172 -197.5l369 -375q94 151 94 317v119h283v-131h-152q0 -224 -123 -408zM594 119q194 0 344 143l-408 422q-1 1 -8 9t-12 12q-252 -79 -252 -312
q0 -124 92.5 -199t243.5 -75z" />
    <glyph glyph-name="quotesingle" unicode="'" horiz-adv-x="430" 
d="M283 1597v-475h-136v475h136z" />
    <glyph glyph-name="parenleft" unicode="(" horiz-adv-x="647" 
d="M272 690q0 -286 79.5 -478t230.5 -314l-99 -115q-176 136 -274 363.5t-98 543.5q0 315 98.5 544t273.5 363l99 -114q-310 -247 -310 -793z" />
    <glyph glyph-name="parenright" unicode=")" horiz-adv-x="647" 
d="M375 690q0 546 -309 793l98 114q175 -135 274 -364t99 -543q0 -315 -99 -542.5t-274 -364.5l-98 115q151 122 230 314t79 478z" />
    <glyph glyph-name="asterisk" unicode="*" horiz-adv-x="747" 
d="M545 1411q43 19 65 -14q19 -28 1 -58q-12 -22 -40 -28l-137 -33l103 -107q30 -32 5 -66q-22 -29 -56 -25q-28 4 -44 34l-67 121l-68 -121q-25 -45 -66 -35q-31 8 -40 37q-7 27 14 51l102 111l-141 33q-38 8 -43 47q-4 36 21 53q21 13 51 0l129 -57l-15 141
q-3 28 14.5 44.5t43.5 14.5q25 2 41.5 -14.5t13.5 -44.5l-18 -141z" />
    <glyph glyph-name="plus" unicode="+" horiz-adv-x="1021" 
d="M922 655v-110h-353v-355h-114v355h-353v110h351v351h116v-351h353z" />
    <glyph glyph-name="comma" unicode="," horiz-adv-x="522" 
d="M145 -213v90q47 0 87 30t53 79q-15 -6 -35 -6q-47 0 -80 32t-33 82q0 51 34 83t87 32q85 0 118 -82q32 -79 -3 -175q-39 -105 -130 -145q-45 -20 -98 -20z" />
    <glyph glyph-name="hyphen" unicode="-" horiz-adv-x="1093" 
d="M946 616v-137h-799v137h799z" />
    <glyph glyph-name="period" unicode="." horiz-adv-x="505" 
d="M252 -20q-48 0 -82.5 35t-34.5 85q0 47 35 81t82 34q49 0 84 -34t35 -81q0 -51 -34.5 -85.5t-84.5 -34.5z" />
    <glyph glyph-name="slash" unicode="/" horiz-adv-x="929" 
d="M76 -20l657 1521h121l-657 -1521h-121z" />
    <glyph glyph-name="zero" unicode="0" horiz-adv-x="1513" 
d="M758 1516q140 0 256.5 -50.5t201 -145.5t132 -240.5t47.5 -327.5q0 -180 -47.5 -326.5t-132 -243.5t-201.5 -149.5t-256 -52.5q-294 0 -466.5 202t-172.5 570q0 364 172.5 564t466.5 200zM758 121q211 0 343 166.5t132 460.5q0 299 -131.5 462.5t-343.5 163.5
q-221 0 -349 -162t-128 -464t128 -464.5t349 -162.5z" />
    <glyph glyph-name="one" unicode="1" horiz-adv-x="980" 
d="M623 129h335v-129h-858v129h363v1212l-357 -81l-6 129l430 106h93v-1366z" />
    <glyph glyph-name="two" unicode="2" horiz-adv-x="1361" 
d="M1096 416h137v-416h-1131v90l603 537q76 68 115 104t87 87.5t70 88t37.5 82.5t15.5 94q0 135 -98.5 214t-290.5 79q-159 0 -261.5 -63t-115.5 -154q22 -7 35.5 -29t13.5 -47q0 -39 -28 -67.5t-70 -28.5q-45 0 -73 29t-33 74q-10 125 57 223t191.5 150.5t283.5 52.5
q270 0 409.5 -116t141.5 -313q0 -63 -21.5 -124t-43 -101t-85.5 -106.5t-93.5 -93.5t-123.5 -108q-23 -20 -34 -30l-445 -391h750v283z" />
    <glyph glyph-name="three" unicode="3" horiz-adv-x="1372" 
d="M915 762q71 -16 129 -43.5t107.5 -70t77 -105t28.5 -140.5q0 -196 -159 -308.5t-412 -112.5q-289 0 -441.5 111.5t-144.5 301.5q2 45 31 74t76 29q45 0 71.5 -27.5t26.5 -71.5q0 -23 -12 -42.5t-33 -28.5q19 -82 135 -144.5t291 -62.5q188 0 299 77t111 214
q-2 128 -108.5 206t-299.5 78h-149v129h147q156 0 258.5 83t104.5 200q0 127 -93.5 197t-269.5 71q-158 0 -255.5 -57t-113.5 -148q21 -7 34.5 -28.5t13.5 -46.5q0 -42 -27.5 -68.5t-71.5 -26.5q-41 0 -70 28.5t-34 72.5q-10 128 57.5 223t188.5 143t278 48
q249 -1 387.5 -107.5t136.5 -290.5q0 -125 -79 -219t-216 -137z" />
    <glyph glyph-name="four" unicode="4" horiz-adv-x="1333" 
d="M1284 451v-140h-309v-319h-160v319h-774v101q99 144 177 272.5t150 272.5t114 285t48 265h166q-25 -428 -456 -1056h575v432h160v-432h309z" />
    <glyph glyph-name="five" unicode="5" horiz-adv-x="1308" 
d="M1219 455q1 -218 -152.5 -345.5t-407.5 -127.5q-278 0 -425.5 110.5t-139.5 292.5q2 46 31 74t76 28q45 0 71.5 -27.5t26.5 -70.5q0 -21 -12 -41.5t-33 -30.5q14 -77 126.5 -136.5t278.5 -59.5q182 0 290.5 89.5t107.5 244.5q0 156 -101 241.5t-278 85.5q-195 0 -356 -49
l-142 43l82 719l846 -2v-141h-715l-57 -496q158 66 354 66q242 0 385.5 -122.5t143.5 -344.5z" />
    <glyph glyph-name="six" unicode="6" horiz-adv-x="1331" 
d="M1223 434q0 -204 -147 -328t-382 -124h-2q-285 0 -427 193t-142 556q0 376 164.5 580.5t455.5 204.5q207 0 316.5 -96t95.5 -232q-6 -47 -34.5 -74.5t-73.5 -26.5q-42 0 -70.5 27.5t-28.5 65.5q0 26 13 46t32 25q-6 53 -72.5 89t-179.5 36q-231 0 -344.5 -167.5
t-113.5 -485.5v-29q78 96 198.5 146.5t259.5 48.5q227 0 354.5 -124t127.5 -331zM694 121q165 0 266 85.5t101 227.5q0 147 -90 231.5t-254 84.5q-156 0 -265.5 -68t-148.5 -197q73 -364 391 -364z" />
    <glyph glyph-name="seven" unicode="7" horiz-adv-x="1187" 
d="M1145 1495l20 -98q-272 -321 -402 -648.5t-140 -748.5h-179q23 772 514 1362h-757v-283h-135v416h1079z" />
    <glyph glyph-name="eight" unicode="8" horiz-adv-x="1374" 
d="M1010 803q121 -56 188.5 -154.5t67.5 -224.5q0 -203 -157.5 -323.5t-420.5 -120.5t-420 120t-157 324q0 125 67 223.5t189 155.5q-85 54 -131 135.5t-46 179.5q0 176 134.5 282.5t363.5 106.5q227 0 361.5 -106.5t134.5 -282.5q0 -99 -44.5 -180t-129.5 -135zM352 1118
q0 -114 85 -183t249 -69h2q164 0 249 69t85 183q0 112 -90.5 182t-243.5 70q-154 0 -245 -70t-91 -182zM688 119q189 0 302.5 83t113.5 222q0 137 -109.5 217t-306.5 80t-306.5 -80t-109.5 -217q0 -139 113.5 -222t302.5 -83z" />
    <glyph glyph-name="nine" unicode="9" horiz-adv-x="1318" 
d="M647 1513q265 0 407.5 -179.5t141.5 -534.5q-1 -148 -21.5 -270.5t-66.5 -226t-116 -175t-174 -111t-236 -39.5q-208 0 -315.5 88t-90.5 238q6 43 35.5 70.5t75.5 27.5q43 0 69.5 -28.5t26.5 -69.5q-2 -25 -14.5 -44.5t-32.5 -25.5q7 -46 71 -81t179 -35q119 0 205 45
t138 132t77 201.5t28 264.5q-71 -88 -182 -133t-248 -45q-230 0 -361.5 130t-129.5 332q1 150 70.5 257t188.5 159.5t275 52.5zM623 719q157 0 261.5 63t139.5 185q-26 210 -120 306.5t-257 96.5q-77 0 -143 -19t-118.5 -57.5t-82 -102.5t-29.5 -147q0 -142 95 -233.5
t254 -91.5z" />
    <glyph glyph-name="colon" unicode=":" horiz-adv-x="530" 
d="M264 713q-48 0 -82.5 35t-34.5 86q0 46 35 80t82 34q49 0 84 -34t35 -80q0 -51 -34.5 -86t-84.5 -35zM264 -20q-48 0 -82.5 35t-34.5 85q0 47 35 81t82 34q49 0 84 -34t35 -81q0 -51 -34.5 -85.5t-84.5 -34.5z" />
    <glyph glyph-name="semicolon" unicode=";" horiz-adv-x="546" 
d="M270 707q-51 0 -87 36.5t-36 90.5q0 48 36 83t87 35t87 -35t36 -83q0 -54 -36 -90.5t-87 -36.5zM160 -203v80q50 0 89.5 30t49.5 79q-18 -6 -35 -6q-47 0 -79.5 32t-32.5 82q0 51 33.5 83t86.5 32q83 0 115 -80q32 -77 -3 -172q-38 -102 -129 -141q-44 -19 -95 -19z" />
    <glyph glyph-name="less" unicode="&#x3c;" horiz-adv-x="991" 
d="M838 991v-155l-602 -277l602 -264v-156l-746 350v138z" />
    <glyph glyph-name="equal" unicode="=" horiz-adv-x="1085" 
d="M928 752v-119h-770v119h770zM928 418v-119h-770v119h770z" />
    <glyph glyph-name="greater" unicode="&#x3e;" horiz-adv-x="991" 
d="M154 991l745 -364v-138l-745 -350v156l602 264l-602 277v155z" />
    <glyph glyph-name="question" unicode="?" horiz-adv-x="1230" 
d="M592 1516q258 0 395 -120t137 -325q0 -124 -52.5 -227t-157.5 -171.5t-248 -82.5l-21 -238h-110l-21 353h55q105 0 183 28.5t123 79t66.5 112.5t21.5 136q0 145 -96 230t-273 85q-154 0 -253 -66.5t-112 -152.5q22 -7 36 -29t14 -45q0 -41 -27.5 -69.5t-69.5 -28.5
q-45 0 -74 30t-34 75q-15 185 131 305.5t387 120.5zM592 215q49 0 84 -34t35 -81q0 -51 -34.5 -85.5t-84.5 -34.5q-48 0 -82.5 35t-34.5 85q0 47 35 81t82 34z" />
    <glyph glyph-name="at" unicode="@" horiz-adv-x="1923" 
d="M1083 1520q337 0 544.5 -190.5t207.5 -495.5q0 -267 -115.5 -420.5t-308.5 -153.5q-81 0 -138.5 32.5t-76.5 98.5q-128 -135 -338 -135q-156 0 -248 91t-92 255q0 229 134 369.5t352 140.5q196 0 280 -129l23 113h127l-109 -596q-11 -59 15.5 -91t86.5 -32
q128 0 203.5 120.5t75.5 321.5q0 255 -177 414.5t-464 159.5q-183 0 -336.5 -57t-260 -158.5t-165.5 -245.5t-59 -314q0 -270 173.5 -440t454.5 -170q241 0 449 74l-51 -133q-212 -66 -418 -66q-330 0 -533.5 200t-203.5 519q0 270 120 478.5t340.5 324t507.5 115.5z
M885 375q101 0 186.5 43.5t126.5 118.5l25 133l28 139h-2q-12 93 -75 139.5t-170 46.5q-160 0 -257.5 -104t-97.5 -273q0 -111 62 -177t174 -66z" />
    <glyph glyph-name="A" unicode="A" horiz-adv-x="1695" 
d="M1509 129h201v-129h-575v129h206l-108 285h-762l-119 -285h207v-129h-551v129h187l514 1227h-299v139h561zM526 547h656l-316 817z" />
    <glyph glyph-name="B" unicode="B" horiz-adv-x="1646" 
d="M1239 780q293 -90 293 -379q0 -86 -32.5 -158t-95 -126.5t-163 -85.5t-229.5 -31h-906v129h205v1237h-200v129h856q230 0 359.5 -99.5t129.5 -291.5q0 -108 -56 -192.5t-161 -131.5zM967 1362h-496v-531h490q162 0 247.5 75t85.5 192q0 264 -327 264zM1012 133
q179 0 268.5 78t89.5 197q0 70 -25.5 123t-65.5 84t-95.5 50.5t-108.5 26t-112 6.5h-492v-565h541z" />
    <glyph glyph-name="C" unicode="C" horiz-adv-x="1675" 
d="M1415 477h156q-32 -227 -216.5 -362t-467.5 -135q-167 0 -311.5 56t-247 156.5t-161 245t-58.5 314.5q0 226 100 400.5t277.5 269t404.5 94.5q204 0 364 -79.5t242 -215t70 -297.5q-5 -49 -34 -79t-77 -30t-77 30.5t-29 72.5q0 67 51 88q5 148 -141.5 258t-368.5 110
q-130 0 -243 -42.5t-197 -120.5t-132.5 -197.5t-48.5 -265.5t49.5 -266t134 -198t196 -120.5t237.5 -42.5q209 0 350.5 91t177.5 265z" />
    <glyph glyph-name="D" unicode="D" horiz-adv-x="1718" 
d="M848 1495q225 0 395.5 -86.5t266.5 -256t96 -400.5q0 -232 -96 -403.5t-266.5 -260t-395.5 -88.5h-742v129h205v1237h-200v129h737zM848 133q125 0 232.5 39t189 114t128 193.5t46.5 268.5t-46.5 269t-128 193.5t-188.5 113t-233 38.5h-377v-1229h377z" />
    <glyph glyph-name="E" unicode="E" horiz-adv-x="1472" 
d="M1204 416h139v-416h-1237v129h205v1237h-200v129h1228v-416h-139v283h-729v-553h614v-133h-614v-543h733v283z" />
    <glyph glyph-name="F" unicode="F" horiz-adv-x="1423" 
d="M1360 1495v-416h-139v283h-750v-565h635v-133h-635v-535h279v-129h-644v129h205v1237h-200v129h1249z" />
    <glyph glyph-name="G" unicode="G" horiz-adv-x="1712" 
d="M1575 674v-674h-109l-26 256q-87 -129 -236.5 -202.5t-331.5 -73.5q-163 0 -304 56.5t-241.5 156.5t-158 244.5t-57.5 314.5q0 169 57.5 311.5t160 242t248.5 155t318 55.5q199 0 355 -69.5t237.5 -192t68.5 -271.5q-5 -49 -34.5 -79t-77.5 -30q-44 0 -73.5 29.5
t-29.5 69.5q0 68 54 90q0 77 -64.5 148.5t-181 117t-254.5 45.5q-178 0 -318 -72.5t-222.5 -216t-82.5 -337.5q0 -145 48 -265t130.5 -198t191 -121t230.5 -43q117 0 224 36.5t199 122t135 209.5v52h-533v133h678z" />
    <glyph glyph-name="H" unicode="H" horiz-adv-x="1896" 
d="M1778 1366h-195v-1237h195v-129h-559v129h204v549h-952v-549h193v-129h-558v129h205v1237h-200v129h553v-129h-193v-551h952v551h-200v129h555v-129z" />
    <glyph glyph-name="I" unicode="I" horiz-adv-x="782" 
d="M670 1366h-199v-1237h199v-129h-555v129h196v1237h-196v129h555v-129z" />
    <glyph glyph-name="J" unicode="J" horiz-adv-x="1380" 
d="M1165 1495v-956h-2q0 -253 -147.5 -406t-409.5 -153h-2q-270 0 -416 132t-137 343q3 47 34 77.5t79 30.5t75 -29.5t27 -72.5q0 -30 -14.5 -54t-40.5 -34q14 -109 116.5 -179.5t276.5 -70.5q181 0 290.5 115.5t109.5 300.5h2l2 819h-605v137h762z" />
    <glyph glyph-name="K" unicode="K" horiz-adv-x="1667" 
d="M1448 129h207v-129h-291l-571 733l-322 -321v-283h193v-129h-558v129h205v1237h-200v129h553v-129h-193v-784l766 784h-193v129h558v-129h-172l-535 -532z" />
    <glyph glyph-name="L" unicode="L" horiz-adv-x="1363" 
d="M1169 442h138v-442h-1201v129h205v1237h-200v129h553v-129h-193v-1233h698v309z" />
    <glyph glyph-name="M" unicode="M" horiz-adv-x="2107" 
d="M1833 129h190v-129h-571v129h219l-76 1073l-487 -749h-107l-487 757l-70 -1081h203v-129h-571v129h205l88 1237h-207v129h350l545 -866l545 866h348v-129h-205z" />
    <glyph glyph-name="N" unicode="N" horiz-adv-x="1878" 
d="M1784 1495v-129h-193v-1366h-133l-991 1225v-1096h209v-129h-570v129h205v1237h-200v129h335l990 -1235v1106h-205v129h553z" />
    <glyph glyph-name="O" unicode="O" horiz-adv-x="1777" 
d="M1667 752q0 -228 -95.5 -403t-272 -272t-408.5 -97h-2q-228 0 -405 96.5t-275 272.5t-98 403q0 226 97.5 400t274.5 269t406 95h2q232 0 408.5 -95.5t272 -268.5t95.5 -400zM891 121q176 0 314 73.5t219 217t81 336.5q0 194 -81 337.5t-219 216t-314 72.5
q-129 0 -241.5 -42.5t-196.5 -121t-132.5 -198t-48.5 -264.5t48.5 -264t132 -198t196.5 -122t242 -43z" />
    <glyph glyph-name="P" unicode="P" horiz-adv-x="1589" 
d="M895 1495q108 0 198 -16t170 -54t135.5 -96.5t87.5 -149t32 -206.5q0 -164 -83.5 -282.5t-222.5 -176t-317 -57.5h-424v-328h246v-129h-611v129h205v1237h-200v129h784zM897 590q127 0 229 41.5t166 130t64 211.5q0 92 -24.5 161.5t-65 112t-101 69t-125 36.5t-143.5 10
h-426v-772h426z" />
    <glyph glyph-name="Q" unicode="Q" horiz-adv-x="1777" 
d="M1741 -61q33 -7 47 -38t6 -69q-16 -75 -107 -125.5t-249 -50.5q-199 0 -361.5 90.5t-259.5 235.5q-318 25 -512 235.5t-194 534.5q0 226 97.5 400t274.5 269t406 95h2q232 0 408.5 -95.5t272 -268.5t95.5 -400q0 -318 -182.5 -526t-489.5 -240q81 -98 195 -152.5
t246 -54.5q71 0 126 14.5t72 40.5q-16 22 2 64q14 28 43 39.5t62 1.5zM272 748q0 -145 48.5 -264t132 -198t196.5 -122t242 -43q176 0 314 73.5t219 217t81 336.5q0 194 -81 337.5t-219 216t-314 72.5q-129 0 -241.5 -42.5t-196.5 -121t-132.5 -198t-48.5 -264.5z" />
    <glyph glyph-name="R" unicode="R" horiz-adv-x="1640" 
d="M1354 129h221v-129h-305l-453 528h-346v-399h258v-129h-623v129h205v1237h-200v129h774q134 0 242 -28t189 -85.5t125 -151t44 -218.5q0 -191 -134 -319t-352 -156zM471 1358v-694h422q188 0 310 95t122 253q0 346 -432 346h-422z" />
    <glyph glyph-name="S" unicode="S" horiz-adv-x="1456" 
d="M317 1112q0 -76 35.5 -129.5t95.5 -82.5t137.5 -47t163.5 -30.5t171.5 -26.5t163 -40.5t137.5 -67t95.5 -111.5t35.5 -169q0 -193 -161 -309.5t-460 -116.5v139q225 0 342 75.5t117 206.5q0 75 -35.5 127.5t-95 80t-137.5 45t-163.5 29t-171 25t-163.5 40.5t-137.5 68.5
t-95 115t-35.5 174.5q0 185 149.5 296.5t435.5 111.5h2q163 0 289.5 -48t197 -141t60.5 -217q-5 -44 -32.5 -72t-73.5 -28q-42 0 -70.5 28t-28.5 68q0 24 13.5 46t34.5 28q-15 88 -120.5 142t-271.5 54q-212 0 -318 -71.5t-106 -192.5zM266 301q18 -78 142.5 -129t322.5 -51
l-2 -139q-310 0 -470.5 100t-152.5 287q2 45 31 73.5t76 28.5q45 0 71.5 -27.5t26.5 -70.5q0 -23 -12 -43t-33 -29z" />
    <glyph glyph-name="T" unicode="T" horiz-adv-x="1476" 
d="M1415 1495v-434h-139v301h-457v-1233h213v-129h-598v129h225v1233h-456v-301h-140v434h1352z" />
    <glyph glyph-name="U" unicode="U" horiz-adv-x="1775" 
d="M1694 1495v-129h-193v-748q0 -162 -44 -285.5t-125.5 -200t-192 -114.5t-248.5 -38q-136 0 -246.5 38t-193 114.5t-127.5 200t-45 285.5v748h-201v129h553v-129h-193v-748q0 -110 24.5 -196.5t66 -141.5t100.5 -90.5t123 -50t139 -14.5q97 0 175 24.5t141.5 79
t98.5 153.5t35 236v748h-200v129h553z" />
    <glyph glyph-name="V" unicode="V" horiz-adv-x="1683" 
d="M1692 1495v-129h-197l-559 -1366h-184l-568 1366h-184v129h543v-129h-187l494 -1231l479 1231h-201v129h564z" />
    <glyph glyph-name="W" unicode="W" horiz-adv-x="2252" 
d="M2251 1495v-129h-178l-383 -1366h-144l-413 965l-416 -965h-144l-395 1366h-186v129h567v-129h-211l309 -1147l414 961h121l418 -973l305 1159h-232v129h568z" />
    <glyph glyph-name="X" unicode="X" horiz-adv-x="1585" 
d="M1382 129h179v-129h-600v129h235l-416 524l-424 -524h228v-129h-566v129h164l518 627l-481 610h-166v129h547v-129h-194l401 -510l407 510h-208v129h534v-129h-160l-495 -606z" />
    <glyph glyph-name="Y" unicode="Y" horiz-adv-x="1536" 
d="M1311 1366l-455 -797v-440h213v-129h-586v129h213v440l-495 797h-185v129h533v-129h-172l405 -682l373 682h-186v129h547v-129h-205z" />
    <glyph glyph-name="Z" unicode="Z" horiz-adv-x="1447" 
d="M1229 416h127v-416h-1264v88l1012 1272h-850v-281h-131v416h1190v-84l-1012 -1276h928v281z" />
    <glyph glyph-name="bracketleft" unicode="[" horiz-adv-x="684" 
d="M612 1458h-245v-1536h245v-139h-389v1814h389v-139z" />
    <glyph glyph-name="backslash" unicode="\" horiz-adv-x="935" 
d="M862 -20h-129l-657 1521h129z" />
    <glyph glyph-name="bracketright" unicode="]" horiz-adv-x="684" 
d="M463 1597v-1814h-389v139h245v1536h-245v139h389z" />
    <glyph glyph-name="asciicircum" unicode="^" horiz-adv-x="997" 
d="M862 1321l-49 -90l-319 147l-310 -147l-49 90l359 213z" />
    <glyph glyph-name="underscore" unicode="_" horiz-adv-x="1157" 
d="M1061 0v-137h-963v137h963z" />
    <glyph glyph-name="grave" unicode="`" horiz-adv-x="1228" 
d="M489 1552l408 -270l-49 -88l-432 213z" />
    <glyph glyph-name="a" unicode="a" horiz-adv-x="1394" 
d="M1157 129h172v-129h-313v156q-139 -176 -391 -176q-236 0 -381.5 153.5t-145.5 403.5q0 247 142.5 397.5t375.5 150.5q253 0 390 -172v152h151v-936zM635 115q132 0 227 58.5t135 162.5v371q-38 115 -131.5 179t-224.5 64q-174 0 -280.5 -114t-106.5 -301
q0 -189 104.5 -304.5t276.5 -115.5z" />
    <glyph glyph-name="b" unicode="b" horiz-adv-x="1347" 
d="M733 1085q240 0 379 -148.5t139 -399.5q0 -256 -140 -406.5t-386 -150.5q-259 0 -397 184l-33 -164h-100v1468h-201v129h336v-702q134 190 403 190zM715 115q173 0 277 112.5t104 307.5q0 194 -103 304.5t-284 110.5q-134 0 -230 -68.5t-131 -187.5v-348
q39 -108 135.5 -169.5t231.5 -61.5z" />
    <glyph glyph-name="c" unicode="c" horiz-adv-x="1196" 
d="M1010 596q-39 0 -65.5 25t-26.5 61q0 55 38 72q-5 29 -25 60t-56 63t-98.5 52.5t-139.5 20.5q-170 0 -278.5 -113.5t-108.5 -301.5q0 -191 108.5 -305.5t282.5 -114.5q117 0 201.5 52t118.5 152h143q-40 -147 -159.5 -243t-305.5 -96q-243 0 -394 155.5t-151 401.5
q0 244 150.5 396t398.5 152q114 0 208 -37.5t149.5 -96.5t82.5 -128t19 -135q-5 -39 -29 -65.5t-63 -26.5z" />
    <glyph glyph-name="d" unicode="d" horiz-adv-x="1384" 
d="M1153 129h166v-129h-311v154q-64 -80 -162.5 -127t-227.5 -47q-240 0 -380 151t-140 406q0 250 139 399t373 149q253 0 387 -161v544h-213v129h369v-1468zM629 115q132 0 224.5 53.5t135.5 150.5v408q-40 105 -132 164t-222 59q-175 0 -278 -111t-103 -304
q0 -194 103.5 -307t271.5 -113z" />
    <glyph glyph-name="e" unicode="e" horiz-adv-x="1208" 
d="M625 1085q104 0 197.5 -39t164.5 -111t106 -186t19 -253l-12 -15h-142l-704 2q14 -172 113.5 -271t259.5 -99q235 0 309 166h154q-39 -135 -162 -217t-301 -82q-245 0 -388 154t-143 403q0 242 148 395t381 153zM625 954q-140 0 -243 -94t-124 -250h707q-11 164 -108 254
t-232 90z" />
    <glyph glyph-name="f" unicode="f" horiz-adv-x="790" 
d="M590 1597q121 0 194 -62t64 -153q-4 -41 -29 -64.5t-63 -23.5q-41 0 -65.5 24.5t-24.5 61.5q0 36 24 60q-31 35 -96 35q-152 0 -152 -177v-233h293v-135h-293v-801h263v-129h-627v129h211v801h-223v135h223v205q0 159 76.5 243t224.5 84z" />
    <glyph glyph-name="g" unicode="g" horiz-adv-x="1351" 
d="M1012 1065h145v-1024q0 -228 -140 -350.5t-384 -122.5q-107 0 -193 23t-137 60t-80 77.5t-35 81.5q-9 57 18 88.5t73 31.5q41 0 64.5 -24.5t23.5 -61.5q0 -31 -21 -49q31 -36 105.5 -64t181.5 -28q379 0 379 338v139q-65 -84 -164.5 -132t-229.5 -48q-234 0 -376 145
t-142 392q0 251 137 399.5t373 148.5q268 0 402 -190v170zM629 135q134 0 229.5 62t134.5 170v327q-35 119 -130 187.5t-228 68.5q-178 0 -278.5 -110.5t-100.5 -304.5q0 -188 101 -294t272 -106z" />
    <glyph glyph-name="h" unicode="h" horiz-adv-x="1454" 
d="M1221 129h204v-129h-548v129h190v453q0 172 -79.5 270t-225.5 98q-133 0 -225.5 -72.5t-130.5 -183.5v-565h190v-129h-547v129h203v1339h-201v129h336v-714q132 202 391 202q208 0 325.5 -132t117.5 -349v-475z" />
    <glyph glyph-name="i" unicode="i" horiz-adv-x="686" 
d="M344 1309q-52 0 -87.5 36t-35.5 89q0 50 35.5 84t87.5 34q51 0 87 -34.5t36 -83.5q0 -52 -36 -88.5t-87 -36.5zM438 129h191v-129h-549v129h205v807h-201v129h354v-936z" />
    <glyph glyph-name="j" unicode="j" horiz-adv-x="624" 
d="M348 1552q51 0 87 -34.5t36 -83.5q0 -52 -36 -88.5t-87 -36.5q-52 0 -87.5 36t-35.5 89q0 50 35.5 84t87.5 34zM430 1065v-1126q0 -191 -68 -278t-215 -87q-94 0 -163 46t-76 136q-5 44 22 75.5t70 31.5q39 0 63.5 -24.5t24.5 -57.5q0 -34 -16 -53q8 -11 31.5 -21
t48.5 -10q69 0 96.5 47t27.5 168v1024h-200v129h354z" />
    <glyph glyph-name="k" unicode="k" horiz-adv-x="1372" 
d="M1128 129h234v-129h-320l-391 532l-245 -239v-164h198v-129h-555v129h203v1339h-201v129h355v-1136l477 475h-158v129h553v-129h-213l-315 -309z" />
    <glyph glyph-name="l" unicode="l" horiz-adv-x="653" 
d="M406 129h190v-129h-547v129h203v1339h-201v129h355v-1468z" />
    <glyph glyph-name="m" unicode="m" horiz-adv-x="2301" 
d="M2077 129h190v-129h-549v129h203v453q0 176 -82.5 270t-232.5 94q-125 0 -219 -69t-134 -175q9 -46 9 -100v-473h190v-129h-537v129h193v453q0 176 -83.5 270t-233.5 94q-132 0 -224 -70.5t-129 -181.5v-565h191v-129h-549v129h205v807h-201v129h336v-180
q128 200 387 200q144 0 247 -61.5t156 -173.5q129 235 408 235q217 0 338 -131t121 -352v-473z" />
    <glyph glyph-name="n" unicode="n" horiz-adv-x="1488" 
d="M1262 129h192v-129h-547v129h201v453q0 180 -86.5 274t-235.5 94q-126 0 -220 -71t-128 -185v-565h189v-129h-547v129h205v807h-201v129h332v-180q133 200 395 200q206 0 328.5 -126t122.5 -345v-485z" />
    <glyph glyph-name="o" unicode="o" horiz-adv-x="1300" 
d="M1204 537q0 -248 -150 -402.5t-403 -154.5h-2q-253 0 -403 154.5t-150 402.5q0 245 149 396.5t404 151.5h2q253 0 403 -151.5t150 -396.5zM649 115q177 0 287.5 114.5t110.5 305.5q0 189 -110.5 302t-287.5 113t-287 -113t-110 -302q0 -191 110 -305.5t287 -114.5z" />
    <glyph glyph-name="p" unicode="p" horiz-adv-x="1415" 
d="M801 1085q240 0 379 -148.5t139 -399.5q0 -256 -140 -406.5t-386 -150.5q-131 0 -231 48t-165 132v-449h232v-129h-580v129h203v1225h-201v129h346v-170q134 190 404 190zM782 115q173 0 277 112.5t104 307.5q0 194 -103 304.5t-284 110.5q-134 0 -229.5 -68.5
t-130.5 -187.5v-348q39 -108 135 -169.5t231 -61.5z" />
    <glyph glyph-name="q" unicode="q" horiz-adv-x="1357" 
d="M1165 -289h203v-129h-582v129h234v449q-139 -180 -395 -180q-246 0 -386.5 151t-140.5 406q0 251 139 399.5t379 148.5q267 0 402 -188v168h147v-1354zM635 115q135 0 231 61.5t135 169.5v348q-35 119 -130.5 187.5t-229.5 68.5q-181 0 -284 -110.5t-103 -304.5
q0 -195 104 -307.5t277 -112.5z" />
    <glyph glyph-name="r" unicode="r" horiz-adv-x="1032" 
d="M752 1085q127 0 191 -76.5t50 -179.5q-6 -41 -32 -63.5t-66 -22.5q-36 0 -61 23t-25 59q0 22 10 42t25 26q-30 65 -123 65q-94 0 -177.5 -71.5t-105.5 -200.5v-557h199v-129h-557v129h205v807h-201v129h328v-180q53 94 139 147t201 53z" />
    <glyph glyph-name="s" unicode="s" horiz-adv-x="1105" 
d="M256 197q21 -33 109 -57.5t192 -24.5q145 0 224 47t77 129q-1 59 -42 95.5t-105.5 52t-142 25.5t-154.5 27.5t-141 47.5t-104 93.5t-40 158.5q0 130 106 212t320 82q113 0 197.5 -23.5t133 -64.5t70.5 -92t19 -110q-2 -30 -27.5 -58t-62.5 -28q-39 0 -65.5 24t-26.5 62
q0 44 34 65q-10 34 -76 62t-196 28q-133 0 -204.5 -45.5t-71.5 -113.5q0 -61 40.5 -98.5t105 -55t142 -29.5t155.5 -30t142.5 -47.5t105 -91.5t40.5 -154q0 -139 -112.5 -222t-340.5 -83q-412 0 -461 233q-11 57 16.5 90t73.5 33q36 0 62 -25t26 -57q0 -39 -18 -57z" />
    <glyph glyph-name="t" unicode="t" horiz-adv-x="882" 
d="M823 930h-426v-596q0 -109 50.5 -164t146.5 -55q107 0 223 53v-135q-115 -53 -252 -53q-154 0 -237.5 84.5t-83.5 259.5v606h-170v135h170v258h153v-258h426v-135z" />
    <glyph glyph-name="u" unicode="u" horiz-adv-x="1415" 
d="M1161 129h201v-129h-332v180q-133 -200 -385 -200q-181 0 -300.5 120.5t-119.5 300.5v535h-190v129h344v-659q0 -127 83 -208t204 -83q121 -1 214.5 70.5t127.5 185.5v565h-191v129h344v-936z" />
    <glyph glyph-name="v" unicode="v" horiz-adv-x="1402" 
d="M1393 1065v-129h-197l-403 -936h-185l-401 936h-195l-2 129h504v-129h-141l325 -807l320 807h-154v129h529z" />
    <glyph glyph-name="w" unicode="w" horiz-adv-x="1880" 
d="M1874 1065v-129h-184l-316 -936h-200l-232 762l-246 -762h-196l-305 936h-183l-2 129h504v-129h-160l242 -784l262 819h168l252 -828l256 793h-156v129h496z" />
    <glyph glyph-name="x" unicode="x" horiz-adv-x="1304" 
d="M1090 129h180v-129h-443v129h78l-258 336l-258 -336h82v-129h-434l2 129h176l326 414l-318 393h-176l-2 129h426v-129h-63l247 -324l234 324h-62v129h433v-129h-201l-303 -399z" />
    <glyph glyph-name="y" unicode="y" horiz-adv-x="1396" 
d="M1389 1065v-129h-201l-481 -1143q-95 -225 -289 -225q-88 0 -145.5 40.5t-63.5 121.5q-3 44 19.5 71t62.5 27q31 0 53 -20.5t25 -49.5q3 -31 -13 -51q18 -18 70 -18q93 0 143 110l80 201h-45l-399 936h-193l-2 129h516v-129h-151l327 -813l326 813h-162v129h523z" />
    <glyph glyph-name="z" unicode="z" horiz-adv-x="1140" 
d="M922 268h137v-268h-975l-2 82l764 850h-615v-148h-137v281h938v-119l-731 -815l621 2v135z" />
    <glyph glyph-name="braceleft" unicode="{" horiz-adv-x="636" 
d="M354 881q0 -85 -34.5 -133.5t-77.5 -59.5q43 -9 77.5 -53.5t34.5 -126.5l2 -383q0 -60 16 -103t44.5 -65t59.5 -31.5t69 -9.5v-133q-322 0 -324 315l-2 406q0 33 -7.5 56.5t-18.5 36t-29 19.5t-33.5 9t-36.5 2v125q22 0 37 2t33 9.5t29 21.5t18.5 39t7.5 61l2 413
q0 306 324 297v-131q-101 3 -144 -43.5t-45 -150.5z" />
    <glyph glyph-name="bar" unicode="|" horiz-adv-x="573" 
d="M223 0l-2 1495h129v-1495h-127z" />
    <glyph glyph-name="braceright" unicode="}" horiz-adv-x="636" 
d="M281 1270q-2 104 -45 150.5t-144 43.5v131q324 9 324 -297l2 -413q0 -36 7.5 -61t18.5 -39t29 -21.5t33 -9.5t37 -2v-125q-21 0 -36.5 -2t-33.5 -9t-29 -19.5t-18.5 -36t-7.5 -56.5l-2 -406q-2 -315 -324 -315v133q38 0 69 9.5t59.5 31.5t44.5 65t16 103l2 383
q0 82 34.5 126.5t77.5 53.5q-43 11 -77.5 59.5t-34.5 133.5z" />
    <glyph glyph-name="asciitilde" unicode="~" horiz-adv-x="1136" 
d="M981 649q-11 -92 -74 -148t-157 -55q-52 1 -104.5 16t-88 32.5t-78.5 32.5t-80 16q-112 3 -135 -101l-106 23q7 95 64.5 152t144.5 57q47 -1 99.5 -17.5t91 -35t86.5 -34t87 -16.5q52 0 92 24t54 75z" />
    <glyph glyph-name="uni00A0" unicode="&#xa0;" horiz-adv-x="557" 
 />
    <glyph glyph-name="exclamdown" unicode="&#xa1;" horiz-adv-x="557" 
d="M395 1049q0 -47 -35 -81t-84 -34q-47 0 -81.5 34t-34.5 81q0 51 34 85.5t82 34.5q50 0 84.5 -34.5t34.5 -85.5zM356 -449h-157l24 1229h109z" />
    <glyph glyph-name="cent" unicode="&#xa2;" horiz-adv-x="1243" 
d="M950 762q0 49 37 67q-3 26 -19 54t-44.5 57.5t-78.5 52.5t-112 33l-82 -829q131 0 219 51.5t123 152.5h142q-38 -148 -162 -244t-324 -96h-10l-21 -211l-108 9l20 213q-194 37 -310 185t-116 361q0 239 146 391t387 158l25 246l108 -8l-25 -244q102 -13 181.5 -53
t125.5 -96t67 -118t16 -124q-3 -39 -29 -65.5t-68 -26.5q-36 0 -62 23t-26 61zM260 616q0 -159 77 -266.5t208 -140.5l80 823q-161 -8 -263 -121t-102 -295z" />
    <glyph glyph-name="sterling" unicode="&#xa3;" horiz-adv-x="1372" 
d="M1278 233q10 -58 -5 -111t-53.5 -95.5t-109 -67.5t-164.5 -25q-80 0 -157 15.5t-130.5 33.5t-135.5 31.5t-173 10.5q-22 -40 -59 -59t-71 -15.5t-60.5 25t-30.5 55.5q-7 61 35 95t115 34h20q83 135 76 246h-273v104h250q-5 16 -35 89.5t-43.5 130t-13.5 124.5
q0 205 122.5 331t350.5 126h2q114 0 203.5 -35.5t144 -96t77.5 -141t11 -170.5q-8 -48 -36 -75t-72 -27q-43 0 -70.5 28t-27.5 66q0 66 51 82q11 98 -64 163.5t-219 65.5q-156 0 -234.5 -88.5t-78.5 -234.5q0 -64 12.5 -120.5t38 -127t31.5 -90.5h450v-104h-434
q3 -112 -82 -250q94 -6 244.5 -40t251.5 -34q119 0 178 39.5t59 111.5h109z" />
    <glyph glyph-name="currency" unicode="&#xa4;" horiz-adv-x="1406" 
d="M1241 635q0 -207 -129 -342l141 -119l-65 -80l-154 129q-140 -94 -321 -94h-2q-196 0 -332 102l-162 -137l-65 80l147 129q-117 139 -117 332q0 186 117 319l-147 125l65 80l160 -135q143 100 334 100h2q181 0 323 -92l152 127l65 -80l-137 -116q125 -131 125 -328z
M713 264q166 0 269 102t103 265q0 160 -103 259t-269 99q-167 0 -272 -99t-105 -259q0 -163 105 -265t272 -102z" />
    <glyph glyph-name="yen" unicode="&#xa5;" horiz-adv-x="1492" 
d="M1413 1149h-205l-299 -492h265v-104h-328l-21 -33v-80h295v-104h-295v-207h213v-129h-585v129h213v207h-316v104h316v80l-21 33h-348v104h281l-314 492h-184v129h524v-129h-166l295 -492h33l283 492h-172v129h536v-129z" />
    <glyph glyph-name="brokenbar" unicode="&#xa6;" horiz-adv-x="569" 
d="M221 879v616h129v-616h-129zM350 618v-618h-127l-2 618h129z" />
    <glyph glyph-name="section" unicode="&#xa7;" horiz-adv-x="1366" 
d="M1075 457q0 63 -31.5 105.5t-85.5 65t-123.5 36t-146.5 23.5t-154 23t-146.5 39.5t-123.5 67.5t-85.5 112.5t-31.5 168.5q0 168 142 280.5t383 112.5q153 0 275.5 -47.5t192.5 -141.5t60 -217q-5 -44 -33 -72t-73 -28q-42 0 -70.5 28t-28.5 68q0 24 12.5 45.5t34.5 28.5
q-15 86 -117 140.5t-253 54.5q-174 0 -268.5 -70.5t-94.5 -177.5q0 -74 31.5 -125t84.5 -77.5t122 -42.5t145.5 -26t153 -22.5t145.5 -38.5t122 -66.5t84.5 -113.5t31.5 -174zM324 631q0 -68 32 -114.5t85.5 -71t123 -40t147 -26t154.5 -23t146.5 -38t123 -64.5t85.5 -108
t32 -164q0 -169 -154 -276t-419 -107q-277 0 -425 105.5t-142 293.5q2 43 30.5 74.5t73.5 31.5t72.5 -27.5t27.5 -68.5q0 -24 -12 -46t-33 -32q18 -79 131 -135.5t277 -56.5q192 0 302 66.5t110 177.5q0 71 -31.5 118.5t-85 71.5t-123 38t-146 24t-153 22.5t-146 40.5
t-123 71t-85 120.5t-31.5 183.5z" />
    <glyph glyph-name="dieresis" unicode="&#xa8;" horiz-adv-x="1228" 
d="M229 1298q-44 0 -76 33.5t-32 79.5q0 43 32 75t76 32q45 0 78 -32t33 -75q0 -46 -32.5 -79.5t-78.5 -33.5zM606 1298q-44 0 -76 33.5t-32 79.5q0 43 32 75t76 32q45 0 78 -32t33 -75q0 -46 -32.5 -79.5t-78.5 -33.5z" />
    <glyph glyph-name="copyright" unicode="&#xa9;" horiz-adv-x="1867" 
d="M936 1530q168 0 321 -66t264 -177t176.5 -264t65.5 -321t-65.5 -321.5t-176 -264.5t-264 -177t-321.5 -66t-322 66t-265 177t-177 264.5t-66 321.5t66 321.5t177 264.5t265 176.5t322 65.5zM936 0q143 0 272 55.5t222.5 150t148.5 224t55 272.5q0 190 -93 351.5
t-254 255.5t-351 94t-351.5 -94t-255 -255.5t-93.5 -351.5q0 -143 55 -273t148.5 -224t223.5 -149.5t273 -55.5zM954 377q101 0 174.5 47.5t90.5 124.5h127q-19 -124 -125.5 -206.5t-266.5 -82.5q-201 0 -323.5 121.5t-122.5 320.5q0 197 121.5 317t322.5 120
q99 0 179.5 -31.5t127 -81.5t68.5 -109t14 -116q-6 -35 -29.5 -56.5t-58.5 -21.5t-61 25t-25 63q2 22 13 40t32 21q-7 52 -79.5 101t-180.5 49q-142 0 -227.5 -88.5t-85.5 -233.5q0 -148 85 -235.5t230 -87.5z" />
    <glyph glyph-name="ordfeminine" unicode="&#xaa;" horiz-adv-x="1015" 
d="M803 936h94v-102h-213v81q-88 -94 -240 -94q-157 0 -247.5 94t-90.5 259q0 154 91.5 248t244.5 94q147 0 236 -86v75h125v-569zM459 952q80 0 137 37.5t76 100.5v167q-15 54 -76.5 90.5t-136.5 36.5q-96 0 -152.5 -57.5t-56.5 -155.5q0 -102 60 -160.5t149 -58.5z" />
    <glyph glyph-name="guillemotleft" unicode="&#xab;" horiz-adv-x="1392" 
d="M82 498v120l551 330v-151l-430 -236l430 -229v-152zM1245 948v-151l-430 -236l430 -229v-152l-551 318v120z" />
    <glyph glyph-name="registered" unicode="&#xae;" horiz-adv-x="1867" 
d="M936 1530q168 0 321 -66t264 -177t176.5 -264t65.5 -321t-65.5 -321.5t-176 -264.5t-264 -177t-321.5 -66t-322 66t-265 177t-177 264.5t-66 321.5t66 321.5t177 264.5t265 176.5t322 65.5zM936 -4q143 0 273 56t224 150.5t149.5 225.5t55.5 274t-55.5 273.5t-149.5 225
t-224 150.5t-273 56q-191 0 -354 -94.5t-258 -257t-95 -353.5q0 -144 56 -275t150.5 -225t225.5 -150t275 -56zM1075 623l139 -197h123v-98h-190l-201 286h-164v-188h119v-98h-340v100h105v606h-103v105h424q149 0 237.5 -70t88.5 -188q0 -99 -64.5 -168.5t-173.5 -89.5z
M782 1032v-315h201q94 0 149.5 44t55.5 120q0 74 -54.5 112.5t-150.5 38.5h-201z" />
    <glyph glyph-name="macron" unicode="&#xaf;" horiz-adv-x="1228" 
d="M324 1417h634v-125h-634v125z" />
    <glyph glyph-name="degree" unicode="&#xb0;" horiz-adv-x="886" 
d="M444 831q-153 0 -248.5 95t-95.5 250q0 153 95.5 246.5t248.5 93.5q151 0 245.5 -93.5t94.5 -246.5q0 -155 -94.5 -250t-245.5 -95zM444 942q97 0 160.5 65t63.5 169q0 103 -63 167t-161 64q-100 0 -163.5 -63.5t-63.5 -167.5t63.5 -169t163.5 -65z" />
    <glyph glyph-name="plusminus" unicode="&#xb1;" horiz-adv-x="1091" 
d="M489 287v340h-337v112h335v338l117 2v-340h338v-112h-338v-340h-115zM139 109h813v-109h-813v109z" />
    <glyph glyph-name="acute" unicode="&#xb4;" horiz-adv-x="1228" 
d="M817 1556l80 -149l-434 -211l-53 90z" />
    <glyph glyph-name="paragraph" unicode="&#xb6;" horiz-adv-x="1531" 
d="M1434 1495v-145h-193v-1231q0 -129 -37 -231t-101 -166t-147 -97t-178 -33q-66 0 -122 10.5t-94 28.5t-69 41.5t-47 49t-27.5 51.5t-11 49.5t2.5 42.5q18 76 106 76q38 0 64.5 -27.5t28 -62t-18.5 -66.5q70 -57 190 -57q138 0 222.5 100.5t84.5 282.5v1239h-172v-1383
l-147 -2v563h-123q-273 0 -422 135.5t-149 358.5q0 213 149 343t422 130h789z" />
    <glyph glyph-name="periodcentered" unicode="&#xb7;" horiz-adv-x="512" 
d="M256 524q-48 0 -82.5 35t-34.5 86q0 47 35 81t82 34q49 0 84 -34t35 -81q0 -51 -34.5 -86t-84.5 -35z" />
    <glyph glyph-name="cedilla" unicode="&#xb8;" horiz-adv-x="1228" 
d="M496 -178l12 184h123v-92q87 0 141.5 -44.5t54.5 -129.5q0 -87 -67.5 -139t-169.5 -52q-132 0 -203 68l43 76q66 -47 148 -47q57 0 89.5 24.5t32.5 67.5t-29.5 62.5t-90.5 21.5h-84z" />
    <glyph glyph-name="ordmasculine" unicode="&#xba;" horiz-adv-x="919" 
d="M459 1516q160 0 258 -95t98 -250q0 -158 -98 -254t-258 -96t-257.5 96t-97.5 254q0 155 97.5 250t257.5 95zM459 954q98 0 155.5 59t57.5 156t-57.5 156t-155.5 59q-96 0 -153.5 -59t-57.5 -156t57.5 -156t153.5 -59z" />
    <glyph glyph-name="guillemotright" unicode="&#xbb;" horiz-adv-x="1392" 
d="M147 797v151l551 -330v-120l-551 -318v152l431 229zM760 948l551 -330v-120l-551 -318v152l430 229l-430 236v151z" />
    <glyph glyph-name="onequarter" unicode="&#xbc;" horiz-adv-x="1880" 
d="M696 772h-573v102h231v496l-221 -43l-6 107l281 61h69v-621h219v-102zM1366 1249l76 -65l-938 -996l-78 72zM1808 260v-102h-176v-158h-125v158h-413v71q120 138 174.5 255t58.5 255h123q-4 -131 -51 -242t-146 -237h254v227h125v-227h176z" />
    <glyph glyph-name="onehalf" unicode="&#xbd;" horiz-adv-x="1804" 
d="M106 772v102h232v496l-221 -43l-6 107l280 61h70v-621h217v-102h-572zM1346 1243l75 -67l-936 -996l-79 74zM1618 199h98v-199h-602l2 74l303 260q9 8 28 24.5t26 22.5t22 19.5t20.5 20t16 18t14.5 18.5t10.5 18t8.5 19.5t4 19.5t2 23q0 104 -158 104q-71 0 -119 -23
t-51 -57q25 -18 25 -49q0 -25 -19 -43t-49 -18q-29 0 -47 19t-20 48q-6 69 32.5 121t103.5 78t144 26q127 0 203 -57t76 -151q0 -30 -10 -59t-22.5 -50t-39 -48.5t-45 -44t-55.5 -47.5q-13 -11 -19 -16l-198 -168h315v97z" />
    <glyph glyph-name="threequarters" unicode="&#xbe;" horiz-adv-x="1869" 
d="M729 950q0 -101 -88 -161t-244 -60q-151 0 -226.5 59.5t-70.5 153.5q2 28 19.5 45t46.5 17q28 0 43.5 -16t15.5 -40q0 -33 -26 -45q42 -69 198 -72q106 0 159.5 34t51.5 96q-1 62 -53.5 90t-157.5 28h-90v95h90q88 0 138.5 34.5t50.5 94.5q0 53 -47 81.5t-133 28.5
q-73 0 -122 -21t-57 -51q13 -3 21 -15.5t8 -27.5q0 -24 -16 -41.5t-45 -17.5q-27 0 -47 18.5t-23 51.5q-9 95 73.5 151t207.5 56q139 -2 217 -56.5t77 -152.5q-1 -55 -36 -100.5t-97 -73.5q162 -49 162 -183zM1366 1249l76 -65l-938 -996l-78 72zM1796 260v-102h-178v-158
h-125v158h-412v71q222 251 230 510h123q-4 -127 -51 -241.5t-144 -237.5h254v227h125v-227h178z" />
    <glyph glyph-name="questiondown" unicode="&#xbf;" horiz-adv-x="1210" 
d="M627 854q-49 0 -84 34t-35 81q0 51 34.5 86t84.5 35q48 0 82 -35t34 -86q0 -47 -34.5 -81t-81.5 -34zM1145 -20q15 -185 -131 -305.5t-387 -120.5q-258 0 -395.5 119.5t-137.5 324.5q0 190 122.5 325t336.5 156l20 238h111l21 -352h-56q-105 0 -183 -28.5t-122.5 -79
t-66 -113t-21.5 -136.5q0 -145 96 -230t273 -85q154 0 252.5 66.5t111.5 152.5q-22 7 -35.5 29t-13.5 45q0 41 27 69.5t69 28.5q45 0 74.5 -29.5t34.5 -74.5z" />
    <glyph glyph-name="Agrave" unicode="&#xc0;" horiz-adv-x="1695" 
d="M1071 1694l-51 -86l-428 223l78 143zM1509 129h201v-129h-575v129h206l-108 285h-762l-119 -285h207v-129h-551v129h187l514 1227h-299v139h561zM526 547h656l-316 817z" />
    <glyph glyph-name="Aacute" unicode="&#xc1;" horiz-adv-x="1695" 
d="M1147 1831l-422 -236l-59 88l393 291zM1509 129h201v-129h-575v129h206l-108 285h-762l-119 -285h207v-129h-551v129h187l514 1227h-299v139h561zM526 547h656l-316 817z" />
    <glyph glyph-name="Acircumflex" unicode="&#xc2;" horiz-adv-x="1695" 
d="M834 1780l-312 -150l-47 86l359 213l368 -213l-47 -86zM1509 129h201v-129h-575v129h206l-108 285h-762l-119 -285h207v-129h-551v129h187l514 1227h-299v139h561zM526 547h656l-316 817z" />
    <glyph glyph-name="Atilde" unicode="&#xc3;" horiz-adv-x="1695" 
d="M717 1780q-81 0 -105 -78l-110 27q10 93 59.5 137.5t126.5 44.5q48 0 102 -23.5t102 -47t81 -23.5q39 0 64.5 16.5t39.5 58.5l109 -22q-9 -89 -61.5 -136.5t-135.5 -45.5q-42 0 -83.5 14.5t-69 31.5t-60 31.5t-59.5 14.5zM1509 129h201v-129h-575v129h206l-108 285h-762
l-119 -285h207v-129h-551v129h187l514 1227h-299v139h561zM526 547h656l-316 817z" />
    <glyph glyph-name="Adieresis" unicode="&#xc4;" horiz-adv-x="1695" 
d="M651 1667q-44 0 -76 33.5t-32 79.5q0 43 32 74.5t76 31.5q46 0 78.5 -31.5t32.5 -74.5q0 -46 -32.5 -79.5t-78.5 -33.5zM1028 1667q-44 0 -76 33.5t-32 79.5q0 43 32 74.5t76 31.5q46 0 78.5 -31.5t32.5 -74.5q0 -46 -32.5 -79.5t-78.5 -33.5zM1509 129h201v-129h-575
v129h206l-108 285h-762l-119 -285h207v-129h-551v129h187l514 1227h-299v139h561zM526 547h656l-316 817z" />
    <glyph glyph-name="Aring" unicode="&#xc5;" horiz-adv-x="1695" 
d="M838 1624q-103 0 -165.5 57.5t-62.5 151.5t62.5 151.5t165.5 57.5t165 -57.5t62 -151.5t-62 -151.5t-165 -57.5zM838 1937q-46 0 -75.5 -28.5t-29.5 -75.5q0 -44 29.5 -72t75.5 -28q47 0 76 28t28 72q1 47 -27.5 75.5t-76.5 28.5zM1509 129h201v-129h-575v129h206
l-108 285h-762l-119 -285h207v-129h-551v129h187l514 1227h-299v139h561zM526 547h656l-316 817z" />
    <glyph glyph-name="AE" unicode="&#xc6;" horiz-adv-x="2301" 
d="M2034 416h139v-416h-1233v129h219v291h-616l-191 -291h191v-129h-551v129h184l791 1227h-297v139h1501v-416h-139v283h-713v-561h600v-133h-600v-535h715v283zM627 551h532v817z" />
    <glyph glyph-name="Ccedilla" unicode="&#xc7;" horiz-adv-x="1675" 
d="M1571 477q-31 -219 -205.5 -353.5t-443.5 -143.5v-66q87 0 141.5 -44.5t54.5 -129.5q0 -87 -67.5 -139t-169.5 -52q-132 0 -203 68l43 76q66 -47 147 -47q57 0 90 24.5t33 67.5t-29.5 62.5t-91.5 21.5h-84l11 162q-150 15 -277.5 76.5t-218 160.5t-141.5 235.5t-51 295.5
q0 226 100 400.5t277.5 269t404.5 94.5q204 0 364 -79.5t242 -215t70 -297.5q-5 -49 -34 -79t-77 -30t-77 30.5t-29 72.5q0 67 51 88q5 148 -141.5 258t-368.5 110q-130 0 -243 -42.5t-197 -120.5t-132.5 -197.5t-48.5 -265.5t49.5 -266t134 -198t196 -120.5t237.5 -42.5
q209 0 350.5 91t177.5 265h156z" />
    <glyph glyph-name="Egrave" unicode="&#xc8;" horiz-adv-x="1472" 
d="M1030 1694l-51 -86l-428 223l78 143zM1204 416h139v-416h-1237v129h205v1237h-200v129h1228v-416h-139v283h-729v-553h614v-133h-614v-543h733v283z" />
    <glyph glyph-name="Eacute" unicode="&#xc9;" horiz-adv-x="1472" 
d="M1106 1831l-422 -236l-59 88l393 291zM1204 416h139v-416h-1237v129h205v1237h-200v129h1228v-416h-139v283h-729v-553h614v-133h-614v-543h733v283z" />
    <glyph glyph-name="Ecircumflex" unicode="&#xca;" horiz-adv-x="1472" 
d="M793 1780l-312 -150l-47 86l359 213l368 -213l-47 -86zM1204 416h139v-416h-1237v129h205v1237h-200v129h1228v-416h-139v283h-729v-553h614v-133h-614v-543h733v283z" />
    <glyph glyph-name="Edieresis" unicode="&#xcb;" horiz-adv-x="1472" 
d="M610 1667q-44 0 -76 33.5t-32 79.5q0 43 32 74.5t76 31.5q46 0 78.5 -31.5t32.5 -74.5q0 -46 -32.5 -79.5t-78.5 -33.5zM987 1667q-44 0 -76 33.5t-32 79.5q0 43 32 74.5t76 31.5q46 0 78.5 -31.5t32.5 -74.5q0 -46 -32.5 -79.5t-78.5 -33.5zM1204 416h139v-416h-1237
v129h205v1237h-200v129h1228v-416h-139v283h-729v-553h614v-133h-614v-543h733v283z" />
    <glyph glyph-name="Igrave" unicode="&#xcc;" horiz-adv-x="782" 
d="M621 1694l-52 -86l-428 223l78 143zM670 1366h-199v-1237h199v-129h-555v129h196v1237h-196v129h555v-129z" />
    <glyph glyph-name="Iacute" unicode="&#xcd;" horiz-adv-x="782" 
d="M696 1831l-422 -236l-59 88l393 291zM670 1495v-129h-199v-1237h199v-129h-555v129h196v1237h-196v129h555z" />
    <glyph glyph-name="Icircumflex" unicode="&#xce;" horiz-adv-x="782" 
d="M383 1929l369 -213l-47 -86l-322 150l-311 -150l-47 86zM670 1495v-129h-199v-1237h199v-129h-555v129h196v1237h-196v129h555z" />
    <glyph glyph-name="Idieresis" unicode="&#xcf;" horiz-adv-x="782" 
d="M201 1667q-44 0 -76.5 33.5t-32.5 79.5q0 43 32.5 74.5t76.5 31.5q45 0 77.5 -31.5t32.5 -74.5q0 -46 -32.5 -79.5t-77.5 -33.5zM578 1667q-44 0 -76.5 33.5t-32.5 79.5q0 43 32.5 74.5t76.5 31.5q45 0 77.5 -31.5t32.5 -74.5q0 -46 -32.5 -79.5t-77.5 -33.5zM670 1495
v-129h-199v-1237h199v-129h-555v129h196v1237h-196v129h555z" />
    <glyph glyph-name="Eth" unicode="&#xd0;" horiz-adv-x="1718" 
d="M848 1495q225 0 395.5 -86.5t266.5 -256t96 -400.5q0 -232 -96 -403.5t-266.5 -260t-395.5 -88.5h-742v129h205v571h-213v117h213v549h-200v129h737zM848 133q125 0 232.5 39t189 114t128 193.5t46.5 268.5t-46.5 269t-128 193.5t-188.5 113t-233 38.5h-377v-545h330
v-117h-330v-567h377z" />
    <glyph glyph-name="Ntilde" unicode="&#xd1;" horiz-adv-x="1878" 
d="M834 1780q-81 0 -105 -78l-111 27q10 93 60 137.5t127 44.5q48 0 102 -23.5t102 -47t81 -23.5q39 0 64.5 16.5t39.5 58.5l109 -22q-9 -89 -61.5 -136.5t-135.5 -45.5q-42 0 -83.5 14.5t-69 31.5t-60 31.5t-59.5 14.5zM1784 1495v-129h-193v-1366h-133l-991 1225v-1096
h209v-129h-570v129h205v1237h-200v129h335l990 -1235v1106h-205v129h553z" />
    <glyph glyph-name="Ograve" unicode="&#xd2;" horiz-adv-x="1777" 
d="M1120 1694l-51 -86l-428 223l78 143zM1667 752q0 -228 -95.5 -403t-272 -272t-408.5 -97h-2q-228 0 -405 96.5t-275 272.5t-98 403q0 226 97.5 400t274.5 269t406 95h2q232 0 408.5 -95.5t272 -268.5t95.5 -400zM891 121q176 0 314 73.5t219 217t81 336.5
q0 194 -81 337.5t-219 216t-314 72.5q-129 0 -241.5 -42.5t-196.5 -121t-132.5 -198t-48.5 -264.5t48.5 -264t132 -198t196.5 -122t242 -43z" />
    <glyph glyph-name="Oacute" unicode="&#xd3;" horiz-adv-x="1777" 
d="M1196 1831l-422 -236l-59 88l393 291zM1667 752q0 -228 -95.5 -403t-272 -272t-408.5 -97h-2q-228 0 -405 96.5t-275 272.5t-98 403q0 226 97.5 400t274.5 269t406 95h2q232 0 408.5 -95.5t272 -268.5t95.5 -400zM891 121q176 0 314 73.5t219 217t81 336.5
q0 194 -81 337.5t-219 216t-314 72.5q-129 0 -241.5 -42.5t-196.5 -121t-132.5 -198t-48.5 -264.5t48.5 -264t132 -198t196.5 -122t242 -43z" />
    <glyph glyph-name="Ocircumflex" unicode="&#xd4;" horiz-adv-x="1777" 
d="M883 1780l-312 -150l-47 86l359 213l368 -213l-47 -86zM1667 752q0 -228 -95.5 -403t-272 -272t-408.5 -97h-2q-228 0 -405 96.5t-275 272.5t-98 403q0 226 97.5 400t274.5 269t406 95h2q232 0 408.5 -95.5t272 -268.5t95.5 -400zM891 121q176 0 314 73.5t219 217
t81 336.5q0 194 -81 337.5t-219 216t-314 72.5q-129 0 -241.5 -42.5t-196.5 -121t-132.5 -198t-48.5 -264.5t48.5 -264t132 -198t196.5 -122t242 -43z" />
    <glyph glyph-name="Otilde" unicode="&#xd5;" horiz-adv-x="1777" 
d="M766 1780q-80 0 -104 -78l-111 27q10 93 59.5 137.5t126.5 44.5q48 0 102 -23.5t102 -47t81 -23.5q39 0 64.5 16.5t39.5 58.5l109 -22q-9 -89 -61.5 -136.5t-135.5 -45.5q-42 0 -83.5 14.5t-69 31.5t-60 31.5t-59.5 14.5zM1667 752q0 -228 -95.5 -403t-272 -272
t-408.5 -97h-2q-228 0 -405 96.5t-275 272.5t-98 403q0 226 97.5 400t274.5 269t406 95h2q232 0 408.5 -95.5t272 -268.5t95.5 -400zM891 121q176 0 314 73.5t219 217t81 336.5q0 194 -81 337.5t-219 216t-314 72.5q-129 0 -241.5 -42.5t-196.5 -121t-132.5 -198
t-48.5 -264.5t48.5 -264t132 -198t196.5 -122t242 -43z" />
    <glyph glyph-name="Odieresis" unicode="&#xd6;" horiz-adv-x="1777" 
d="M700 1667q-44 0 -76 33.5t-32 79.5q0 43 32 74.5t76 31.5q46 0 78.5 -31.5t32.5 -74.5q0 -46 -32.5 -79.5t-78.5 -33.5zM1077 1667q-44 0 -76 33.5t-32 79.5q0 43 32 74.5t76 31.5q46 0 78.5 -31.5t32.5 -74.5q0 -46 -32.5 -79.5t-78.5 -33.5zM1667 752
q0 -228 -95.5 -403t-272 -272t-408.5 -97h-2q-228 0 -405 96.5t-275 272.5t-98 403q0 226 97.5 400t274.5 269t406 95h2q232 0 408.5 -95.5t272 -268.5t95.5 -400zM891 121q176 0 314 73.5t219 217t81 336.5q0 194 -81 337.5t-219 216t-314 72.5q-129 0 -241.5 -42.5
t-196.5 -121t-132.5 -198t-48.5 -264.5t48.5 -264t132 -198t196.5 -122t242 -43z" />
    <glyph glyph-name="multiply" unicode="&#xd7;" horiz-adv-x="974" 
d="M829 827l-260 -260l260 -260l-81 -82l-261 260l-258 -260l-84 82l261 260l-261 260l84 82l258 -258l258 258z" />
    <glyph glyph-name="Oslash" unicode="&#xd8;" horiz-adv-x="1777" 
d="M1667 752q0 -228 -95.5 -403t-272 -272t-408.5 -97h-2q-270 0 -463 133l-113 -140l-108 78l119 146q-102 102 -157.5 244.5t-55.5 310.5q0 226 97.5 400t274.5 269t406 95h2q239 0 422 -103l100 123l111 -76l-103 -125q118 -102 182 -251.5t64 -331.5zM272 748
q0 -262 150 -431l795 977q-147 80 -326 80q-129 0 -241.5 -42.5t-196.5 -121t-132.5 -198t-48.5 -264.5zM891 121q176 0 314 73.5t219 217t81 336.5q0 298 -182 466l-801 -985q153 -108 369 -108z" />
    <glyph glyph-name="Ugrave" unicode="&#xd9;" horiz-adv-x="1775" 
d="M1128 1694l-51 -86l-428 223l78 143zM1694 1495v-129h-193v-748q0 -162 -44 -285.5t-125.5 -200t-192 -114.5t-248.5 -38q-136 0 -246.5 38t-193 114.5t-127.5 200t-45 285.5v748h-201v129h553v-129h-193v-748q0 -110 24.5 -196.5t66 -141.5t100.5 -90.5t123 -50
t139 -14.5q97 0 175 24.5t141.5 79t98.5 153.5t35 236v748h-200v129h553z" />
    <glyph glyph-name="Uacute" unicode="&#xda;" horiz-adv-x="1775" 
d="M1204 1831l-422 -236l-59 88l393 291zM1694 1495v-129h-193v-748q0 -162 -44 -285.5t-125.5 -200t-192 -114.5t-248.5 -38q-136 0 -246.5 38t-193 114.5t-127.5 200t-45 285.5v748h-201v129h553v-129h-193v-748q0 -110 24.5 -196.5t66 -141.5t100.5 -90.5t123 -50
t139 -14.5q97 0 175 24.5t141.5 79t98.5 153.5t35 236v748h-200v129h553z" />
    <glyph glyph-name="Ucircumflex" unicode="&#xdb;" horiz-adv-x="1775" 
d="M891 1780l-311 -150l-48 86l359 213l369 -213l-48 -86zM1694 1495v-129h-193v-748q0 -162 -44 -285.5t-125.5 -200t-192 -114.5t-248.5 -38q-136 0 -246.5 38t-193 114.5t-127.5 200t-45 285.5v748h-201v129h553v-129h-193v-748q0 -110 24.5 -196.5t66 -141.5
t100.5 -90.5t123 -50t139 -14.5q97 0 175 24.5t141.5 79t98.5 153.5t35 236v748h-200v129h553z" />
    <glyph glyph-name="Udieresis" unicode="&#xdc;" horiz-adv-x="1775" 
d="M709 1667q-44 0 -76.5 33.5t-32.5 79.5q0 43 32.5 74.5t76.5 31.5q45 0 77.5 -31.5t32.5 -74.5q0 -46 -32.5 -79.5t-77.5 -33.5zM1085 1667q-44 0 -76 33.5t-32 79.5q0 43 32 74.5t76 31.5q46 0 78.5 -31.5t32.5 -74.5q0 -46 -32.5 -79.5t-78.5 -33.5zM1694 1495v-129
h-193v-748q0 -162 -44 -285.5t-125.5 -200t-192 -114.5t-248.5 -38q-136 0 -246.5 38t-193 114.5t-127.5 200t-45 285.5v748h-201v129h553v-129h-193v-748q0 -110 24.5 -196.5t66 -141.5t100.5 -90.5t123 -50t139 -14.5q97 0 175 24.5t141.5 79t98.5 153.5t35 236v748h-200
v129h553z" />
    <glyph glyph-name="Yacute" unicode="&#xdd;" horiz-adv-x="1536" 
d="M1094 1831l-422 -236l-60 88l394 291zM1311 1366l-455 -797v-440h213v-129h-586v129h213v440l-495 797h-185v129h533v-129h-172l405 -682l373 682h-186v129h547v-129h-205z" />
    <glyph glyph-name="Thorn" unicode="&#xde;" horiz-adv-x="1443" 
d="M823 1204q254 0 401.5 -120t147.5 -336t-148 -336.5t-401 -120.5h-352v-162h246v-129h-611v129h205v1237h-200v129h606v-129h-246v-162h352zM825 424q181 0 282 84t101 240t-101 239.5t-282 83.5h-354v-647h354z" />
    <glyph glyph-name="germandbls" unicode="&#xdf;" horiz-adv-x="1431" 
d="M913 879q0 -51 24 -90.5t62 -67t84 -53.5t92.5 -57t84.5 -69t62 -99.5t24 -139.5q0 -146 -104 -234.5t-269 -88.5q-161 0 -264 75.5t-111 192.5q-3 48 23 78t67 30q35 0 61.5 -24t26.5 -58q0 -37 -24 -61q54 -109 225 -109q90 0 153.5 55.5t63.5 143.5q0 60 -23.5 108
t-61 80t-82.5 60t-90 57.5t-82.5 64t-61 87t-23.5 119.5q0 109 64 180.5t180 99.5q-5 131 -79.5 212t-211.5 81q-127 0 -207 -73.5t-80 -194.5v-1184h-344v129h191v801h-209v135h209v119q0 183 121 292t319 109q205 1 321.5 -116t116.5 -293v-117q-112 -2 -180 -49.5
t-68 -130.5z" />
    <glyph glyph-name="agrave" unicode="&#xe0;" horiz-adv-x="1394" 
d="M905 1282l-49 -88l-432 213l74 145zM1157 129h172v-129h-313v156q-139 -176 -391 -176q-236 0 -381.5 153.5t-145.5 403.5q0 247 142.5 397.5t375.5 150.5q253 0 390 -172v152h151v-936zM635 115q132 0 227 58.5t135 162.5v371q-38 115 -131.5 179t-224.5 64
q-174 0 -280.5 -114t-106.5 -301q0 -189 104.5 -304.5t276.5 -115.5z" />
    <glyph glyph-name="aacute" unicode="&#xe1;" horiz-adv-x="1394" 
d="M961 1407l-435 -211l-53 90l408 270zM1157 129h172v-129h-313v156q-139 -176 -391 -176q-236 0 -381.5 153.5t-145.5 403.5q0 247 142.5 397.5t375.5 150.5q253 0 390 -172v152h151v-936zM635 115q132 0 227 58.5t135 162.5v371q-38 115 -131.5 179t-224.5 64
q-174 0 -280.5 -114t-106.5 -301q0 -189 104.5 -304.5t276.5 -115.5z" />
    <glyph glyph-name="acircumflex" unicode="&#xe2;" horiz-adv-x="1394" 
d="M662 1384l-312 -149l-47 86l359 213l368 -213l-47 -86zM1157 129h172v-129h-313v156q-139 -176 -391 -176q-236 0 -381.5 153.5t-145.5 403.5q0 247 142.5 397.5t375.5 150.5q253 0 390 -172v152h151v-936zM635 115q132 0 227 58.5t135 162.5v371q-38 115 -131.5 179
t-224.5 64q-174 0 -280.5 -114t-106.5 -301q0 -189 104.5 -304.5t276.5 -115.5z" />
    <glyph glyph-name="atilde" unicode="&#xe3;" horiz-adv-x="1394" 
d="M528 1368q-80 0 -104 -78l-111 27q10 93 60 137.5t127 44.5q48 0 101.5 -23.5t101.5 -47t81 -23.5q39 0 65 17t40 59l108 -23q-9 -89 -61 -136.5t-135 -45.5q-53 0 -104 23t-93.5 46t-75.5 23zM1157 129h172v-129h-313v156q-139 -176 -391 -176q-236 0 -381.5 153.5
t-145.5 403.5q0 247 142.5 397.5t375.5 150.5q253 0 390 -172v152h151v-936zM635 115q132 0 227 58.5t135 162.5v371q-38 115 -131.5 179t-224.5 64q-174 0 -280.5 -114t-106.5 -301q0 -189 104.5 -304.5t276.5 -115.5z" />
    <glyph glyph-name="adieresis" unicode="&#xe4;" horiz-adv-x="1394" 
d="M475 1298q-44 0 -76 33.5t-32 79.5q0 43 32 75t76 32q45 0 78 -32t33 -75q0 -46 -32.5 -79.5t-78.5 -33.5zM852 1298q-44 0 -76.5 33.5t-32.5 79.5q0 43 32.5 75t76.5 32q45 0 78 -32t33 -75q0 -46 -32.5 -79.5t-78.5 -33.5zM1157 129h172v-129h-313v156
q-139 -176 -391 -176q-236 0 -381.5 153.5t-145.5 403.5q0 247 142.5 397.5t375.5 150.5q253 0 390 -172v152h151v-936zM635 115q132 0 227 58.5t135 162.5v371q-38 115 -131.5 179t-224.5 64q-174 0 -280.5 -114t-106.5 -301q0 -189 104.5 -304.5t276.5 -115.5z" />
    <glyph glyph-name="aring" unicode="&#xe5;" horiz-adv-x="1394" 
d="M662 1198q-103 0 -165.5 57.5t-62.5 151.5t62.5 151.5t165.5 57.5t165 -57.5t62 -151.5t-62 -151.5t-165 -57.5zM662 1511q-46 0 -75.5 -28.5t-29.5 -75.5q0 -44 29.5 -72t75.5 -28q47 0 76 28t28 72q1 47 -27.5 75.5t-76.5 28.5zM1157 129h172v-129h-313v156
q-139 -176 -391 -176q-236 0 -381.5 153.5t-145.5 403.5q0 247 142.5 397.5t375.5 150.5q253 0 390 -172v152h151v-936zM635 115q132 0 227 58.5t135 162.5v371q-38 115 -131.5 179t-224.5 64q-174 0 -280.5 -114t-106.5 -301q0 -189 104.5 -304.5t276.5 -115.5z" />
    <glyph glyph-name="ae" unicode="&#xe6;" horiz-adv-x="1972" 
d="M1399 1085q99 0 190 -38.5t161.5 -109.5t106.5 -184.5t21 -250.5l-14 -15h-135l-689 2q10 -173 106 -273.5t247 -100.5q106 0 186.5 41.5t118.5 119.5h149q-40 -130 -161 -213t-293 -83q-150 0 -262.5 65t-176.5 184q-59 -119 -180 -184t-289 -65q-180 0 -283.5 83.5
t-103.5 221.5q0 154 120 240.5t337 86.5h328q-2 156 -88 247t-242 91q-68 0 -121 -17t-82.5 -43t-44.5 -47.5t-22 -41.5q23 -15 20 -51q-5 -28 -26 -47t-54 -19q-36 0 -59.5 24t-26.5 56q-6 57 17 112.5t72 103t134.5 76.5t192.5 29q151 0 258 -58t164 -163
q68 104 178.5 162.5t245.5 58.5zM1399 954q-133 0 -232.5 -93.5t-122.5 -244.5h691q-7 83 -38.5 149t-79 106.5t-103.5 61.5t-115 21zM528 115q140 0 237 70t118 196v102h-340q-145 0 -215 -45t-70 -143q0 -83 71.5 -131.5t198.5 -48.5z" />
    <glyph glyph-name="ccedilla" unicode="&#xe7;" horiz-adv-x="1196" 
d="M1104 319q-38 -141 -150 -235.5t-286 -103.5v-66q87 0 141.5 -44.5t54.5 -129.5q0 -87 -67.5 -139t-169.5 -52q-132 0 -203 68l43 76q66 -47 147 -47q57 0 90 24.5t33 67.5t-29.5 62.5t-91.5 21.5h-84l11 164q-204 31 -326.5 181t-122.5 370q0 244 150.5 396t398.5 152
q114 0 208 -37.5t149.5 -96.5t82.5 -128t19 -135q-5 -39 -29 -65.5t-63 -26.5t-65.5 25t-26.5 61q0 55 38 72q-5 29 -25 60t-56 63t-98.5 52.5t-139.5 20.5q-170 0 -278.5 -113.5t-108.5 -301.5q0 -191 108.5 -305.5t282.5 -114.5q117 0 201.5 52t118.5 152h143z" />
    <glyph glyph-name="egrave" unicode="&#xe8;" horiz-adv-x="1208" 
d="M848 1282l-49 -88l-432 213l73 145zM625 1085q104 0 197.5 -39t164.5 -111t106 -186t19 -253l-12 -15h-142l-704 2q14 -172 113.5 -271t259.5 -99q235 0 309 166h154q-39 -135 -162 -217t-301 -82q-245 0 -388 154t-143 403q0 242 148 395t381 153zM625 954
q-140 0 -243 -94t-124 -250h707q-11 164 -108 254t-232 90z" />
    <glyph glyph-name="eacute" unicode="&#xe9;" horiz-adv-x="1208" 
d="M903 1407l-434 -211l-53 90l407 270zM625 1085q104 0 197.5 -39t164.5 -111t106 -186t19 -253l-12 -15h-142l-704 2q14 -172 113.5 -271t259.5 -99q235 0 309 166h154q-39 -135 -162 -217t-301 -82q-245 0 -388 154t-143 403q0 242 148 395t381 153zM625 954
q-140 0 -243 -94t-124 -250h707q-11 164 -108 254t-232 90z" />
    <glyph glyph-name="ecircumflex" unicode="&#xea;" horiz-adv-x="1208" 
d="M604 1384l-311 -149l-47 86l358 213l369 -213l-47 -86zM625 1085q104 0 197.5 -39t164.5 -111t106 -186t19 -253l-12 -15h-142l-704 2q14 -172 113.5 -271t259.5 -99q235 0 309 166h154q-39 -135 -162 -217t-301 -82q-245 0 -388 154t-143 403q0 242 148 395t381 153z
M625 954q-140 0 -243 -94t-124 -250h707q-11 164 -108 254t-232 90z" />
    <glyph glyph-name="edieresis" unicode="&#xeb;" horiz-adv-x="1208" 
d="M418 1298q-44 0 -76.5 33.5t-32.5 79.5q0 43 32.5 75t76.5 32q45 0 77.5 -32t32.5 -75q0 -46 -32.5 -79.5t-77.5 -33.5zM795 1298q-44 0 -76.5 33.5t-32.5 79.5q0 43 32.5 75t76.5 32q45 0 77.5 -32t32.5 -75q0 -46 -32.5 -79.5t-77.5 -33.5zM625 1085q104 0 197.5 -39
t164.5 -111t106 -186t19 -253l-12 -15h-142l-704 2q14 -172 113.5 -271t259.5 -99q235 0 309 166h154q-39 -135 -162 -217t-301 -82q-245 0 -388 154t-143 403q0 242 148 395t381 153zM625 954q-140 0 -243 -94t-124 -250h707q-11 164 -108 254t-232 90z" />
    <glyph glyph-name="igrave" unicode="&#xec;" horiz-adv-x="686" 
d="M584 1282l-49 -88l-429 213l74 145zM438 129h191v-129h-549v129h205v807h-201v129h354v-936z" />
    <glyph glyph-name="iacute" unicode="&#xed;" horiz-adv-x="686" 
d="M629 1407l-416 -211l-51 90l391 270zM438 1065v-936h191v-129h-549v129h205v807h-201v129h354z" />
    <glyph glyph-name="icircumflex" unicode="&#xee;" horiz-adv-x="686" 
d="M342 1534l346 -213l-45 -86l-301 149l-293 -149l-45 86zM438 1065v-936h191v-129h-549v129h205v807h-201v129h354z" />
    <glyph glyph-name="idieresis" unicode="&#xef;" horiz-adv-x="686" 
d="M156 1298q-44 0 -76.5 33.5t-32.5 79.5q0 43 32.5 75t76.5 32q45 0 77.5 -32t32.5 -75q0 -46 -32.5 -79.5t-77.5 -33.5zM532 1298q-44 0 -76 33.5t-32 79.5q0 43 32 75t76 32q45 0 78 -32t33 -75q0 -46 -32.5 -79.5t-78.5 -33.5zM438 1065v-936h191v-129h-549v129h205
v807h-201v129h354z" />
    <glyph glyph-name="eth" unicode="&#xf0;" horiz-adv-x="1284" 
d="M901 1303q119 -134 184.5 -315.5t65.5 -397.5q0 -280 -144.5 -445t-381.5 -165t-382 150.5t-145 397.5q0 230 137 363t375 133q106 0 198 -41t159 -117q-57 215 -209 373l-387 -174l-49 102l344 154q-171 132 -385 147l32 127q287 -19 502 -206l223 98l47 -103zM995 541
v61q-42 136 -135.5 212.5t-224.5 76.5q-178 0 -279.5 -97.5t-101.5 -269.5q0 -184 102 -296.5t269 -112.5q164 0 267 115.5t103 310.5z" />
    <glyph glyph-name="ntilde" unicode="&#xf1;" horiz-adv-x="1488" 
d="M635 1368q-81 0 -105 -78l-110 27q10 93 59.5 137.5t126.5 44.5q48 0 102 -23.5t102 -47t81 -23.5q39 0 64.5 17t39.5 59l109 -23q-9 -89 -61.5 -136.5t-135.5 -45.5q-42 0 -83.5 14.5t-69 31.5t-60 31.5t-59.5 14.5zM1262 129h192v-129h-547v129h201v453
q0 180 -86.5 274t-235.5 94q-126 0 -220 -71t-128 -185v-565h189v-129h-547v129h205v807h-201v129h332v-180q133 200 395 200q206 0 328.5 -126t122.5 -345v-485z" />
    <glyph glyph-name="ograve" unicode="&#xf2;" horiz-adv-x="1300" 
d="M891 1282l-49 -88l-432 213l73 145zM1204 537q0 -248 -150 -402.5t-403 -154.5h-2q-253 0 -403 154.5t-150 402.5q0 245 149 396.5t404 151.5h2q253 0 403 -151.5t150 -396.5zM649 115q177 0 287.5 114.5t110.5 305.5q0 189 -110.5 302t-287.5 113t-287 -113t-110 -302
q0 -191 110 -305.5t287 -114.5z" />
    <glyph glyph-name="oacute" unicode="&#xf3;" horiz-adv-x="1300" 
d="M946 1407l-434 -211l-53 90l407 270zM1204 537q0 -248 -150 -402.5t-403 -154.5h-2q-253 0 -403 154.5t-150 402.5q0 245 149 396.5t404 151.5h2q253 0 403 -151.5t150 -396.5zM649 115q177 0 287.5 114.5t110.5 305.5q0 189 -110.5 302t-287.5 113t-287 -113t-110 -302
q0 -191 110 -305.5t287 -114.5z" />
    <glyph glyph-name="ocircumflex" unicode="&#xf4;" horiz-adv-x="1300" 
d="M647 1384l-311 -149l-47 86l358 213l369 -213l-47 -86zM1204 537q0 -248 -150 -402.5t-403 -154.5h-2q-253 0 -403 154.5t-150 402.5q0 245 149 396.5t404 151.5h2q253 0 403 -151.5t150 -396.5zM649 115q177 0 287.5 114.5t110.5 305.5q0 189 -110.5 302t-287.5 113
t-287 -113t-110 -302q0 -191 110 -305.5t287 -114.5z" />
    <glyph glyph-name="otilde" unicode="&#xf5;" horiz-adv-x="1300" 
d="M514 1368q-80 0 -104 -78l-111 27q10 93 59.5 137.5t126.5 44.5q48 0 102 -23.5t102 -47t81 -23.5q39 0 64.5 17t39.5 59l109 -23q-9 -89 -61.5 -136.5t-135.5 -45.5q-42 0 -83.5 14.5t-69 31.5t-60 31.5t-59.5 14.5zM1204 537q0 -248 -150 -402.5t-403 -154.5h-2
q-253 0 -403 154.5t-150 402.5q0 245 149 396.5t404 151.5h2q253 0 403 -151.5t150 -396.5zM649 115q177 0 287.5 114.5t110.5 305.5q0 189 -110.5 302t-287.5 113t-287 -113t-110 -302q0 -191 110 -305.5t287 -114.5z" />
    <glyph glyph-name="odieresis" unicode="&#xf6;" horiz-adv-x="1300" 
d="M461 1298q-44 0 -76.5 33.5t-32.5 79.5q0 43 32.5 75t76.5 32q45 0 77.5 -32t32.5 -75q0 -46 -32.5 -79.5t-77.5 -33.5zM838 1298q-44 0 -76.5 33.5t-32.5 79.5q0 43 32.5 75t76.5 32q45 0 77.5 -32t32.5 -75q0 -46 -32.5 -79.5t-77.5 -33.5zM1204 537
q0 -248 -150 -402.5t-403 -154.5h-2q-253 0 -403 154.5t-150 402.5q0 245 149 396.5t404 151.5h2q253 0 403 -151.5t150 -396.5zM649 115q177 0 287.5 114.5t110.5 305.5q0 189 -110.5 302t-287.5 113t-287 -113t-110 -302q0 -191 110 -305.5t287 -114.5z" />
    <glyph glyph-name="divide" unicode="&#xf7;" horiz-adv-x="1150" 
d="M575 778q-43 0 -73.5 31.5t-30.5 77.5q0 41 30.5 71.5t73.5 30.5q44 0 75.5 -30.5t31.5 -71.5q0 -46 -31.5 -77.5t-75.5 -31.5zM1014 596v-123h-877v123h877zM578 59q-44 0 -75.5 32.5t-31.5 76.5q0 42 31.5 73t75.5 31q42 0 73 -31t31 -73q0 -44 -30.5 -76.5
t-73.5 -32.5z" />
    <glyph glyph-name="oslash" unicode="&#xf8;" horiz-adv-x="1300" 
d="M1204 537q0 -248 -150 -402.5t-403 -154.5h-2q-225 0 -373 126l-116 -114l-64 59l119 117q-119 150 -119 369q0 245 149 396.5t404 151.5h2q226 0 373 -122l100 98l64 -62l-103 -100q119 -143 119 -362zM252 535q0 -149 72 -261l591 582q-105 94 -266 94
q-177 0 -287 -113t-110 -302zM649 115q177 0 287.5 114.5t110.5 305.5q0 147 -72 256l-592 -582q108 -94 266 -94z" />
    <glyph glyph-name="ugrave" unicode="&#xf9;" horiz-adv-x="1415" 
d="M901 1282l-49 -88l-432 213l74 145zM1161 129h201v-129h-332v180q-133 -200 -385 -200q-181 0 -300.5 120.5t-119.5 300.5v535h-190v129h344v-659q0 -127 83 -208t204 -83q121 -1 214.5 70.5t127.5 185.5v565h-191v129h344v-936z" />
    <glyph glyph-name="uacute" unicode="&#xfa;" horiz-adv-x="1415" 
d="M956 1407l-434 -211l-53 90l408 270zM1161 129h201v-129h-332v180q-133 -200 -385 -200q-181 0 -300.5 120.5t-119.5 300.5v535h-190v129h344v-659q0 -127 83 -208t204 -83q121 -1 214.5 70.5t127.5 185.5v565h-191v129h344v-936z" />
    <glyph glyph-name="ucircumflex" unicode="&#xfb;" horiz-adv-x="1415" 
d="M657 1384l-311 -149l-47 86l358 213l369 -213l-47 -86zM1161 129h201v-129h-332v180q-133 -200 -385 -200q-181 0 -300.5 120.5t-119.5 300.5v535h-190v129h344v-659q0 -127 83 -208t204 -83q121 -1 214.5 70.5t127.5 185.5v565h-191v129h344v-936z" />
    <glyph glyph-name="udieresis" unicode="&#xfc;" horiz-adv-x="1415" 
d="M471 1298q-44 0 -76.5 33.5t-32.5 79.5q0 43 32.5 75t76.5 32q45 0 78 -32t33 -75q0 -46 -32.5 -79.5t-78.5 -33.5zM848 1298q-44 0 -76.5 33.5t-32.5 79.5q0 43 32.5 75t76.5 32q45 0 77.5 -32t32.5 -75q0 -46 -32.5 -79.5t-77.5 -33.5zM1161 129h201v-129h-332v180
q-133 -200 -385 -200q-181 0 -300.5 120.5t-119.5 300.5v535h-190v129h344v-659q0 -127 83 -208t204 -83q121 -1 214.5 70.5t127.5 185.5v565h-191v129h344v-936z" />
    <glyph glyph-name="yacute" unicode="&#xfd;" horiz-adv-x="1396" 
d="M999 1407l-434 -211l-53 90l408 270zM1389 1065v-129h-201l-481 -1143q-95 -225 -289 -225q-88 0 -145.5 40.5t-63.5 121.5q-3 44 19.5 71t62.5 27q31 0 53 -20.5t25 -49.5q3 -31 -13 -51q18 -18 70 -18q93 0 143 110l80 201h-45l-399 936h-193l-2 129h516v-129h-151
l327 -813l326 813h-162v129h523z" />
    <glyph glyph-name="thorn" unicode="&#xfe;" horiz-adv-x="1347" 
d="M731 1085q240 0 379 -148.5t139 -399.5q0 -256 -140 -406.5t-386 -150.5q-256 0 -395 180v-449h231v-129h-579v129h202v1827h146v-643q134 190 403 190zM180 1538v-131h-198v131h198zM713 115q173 0 277 112.5t104 307.5q0 194 -103 304.5t-284 110.5q-134 0 -230 -68.5
t-131 -187.5v-348q39 -108 135.5 -169.5t231.5 -61.5z" />
    <glyph glyph-name="ydieresis" unicode="&#xff;" horiz-adv-x="1396" 
d="M514 1298q-44 0 -76 33.5t-32 79.5q0 43 32 75t76 32q45 0 78 -32t33 -75q0 -46 -32.5 -79.5t-78.5 -33.5zM891 1298q-44 0 -76.5 33.5t-32.5 79.5q0 43 32.5 75t76.5 32q45 0 77.5 -32t32.5 -75q0 -46 -32.5 -79.5t-77.5 -33.5zM1389 1065v-129h-201l-481 -1143
q-95 -225 -289 -225q-88 0 -145.5 40.5t-63.5 121.5q-3 44 19.5 71t62.5 27q31 0 53 -20.5t25 -49.5q3 -31 -13 -51q18 -18 70 -18q93 0 143 110l80 201h-45l-399 936h-193l-2 129h516v-129h-151l327 -813l326 813h-162v129h523z" />
    <glyph glyph-name="Amacron" unicode="&#x100;" horiz-adv-x="1695" 
d="M1157 1790v-125h-635v125h635zM1509 129h201v-129h-575v129h206l-108 285h-762l-119 -285h207v-129h-551v129h187l514 1227h-299v139h561zM526 547h656l-316 817z" />
    <glyph glyph-name="amacron" unicode="&#x101;" horiz-adv-x="1394" 
d="M981 1417v-125h-635v125h635zM1157 129h172v-129h-313v156q-139 -176 -391 -176q-236 0 -381.5 153.5t-145.5 403.5q0 247 142.5 397.5t375.5 150.5q253 0 390 -172v152h151v-936zM635 115q132 0 227 58.5t135 162.5v371q-38 115 -131.5 179t-224.5 64
q-174 0 -280.5 -114t-106.5 -301q0 -189 104.5 -304.5t276.5 -115.5z" />
    <glyph glyph-name="Abreve" unicode="&#x102;" horiz-adv-x="1695" 
d="M838 1626q-152 0 -254 74.5t-105 202.5l117 10q9 -75 77 -121.5t165 -46.5q96 0 164.5 45.5t80.5 122.5l113 -10q-4 -125 -104 -201t-254 -76zM1509 129h201v-129h-575v129h206l-108 285h-762l-119 -285h207v-129h-551v129h187l514 1227h-299v139h561zM526 547h656
l-316 817z" />
    <glyph glyph-name="abreve" unicode="&#x103;" horiz-adv-x="1394" 
d="M662 1206q-152 0 -254 74.5t-105 202.5l117 10q9 -75 77 -121.5t165 -46.5q96 0 164.5 45.5t80.5 122.5l113 -10q-4 -125 -104 -201t-254 -76zM1157 129h172v-129h-313v156q-139 -176 -391 -176q-236 0 -381.5 153.5t-145.5 403.5q0 247 142.5 397.5t375.5 150.5
q253 0 390 -172v152h151v-936zM635 115q132 0 227 58.5t135 162.5v371q-38 115 -131.5 179t-224.5 64q-174 0 -280.5 -114t-106.5 -301q0 -189 104.5 -304.5t276.5 -115.5z" />
    <glyph glyph-name="Aogonek" unicode="&#x104;" horiz-adv-x="1695" 
d="M1524 0q-170 -106 -170 -242q0 -47 29 -74.5t75 -27.5q42 0 88 12v-94q-52 -18 -110 -18q-95 0 -153 50.5t-58 143.5q0 145 157 250h-247v129h206l-108 285h-762l-119 -285h207v-129h-551v129h187l514 1227h-299v139h561l538 -1366h201v-129h-186zM526 547h656l-316 817z
" />
    <glyph glyph-name="aogonek" unicode="&#x105;" horiz-adv-x="1394" 
d="M1157 0q-184 -109 -184 -250q0 -47 29 -74.5t75 -27.5q42 0 88 12v-94q-55 -19 -110 -19q-95 0 -153 51t-58 144q0 147 172 258v156q-139 -176 -391 -176q-236 0 -381.5 153.5t-145.5 403.5q0 247 142.5 397.5t375.5 150.5q253 0 390 -172v152h151v-936h172v-129h-172z
M635 115q132 0 227 58.5t135 162.5v371q-38 115 -131.5 179t-224.5 64q-174 0 -280.5 -114t-106.5 -301q0 -189 104.5 -304.5t276.5 -115.5z" />
    <glyph glyph-name="Cacute" unicode="&#x106;" horiz-adv-x="1675" 
d="M1184 1831l-422 -236l-60 88l394 291zM1415 477h156q-32 -227 -216.5 -362t-467.5 -135q-167 0 -311.5 56t-247 156.5t-161 245t-58.5 314.5q0 226 100 400.5t277.5 269t404.5 94.5q204 0 364 -79.5t242 -215t70 -297.5q-5 -49 -34 -79t-77 -30t-77 30.5t-29 72.5
q0 67 51 88q5 148 -141.5 258t-368.5 110q-130 0 -243 -42.5t-197 -120.5t-132.5 -197.5t-48.5 -265.5t49.5 -266t134 -198t196 -120.5t237.5 -42.5q209 0 350.5 91t177.5 265z" />
    <glyph glyph-name="cacute" unicode="&#x107;" horiz-adv-x="1196" 
d="M856 1556l80 -149l-434 -211l-53 90zM1010 596q-39 0 -65.5 25t-26.5 61q0 55 38 72q-5 29 -25 60t-56 63t-98.5 52.5t-139.5 20.5q-170 0 -278.5 -113.5t-108.5 -301.5q0 -191 108.5 -305.5t282.5 -114.5q117 0 201.5 52t118.5 152h143q-40 -147 -159.5 -243t-305.5 -96
q-243 0 -394 155.5t-151 401.5q0 244 150.5 396t398.5 152q114 0 208 -37.5t149.5 -96.5t82.5 -128t19 -135q-5 -39 -29 -65.5t-63 -26.5z" />
    <glyph glyph-name="Cdotaccent" unicode="&#x10a;" horiz-adv-x="1675" 
d="M877 1653q-52 0 -87.5 36t-35.5 89q0 50 35.5 84t87.5 34q51 0 86.5 -34.5t35.5 -83.5q0 -52 -35.5 -88.5t-86.5 -36.5zM1415 477h156q-32 -227 -216.5 -362t-467.5 -135q-167 0 -311.5 56t-247 156.5t-161 245t-58.5 314.5q0 226 100 400.5t277.5 269t404.5 94.5
q204 0 364 -79.5t242 -215t70 -297.5q-5 -49 -34 -79t-77 -30t-77 30.5t-29 72.5q0 67 51 88q5 148 -141.5 258t-368.5 110q-130 0 -243 -42.5t-197 -120.5t-132.5 -197.5t-48.5 -265.5t49.5 -266t134 -198t196 -120.5t237.5 -42.5q209 0 350.5 91t177.5 265z" />
    <glyph glyph-name="cdotaccent" unicode="&#x10b;" horiz-adv-x="1196" 
d="M639 1309q-52 0 -87.5 36t-35.5 89q0 50 35.5 84t87.5 34q51 0 87 -34.5t36 -83.5q0 -52 -36 -88.5t-87 -36.5zM1010 596q-39 0 -65.5 25t-26.5 61q0 55 38 72q-5 29 -25 60t-56 63t-98.5 52.5t-139.5 20.5q-170 0 -278.5 -113.5t-108.5 -301.5q0 -191 108.5 -305.5
t282.5 -114.5q117 0 201.5 52t118.5 152h143q-40 -147 -159.5 -243t-305.5 -96q-243 0 -394 155.5t-151 401.5q0 244 150.5 396t398.5 152q114 0 208 -37.5t149.5 -96.5t82.5 -128t19 -135q-5 -39 -29 -65.5t-63 -26.5z" />
    <glyph glyph-name="Ccaron" unicode="&#x10c;" horiz-adv-x="1675" 
d="M1266 1866l-389 -264l-388 264l52 86l333 -193l336 197zM1415 477h156q-32 -227 -216.5 -362t-467.5 -135q-167 0 -311.5 56t-247 156.5t-161 245t-58.5 314.5q0 226 100 400.5t277.5 269t404.5 94.5q204 0 364 -79.5t242 -215t70 -297.5q-5 -49 -34 -79t-77 -30
t-77 30.5t-29 72.5q0 67 51 88q5 148 -141.5 258t-368.5 110q-130 0 -243 -42.5t-197 -120.5t-132.5 -197.5t-48.5 -265.5t49.5 -266t134 -198t196 -120.5t237.5 -42.5q209 0 350.5 91t177.5 265z" />
    <glyph glyph-name="ccaron" unicode="&#x10d;" horiz-adv-x="1196" 
d="M1028 1458l-389 -264l-387 264l51 86l334 -192l336 196zM961 319h143q-40 -147 -159.5 -243t-305.5 -96q-243 0 -394 155.5t-151 401.5q0 244 150.5 396t398.5 152q114 0 208 -37.5t149.5 -96.5t82.5 -128t19 -135q-5 -39 -29 -65.5t-63 -26.5t-65.5 25t-26.5 61
q0 55 38 72q-5 29 -25 60t-56 63t-98.5 52.5t-139.5 20.5q-170 0 -278.5 -113.5t-108.5 -301.5q0 -191 108.5 -305.5t282.5 -114.5q117 0 201.5 52t118.5 152z" />
    <glyph glyph-name="Dcaron" unicode="&#x10e;" horiz-adv-x="1718" 
d="M1255 1866l-389 -264l-387 264l51 86l334 -193l336 197zM848 1495q225 0 395.5 -86.5t266.5 -256t96 -400.5q0 -232 -96 -403.5t-266.5 -260t-395.5 -88.5h-742v129h205v1237h-200v129h737zM848 133q125 0 232.5 39t189 114t128 193.5t46.5 268.5t-46.5 269t-128 193.5
t-188.5 113t-233 38.5h-377v-1229h377z" />
    <glyph glyph-name="dcaron" unicode="&#x10f;" horiz-adv-x="1384" 
d="M1321 1681h156l-64 -446h-129zM1153 1597v-1468h166v-129h-311v154q-64 -80 -162.5 -127t-227.5 -47q-240 0 -380 151t-140 406q0 250 139 399t373 149q253 0 387 -161v544h-213v129h369zM629 115q132 0 224.5 53.5t135.5 150.5v408q-40 105 -132 164t-222 59
q-175 0 -278 -111t-103 -304q0 -194 103.5 -307t271.5 -113z" />
    <glyph glyph-name="Dcroat" unicode="&#x110;" horiz-adv-x="1718" 
d="M848 1495q225 0 395.5 -86.5t266.5 -256t96 -400.5q0 -232 -96 -403.5t-266.5 -260t-395.5 -88.5h-742v129h205v571h-213v117h213v549h-200v129h737zM848 133q125 0 232.5 39t189 114t128 193.5t46.5 268.5t-46.5 269t-128 193.5t-188.5 113t-233 38.5h-377v-545h330
v-117h-330v-567h377z" />
    <glyph glyph-name="dcroat" unicode="&#x111;" horiz-adv-x="1384" 
d="M1403 1206h-250v-1077h166v-129h-311v154q-64 -80 -162.5 -127t-227.5 -47q-240 0 -380 151t-140 406q0 250 139 399t373 149q253 0 387 -161v282h-297v117h297v145h-213v129h369v-274h250v-117zM629 115q132 0 224.5 53.5t135.5 150.5v408q-40 105 -132 164t-222 59
q-175 0 -278 -111t-103 -304q0 -194 103.5 -307t271.5 -113z" />
    <glyph glyph-name="Emacron" unicode="&#x112;" horiz-adv-x="1472" 
d="M1116 1790v-125h-635v125h635zM1204 416h139v-416h-1237v129h205v1237h-200v129h1228v-416h-139v283h-729v-553h614v-133h-614v-543h733v283z" />
    <glyph glyph-name="emacron" unicode="&#x113;" horiz-adv-x="1208" 
d="M924 1417v-125h-635v125h635zM625 1085q104 0 197.5 -39t164.5 -111t106 -186t19 -253l-12 -15h-142l-704 2q14 -172 113.5 -271t259.5 -99q235 0 309 166h154q-39 -135 -162 -217t-301 -82q-245 0 -388 154t-143 403q0 242 148 395t381 153zM625 954q-140 0 -243 -94
t-124 -250h707q-11 164 -108 254t-232 90z" />
    <glyph glyph-name="Edotaccent" unicode="&#x116;" horiz-adv-x="1472" 
d="M799 1653q-52 0 -87.5 36t-35.5 89q0 50 35.5 84t87.5 34q51 0 87 -34.5t36 -83.5q0 -52 -36 -88.5t-87 -36.5zM1204 416h139v-416h-1237v129h205v1237h-200v129h1228v-416h-139v283h-729v-553h614v-133h-614v-543h733v283z" />
    <glyph glyph-name="edotaccent" unicode="&#x117;" horiz-adv-x="1208" 
d="M606 1309q-52 0 -87.5 36t-35.5 89q0 50 35.5 84t87.5 34q51 0 87 -34.5t36 -83.5q0 -52 -36 -88.5t-87 -36.5zM625 1085q104 0 197.5 -39t164.5 -111t106 -186t19 -253l-12 -15h-142l-704 2q14 -172 113.5 -271t259.5 -99q235 0 309 166h154q-39 -135 -162 -217
t-301 -82q-245 0 -388 154t-143 403q0 242 148 395t381 153zM625 954q-140 0 -243 -94t-124 -250h707q-11 164 -108 254t-232 90z" />
    <glyph glyph-name="Eogonek" unicode="&#x118;" horiz-adv-x="1472" 
d="M1264 -352q42 0 88 12v-94q-55 -19 -111 -19q-95 0 -153 51t-58 144q0 146 170 258h-1094v129h205v1237h-200v129h1228v-416h-139v283h-729v-553h614v-133h-614v-543h733v283h139v-416q-184 -109 -184 -250q0 -47 29.5 -74.5t75.5 -27.5z" />
    <glyph glyph-name="eogonek" unicode="&#x119;" horiz-adv-x="1208" 
d="M625 1085q104 0 197.5 -39t164.5 -111t106 -186t19 -253l-12 -15h-142l-704 2q14 -172 113.5 -271t259.5 -99q235 0 309 166h154q-33 -111 -124 -187.5t-223 -101.5q-161 -102 -161 -236q0 -47 29 -74.5t75 -27.5q42 0 88 12v-94q-55 -19 -110 -19q-95 0 -153 51t-58 144
q0 138 137 234q-229 13 -361.5 166t-132.5 391q0 242 148 395t381 153zM625 954q-140 0 -243 -94t-124 -250h707q-11 164 -108 254t-232 90z" />
    <glyph glyph-name="Ecaron" unicode="&#x11a;" horiz-adv-x="1472" 
d="M1188 1866l-389 -264l-387 264l51 86l334 -193l336 197zM1204 416h139v-416h-1237v129h205v1237h-200v129h1228v-416h-139v283h-729v-553h614v-133h-614v-543h733v283z" />
    <glyph glyph-name="ecaron" unicode="&#x11b;" horiz-adv-x="1208" 
d="M995 1458l-389 -264l-387 264l51 86l334 -192l336 196zM625 1085q104 0 197.5 -39t164.5 -111t106 -186t19 -253l-12 -15h-142l-704 2q14 -172 113.5 -271t259.5 -99q235 0 309 166h154q-39 -135 -162 -217t-301 -82q-245 0 -388 154t-143 403q0 242 148 395t381 153z
M625 954q-140 0 -243 -94t-124 -250h707q-11 164 -108 254t-232 90z" />
    <glyph glyph-name="Gbreve" unicode="&#x11e;" horiz-adv-x="1712" 
d="M901 1626q-151 0 -253 74.5t-105 202.5l116 10q9 -75 77 -121.5t165 -46.5q96 0 165 46t81 122l113 -10q-4 -125 -104.5 -201t-254.5 -76zM1575 674v-674h-109l-26 256q-87 -129 -236.5 -202.5t-331.5 -73.5q-163 0 -304 56.5t-241.5 156.5t-158 244.5t-57.5 314.5
q0 169 57.5 311.5t160 242t248.5 155t318 55.5q199 0 355 -69.5t237.5 -192t68.5 -271.5q-5 -49 -34.5 -79t-77.5 -30q-44 0 -73.5 29.5t-29.5 69.5q0 68 54 90q0 77 -64.5 148.5t-181 117t-254.5 45.5q-178 0 -318 -72.5t-222.5 -216t-82.5 -337.5q0 -145 48 -265
t130.5 -198t191 -121t230.5 -43q117 0 224 36.5t199 122t135 209.5v52h-533v133h678z" />
    <glyph glyph-name="gbreve" unicode="&#x11f;" horiz-adv-x="1351" 
d="M662 1206q-152 0 -254 74.5t-105 202.5l117 10q9 -75 77 -121.5t165 -46.5q96 0 164.5 45.5t80.5 122.5l113 -10q-4 -125 -104 -201t-254 -76zM1012 1065h145v-1024q0 -228 -140 -350.5t-384 -122.5q-107 0 -193 23t-137 60t-80 77.5t-35 81.5q-9 57 18 88.5t73 31.5
q41 0 64.5 -24.5t23.5 -61.5q0 -31 -21 -49q31 -36 105.5 -64t181.5 -28q379 0 379 338v139q-65 -84 -164.5 -132t-229.5 -48q-234 0 -376 145t-142 392q0 251 137 399.5t373 148.5q268 0 402 -190v170zM629 135q134 0 229.5 62t134.5 170v327q-35 119 -130 187.5t-228 68.5
q-178 0 -278.5 -110.5t-100.5 -304.5q0 -188 101 -294t272 -106z" />
    <glyph glyph-name="Gdotaccent" unicode="&#x120;" horiz-adv-x="1712" 
d="M903 1653q-52 0 -87.5 36t-35.5 89q0 50 35.5 84t87.5 34q51 0 87 -34.5t36 -83.5q0 -52 -36 -88.5t-87 -36.5zM1575 674v-674h-109l-26 256q-87 -129 -236.5 -202.5t-331.5 -73.5q-163 0 -304 56.5t-241.5 156.5t-158 244.5t-57.5 314.5q0 169 57.5 311.5t160 242
t248.5 155t318 55.5q199 0 355 -69.5t237.5 -192t68.5 -271.5q-5 -49 -34.5 -79t-77.5 -30q-44 0 -73.5 29.5t-29.5 69.5q0 68 54 90q0 77 -64.5 148.5t-181 117t-254.5 45.5q-178 0 -318 -72.5t-222.5 -216t-82.5 -337.5q0 -145 48 -265t130.5 -198t191 -121t230.5 -43
q117 0 224 36.5t199 122t135 209.5v52h-533v133h678z" />
    <glyph glyph-name="gdotaccent" unicode="&#x121;" horiz-adv-x="1351" 
d="M664 1309q-52 0 -87.5 36t-35.5 89q0 50 35.5 84t87.5 34q51 0 86.5 -34.5t35.5 -83.5q0 -52 -35.5 -88.5t-86.5 -36.5zM1012 1065h145v-1024q0 -228 -140 -350.5t-384 -122.5q-107 0 -193 23t-137 60t-80 77.5t-35 81.5q-9 57 18 88.5t73 31.5q41 0 64.5 -24.5
t23.5 -61.5q0 -31 -21 -49q31 -36 105.5 -64t181.5 -28q379 0 379 338v139q-65 -84 -164.5 -132t-229.5 -48q-234 0 -376 145t-142 392q0 251 137 399.5t373 148.5q268 0 402 -190v170zM629 135q134 0 229.5 62t134.5 170v327q-35 119 -130 187.5t-228 68.5
q-178 0 -278.5 -110.5t-100.5 -304.5q0 -188 101 -294t272 -106z" />
    <glyph glyph-name="Gcommaaccent" unicode="&#x122;" horiz-adv-x="1712" 
d="M1575 674v-674h-109l-26 256q-87 -129 -236.5 -202.5t-331.5 -73.5q-163 0 -304 56.5t-241.5 156.5t-158 244.5t-57.5 314.5q0 169 57.5 311.5t160 242t248.5 155t318 55.5q199 0 355 -69.5t237.5 -192t68.5 -271.5q-5 -49 -34.5 -79t-77.5 -30q-44 0 -73.5 29.5
t-29.5 69.5q0 68 54 90q0 77 -64.5 148.5t-181 117t-254.5 45.5q-178 0 -318 -72.5t-222.5 -216t-82.5 -337.5q0 -145 48 -265t130.5 -198t191 -121t230.5 -43q117 0 224 36.5t199 122t135 209.5v52h-533v133h678zM879 -70q84 0 115 -80q31 -78 -4 -172q-39 -101 -129 -140
q-45 -19 -95 -19v88q44 0 83 30t36 64h-15q-47 0 -79.5 32.5t-32.5 82.5q0 51 34 82.5t87 31.5z" />
    <glyph glyph-name="gcommaaccent" unicode="&#x123;" horiz-adv-x="1361" 
d="M659 1202q-83 0 -115 80q-31 77 4 172q38 102 129 141q44 19 95 19v-88q-44 0 -83 -30t-36 -64h15q47 0 79.5 -32.5t32.5 -82.5q0 -51 -34 -83t-87 -32zM1012 1065h145v-1024q0 -228 -140 -350.5t-384 -122.5q-107 0 -193 23t-137 60t-80 77.5t-35 81.5q-9 57 18 88.5
t73 31.5q41 0 64.5 -24.5t23.5 -61.5q0 -31 -21 -49q31 -36 105.5 -64t181.5 -28q379 0 379 338v139q-65 -84 -164.5 -132t-229.5 -48q-234 0 -376 145t-142 392q0 251 137 399.5t373 148.5q268 0 402 -190v170zM629 135q134 0 229.5 62t134.5 170v327q-35 119 -130 187.5
t-228 68.5q-178 0 -278.5 -110.5t-100.5 -304.5q0 -188 101 -294t272 -106z" />
    <glyph glyph-name="Hbar" unicode="&#x126;" horiz-adv-x="1896" 
d="M1778 1366h-195v-170h160v-129h-160v-938h195v-129h-559v129h204v549h-952v-549h193v-129h-558v129h205v938h-182v129h182v170h-200v129h553v-129h-193v-170h952v170h-200v129h555v-129zM1423 815v252h-952v-252h952z" />
    <glyph glyph-name="hbar" unicode="&#x127;" horiz-adv-x="1454" 
d="M1221 129h204v-129h-548v129h190v453q0 172 -79.5 270t-225.5 98q-133 0 -225.5 -72.5t-130.5 -183.5v-565h190v-129h-547v129h203v1083h-268v117h268v139h-201v129h336v-268h299v-117h-299v-329q132 202 391 202q208 0 325.5 -132t117.5 -349v-475z" />
    <glyph glyph-name="Itilde" unicode="&#x128;" horiz-adv-x="782" 
d="M627 1892l108 -22q-9 -89 -61 -136.5t-135 -45.5q-53 0 -104 23t-93.5 46t-75.5 23q-80 0 -104 -78l-111 27q10 93 60 137.5t127 44.5q48 0 101.5 -23.5t101.5 -47t81 -23.5q80 0 105 75zM670 1495v-129h-199v-1237h199v-129h-555v129h196v1237h-196v129h555z" />
    <glyph glyph-name="itilde" unicode="&#x129;" horiz-adv-x="686" 
d="M213 1368q-76 0 -100 -78l-105 27q9 93 56.5 137.5t121.5 44.5q46 0 98 -23.5t97.5 -47t77.5 -23.5q37 0 61.5 17t38.5 59l105 -23q-9 -89 -59.5 -136.5t-129.5 -45.5q-41 0 -80.5 14.5t-66 31.5t-58 31.5t-57.5 14.5zM438 1065v-936h191v-129h-549v129h205v807h-201v129
h354z" />
    <glyph glyph-name="Imacron" unicode="&#x12a;" horiz-adv-x="782" 
d="M72 1790h635v-125h-635v125zM670 1495v-129h-199v-1237h199v-129h-555v129h196v1237h-196v129h555z" />
    <glyph glyph-name="imacron" unicode="&#x12b;" horiz-adv-x="686" 
d="M49 1417h588v-125h-588v125zM438 1065v-936h191v-129h-549v129h205v807h-201v129h354z" />
    <glyph glyph-name="Iogonek" unicode="&#x12e;" horiz-adv-x="782" 
d="M670 1366h-199v-1237h199v-129h-207q-184 -109 -184 -250q0 -47 29 -74.5t75 -27.5q42 0 88 12v-94q-55 -19 -111 -19q-95 0 -152.5 51t-57.5 144q0 146 169 258h-204v129h196v1237h-196v129h555v-129z" />
    <glyph glyph-name="iogonek" unicode="&#x12f;" horiz-adv-x="686" 
d="M344 1309q-52 0 -87.5 36t-35.5 89q0 50 35.5 84t87.5 34q51 0 87 -34.5t36 -83.5q0 -52 -36 -88.5t-87 -36.5zM438 0q-184 -109 -184 -250q0 -47 29 -74.5t75 -27.5q42 0 88 12v-94q-55 -19 -110 -19q-95 0 -153 51t-58 144q0 146 170 258h-215v129h205v807h-201v129
h354v-936h191v-129h-191z" />
    <glyph glyph-name="Idotaccent" unicode="&#x130;" horiz-adv-x="782" 
d="M389 1653q-52 0 -87.5 36t-35.5 89q0 50 35.5 84t87.5 34q51 0 87 -34.5t36 -83.5q0 -52 -36 -88.5t-87 -36.5zM670 1366h-199v-1237h199v-129h-555v129h196v1237h-196v129h555v-129z" />
    <glyph glyph-name="dotlessi" unicode="&#x131;" horiz-adv-x="686" 
d="M438 129h191v-129h-549v129h205v807h-201v129h354v-936z" />
    <glyph glyph-name="IJ" unicode="&#x132;" horiz-adv-x="2162" 
d="M670 1495v-129h-199v-1237h199v-129h-555v129h196v1237h-196v129h555zM1948 1495v-956h-2q0 -253 -147.5 -406t-409.5 -153h-3q-270 0 -415.5 132t-136.5 343q3 47 33.5 77.5t78.5 30.5t75.5 -29.5t27.5 -72.5q0 -30 -15 -54t-41 -34q14 -109 116.5 -179.5t276.5 -70.5
q181 0 290.5 115.5t109.5 300.5h2l2 819h-604v137h762z" />
    <glyph glyph-name="ij" unicode="&#x133;" horiz-adv-x="1310" 
d="M344 1309q-52 0 -87.5 36t-35.5 89q0 50 35.5 84t87.5 34q51 0 87 -34.5t36 -83.5q0 -52 -36 -88.5t-87 -36.5zM1034 1552q51 0 87 -34.5t36 -83.5q0 -52 -36 -88.5t-87 -36.5q-52 0 -87.5 36t-35.5 89q0 50 35.5 84t87.5 34zM629 129v-129h-549v129h205v807h-201v129
h354v-936h191zM1116 1065v-1126q0 -191 -67.5 -278t-214.5 -87q-94 0 -163.5 46t-76.5 136q-5 44 22 75.5t70 31.5q39 0 63.5 -24.5t24.5 -57.5q0 -34 -16 -53q8 -11 31.5 -21t48.5 -10q69 0 97 47t28 168v1024h-201v129h354z" />
    <glyph glyph-name="Kcommaaccent" unicode="&#x136;" horiz-adv-x="1667" 
d="M1448 129h207v-129h-291l-571 733l-322 -321v-283h193v-129h-558v129h205v1237h-200v129h553v-129h-193v-784l766 784h-193v129h558v-129h-172l-535 -532zM905 -70q84 0 116 -80q31 -78 -5 -172q-38 -101 -128 -140q-45 -19 -95 -19v88q44 0 82.5 29.5t35.5 64.5h-14
q-47 0 -80 32.5t-33 82.5q0 51 34 82.5t87 31.5z" />
    <glyph glyph-name="kcommaaccent" unicode="&#x137;" horiz-adv-x="1372" 
d="M1128 129h234v-129h-320l-391 532l-245 -239v-164h198v-129h-555v129h203v1339h-201v129h355v-1136l477 475h-158v129h553v-129h-213l-315 -309zM729 -70q84 0 115 -80q31 -78 -4 -172q-39 -101 -129 -140q-45 -19 -95 -19v88q44 0 83 30t36 64h-14q-47 0 -80 32.5
t-33 82.5q0 51 34 82.5t87 31.5z" />
    <glyph glyph-name="kgreenlandic" unicode="&#x138;" horiz-adv-x="1404" 
d="M1161 129h234v-129h-320l-393 532l-244 -235v-168h199v-129h-557v129h205v807h-201v129h354v-606l475 477h-155v129h553v-129h-213l-320 -311z" />
    <glyph glyph-name="Lacute" unicode="&#x139;" horiz-adv-x="1363" 
d="M698 1831l-422 -236l-59 88l393 291zM1169 442h138v-442h-1201v129h205v1237h-200v129h553v-129h-193v-1233h698v309z" />
    <glyph glyph-name="lacute" unicode="&#x13a;" horiz-adv-x="653" 
d="M616 1933l-421 -235l-60 88l393 291zM406 1597v-1468h190v-129h-547v129h203v1339h-201v129h355z" />
    <glyph glyph-name="Lcommaaccent" unicode="&#x13b;" horiz-adv-x="1363" 
d="M1169 442h138v-442h-1201v129h205v1237h-200v129h553v-129h-193v-1233h698v309zM795 -70q84 0 115 -80q31 -78 -4 -172q-39 -101 -129 -140q-45 -19 -95 -19v88q44 0 83 30t36 64h-15q-47 0 -79.5 32.5t-32.5 82.5q0 51 34 82.5t87 31.5z" />
    <glyph glyph-name="lcommaaccent" unicode="&#x13c;" horiz-adv-x="653" 
d="M406 129h190v-129h-547v129h203v1339h-201v129h355v-1468zM326 -70q84 0 115 -80q31 -78 -4 -172q-39 -101 -129 -140q-44 -19 -95 -19v88q44 0 83 30t36 64h-15q-47 0 -79.5 32.5t-32.5 82.5q0 51 34 82.5t87 31.5z" />
    <glyph glyph-name="Lcaron" unicode="&#x13d;" horiz-adv-x="1363" 
d="M1061 1608l-64 -447h-129l37 447h156zM1169 442h138v-442h-1201v129h205v1237h-200v129h553v-129h-193v-1233h698v309z" />
    <glyph glyph-name="lcaron" unicode="&#x13e;" horiz-adv-x="653" 
d="M573 1755h156l-63 -446h-129zM406 1597v-1468h190v-129h-547v129h203v1339h-201v129h355z" />
    <glyph glyph-name="Ldot" unicode="&#x13f;" horiz-adv-x="1363" 
d="M391 1739q-52 0 -87.5 36t-35.5 89q0 50 35.5 84t87.5 34q51 0 87 -34.5t36 -83.5q0 -52 -36 -88.5t-87 -36.5zM1169 442h138v-442h-1201v129h205v1237h-200v129h553v-129h-193v-1233h698v309z" />
    <glyph glyph-name="ldot" unicode="&#x140;" horiz-adv-x="653" 
d="M406 1597v-1468h190v-129h-547v129h203v1339h-201v129h355zM662 834q49 0 83.5 -34t34.5 -81q0 -51 -34 -86t-84 -35q-48 0 -82.5 35t-34.5 86q0 47 35 81t82 34z" />
    <glyph glyph-name="Lslash" unicode="&#x141;" horiz-adv-x="1363" 
d="M1169 442h138v-442h-1201v129h205v504l-190 -105l-58 105l248 139v594h-200v129h553v-129h-193v-506l221 125l60 -108l-281 -156v-588h698v309z" />
    <glyph glyph-name="lslash" unicode="&#x142;" horiz-adv-x="653" 
d="M406 821v-692h190v-129h-547v129h203v598l-180 -113l-68 99l248 155v600h-201v129h355v-632l178 112l67 -102z" />
    <glyph glyph-name="Nacute" unicode="&#x143;" horiz-adv-x="1878" 
d="M1264 1831l-422 -236l-60 88l394 291zM1784 1495v-129h-193v-1366h-133l-991 1225v-1096h209v-129h-570v129h205v1237h-200v129h335l990 -1235v1106h-205v129h553z" />
    <glyph glyph-name="nacute" unicode="&#x144;" horiz-adv-x="1488" 
d="M1067 1407l-434 -211l-53 90l407 270zM1262 129h192v-129h-547v129h201v453q0 180 -86.5 274t-235.5 94q-126 0 -220 -71t-128 -185v-565h189v-129h-547v129h205v807h-201v129h332v-180q133 200 395 200q206 0 328.5 -126t122.5 -345v-485z" />
    <glyph glyph-name="Ncommaaccent" unicode="&#x145;" horiz-adv-x="1878" 
d="M1784 1495v-129h-193v-1366h-133l-991 1225v-1096h209v-129h-570v129h205v1237h-200v129h335l990 -1235v1106h-205v129h553zM975 -70q84 0 115 -80q31 -78 -4 -172q-39 -101 -129 -140q-45 -19 -95 -19v88q44 0 83 30t36 64h-14q-47 0 -80 32.5t-33 82.5q0 51 34 82.5
t87 31.5z" />
    <glyph glyph-name="ncommaaccent" unicode="&#x146;" horiz-adv-x="1488" 
d="M1262 129h192v-129h-547v129h201v453q0 180 -86.5 274t-235.5 94q-126 0 -220 -71t-128 -185v-565h189v-129h-547v129h205v807h-201v129h332v-180q133 200 395 200q206 0 328.5 -126t122.5 -345v-485zM776 -70q84 0 116 -80q31 -78 -5 -172q-38 -101 -128 -140
q-45 -19 -95 -19v88q44 0 82.5 29.5t35.5 64.5h-14q-47 0 -80 32.5t-33 82.5q0 51 34 82.5t87 31.5z" />
    <glyph glyph-name="Ncaron" unicode="&#x147;" horiz-adv-x="1878" 
d="M1346 1866l-390 -264l-387 264l52 86l333 -193l336 197zM1784 1495v-129h-193v-1366h-133l-991 1225v-1096h209v-129h-570v129h205v1237h-200v129h335l990 -1235v1106h-205v129h553z" />
    <glyph glyph-name="ncaron" unicode="&#x148;" horiz-adv-x="1488" 
d="M1159 1458l-389 -264l-387 264l51 86l334 -192l336 196zM1262 129h192v-129h-547v129h201v453q0 180 -86.5 274t-235.5 94q-126 0 -220 -71t-128 -185v-565h189v-129h-547v129h205v807h-201v129h332v-180q133 200 395 200q206 0 328.5 -126t122.5 -345v-485z" />
    <glyph glyph-name="napostrophe" unicode="&#x149;" horiz-adv-x="1488" 
d="M-59 1217q47 0 86.5 30t52.5 78q-15 -6 -35 -6q-47 0 -80 32.5t-33 82.5q0 51 34 82.5t87 31.5q85 0 118 -82q32 -79 -3 -175q-38 -104 -129 -145q-45 -20 -98 -20v91zM1262 129h192v-129h-547v129h201v453q0 180 -86.5 274t-235.5 94q-126 0 -220 -71t-128 -185v-565
h189v-129h-547v129h205v807h-201v129h332v-180q133 200 395 200q206 0 328.5 -126t122.5 -345v-485z" />
    <glyph glyph-name="Eng" unicode="&#x14a;" horiz-adv-x="1878" 
d="M1784 1495v-129h-193v-1415q0 -173 -97 -280t-257 -107h-2q-147 0 -238.5 80t-85.5 221q5 50 35.5 80t77.5 30q45 0 70.5 -27t25.5 -65q0 -30 -14 -51t-39 -27q8 -46 54.5 -76t113.5 -30q94 0 145.5 64.5t51.5 175.5v98l-963 1171v-1079h207v-129h-570v129h205v1237h-200
v129h338l985 -1225v1096h-203v129h553z" />
    <glyph glyph-name="eng" unicode="&#x14b;" horiz-adv-x="1431" 
d="M811 1085q206 0 328.5 -126t122.5 -345v-716q0 -154 -74 -239t-207 -85q-92 0 -157 49t-72 125q-5 41 18 71.5t61 33.5q31 3 56.5 -12.5t32.5 -43.5q10 -37 -7 -65q8 -15 30.5 -25t51.5 -10q57 0 85 45.5t28 144.5v695q0 180 -86.5 274t-235.5 94q-126 0 -220 -71
t-128 -185v-565h189v-129h-547v129h205v807h-201v129h332v-180q133 200 395 200z" />
    <glyph glyph-name="Omacron" unicode="&#x14c;" horiz-adv-x="1777" 
d="M1206 1790v-125h-635v125h635zM1667 752q0 -228 -95.5 -403t-272 -272t-408.5 -97h-2q-228 0 -405 96.5t-275 272.5t-98 403q0 226 97.5 400t274.5 269t406 95h2q232 0 408.5 -95.5t272 -268.5t95.5 -400zM891 121q176 0 314 73.5t219 217t81 336.5q0 194 -81 337.5
t-219 216t-314 72.5q-129 0 -241.5 -42.5t-196.5 -121t-132.5 -198t-48.5 -264.5t48.5 -264t132 -198t196.5 -122t242 -43z" />
    <glyph glyph-name="omacron" unicode="&#x14d;" horiz-adv-x="1300" 
d="M967 1417v-125h-635v125h635zM1204 537q0 -248 -150 -402.5t-403 -154.5h-2q-253 0 -403 154.5t-150 402.5q0 245 149 396.5t404 151.5h2q253 0 403 -151.5t150 -396.5zM649 115q177 0 287.5 114.5t110.5 305.5q0 189 -110.5 302t-287.5 113t-287 -113t-110 -302
q0 -191 110 -305.5t287 -114.5z" />
    <glyph glyph-name="Ohungarumlaut" unicode="&#x150;" horiz-adv-x="1777" 
d="M958 1944l-196 -332h-113l137 334zM1063 1612h-113l137 334l173 -2zM1667 752q0 -228 -95.5 -403t-272 -272t-408.5 -97h-2q-228 0 -405 96.5t-275 272.5t-98 403q0 226 97.5 400t274.5 269t406 95h2q232 0 408.5 -95.5t272 -268.5t95.5 -400zM891 121q176 0 314 73.5
t219 217t81 336.5q0 194 -81 337.5t-219 216t-314 72.5q-129 0 -241.5 -42.5t-196.5 -121t-132.5 -198t-48.5 -264.5t48.5 -264t132 -198t196.5 -122t242 -43z" />
    <glyph glyph-name="ohungarumlaut" unicode="&#x151;" horiz-adv-x="1300" 
d="M711 1540l-197 -332h-113l138 334zM815 1208h-113l138 334l172 -2zM1204 537q0 -248 -150 -402.5t-403 -154.5h-2q-253 0 -403 154.5t-150 402.5q0 245 149 396.5t404 151.5h2q253 0 403 -151.5t150 -396.5zM649 115q177 0 287.5 114.5t110.5 305.5q0 189 -110.5 302
t-287.5 113t-287 -113t-110 -302q0 -191 110 -305.5t287 -114.5z" />
    <glyph glyph-name="OE" unicode="&#x152;" horiz-adv-x="2668" 
d="M2400 416h140v-416h-1033v252q-103 -130 -261 -201t-355 -71h-2q-228 0 -405 96.5t-275 272.5t-98 403q0 226 97.5 400t274.5 269t406 95h2q197 0 355 -70.5t261 -198.5v248h1030v-416h-139v283h-731v-553h617v-133h-617v-543h733v283zM891 123q176 0 314 73t219 216
t81 336q0 194 -81 337t-219 215t-314 72q-129 0 -241.5 -42.5t-196.5 -120.5t-132.5 -197t-48.5 -264t48.5 -264t132 -197.5t196.5 -121t242 -42.5z" />
    <glyph glyph-name="oe" unicode="&#x153;" horiz-adv-x="2162" 
d="M1579 1085q104 0 197.5 -39t164.5 -111t106 -186t19 -253l-12 -15h-141l-705 2q14 -172 113.5 -271t259.5 -99q235 0 309 166h154q-39 -135 -162 -217t-301 -82q-156 0 -273 64.5t-184 182.5q-69 -117 -190 -182t-283 -65h-2q-253 0 -403 154.5t-150 402.5
q0 245 149 396.5t404 151.5h2q163 0 285.5 -65t191.5 -182q67 117 184.5 182t266.5 65zM1579 954q-140 0 -243 -94t-124 -250h707q-11 164 -108 254t-232 90zM649 115q177 0 287.5 114.5t110.5 305.5q0 189 -110.5 302t-287.5 113t-287 -113t-110 -302q0 -191 110 -305.5
t287 -114.5z" />
    <glyph glyph-name="Racute" unicode="&#x154;" horiz-adv-x="1640" 
d="M1137 1831l-422 -236l-60 88l394 291zM1354 129h221v-129h-305l-453 528h-346v-399h258v-129h-623v129h205v1237h-200v129h774q134 0 242 -28t189 -85.5t125 -151t44 -218.5q0 -191 -134 -319t-352 -156zM471 1358v-694h422q188 0 310 95t122 253q0 346 -432 346h-422z
" />
    <glyph glyph-name="racute" unicode="&#x155;" horiz-adv-x="1032" 
d="M821 1407l-434 -211l-53 90l407 270zM752 1085q127 0 191 -76.5t50 -179.5q-6 -41 -32 -63.5t-66 -22.5q-36 0 -61 23t-25 59q0 22 10 42t25 26q-30 65 -123 65q-94 0 -177.5 -71.5t-105.5 -200.5v-557h199v-129h-557v129h205v807h-201v129h328v-180q53 94 139 147
t201 53z" />
    <glyph glyph-name="Rcommaaccent" unicode="&#x156;" horiz-adv-x="1640" 
d="M1354 129h221v-129h-305l-453 528h-346v-399h258v-129h-623v129h205v1237h-200v129h774q134 0 242 -28t189 -85.5t125 -151t44 -218.5q0 -191 -134 -319t-352 -156zM471 1358v-694h422q188 0 310 95t122 253q0 346 -432 346h-422zM870 -70q84 0 116 -80q31 -78 -5 -172
q-38 -101 -128 -140q-45 -19 -95 -19v88q44 0 83 30t36 64h-15q-47 0 -79.5 32.5t-32.5 82.5q0 51 33.5 82.5t86.5 31.5z" />
    <glyph glyph-name="rcommaaccent" unicode="&#x157;" horiz-adv-x="1032" 
d="M752 1085q127 0 191 -76.5t50 -179.5q-6 -41 -32 -63.5t-66 -22.5q-36 0 -61 23t-25 59q0 22 10 42t25 26q-30 65 -123 65q-94 0 -177.5 -71.5t-105.5 -200.5v-557h199v-129h-557v129h205v807h-201v129h328v-180q53 94 139 147t201 53zM360 -70q84 0 116 -80
q31 -78 -5 -172q-38 -101 -128 -140q-45 -19 -95 -19v88q44 0 83 30t36 64h-15q-47 0 -79.5 32.5t-32.5 82.5q0 51 33.5 82.5t86.5 31.5z" />
    <glyph glyph-name="Rcaron" unicode="&#x158;" horiz-adv-x="1640" 
d="M1219 1866l-390 -264l-387 264l52 86l333 -193l336 197zM1354 129h221v-129h-305l-453 528h-346v-399h258v-129h-623v129h205v1237h-200v129h774q134 0 242 -28t189 -85.5t125 -151t44 -218.5q0 -191 -134 -319t-352 -156zM471 1358v-694h422q188 0 310 95t122 253
q0 346 -432 346h-422z" />
    <glyph glyph-name="rcaron" unicode="&#x159;" horiz-adv-x="1032" 
d="M913 1458l-389 -264l-387 264l51 86l334 -192l336 196zM752 1085q127 0 191 -76.5t50 -179.5q-6 -41 -32 -63.5t-66 -22.5q-36 0 -61 23t-25 59q0 22 10 42t25 26q-30 65 -123 65q-94 0 -177.5 -71.5t-105.5 -200.5v-557h199v-129h-557v129h205v807h-201v129h328v-180
q53 94 139 147t201 53z" />
    <glyph glyph-name="Sacute" unicode="&#x15a;" horiz-adv-x="1456" 
d="M1034 1831l-422 -236l-59 88l393 291zM317 1112q0 -76 35.5 -129.5t95.5 -82.5t137.5 -47t163.5 -30.5t171.5 -26.5t163 -40.5t137.5 -67t95.5 -111.5t35.5 -169q0 -193 -161 -309.5t-460 -116.5v139q225 0 342 75.5t117 206.5q0 75 -35.5 127.5t-95 80t-137.5 45
t-163.5 29t-171 25t-163.5 40.5t-137.5 68.5t-95 115t-35.5 174.5q0 185 149.5 296.5t435.5 111.5h2q163 0 289.5 -48t197 -141t60.5 -217q-5 -44 -32.5 -72t-73.5 -28q-42 0 -70.5 28t-28.5 68q0 24 13.5 46t34.5 28q-15 88 -120.5 142t-271.5 54q-212 0 -318 -71.5
t-106 -192.5zM266 301q18 -78 142.5 -129t322.5 -51l-2 -139q-310 0 -470.5 100t-152.5 287q2 45 31 73.5t76 28.5q45 0 71.5 -27.5t26.5 -70.5q0 -23 -12 -43t-33 -29z" />
    <glyph glyph-name="sacute" unicode="&#x15b;" horiz-adv-x="1105" 
d="M766 1556l80 -149l-434 -211l-54 90zM256 197q21 -33 109 -57.5t192 -24.5q145 0 224 47t77 129q-1 59 -42 95.5t-105.5 52t-142 25.5t-154.5 27.5t-141 47.5t-104 93.5t-40 158.5q0 130 106 212t320 82q113 0 197.5 -23.5t133 -64.5t70.5 -92t19 -110q-2 -30 -27.5 -58
t-62.5 -28q-39 0 -65.5 24t-26.5 62q0 44 34 65q-10 34 -76 62t-196 28q-133 0 -204.5 -45.5t-71.5 -113.5q0 -61 40.5 -98.5t105 -55t142 -29.5t155.5 -30t142.5 -47.5t105 -91.5t40.5 -154q0 -139 -112.5 -222t-340.5 -83q-412 0 -461 233q-11 57 16.5 90t73.5 33
q36 0 62 -25t26 -57q0 -39 -18 -57z" />
    <glyph glyph-name="Scedilla" unicode="&#x15e;" horiz-adv-x="1456" 
d="M1352 408q0 -186 -149.5 -301.5t-428.5 -124.5v-68q87 0 142 -45t55 -129q0 -87 -67.5 -139t-170.5 -52q-132 0 -203 68l43 76q66 -47 148 -47q57 0 90 24.5t33 67.5t-29.5 62.5t-91.5 21.5h-84l10 162q-271 12 -411 111.5t-132 273.5q2 45 31 73.5t76 28.5
q45 0 71.5 -27.5t26.5 -70.5q0 -23 -12 -43t-33 -29q18 -78 142.5 -129t322.5 -51l-2 -115h2v115q225 0 342 75.5t117 206.5q0 75 -35.5 127.5t-95 80t-137.5 45t-163.5 29t-171 25t-163.5 40.5t-137.5 68.5t-95 115t-35.5 174.5q0 185 149.5 296.5t435.5 111.5h2
q163 0 289.5 -48t197 -141t60.5 -217q-5 -44 -32.5 -72t-73.5 -28q-42 0 -70.5 28t-28.5 68q0 24 13.5 46t34.5 28q-15 88 -120.5 142t-271.5 54q-212 0 -318 -71.5t-106 -192.5q0 -76 35.5 -129.5t95.5 -82.5t137.5 -47t163.5 -30.5t171.5 -26.5t163 -40.5t137.5 -67
t95.5 -111.5t35.5 -169z" />
    <glyph glyph-name="scedilla" unicode="&#x15f;" horiz-adv-x="1105" 
d="M1010 285q0 -131 -98.5 -212t-299.5 -91v-68q87 0 142 -45t55 -129q0 -87 -67.5 -139t-170.5 -52q-131 0 -202 68l43 76q66 -47 147 -47q57 0 90 24.5t33 67.5t-29.5 62.5t-91.5 21.5h-84l10 160q-348 20 -391 231q-11 57 16.5 90t73.5 33q36 0 62 -25t26 -57
q0 -39 -18 -57q21 -33 109 -57.5t192 -24.5q145 0 224 47t77 129q-1 59 -42 95.5t-105.5 52t-142 25.5t-154.5 27.5t-141 47.5t-104 93.5t-40 158.5q0 130 106 212t320 82q113 0 197.5 -23.5t133 -64.5t70.5 -92t19 -110q-2 -30 -27.5 -58t-62.5 -28q-39 0 -65.5 24
t-26.5 62q0 44 34 65q-10 34 -76 62t-196 28q-133 0 -204.5 -45.5t-71.5 -113.5q0 -61 40.5 -98.5t105 -55t142 -29.5t155.5 -30t142.5 -47.5t105 -91.5t40.5 -154z" />
    <glyph glyph-name="Scaron" unicode="&#x160;" horiz-adv-x="1456" 
d="M1116 1866l-389 -264l-387 264l51 86l334 -193l336 197zM317 1112q0 -76 35.5 -129.5t95.5 -82.5t137.5 -47t163.5 -30.5t171.5 -26.5t163 -40.5t137.5 -67t95.5 -111.5t35.5 -169q0 -193 -161 -309.5t-460 -116.5v139q225 0 342 75.5t117 206.5q0 75 -35.5 127.5t-95 80
t-137.5 45t-163.5 29t-171 25t-163.5 40.5t-137.5 68.5t-95 115t-35.5 174.5q0 185 149.5 296.5t435.5 111.5h2q163 0 289.5 -48t197 -141t60.5 -217q-5 -44 -32.5 -72t-73.5 -28q-42 0 -70.5 28t-28.5 68q0 24 13.5 46t34.5 28q-15 88 -120.5 142t-271.5 54
q-212 0 -318 -71.5t-106 -192.5zM266 301q18 -78 142.5 -129t322.5 -51l-2 -139q-310 0 -470.5 100t-152.5 287q2 45 31 73.5t76 28.5q45 0 71.5 -27.5t26.5 -70.5q0 -23 -12 -43t-33 -29z" />
    <glyph glyph-name="scaron" unicode="&#x161;" horiz-adv-x="1105" 
d="M938 1458l-389 -264l-387 264l51 86l334 -192l336 196zM279 791q0 -61 40.5 -98.5t105 -55t142 -29.5t155.5 -30t142.5 -47.5t105 -91.5t40.5 -154q0 -139 -112.5 -222t-340.5 -83q-412 0 -461 233q-11 57 16.5 90t73.5 33q36 0 62 -25t26 -57q0 -39 -18 -57
q21 -33 109 -57.5t192 -24.5q145 0 224 47t77 129q-1 59 -42 95.5t-105.5 52t-142 25.5t-154.5 27.5t-141 47.5t-104 93.5t-40 158.5q0 130 106 212t320 82q113 0 197.5 -23.5t133 -64.5t70.5 -92t19 -110q-2 -30 -27.5 -58t-62.5 -28q-39 0 -65.5 24t-26.5 62q0 44 34 65
q-10 34 -76 62t-196 28q-133 0 -204.5 -45.5t-71.5 -113.5z" />
    <glyph glyph-name="uni0162" unicode="&#x162;" horiz-adv-x="1476" 
d="M1415 1495v-434h-139v301h-457v-1233h213v-129h-231v-86q87 0 141.5 -44.5t54.5 -129.5q0 -87 -67.5 -139t-169.5 -52q-132 0 -203 68l43 76q66 -47 148 -47q57 0 89.5 24.5t32.5 67.5t-29.5 62.5t-90.5 21.5h-84l12 178h-244v129h225v1233h-456v-301h-140v434h1352z" />
    <glyph glyph-name="uni0163" unicode="&#x163;" horiz-adv-x="882" 
d="M823 930h-426v-596q0 -109 50.5 -164t146.5 -55q107 0 223 53v-135q-108 -50 -237 -53v-66q87 0 141.5 -44.5t54.5 -129.5q0 -87 -67.5 -139t-169.5 -52q-132 0 -203 68l43 76q66 -47 147 -47q57 0 90 24.5t33 67.5t-29.5 62.5t-91.5 21.5h-84l13 170q-213 55 -213 332
v606h-170v135h170v258h153v-258h426v-135z" />
    <glyph glyph-name="Tcaron" unicode="&#x164;" horiz-adv-x="1476" 
d="M1124 1866l-389 -264l-387 264l51 86l334 -193l336 197zM1415 1495v-434h-139v301h-457v-1233h213v-129h-598v129h225v1233h-456v-301h-140v434h1352z" />
    <glyph glyph-name="tcaron" unicode="&#x165;" horiz-adv-x="882" 
d="M745 1681l-63 -446h-129l37 446h155zM823 930h-426v-596q0 -109 50.5 -164t146.5 -55q107 0 223 53v-135q-115 -53 -252 -53q-154 0 -237.5 84.5t-83.5 259.5v606h-170v135h170v258h153v-258h426v-135z" />
    <glyph glyph-name="Tbar" unicode="&#x166;" horiz-adv-x="1476" 
d="M1415 1495v-434h-139v301h-457v-545h271v-117h-271v-571h213v-129h-598v129h225v571h-272v117h272v545h-456v-301h-140v434h1352z" />
    <glyph glyph-name="tbar" unicode="&#x167;" horiz-adv-x="882" 
d="M823 930h-426v-248h340v-117h-340v-231q0 -109 50.5 -164t146.5 -55q107 0 223 53v-135q-115 -53 -252 -53q-154 0 -237.5 84.5t-83.5 259.5v241h-209v117h209v248h-170v135h170v258h153v-258h426v-135z" />
    <glyph glyph-name="Utilde" unicode="&#x168;" horiz-adv-x="1775" 
d="M774 1780q-80 0 -104 -78l-111 27q10 93 59.5 137.5t126.5 44.5q48 0 102 -23.5t102 -47t81 -23.5q80 0 105 75l108 -22q-9 -89 -61 -136.5t-135 -45.5q-53 0 -104 23t-93.5 46t-75.5 23zM1694 1495v-129h-193v-748q0 -162 -44 -285.5t-125.5 -200t-192 -114.5
t-248.5 -38q-136 0 -246.5 38t-193 114.5t-127.5 200t-45 285.5v748h-201v129h553v-129h-193v-748q0 -110 24.5 -196.5t66 -141.5t100.5 -90.5t123 -50t139 -14.5q97 0 175 24.5t141.5 79t98.5 153.5t35 236v748h-200v129h553z" />
    <glyph glyph-name="utilde" unicode="&#x169;" horiz-adv-x="1415" 
d="M524 1368q-80 0 -104 -78l-111 27q10 93 60 137.5t127 44.5q48 0 101.5 -23.5t101.5 -47t81 -23.5q39 0 65 17t40 59l108 -23q-9 -89 -61 -136.5t-135 -45.5q-53 0 -104 23t-93.5 46t-75.5 23zM1161 129h201v-129h-332v180q-133 -200 -385 -200q-181 0 -300.5 120.5
t-119.5 300.5v535h-190v129h344v-659q0 -127 83 -208t204 -83q121 -1 214.5 70.5t127.5 185.5v565h-191v129h344v-936z" />
    <glyph glyph-name="Umacron" unicode="&#x16a;" horiz-adv-x="1775" 
d="M1214 1790v-125h-634v125h634zM1694 1495v-129h-193v-748q0 -162 -44 -285.5t-125.5 -200t-192 -114.5t-248.5 -38q-136 0 -246.5 38t-193 114.5t-127.5 200t-45 285.5v748h-201v129h553v-129h-193v-748q0 -110 24.5 -196.5t66 -141.5t100.5 -90.5t123 -50t139 -14.5
q97 0 175 24.5t141.5 79t98.5 153.5t35 236v748h-200v129h553z" />
    <glyph glyph-name="umacron" unicode="&#x16b;" horiz-adv-x="1415" 
d="M977 1417v-125h-635v125h635zM1161 129h201v-129h-332v180q-133 -200 -385 -200q-181 0 -300.5 120.5t-119.5 300.5v535h-190v129h344v-659q0 -127 83 -208t204 -83q121 -1 214.5 70.5t127.5 185.5v565h-191v129h344v-936z" />
    <glyph glyph-name="Uring" unicode="&#x16e;" horiz-adv-x="1775" 
d="M895 1624q-103 0 -165 57.5t-62 151.5t62 151.5t165 57.5t165 -57.5t62 -151.5t-62 -151.5t-165 -57.5zM895 1937q-46 0 -75 -28.5t-29 -75.5q0 -44 29 -72t75 -28q47 0 76 28t28 72q1 47 -27.5 75.5t-76.5 28.5zM1694 1495v-129h-193v-748q0 -162 -44 -285.5
t-125.5 -200t-192 -114.5t-248.5 -38q-136 0 -246.5 38t-193 114.5t-127.5 200t-45 285.5v748h-201v129h553v-129h-193v-748q0 -110 24.5 -196.5t66 -141.5t100.5 -90.5t123 -50t139 -14.5q97 0 175 24.5t141.5 79t98.5 153.5t35 236v748h-200v129h553z" />
    <glyph glyph-name="uring" unicode="&#x16f;" horiz-adv-x="1415" 
d="M657 1198q-103 0 -165 57.5t-62 151.5t62 151.5t165 57.5t165.5 -57.5t62.5 -151.5t-62.5 -151.5t-165.5 -57.5zM657 1511q-46 0 -75 -28.5t-29 -75.5q0 -44 29 -72t75 -28q47 0 76.5 28t28.5 72q1 47 -28 75.5t-77 28.5zM1161 129h201v-129h-332v180
q-133 -200 -385 -200q-181 0 -300.5 120.5t-119.5 300.5v535h-190v129h344v-659q0 -127 83 -208t204 -83q121 -1 214.5 70.5t127.5 185.5v565h-191v129h344v-936z" />
    <glyph glyph-name="Uhungarumlaut" unicode="&#x170;" horiz-adv-x="1775" 
d="M967 1944l-197 -332h-113l138 334zM1071 1612h-113l138 334l172 -2zM1694 1495v-129h-193v-748q0 -162 -44 -285.5t-125.5 -200t-192 -114.5t-248.5 -38q-136 0 -246.5 38t-193 114.5t-127.5 200t-45 285.5v748h-201v129h553v-129h-193v-748q0 -110 24.5 -196.5
t66 -141.5t100.5 -90.5t123 -50t139 -14.5q97 0 175 24.5t141.5 79t98.5 153.5t35 236v748h-200v129h553z" />
    <glyph glyph-name="uhungarumlaut" unicode="&#x171;" horiz-adv-x="1415" 
d="M721 1540l-197 -332h-112l137 334zM825 1208h-112l137 334l172 -2zM1161 129h201v-129h-332v180q-133 -200 -385 -200q-181 0 -300.5 120.5t-119.5 300.5v535h-190v129h344v-659q0 -127 83 -208t204 -83q121 -1 214.5 70.5t127.5 185.5v565h-191v129h344v-936z" />
    <glyph glyph-name="Uogonek" unicode="&#x172;" horiz-adv-x="1775" 
d="M1694 1495v-129h-193v-748q0 -291 -136.5 -449.5t-377.5 -184.5q-160 -103 -160 -234q0 -47 29.5 -74.5t75.5 -27.5q42 0 88 12v-94q-55 -19 -111 -19q-95 0 -153 51t-58 144q0 138 144 240q-260 13 -411.5 172t-151.5 464v748h-201v129h553v-129h-193v-748
q0 -110 24.5 -196.5t66 -141.5t100.5 -90.5t123 -50t139 -14.5q97 0 175 24.5t141.5 79t98.5 153.5t35 236v748h-200v129h553z" />
    <glyph glyph-name="uogonek" unicode="&#x173;" horiz-adv-x="1415" 
d="M1161 129h201v-129h-211q-184 -109 -184 -250q0 -47 29 -74.5t75 -27.5q42 0 88 12v-94q-55 -19 -110 -19q-95 0 -153 51t-58 144q0 86 50 151.5t142 120.5v166q-133 -200 -385 -200q-181 0 -300.5 120.5t-119.5 300.5v535h-190v129h344v-659q0 -127 83 -208t204 -83
q121 -1 214.5 70.5t127.5 185.5v565h-191v129h344v-936z" />
    <glyph glyph-name="Wcircumflex" unicode="&#x174;" horiz-adv-x="2252" 
d="M1137 1780l-312 -150l-47 86l359 213l368 -213l-47 -86zM2251 1495v-129h-178l-383 -1366h-144l-413 965l-416 -965h-144l-395 1366h-186v129h567v-129h-211l309 -1147l414 961h121l418 -973l305 1159h-232v129h568z" />
    <glyph glyph-name="wcircumflex" unicode="&#x175;" horiz-adv-x="1880" 
d="M940 1384l-311 -149l-47 86l358 213l369 -213l-47 -86zM1874 1065v-129h-184l-316 -936h-200l-232 762l-246 -762h-196l-305 936h-183l-2 129h504v-129h-160l242 -784l262 819h168l252 -828l256 793h-156v129h496z" />
    <glyph glyph-name="Ycircumflex" unicode="&#x176;" horiz-adv-x="1536" 
d="M780 1780l-311 -150l-47 86l358 213l369 -213l-47 -86zM1311 1366l-455 -797v-440h213v-129h-586v129h213v440l-495 797h-185v129h533v-129h-172l405 -682l373 682h-186v129h547v-129h-205z" />
    <glyph glyph-name="ycircumflex" unicode="&#x177;" horiz-adv-x="1396" 
d="M700 1384l-311 -149l-47 86l358 213l369 -213l-47 -86zM1389 1065v-129h-201l-481 -1143q-95 -225 -289 -225q-88 0 -145.5 40.5t-63.5 121.5q-3 44 19.5 71t62.5 27q31 0 53 -20.5t25 -49.5q3 -31 -13 -51q18 -18 70 -18q93 0 143 110l80 201h-45l-399 936h-193l-2 129
h516v-129h-151l327 -813l326 813h-162v129h523z" />
    <glyph glyph-name="Ydieresis" unicode="&#x178;" horiz-adv-x="1536" 
d="M598 1667q-44 0 -76.5 33.5t-32.5 79.5q0 43 32.5 74.5t76.5 31.5q46 0 78.5 -31.5t32.5 -74.5q0 -46 -32.5 -79.5t-78.5 -33.5zM975 1667q-44 0 -76.5 33.5t-32.5 79.5q0 43 32.5 74.5t76.5 31.5q45 0 77.5 -31.5t32.5 -74.5q0 -46 -32.5 -79.5t-77.5 -33.5zM1311 1366
l-455 -797v-440h213v-129h-586v129h213v440l-495 797h-185v129h533v-129h-172l405 -682l373 682h-186v129h547v-129h-205z" />
    <glyph glyph-name="Zacute" unicode="&#x179;" horiz-adv-x="1447" 
d="M1061 1831l-422 -236l-59 88l393 291zM1229 416h127v-416h-1264v88l1012 1272h-850v-281h-131v416h1190v-84l-1012 -1276h928v281z" />
    <glyph glyph-name="zacute" unicode="&#x17a;" horiz-adv-x="1140" 
d="M868 1407l-434 -211l-53 90l407 270zM922 268h137v-268h-975l-2 82l764 850h-615v-148h-137v281h938v-119l-731 -815l621 2v135z" />
    <glyph glyph-name="Zdotaccent" unicode="&#x17b;" horiz-adv-x="1447" 
d="M754 1653q-52 0 -87.5 36t-35.5 89q0 50 35.5 84t87.5 34q51 0 87 -34.5t36 -83.5q0 -52 -36 -88.5t-87 -36.5zM1229 416h127v-416h-1264v88l1012 1272h-850v-281h-131v416h1190v-84l-1012 -1276h928v281z" />
    <glyph glyph-name="zdotaccent" unicode="&#x17c;" horiz-adv-x="1140" 
d="M571 1309q-52 0 -87 36t-35 89q0 50 35 84t87 34q51 0 87 -34.5t36 -83.5q0 -52 -36 -88.5t-87 -36.5zM922 268h137v-268h-975l-2 82l764 850h-615v-148h-137v281h938v-119l-731 -815l621 2v135z" />
    <glyph glyph-name="Zcaron" unicode="&#x17d;" horiz-adv-x="1447" 
d="M1143 1866l-389 -264l-387 264l51 86l334 -193l335 197zM1229 416h127v-416h-1264v88l1012 1272h-850v-281h-131v416h1190v-84l-1012 -1276h928v281z" />
    <glyph glyph-name="zcaron" unicode="&#x17e;" horiz-adv-x="1140" 
d="M961 1458l-390 -264l-387 264l52 86l333 -192l336 196zM922 268h137v-268h-975l-2 82l764 850h-615v-148h-137v281h938v-119l-731 -815l621 2v135z" />
    <glyph glyph-name="uni01EA" unicode="&#x1ea;" horiz-adv-x="1777" 
d="M981 -16q-158 -104 -158 -234q0 -47 29.5 -74.5t75.5 -27.5q42 0 88 12v-94q-55 -19 -111 -19q-95 0 -153 51t-58 144q0 138 144 240q-326 17 -526.5 229t-200.5 541q0 226 97.5 400t274.5 269t406 95h2q232 0 408.5 -95.5t272 -268.5t95.5 -400q0 -321 -186.5 -530
t-499.5 -238zM272 748q0 -145 48.5 -264t132 -198t196.5 -122t242 -43q176 0 314 73.5t219 217t81 336.5q0 194 -81 337.5t-219 216t-314 72.5q-129 0 -241.5 -42.5t-196.5 -121t-132.5 -198t-48.5 -264.5z" />
    <glyph glyph-name="uni01EB" unicode="&#x1eb;" horiz-adv-x="1300" 
d="M711 -18q-156 -102 -156 -232q0 -47 29 -74.5t75 -27.5q43 0 89 12v-94q-55 -19 -111 -19q-95 0 -153 51t-58 144q0 142 147 242q-222 24 -349.5 175t-127.5 378q0 245 149 396.5t404 151.5h2q253 0 403 -151.5t150 -396.5q0 -231 -132.5 -383t-360.5 -172zM252 535
q0 -191 110 -305.5t287 -114.5t287.5 114.5t110.5 305.5q0 189 -110.5 302t-287.5 113t-287 -113t-110 -302z" />
    <glyph glyph-name="AEacute" unicode="&#x1fc;" horiz-adv-x="2301" 
d="M1753 1831l-422 -236l-59 88l393 291zM2034 416h139v-416h-1233v129h219v291h-616l-191 -291h191v-129h-551v129h184l791 1227h-297v139h1501v-416h-139v283h-713v-561h600v-133h-600v-535h715v283zM627 551h532v817z" />
    <glyph glyph-name="aeacute" unicode="&#x1fd;" horiz-adv-x="1972" 
d="M1315 1407l-434 -211l-54 90l408 270zM1399 1085q99 0 190 -38.5t161.5 -109.5t106.5 -184.5t21 -250.5l-14 -15h-135l-689 2q10 -173 106 -273.5t247 -100.5q106 0 186.5 41.5t118.5 119.5h149q-40 -130 -161 -213t-293 -83q-150 0 -262.5 65t-176.5 184
q-59 -119 -180 -184t-289 -65q-180 0 -283.5 83.5t-103.5 221.5q0 154 120 240.5t337 86.5h328q-2 156 -88 247t-242 91q-68 0 -121 -17t-82.5 -43t-44.5 -47.5t-22 -41.5q23 -15 20 -51q-5 -28 -26 -47t-54 -19q-36 0 -59.5 24t-26.5 56q-6 57 17 112.5t72 103t134.5 76.5
t192.5 29q151 0 258 -58t164 -163q68 104 178.5 162.5t245.5 58.5zM1399 954q-133 0 -232.5 -93.5t-122.5 -244.5h691q-7 83 -38.5 149t-79 106.5t-103.5 61.5t-115 21zM528 115q140 0 237 70t118 196v102h-340q-145 0 -215 -45t-70 -143q0 -83 71.5 -131.5t198.5 -48.5z
" />
    <glyph glyph-name="Oslashacute" unicode="&#x1fe;" horiz-adv-x="1777" 
d="M1188 1831l-422 -236l-59 88l393 291zM1667 752q0 -228 -95.5 -403t-272 -272t-408.5 -97h-2q-270 0 -463 133l-113 -140l-108 78l119 146q-102 102 -157.5 244.5t-55.5 310.5q0 226 97.5 400t274.5 269t406 95h2q239 0 422 -103l100 123l111 -76l-103 -125
q118 -102 182 -251.5t64 -331.5zM272 748q0 -262 150 -431l795 977q-147 80 -326 80q-129 0 -241.5 -42.5t-196.5 -121t-132.5 -198t-48.5 -264.5zM891 121q176 0 314 73.5t219 217t81 336.5q0 298 -182 466l-801 -985q153 -108 369 -108z" />
    <glyph glyph-name="oslashacute" unicode="&#x1ff;" horiz-adv-x="1300" 
d="M963 1407l-435 -211l-53 90l408 270zM1204 537q0 -248 -150 -402.5t-403 -154.5h-2q-225 0 -373 126l-116 -114l-64 59l119 117q-119 150 -119 369q0 245 149 396.5t404 151.5h2q226 0 373 -122l100 98l64 -62l-103 -100q119 -143 119 -362zM252 535q0 -149 72 -261
l591 582q-105 94 -266 94q-177 0 -287 -113t-110 -302zM649 115q177 0 287.5 114.5t110.5 305.5q0 147 -72 256l-592 -582q108 -94 266 -94z" />
    <glyph glyph-name="Scommaaccent" unicode="&#x218;" horiz-adv-x="1456" 
d="M317 1112q0 -76 35.5 -129.5t95.5 -82.5t137.5 -47t163.5 -30.5t171.5 -26.5t163 -40.5t137.5 -67t95.5 -111.5t35.5 -169q0 -193 -161 -309.5t-460 -116.5v139q225 0 342 75.5t117 206.5q0 75 -35.5 127.5t-95 80t-137.5 45t-163.5 29t-171 25t-163.5 40.5t-137.5 68.5
t-95 115t-35.5 174.5q0 185 149.5 296.5t435.5 111.5h2q163 0 289.5 -48t197 -141t60.5 -217q-5 -44 -32.5 -72t-73.5 -28q-42 0 -70.5 28t-28.5 68q0 24 13.5 46t34.5 28q-15 88 -120.5 142t-271.5 54q-212 0 -318 -71.5t-106 -192.5zM266 301q18 -78 142.5 -129t322.5 -51
l-2 -139q-310 0 -470.5 100t-152.5 287q2 45 31 73.5t76 28.5q45 0 71.5 -27.5t26.5 -70.5q0 -23 -12 -43t-33 -29zM717 -70q84 0 115 -80q31 -78 -4 -172q-39 -101 -129 -140q-45 -19 -95 -19v88q44 0 83 30t36 64h-14q-47 0 -80 32.5t-33 82.5q0 51 34 82.5t87 31.5z" />
    <glyph glyph-name="scommaaccent" unicode="&#x219;" horiz-adv-x="1105" 
d="M256 197q21 -33 109 -57.5t192 -24.5q145 0 224 47t77 129q-1 59 -42 95.5t-105.5 52t-142 25.5t-154.5 27.5t-141 47.5t-104 93.5t-40 158.5q0 130 106 212t320 82q113 0 197.5 -23.5t133 -64.5t70.5 -92t19 -110q-2 -30 -27.5 -58t-62.5 -28q-39 0 -65.5 24t-26.5 62
q0 44 34 65q-10 34 -76 62t-196 28q-133 0 -204.5 -45.5t-71.5 -113.5q0 -61 40.5 -98.5t105 -55t142 -29.5t155.5 -30t142.5 -47.5t105 -91.5t40.5 -154q0 -139 -112.5 -222t-340.5 -83q-412 0 -461 233q-11 57 16.5 90t73.5 33q36 0 62 -25t26 -57q0 -39 -18 -57z
M442 -481v88q44 0 83 30t36 64h-14q-47 0 -80 32.5t-33 82.5q0 51 34 82.5t87 31.5q84 0 115 -80q31 -78 -4 -172q-39 -101 -129 -140q-44 -19 -95 -19z" />
    <glyph glyph-name="uni021A" unicode="&#x21a;" horiz-adv-x="1476" 
d="M1415 1495v-434h-139v301h-457v-1233h213v-129h-598v129h225v1233h-456v-301h-140v434h1352zM743 -70q84 0 116 -80q31 -78 -5 -172q-38 -101 -128 -140q-45 -19 -95 -19v88q44 0 83 30t36 64h-15q-47 0 -79.5 32.5t-32.5 82.5q0 51 33.5 82.5t86.5 31.5z" />
    <glyph glyph-name="uni021B" unicode="&#x21b;" horiz-adv-x="882" 
d="M823 930h-426v-596q0 -109 50.5 -164t146.5 -55q107 0 223 53v-135q-115 -53 -252 -53q-154 0 -237.5 84.5t-83.5 259.5v606h-170v135h170v258h153v-258h426v-135zM522 -70q84 0 116 -80q31 -78 -5 -172q-38 -101 -128 -140q-45 -19 -95 -19v88q44 0 82.5 29.5t35.5 64.5
h-14q-47 0 -80 32.5t-33 82.5q0 51 34 82.5t87 31.5z" />
    <glyph glyph-name="circumflex" unicode="&#x2c6;" horiz-adv-x="1228" 
d="M1077 1321l-47 -86l-321 149l-312 -149l-47 86l359 213z" />
    <glyph glyph-name="caron" unicode="&#x2c7;" horiz-adv-x="1228" 
d="M842 1548l55 -90l-389 -264l-387 264l51 86l334 -192z" />
    <glyph glyph-name="breve" unicode="&#x2d8;" horiz-adv-x="1228" 
d="M360 1493q9 -75 77 -121.5t165 -46.5q96 0 165 46t81 122l113 -10q-4 -125 -104.5 -201t-254.5 -76q-151 0 -253 74.5t-105 202.5z" />
    <glyph glyph-name="dotaccent" unicode="&#x2d9;" horiz-adv-x="618" 
d="M309 1374q-47 0 -79.5 33.5t-32.5 81.5q0 45 32.5 76.5t79.5 31.5q46 0 79.5 -32t33.5 -76q0 -47 -33.5 -81t-79.5 -34z" />
    <glyph glyph-name="ring" unicode="&#x2da;" horiz-adv-x="1228" 
d="M322 1198q-103 0 -165.5 57.5t-62.5 151.5t62.5 151.5t165.5 57.5t165 -57.5t62 -151.5t-62 -151.5t-165 -57.5zM322 1307q47 0 76 28t28 72q1 47 -27.5 75.5t-76.5 28.5q-46 0 -75.5 -28.5t-29.5 -75.5q0 -44 29.5 -72t75.5 -28z" />
    <glyph glyph-name="ogonek" unicode="&#x2db;" horiz-adv-x="1228" 
d="M727 -432q-55 -19 -111 -19q-95 0 -152.5 51t-57.5 144q0 99 66 171t187 134l60 -47q-184 -109 -184 -250q0 -47 29 -74.5t75 -27.5q42 0 88 12v-94z" />
    <glyph glyph-name="tilde" unicode="&#x2dc;" horiz-adv-x="1228" 
d="M905 1458q-9 -89 -61 -136.5t-135 -45.5q-53 0 -104 23t-93.5 46t-75.5 23q-80 0 -104 -78l-111 27q10 93 60 137.5t127 44.5q48 0 101.5 -23.5t101.5 -47t81 -23.5q39 0 65 17t40 59z" />
    <glyph glyph-name="hungarumlaut" unicode="&#x2dd;" horiz-adv-x="1228" 
d="M512 1542l172 -2l-197 -332h-112zM813 1542l172 -2l-197 -332h-112z" />
    <glyph glyph-name="gravecomb" unicode="&#x300;" 
d="M-739 1552l407 -270l-49 -88l-432 213z" />
    <glyph glyph-name="acutecomb" unicode="&#x301;" 
d="M-412 1556l80 -149l-434 -211l-53 90z" />
    <glyph glyph-name="uni0302" unicode="&#x302;" 
d="M-141 1321l-47 -86l-322 149l-311 -149l-47 86l358 213z" />
    <glyph glyph-name="tildecomb" unicode="&#x303;" 
d="M-238 1458q-9 -89 -61 -136.5t-135 -45.5q-53 0 -104 23t-93.5 46t-75.5 23q-80 0 -104 -78l-111 27q10 93 60 137.5t127 44.5q48 0 101.5 -23.5t101.5 -47t81 -23.5q39 0 65 17t40 59z" />
    <glyph glyph-name="uni0304" unicode="&#x304;" 
d="M-905 1417h635v-125h-635v125z" />
    <glyph glyph-name="uni0306" unicode="&#x306;" 
d="M-868 1493q9 -75 76.5 -121.5t164.5 -46.5q96 0 165 46t81 122l113 -10q-4 -125 -104.5 -201t-254.5 -76q-151 0 -253 74.5t-105 202.5z" />
    <glyph glyph-name="uni0307" unicode="&#x307;" 
d="M-287 1309q-52 0 -87.5 36t-35.5 89q0 50 35.5 84t87.5 34q51 0 87 -34.5t36 -83.5q0 -52 -36 -88.5t-87 -36.5z" />
    <glyph glyph-name="uni0308" unicode="&#x308;" 
d="M-606 1298q-44 0 -76.5 33.5t-32.5 79.5q0 43 32.5 75t76.5 32q45 0 77.5 -32t32.5 -75q0 -46 -32.5 -79.5t-77.5 -33.5zM-229 1298q-44 0 -76.5 33.5t-32.5 79.5q0 43 32.5 75t76.5 32q45 0 77.5 -32t32.5 -75q0 -46 -32.5 -79.5t-77.5 -33.5z" />
    <glyph glyph-name="uni030A" unicode="&#x30a;" 
d="M-324 1198q-103 0 -165 57.5t-62 151.5t62 151.5t165 57.5t165.5 -57.5t62.5 -151.5t-62.5 -151.5t-165.5 -57.5zM-324 1307q47 0 76.5 28t28.5 72q1 47 -28 75.5t-77 28.5q-46 0 -75 -28.5t-29 -75.5q0 -44 29 -72t75 -28z" />
    <glyph glyph-name="uni030B" unicode="&#x30b;" 
d="M-717 1542l172 -2l-196 -332h-113zM-416 1542l172 -2l-196 -332h-113z" />
    <glyph glyph-name="uni030C" unicode="&#x30c;" 
d="M-176 1548l55 -90l-389 -264l-387 264l51 86l334 -192z" />
    <glyph glyph-name="uni0326" unicode="&#x326;" 
d="M-418 -481v88q44 0 83 30t36 64h-14q-47 0 -80 32.5t-33 82.5q0 51 34 82.5t87 31.5q84 0 115 -80q31 -78 -4 -172q-39 -101 -129 -140q-44 -19 -95 -19z" />
    <glyph glyph-name="uni0327" unicode="&#x327;" 
d="M-733 -178l12 184h123v-92q87 0 142 -45t55 -129q0 -87 -67.5 -139t-170.5 -52q-132 0 -203 68l43 76q66 -47 148 -47q57 0 90 24.5t33 67.5t-29.5 62.5t-91.5 21.5h-84z" />
    <glyph glyph-name="uni0328" unicode="&#x328;" 
d="M-502 -432q-55 -19 -110 -19q-95 0 -153 51t-58 144q0 99 66.5 171t187.5 134l59 -47q-184 -109 -184 -250q0 -47 29 -74.5t75 -27.5q42 0 88 12v-94z" />
    <glyph glyph-name="uni0335" unicode="&#x335;" 
d="M-805 891h703v-117h-703v117z" />
    <glyph glyph-name="uni0336" unicode="&#x336;" 
d="M-1645 909h1614v-129h-1614v129z" />
    <glyph glyph-name="uni0337" unicode="&#x337;" 
d="M-170 1059l68 -103l-580 -360l-68 98z" />
    <glyph glyph-name="uni0338" unicode="&#x338;" 
d="M-109 1075l64 -61l-1028 -1008l-64 60z" />
    <glyph glyph-name="Wgrave" unicode="&#x1e80;" horiz-adv-x="2252" 
d="M1374 1694l-51 -86l-428 223l78 143zM2251 1495v-129h-178l-383 -1366h-144l-413 965l-416 -965h-144l-395 1366h-186v129h567v-129h-211l309 -1147l414 961h121l418 -973l305 1159h-232v129h568z" />
    <glyph glyph-name="wgrave" unicode="&#x1e81;" horiz-adv-x="1880" 
d="M1184 1282l-49 -88l-433 213l74 145zM1874 1065v-129h-184l-316 -936h-200l-232 762l-246 -762h-196l-305 936h-183l-2 129h504v-129h-160l242 -784l262 819h168l252 -828l256 793h-156v129h496z" />
    <glyph glyph-name="Wacute" unicode="&#x1e82;" horiz-adv-x="2252" 
d="M1450 1831l-422 -236l-59 88l393 291zM2251 1495v-129h-178l-383 -1366h-144l-413 965l-416 -965h-144l-395 1366h-186v129h567v-129h-211l309 -1147l414 961h121l418 -973l305 1159h-232v129h568z" />
    <glyph glyph-name="wacute" unicode="&#x1e83;" horiz-adv-x="1880" 
d="M1239 1407l-434 -211l-53 90l407 270zM1874 1065v-129h-184l-316 -936h-200l-232 762l-246 -762h-196l-305 936h-183l-2 129h504v-129h-160l242 -784l262 819h168l252 -828l256 793h-156v129h496z" />
    <glyph glyph-name="Wdieresis" unicode="&#x1e84;" horiz-adv-x="2252" 
d="M954 1667q-44 0 -76 33.5t-32 79.5q0 43 32 74.5t76 31.5q46 0 78.5 -31.5t32.5 -74.5q0 -46 -32.5 -79.5t-78.5 -33.5zM1331 1667q-44 0 -76 33.5t-32 79.5q0 43 32 74.5t76 31.5q46 0 78.5 -31.5t32.5 -74.5q0 -46 -32.5 -79.5t-78.5 -33.5zM2251 1495v-129h-178
l-383 -1366h-144l-413 965l-416 -965h-144l-395 1366h-186v129h567v-129h-211l309 -1147l414 961h121l418 -973l305 1159h-232v129h568z" />
    <glyph glyph-name="wdieresis" unicode="&#x1e85;" horiz-adv-x="1880" 
d="M754 1298q-44 0 -76.5 33.5t-32.5 79.5q0 43 32.5 75t76.5 32q45 0 77.5 -32t32.5 -75q0 -46 -32.5 -79.5t-77.5 -33.5zM1130 1298q-44 0 -76 33.5t-32 79.5q0 43 32 75t76 32q45 0 78 -32t33 -75q0 -46 -32.5 -79.5t-78.5 -33.5zM1874 1065v-129h-184l-316 -936h-200
l-232 762l-246 -762h-196l-305 936h-183l-2 129h504v-129h-160l242 -784l262 819h168l252 -828l256 793h-156v129h496z" />
    <glyph glyph-name="uni1E9E" unicode="&#x1e9e;" horiz-adv-x="1740" 
d="M1135 1108q0 -55 18 -99t48 -74t69 -55.5t82 -48.5t86 -48t82 -59t69 -76t48 -104.5t18 -140.5q0 -193 -127.5 -307t-353.5 -114q-235 0 -357.5 96t-116.5 266q3 47 32 76t77 29q45 0 71.5 -27.5t26.5 -71.5q0 -29 -15 -49.5t-40 -28.5q19 -69 96.5 -110t225.5 -41
q146 0 232.5 75.5t86.5 204.5q0 59 -18 106.5t-48 81t-69 62t-82 53t-86 50.5t-82 59t-69 72t-48 96t-18 127q0 156 104 250h-354q-128 0 -207.5 -68.5t-79.5 -187.5v-1102h-160v1102q0 182 123.5 287.5t321.5 105.5h612v-137h-2q-26 0 -57.5 -15t-63.5 -44t-53.5 -79.5
t-21.5 -111.5zM84 0v129h190v-129h-190z" />
    <glyph glyph-name="Ygrave" unicode="&#x1ef2;" horiz-adv-x="1536" 
d="M1018 1694l-51 -86l-428 223l77 143zM1311 1366l-455 -797v-440h213v-129h-586v129h213v440l-495 797h-185v129h533v-129h-172l405 -682l373 682h-186v129h547v-129h-205z" />
    <glyph glyph-name="ygrave" unicode="&#x1ef3;" horiz-adv-x="1396" 
d="M944 1282l-49 -88l-432 213l74 145zM1389 1065v-129h-201l-481 -1143q-95 -225 -289 -225q-88 0 -145.5 40.5t-63.5 121.5q-3 44 19.5 71t62.5 27q31 0 53 -20.5t25 -49.5q3 -31 -13 -51q18 -18 70 -18q93 0 143 110l80 201h-45l-399 936h-193l-2 129h516v-129h-151
l327 -813l326 813h-162v129h523z" />
    <glyph glyph-name="uni1EF8" unicode="&#x1ef8;" horiz-adv-x="1536" 
d="M664 1780q-81 0 -105 -78l-110 27q10 93 59.5 137.5t126.5 44.5q48 0 102 -23.5t102 -47t81 -23.5q39 0 64.5 16.5t39.5 58.5l109 -22q-9 -89 -61.5 -136.5t-135.5 -45.5q-42 0 -83.5 14.5t-69 31.5t-60 31.5t-59.5 14.5zM1311 1366l-455 -797v-440h213v-129h-586v129
h213v440l-495 797h-185v129h533v-129h-172l405 -682l373 682h-186v129h547v-129h-205z" />
    <glyph glyph-name="uni1EF9" unicode="&#x1ef9;" horiz-adv-x="1396" 
d="M567 1368q-80 0 -104 -78l-111 27q10 93 60 137.5t127 44.5q48 0 101.5 -23.5t101.5 -47t81 -23.5q39 0 65 17t40 59l108 -23q-9 -89 -61 -136.5t-135 -45.5q-53 0 -104 23t-93.5 46t-75.5 23zM1389 1065v-129h-201l-481 -1143q-95 -225 -289 -225q-88 0 -145.5 40.5
t-63.5 121.5q-3 44 19.5 71t62.5 27q31 0 53 -20.5t25 -49.5q3 -31 -13 -51q18 -18 70 -18q93 0 143 110l80 201h-45l-399 936h-193l-2 129h516v-129h-151l327 -813l326 813h-162v129h523z" />
    <glyph glyph-name="endash" unicode="&#x2013;" horiz-adv-x="1257" 
d="M1110 616v-137h-963v137h963z" />
    <glyph glyph-name="emdash" unicode="&#x2014;" horiz-adv-x="1519" 
d="M1370 616v-137h-1223v137h1223z" />
    <glyph glyph-name="quoteleft" unicode="&#x2018;" horiz-adv-x="501" 
d="M362 1491v-90q-47 0 -86.5 -30t-52.5 -79q15 6 35 6q47 0 80 -32t33 -82q0 -51 -34 -83t-87 -32q-85 0 -118 82q-32 79 3 175q38 104 129 145q45 20 98 20z" />
    <glyph glyph-name="quoteright" unicode="&#x2019;" horiz-adv-x="497" 
d="M147 1094v90q47 0 87 30t53 78q-15 -6 -35 -6q-47 0 -80 32.5t-33 82.5q0 51 34 83t87 32q85 0 118 -82q32 -79 -3 -175q-39 -105 -130 -145q-45 -20 -98 -20z" />
    <glyph glyph-name="quotesinglbase" unicode="&#x201a;" horiz-adv-x="522" 
d="M145 -213v90q47 0 87 30t53 79q-15 -6 -35 -6q-47 0 -80 32t-33 82q0 51 34 83t87 32q85 0 118 -82q32 -79 -3 -175q-39 -105 -130 -145q-45 -20 -98 -20z" />
    <glyph glyph-name="quotedblleft" unicode="&#x201c;" horiz-adv-x="823" 
d="M362 1491v-90q-47 0 -86.5 -30t-52.5 -79q15 6 35 6q47 0 80 -32t33 -82q0 -51 -34 -83t-87 -32q-85 0 -118 82q-32 79 3 175q38 104 129 145q45 20 98 20zM684 1491v-90q-47 0 -86.5 -30t-52.5 -79q15 6 35 6q47 0 79.5 -32t32.5 -82q0 -51 -34 -83t-87 -32
q-85 0 -118 82q-32 79 3 175q39 105 130 145q45 20 98 20z" />
    <glyph glyph-name="quotedblright" unicode="&#x201d;" horiz-adv-x="819" 
d="M147 1094v90q47 0 87 30t53 78q-15 -6 -35 -6q-47 0 -80 32.5t-33 82.5q0 51 34 83t87 32q85 0 118 -82q32 -79 -3 -175q-39 -105 -130 -145q-45 -20 -98 -20zM469 1094v90q47 0 86.5 30t52.5 78q-15 -6 -35 -6q-47 0 -79.5 32.5t-32.5 82.5q0 51 34 83t87 32
q85 0 118 -82q32 -79 -3 -175q-39 -105 -130 -145q-45 -20 -98 -20z" />
    <glyph glyph-name="quotedblbase" unicode="&#x201e;" horiz-adv-x="843" 
d="M145 -213v90q47 0 87 30t53 79q-15 -6 -35 -6q-47 0 -80 32t-33 82q0 51 34 83t87 32q85 0 118 -82q32 -79 -3 -175q-39 -105 -130 -145q-45 -20 -98 -20zM467 -213v90q47 0 86.5 30t52.5 79q-15 -6 -35 -6q-47 0 -79.5 32t-32.5 82q0 51 34 83t87 32q85 0 118 -82
q32 -79 -3 -175q-39 -105 -130 -145q-45 -20 -98 -20z" />
    <glyph glyph-name="dagger" unicode="&#x2020;" horiz-adv-x="1157" 
d="M1065 1061v-131h-408l-8 -1053h-141l-8 1053h-406v131h406l-4 536h168l-5 -536h406z" />
    <glyph glyph-name="daggerdbl" unicode="&#x2021;" horiz-adv-x="1157" 
d="M1065 991h-406l-4 -272h410v-125h-410l-6 -717h-141l-4 717h-410v125h408l-2 272h-406v127h406l-4 479h168l-5 -479h406v-127z" />
    <glyph glyph-name="bullet" unicode="&#x2022;" horiz-adv-x="864" 
d="M432 348q-105 0 -180.5 77t-75.5 187q0 99 76 173.5t180 74.5q102 0 178 -74.5t76 -173.5q0 -109 -75 -186.5t-179 -77.5z" />
    <glyph glyph-name="ellipsis" unicode="&#x2026;" horiz-adv-x="1441" 
d="M252 -20q-48 0 -82.5 35t-34.5 85q0 47 35 81t82 34q49 0 84 -34t35 -81q0 -51 -34.5 -85.5t-84.5 -34.5zM715 -20q-48 0 -82.5 35t-34.5 85q0 47 35 81t82 34q49 0 84 -34t35 -81q0 -51 -34.5 -85.5t-84.5 -34.5zM1188 -20q-48 0 -82.5 35t-34.5 85q0 47 35 81t82 34
q49 0 84 -34t35 -81q0 -51 -34.5 -85.5t-84.5 -34.5z" />
    <glyph glyph-name="perthousand" unicode="&#x2030;" horiz-adv-x="2768" 
d="M422 735h-2q-154 2 -248 108.5t-94 282.5q0 175 94 281.5t248 108.5h2q154 -2 248 -108.5t94 -281.5q0 -176 -94 -282.5t-248 -108.5zM1247 1489l115 -41l-631 -1405l-119 45zM201 1126q0 -126 61 -203t160 -77q98 0 158.5 77t60.5 203t-60.5 202.5t-158.5 76.5
q-99 0 -160 -76.5t-61 -202.5zM1528 760q154 -2 248 -108.5t94 -280.5q0 -176 -94 -282.5t-248 -108.5h-2q-154 2 -248 108.5t-94 282.5q0 174 94 280.5t248 108.5h2zM2689 371q0 -176 -94.5 -282.5t-249.5 -108.5h-2q-153 2 -247.5 108.5t-94.5 282.5q0 174 94.5 280.5
t247.5 108.5h2q154 -2 249 -108.5t95 -280.5zM1526 90q98 0 159.5 77.5t61.5 203.5q0 125 -61 201.5t-160 76.5q-98 0 -158.5 -76t-60.5 -202t60.5 -203.5t158.5 -77.5zM2345 90q98 0 158.5 77.5t60.5 203.5t-60.5 202t-158.5 76q-99 0 -160 -76.5t-61 -201.5
q0 -126 61.5 -203.5t159.5 -77.5z" />
    <glyph glyph-name="guilsinglleft" unicode="&#x2039;" horiz-adv-x="780" 
d="M633 948v-151l-430 -236l430 -229v-152l-551 318v120z" />
    <glyph glyph-name="guilsinglright" unicode="&#x203a;" horiz-adv-x="772" 
d="M147 948l543 -330v-120l-543 -318v150l433 231l-433 240v147z" />
    <glyph glyph-name="fraction" unicode="&#x2044;" horiz-adv-x="784" 
d="M39 -20l575 1521h134l-576 -1521h-133z" />
    <glyph glyph-name="Euro" unicode="&#x20ac;" horiz-adv-x="1669" 
d="M1337 788q0 30 14.5 52t37.5 30q2 80 -57 149.5t-162 110.5t-224 41q-195 0 -331 -98.5t-177 -277.5h600l-26 -105h-588q-2 -14 -2 -45q0 -35 2 -51h567l-24 -105h-529q44 -183 181 -277.5t323 -94.5q163 0 288.5 81t158.5 210h151q-34 -189 -201 -308.5t-397 -119.5
q-256 0 -436.5 130.5t-226.5 378.5h-203l24 105h166q-2 18 -2 55v41h-143l24 105h131q44 243 224 379.5t446 136.5q273 0 443 -149t155 -367q-5 -46 -34.5 -74.5t-73.5 -28.5q-43 0 -71 29t-28 67z" />
    <glyph glyph-name="uni2116" unicode="&#x2116;" horiz-adv-x="3026" 
d="M1765 1530q93 0 144.5 -45t40.5 -107q-5 -37 -32.5 -60t-70.5 -24q-38 -1 -68 27.5t-28 64.5q-10 5 -25 5q-41 0 -65.5 -39t-24.5 -115v-1237h-149l-901 1200v-893q0 -171 -76 -266.5t-219 -95.5q-95 0 -156 51t-51 131q6 40 33.5 63t68.5 23q53 0 81 -39t14 -86
q7 -10 36 -10q48 0 77.5 51.5t29.5 142.5v1080h-221v143h362l910 -1225v928q0 158 73.5 245t216.5 87zM2456 420q-201 0 -325 117t-124 307q0 187 124 302.5t325 115.5h2q202 0 326 -115t124 -303q0 -191 -124 -307.5t-326 -116.5h-2zM2458 1128q-138 0 -221 -78.5
t-83 -207.5q0 -131 83 -211t221 -80q136 0 218.5 80t82.5 211q0 129 -82.5 207.5t-218.5 78.5zM2052 143l-4 123h823v-123h-819z" />
    <glyph glyph-name="trademark" unicode="&#x2122;" horiz-adv-x="1785" 
d="M725 1495v-217h-92v123h-154v-479h105v-91h-326v91h104v479h-151v-123h-92v217h606zM1538 922h100v-91h-303v91h97l-31 378l-154 -268h-123l-153 271l-29 -381h92v-91h-301v91h103l38 477h-92v96h197l207 -371l209 371h196v-96h-94z" />
    <glyph glyph-name="minus" unicode="&#x2212;" horiz-adv-x="1132" 
d="M977 598v-125h-819v125h819z" />
    <glyph glyph-name="approxequal" unicode="&#x2248;" horiz-adv-x="1138" 
d="M981 803q-11 -92 -74 -148t-157 -55q-53 0 -105 14.5t-87.5 32.5t-79 33t-79.5 16q-112 3 -135 -100l-106 22q7 95 64.5 152t144.5 57q59 -2 125.5 -27t128 -49.5t110.5 -25.5q51 -2 91.5 22.5t54.5 75.5zM981 459q-11 -92 -74 -148t-157 -55q-53 0 -105 14.5t-87.5 32.5
t-79 33t-79.5 16q-112 3 -135 -100l-106 22q7 95 64.5 152t144.5 57q59 -2 125.5 -27t128 -49.5t110.5 -25.5q52 -2 92 22t54 76z" />
    <glyph glyph-name="notequal" unicode="&#x2260;" horiz-adv-x="1085" 
d="M926 633h-310l-59 -215h369v-119h-402l-71 -254h-117l72 254h-252v119h284l60 215h-344v119h379l75 272h115l-76 -272h277v-119z" />
    <glyph glyph-name="dotlessj" unicode="&#xf6be;" horiz-adv-x="624" 
d="M430 1065v-1126q0 -191 -68 -278t-215 -87q-94 0 -163 46t-76 136q-5 44 22 75.5t70 31.5q39 0 63.5 -24.5t24.5 -57.5q0 -34 -16 -53q8 -11 31.5 -21t48.5 -10q69 0 96.5 47t27.5 168v1024h-200v129h354z" />
    <glyph glyph-name="uniF8FF" unicode="&#xf8ff;" horiz-adv-x="2971" 
d="M1415 1194q0 54 36 90.5t89 36.5q54 0 90.5 -36.5t36.5 -90.5q0 -53 -36.5 -89t-90.5 -36q-52 0 -88.5 36.5t-36.5 88.5zM449 553h-244q0 159 4.5 320t8.5 242l5 81h205q19 -286 21 -643zM1421 553q0 187 6 301h-124l6 -133q7 -8 30 -8q13 0 22 2.5t12 4.5l3 3v-152
q-2 -3 -8.5 -8t-41 -13.5t-85.5 -8.5q-172 0 -172 135q0 30 4 102t4 76h-45v162l244 61l2 -35h364q21 -132 21 -489h-242zM672 543q-90 0 -139.5 57.5t-49.5 173.5q0 279 281 279q124 0 185 -62t63 -178v-260h-170l-17 125q-13 -67 -48 -101t-105 -34zM2232 553h-233
q0 53 2 114.5t2 82.5q0 29 -6.5 41t-24.5 12q-20 0 -28.5 -12.5t-8.5 -40.5q0 -21 3.5 -82.5t3.5 -114.5h-234q0 159 5 281.5t11 165.5l5 42h163q13 -92 13 -155q0 7 3 22.5t14 41.5t27.5 48t48.5 38t73 16q83 0 117.5 -49.5t37.5 -167.5zM2767 786q0 -112 -63.5 -177.5
t-190.5 -65.5q-123 0 -185.5 67t-62.5 176q0 267 250 267q75 0 127 -21t78 -60t36.5 -83t10.5 -103zM799 768q0 53 -47 53q-25 0 -36 -12t-11 -41q0 -61 47 -61q22 0 34.5 16t12.5 45zM2562 768q0 53 -47 53q-22 0 -32.5 -12t-10.5 -41q0 -61 43 -61q22 0 34.5 16t12.5 45z
M877 487h213q20 -123 20 -301q0 -150 -71.5 -219t-233.5 -69q-64 0 -111 8.5t-62 17.5l-14 8v170q42 -32 142 -32q31 0 54 6t33.5 14.5t16.5 16.5t7 14l1 6q-26 -23 -100 -23q-184 0 -184 170v27h-113l6 -133q8 -8 31 -8q13 0 22 2.5t12 5.5l3 2v-150q-2 -3 -8.5 -8
t-41.5 -13.5t-87 -8.5q-168 0 -168 131q0 93 6 180h-37v164l240 59l-2 -35l362 -2v-243q0 -31 6 -43.5t23 -12.5q20 0 27.5 12.5t7.5 43.5v243zM1501 498q76 0 120 -59.5t44 -170.5q0 -278 -281 -278q2 -27 2 -80h-243q0 156 5 300t10 210l5 67h160q14 -106 14 -155
q1 9 4.5 23t15.5 41t28.5 48t47 37.5t68.5 16.5zM2191 264q0 -23 -1.5 -42t-3.5 -26l-1 -8h-254q2 -4 7.5 -10t31.5 -16t62 -10q34 0 62.5 6t39.5 12l12 6v-153q-5 -4 -14.5 -9.5t-50.5 -14.5t-94 -9q-142 0 -215.5 63t-73.5 176q0 131 66.5 200t191.5 69q110 0 172.5 -62
t62.5 -172zM2003 223q6 56 -35 56q-47 0 -47 -56h82zM1372 147q3 0 8 1t18.5 5.5t23.5 12t18 23t8 36.5q0 45 -41 45q-45 0 -45 -65q0 -14 2.5 -28.5t5.5 -22.5zM2202 27q0 -20 13.5 -33.5t33.5 -13.5q19 0 32 13.5t13 33.5t-13 32.5t-32 12.5q-20 0 -33.5 -12.5
t-13.5 -32.5zM2212 27q0 15 11 25.5t26 10.5q14 0 24.5 -10.5t10.5 -25.5t-10.5 -26t-24.5 -11q-15 0 -26 11t-11 26zM2269 4l-12 19q14 0 14 14t-20 14h-23v-47h10v19h11l8 -19h12zM2251 31h-13v12h11q12 0 12 -4q0 -8 -10 -8z" />
    <glyph glyph-name="i.loclTRK" horiz-adv-x="686" 
d="M344 1309q-52 0 -87.5 36t-35.5 89q0 50 35.5 84t87.5 34q51 0 87 -34.5t36 -83.5q0 -52 -36 -88.5t-87 -36.5zM438 129h191v-129h-549v129h205v807h-201v129h354v-936z" />
    <glyph glyph-name="zero.zero" horiz-adv-x="1513" 
d="M758 1516q140 0 256.5 -50.5t201 -145.5t132 -240.5t47.5 -327.5q0 -180 -47.5 -326.5t-132 -243.5t-201.5 -149.5t-256 -52.5q-294 0 -466.5 202t-172.5 570q0 364 172.5 564t466.5 200zM758 1374q-221 0 -349 -162t-128 -464q0 -228 73 -377l705 886q-120 117 -301 117
zM758 121q211 0 343 166.5t132 460.5q0 243 -90 401l-709 -897q125 -131 324 -131z" />
    <glyph glyph-name="caroncomb.alt" 
d="M-494 1235l64 446h-156l-37 -446h129z" />
    <glyph glyph-name="acutecomb.case" 
d="M-434 1974l88 -143l-422 -236l-59 88z" />
    <glyph glyph-name="uni0306.case" 
d="M-868 1913q9 -75 76.5 -121.5t164.5 -46.5q96 0 165 46t81 122l113 -10q-4 -125 -104.5 -201t-254.5 -76q-151 0 -253 74.5t-105 202.5z" />
    <glyph glyph-name="uni030C.case" 
d="M-252 1956l55 -90l-389 -264l-387 264l51 86l334 -193z" />
    <glyph glyph-name="uni0302.case" 
d="M-256 1716l-47 -86l-322 150l-311 -150l-47 86l358 213z" />
    <glyph glyph-name="uni0308.case" 
d="M-606 1667q-44 0 -76.5 33.5t-32.5 79.5q0 43 32.5 74.5t76.5 31.5q45 0 77.5 -31.5t32.5 -74.5q0 -46 -32.5 -79.5t-77.5 -33.5zM-229 1667q-44 0 -76.5 33.5t-32.5 79.5q0 43 32.5 74.5t76.5 31.5q45 0 77.5 -31.5t32.5 -74.5q0 -46 -32.5 -79.5t-77.5 -33.5z" />
    <glyph glyph-name="uni0307.case" 
d="M-287 1653q-52 0 -87.5 36t-35.5 89q0 50 35.5 84t87.5 34q51 0 87 -34.5t36 -83.5q0 -52 -36 -88.5t-87 -36.5z" />
    <glyph glyph-name="gravecomb.case" 
d="M-735 1974l401 -280l-51 -86l-428 223z" />
    <glyph glyph-name="uni030B.case" 
d="M-717 1946l172 -2l-196 -332h-113zM-416 1946l172 -2l-196 -332h-113z" />
    <glyph glyph-name="uni0304.case" 
d="M-905 1790h635v-125h-635v125z" />
    <glyph glyph-name="uni030A.case" 
d="M-324 1624q-103 0 -165 57.5t-62 151.5t62 151.5t165 57.5t165.5 -57.5t62.5 -151.5t-62.5 -151.5t-165.5 -57.5zM-324 1733q47 0 76.5 28t28.5 72q1 47 -28 75.5t-77 28.5q-46 0 -75 -28.5t-29 -75.5q0 -44 29 -72t75 -28z" />
    <glyph glyph-name="uni0338.case" 
d="M-166 1491l111 -76l-1211 -1487l-108 78z" />
    <glyph glyph-name="uni0337.case" 
d="M-473 1053l59 -109l-630 -348l-58 104z" />
    <glyph glyph-name="tildecomb.case" 
d="M-225 1870q-9 -89 -61.5 -136.5t-135.5 -45.5q-42 0 -83.5 14.5t-69 31.5t-60 31.5t-59.5 14.5q-81 0 -105 -78l-110 27q10 93 59.5 137.5t126.5 44.5q48 0 102 -23.5t102 -47t81 -23.5q39 0 64.5 16.5t39.5 58.5z" />
    <glyph glyph-name="acute.case" horiz-adv-x="1228" 
d="M795 1974l88 -143l-422 -236l-60 88z" />
    <glyph glyph-name="breve.case" horiz-adv-x="1228" 
d="M360 1913q9 -75 77 -121.5t165 -46.5q96 0 165 46t81 122l113 -10q-4 -125 -104.5 -201t-254.5 -76q-151 0 -253 74.5t-105 202.5z" />
    <glyph glyph-name="caron.case" horiz-adv-x="1228" 
d="M920 1956l55 -90l-389 -264l-387 264l51 86l334 -193z" />
    <glyph glyph-name="circumflex.case" horiz-adv-x="1228" 
d="M991 1716l-47 -86l-321 150l-312 -150l-47 86l359 213z" />
    <glyph glyph-name="dieresis.case" horiz-adv-x="1228" 
d="M229 1667q-44 0 -76 33.5t-32 79.5q0 43 32 74.5t76 31.5q46 0 78.5 -31.5t32.5 -74.5q0 -46 -32.5 -79.5t-78.5 -33.5zM606 1667q-44 0 -76 33.5t-32 79.5q0 43 32 74.5t76 31.5q46 0 78.5 -31.5t32.5 -74.5q0 -46 -32.5 -79.5t-78.5 -33.5z" />
    <glyph glyph-name="dotaccent.case" horiz-adv-x="978" 
d="M287 1653q-52 0 -87.5 36t-35.5 89q0 50 35.5 84t87.5 34q51 0 87 -34.5t36 -83.5q0 -52 -36 -88.5t-87 -36.5z" />
    <glyph glyph-name="grave.case" horiz-adv-x="1228" 
d="M410 1974l401 -280l-51 -86l-428 223z" />
    <glyph glyph-name="hungarumlaut.case" horiz-adv-x="1228" 
d="M512 1946l172 -2l-197 -332h-112zM813 1946l172 -2l-197 -332h-112z" />
    <glyph glyph-name="macron.case" horiz-adv-x="1228" 
d="M324 1790h634v-125h-634v125z" />
    <glyph glyph-name="ring.case" horiz-adv-x="1228" 
d="M322 1624q-103 0 -165.5 57.5t-62.5 151.5t62.5 151.5t165.5 57.5t165 -57.5t62 -151.5t-62 -151.5t-165 -57.5zM322 1733q47 0 76 28t28 72q1 47 -27.5 75.5t-76.5 28.5q-46 0 -75.5 -28.5t-29.5 -75.5q0 -44 29.5 -72t75.5 -28z" />
    <glyph glyph-name="tilde.case" horiz-adv-x="1228" 
d="M895 1870q-9 -89 -61.5 -136.5t-135.5 -45.5q-42 0 -83.5 14.5t-69 31.5t-60 31.5t-59.5 14.5q-80 0 -104 -78l-111 27q10 93 59.5 137.5t126.5 44.5q48 0 102 -23.5t102 -47t81 -23.5q39 0 64.5 16.5t39.5 58.5z" />
    <glyph glyph-name="IJacute" horiz-adv-x="2162" 
d="M281 1686l393 290l88 -143l-422 -236zM1956 1831l-422 -236l-59 88l393 291zM670 1495v-129h-199v-1237h199v-129h-555v129h196v1237h-196v129h555zM1948 1495v-956h-2q0 -253 -147.5 -406t-409.5 -153h-3q-270 0 -415.5 132t-136.5 343q3 47 33.5 77.5t78.5 30.5
t75.5 -29.5t27.5 -72.5q0 -30 -15 -54t-41 -34q14 -109 116.5 -179.5t276.5 -70.5q181 0 290.5 115.5t109.5 300.5h2l2 819h-604v137h762z" />
    <glyph glyph-name="ijacute" horiz-adv-x="1413" 
d="M1249 1419l-434 -211l-53 90l407 271zM641 1407l-434 -211l-53 90l407 270zM629 129v-129h-549v129h205v807h-201v129h354v-936h191zM1149 1065v-1126q0 -191 -68 -278t-215 -87q-94 0 -163 46t-76 136q-5 44 22 75.5t70 31.5q39 0 63.5 -24.5t24.5 -57.5q0 -34 -16 -53
q8 -11 31 -21t48 -10q69 0 97 47t28 168v1024h-200v129h354z" />
    <glyph glyph-name="slashlong" horiz-adv-x="1228" 
 />
    <glyph glyph-name="slashshort" horiz-adv-x="1228" 
 />
    <glyph glyph-name="stroke" horiz-adv-x="1228" 
 />
    <glyph glyph-name="caronalt" horiz-adv-x="1228" 
 />
    <glyph glyph-name="slashlong.case" horiz-adv-x="1228" 
 />
    <glyph glyph-name="slashshort.case" horiz-adv-x="1228" 
 />
    <glyph glyph-name="sign" horiz-adv-x="1228" 
 />
    </font>
</defs>
</svg>
