<?xml version="1.0" standalone="no"?>
<!DOCTYPE svg PUBLIC "-//W3C//DTD SVG 1.1//EN" "http://www.w3.org/Graphics/SVG/1.1/DTD/svg11.dtd" >
<svg xmlns="http://www.w3.org/2000/svg" xmlns:xlink="http://www.w3.org/1999/xlink" version="1.1">
<metadata>
Created by FontForge 20170731 at Tue Jun 15 22:01:03 2021
 By Aleksey,,,
Jorge Cisterna
</metadata>
<defs>
<font id="Queulat-Bold" horiz-adv-x="0" >
  <font-face 
    font-family="Queulat Bold"
    font-weight="700"
    font-stretch="normal"
    units-per-em="2048"
    panose-1="0 0 8 0 0 0 0 0 0 0"
    ascent="1597"
    descent="-451"
    x-height="1065"
    cap-height="1495"
    bbox="-1622 -582 3049 2136"
    underline-thickness="102"
    underline-position="-307"
    unicode-range="U+0020-FB02"
  />
<missing-glyph horiz-adv-x="1228" 
 />
    <glyph glyph-name="fi" unicode="fi" horiz-adv-x="1554" 
d="M612 1597q143 0 237.5 -76.5t82.5 -193.5q-4 -57 -42 -91t-95 -34t-92 34.5t-35 90.5q0 27 12 51q-20 25 -74 25q-46 0 -71 -27.5t-25 -79.5v-231h281v-215h-281v-641h201v-209h-617v209h168v641h-194v215h194v174q0 173 89.5 265.5t260.5 92.5zM1202 1262
q-68 0 -115 47.5t-47 117.5q0 65 47.5 110.5t114.5 45.5t114.5 -45.5t47.5 -110.5q0 -70 -47 -117.5t-115 -47.5zM1339 209h152v-209h-555v209h156v647h-154v209h401v-856z" />
    <glyph glyph-name="fl" unicode="fl" horiz-adv-x="1521" 
d="M1307 209h149v-209h-553v209h156v1180h-129q5 -27 2 -62q-4 -57 -42 -91t-95 -34t-92 34.5t-35 90.5q0 27 12 51q-20 25 -74 25q-46 0 -71 -27.5t-25 -79.5v-231h281v-215h-281v-641h201v-209h-617v209h168v641h-194v215h194v174q0 173 89.5 265.5t260.5 92.5
q96 0 174.5 -37t116.5 -100v137h404v-1388z" />
    <glyph glyph-name=".notdef" horiz-adv-x="1228" 
 />
    <glyph glyph-name=".null" 
 />
    <glyph glyph-name="nonmarkingreturn" horiz-adv-x="682" 
 />
    <glyph glyph-name="space" unicode=" " horiz-adv-x="522" 
 />
    <glyph glyph-name="exclam" unicode="!" horiz-adv-x="630" 
d="M442 1597l-32 -1136h-187l-33 1136h252zM315 -20q-69 0 -117 49.5t-48 120.5q0 66 48 113.5t117 47.5q68 0 117 -47.5t49 -113.5q0 -70 -49 -120t-117 -50z" />
    <glyph glyph-name="quotedbl" unicode="&#x22;" horiz-adv-x="798" 
d="M322 1597v-491h-191v491h191zM670 1597v-491h-191v491h191z" />
    <glyph glyph-name="numbersign" unicode="#" horiz-adv-x="1599" 
d="M1522 856h-326l-51 -313h291v-166h-320l-61 -377h-181l64 377h-385l-61 -377h-181l62 377h-295v166h323l52 313h-287v166h313l66 395h180l-66 -395h385l66 395h178l-65 -395h299v-166zM965 543l51 313h-383l-51 -313h383z" />
    <glyph glyph-name="dollar" unicode="$" horiz-adv-x="1347" 
d="M1245 360q0 -173 -146 -274.5t-429 -105.5l-15 -150l-129 10l15 144q-232 20 -346 119t-103 259q5 62 41 98t96 36q62 0 99 -35.5t37 -89.5q0 -22 -12 -48.5t-29 -41.5q57 -78 235 -97l35 359q-55 8 -97 16.5t-91.5 23.5t-86 33.5t-73 47t-59 64.5t-36.5 85t-14 109
q0 174 143.5 281.5t383.5 107.5h4l12 139l127 -10l-12 -137q200 -28 314 -133.5t99 -258.5q-8 -57 -44.5 -91t-96.5 -34q-54 0 -92.5 35.5t-38.5 85.5q0 25 12 52t33 38q-58 88 -205 107l-37 -389q51 -8 81 -13t79 -15t78.5 -19.5t70.5 -25.5t66 -33.5t52.5 -43t43 -54.5
t25.5 -67.5t10 -83.5zM360 924q0 -81 65 -122.5t187 -64.5l35 373q-142 -3 -214.5 -52.5t-72.5 -133.5zM688 180q173 4 253.5 48t80.5 130q0 35 -16.5 61t-41 43t-66.5 29.5t-81 19t-96 13.5z" />
    <glyph glyph-name="percent" unicode="%" horiz-adv-x="1933" 
d="M768 1124q0 -179 -95 -285t-253 -106t-253 106t-95 285q0 180 95 286t253 106t253 -106t95 -286zM1214 1491l142 -49l-627 -1405l-141 57zM420 881q84 0 134 65.5t50 177.5q0 113 -50 177.5t-134 64.5t-134 -64.5t-50 -177.5q0 -112 50 -177.5t134 -65.5zM1511 762
q158 0 253.5 -105t95.5 -284t-96 -286t-253 -107t-252.5 107t-95.5 286t95 284t253 105zM1511 129q84 0 134.5 65.5t50.5 178.5q0 112 -50.5 176.5t-134.5 64.5t-134 -64.5t-50 -176.5q0 -113 50 -178.5t134 -65.5z" />
    <glyph glyph-name="ampersand" unicode="&#x26;" horiz-adv-x="1552" 
d="M1290 209h180v-209h-307l-127 129q-189 -147 -448 -147q-227 0 -363.5 117.5t-136.5 310.5q0 277 289 391q-64 74 -96.5 145.5t-32.5 159.5q0 169 116.5 265.5t307.5 96.5q196 0 309.5 -103t89.5 -235q-8 -54 -44.5 -88t-94.5 -34q-54 0 -88.5 34.5t-34.5 87.5
q0 34 14 52q-13 29 -54.5 49t-100.5 20q-73 0 -119.5 -42t-46.5 -115q0 -40 12.5 -76t44.5 -77t62.5 -73.5t89.5 -89.5l319 -313q49 93 49 186v193h361v-211h-152q0 -168 -96 -326zM621 199q134 0 258 90l-365 368q-87 -34 -131.5 -91.5t-44.5 -155.5q0 -95 77 -153t206 -58
z" />
    <glyph glyph-name="quotesingle" unicode="'" horiz-adv-x="452" 
d="M322 1597v-491h-191v491h191z" />
    <glyph glyph-name="parenleft" unicode="(" horiz-adv-x="686" 
d="M350 690q0 -492 279 -729l-164 -176q-170 135 -271.5 371t-101.5 534q0 294 102 533t271 374l164 -178q-131 -110 -205 -293.5t-74 -435.5z" />
    <glyph glyph-name="parenright" unicode=")" horiz-adv-x="686" 
d="M336 690q0 252 -74 435.5t-205 293.5l164 178q169 -135 271 -374t102 -533q0 -298 -101.5 -534t-271.5 -371l-164 176q279 237 279 729z" />
    <glyph glyph-name="asterisk" unicode="*" horiz-adv-x="780" 
d="M575 1405q52 26 83 -11q25 -30 11 -68q-16 -37 -61 -44l-147 -29l110 -108q40 -37 15 -79q-19 -34 -58 -38q-47 -4 -71 47l-66 125l-67 -125q-26 -54 -76 -48q-39 4 -56 38q-20 39 17 76l115 112l-154 29q-46 7 -56 51q-9 41 18 67q29 28 75 5l137 -66l-22 150
q-6 37 15 59.5t56 20.5q33 2 53.5 -20.5t14.5 -59.5l-27 -150z" />
    <glyph glyph-name="plus" unicode="+" horiz-adv-x="983" 
d="M893 694v-162h-313v-317h-174v317h-316v162h316v318h174v-318h313z" />
    <glyph glyph-name="comma" unicode="," horiz-adv-x="569" 
d="M127 -256v117q61 0 111 32t71 91q-24 -4 -41 -4q-66 0 -111.5 44.5t-45.5 112.5q0 71 48 115.5t122 44.5q110 0 156 -96q43 -91 9 -210q-37 -127 -139 -195q-79 -52 -180 -52z" />
    <glyph glyph-name="hyphen" unicode="-" horiz-adv-x="1054" 
d="M924 674v-221h-791v221h791z" />
    <glyph glyph-name="period" unicode="." horiz-adv-x="546" 
d="M272 -20q-68 0 -115.5 50t-47.5 120q0 66 48 113.5t115 47.5q69 0 117.5 -47.5t48.5 -113.5q0 -71 -48.5 -120.5t-117.5 -49.5z" />
    <glyph glyph-name="slash" unicode="/" horiz-adv-x="966" 
d="M63 -20l658 1521h182l-657 -1521h-183z" />
    <glyph glyph-name="zero" unicode="0" horiz-adv-x="1531" 
d="M768 1516q145 0 265 -48t209 -140.5t138.5 -238t49.5 -331.5q0 -185 -49.5 -333.5t-138 -245t-209.5 -148t-265 -51.5q-147 0 -268.5 49t-210.5 144t-138 244.5t-49 340.5q0 186 49 331.5t138 238t210.5 140.5t268.5 48zM768 205q178 0 290.5 140.5t112.5 402.5
q0 271 -111 406.5t-292 135.5q-186 0 -297 -134.5t-111 -407.5t111 -408t297 -135z" />
    <glyph glyph-name="one" unicode="1" horiz-adv-x="991" 
d="M666 209h299v-209h-863v209h308v1048l-310 -65l-2 199l420 104h148v-1286z" />
    <glyph glyph-name="two" unicode="2" horiz-adv-x="1368" 
d="M1032 473h219v-473h-1151v141l562 502q163 145 228.5 232.5t65.5 181.5q0 109 -75.5 174t-237.5 65q-112 0 -193 -40.5t-112 -102.5q23 -13 35 -40.5t12 -55.5q0 -53 -40.5 -94t-98.5 -41q-63 0 -104.5 38.5t-47.5 100.5q-13 129 55 233.5t198.5 163t295.5 58.5
q147 0 258 -34t178.5 -96t100.5 -142.5t34 -178.5q0 -42 -7.5 -82.5t-27 -81t-37 -72t-54.5 -73.5t-59.5 -67t-73 -70t-74.5 -66t-82 -70l-316 -272h549v262z" />
    <glyph glyph-name="three" unicode="3" horiz-adv-x="1390" 
d="M1001 760q289 -83 289 -354q0 -132 -80.5 -230t-211.5 -147t-293 -49q-164 0 -288 34t-197.5 95t-107 141t-26.5 176q5 64 46 102.5t108 38.5q66 0 103.5 -38.5t37.5 -100.5q0 -55 -43 -90q35 -59 133.5 -98t233.5 -39q152 0 239.5 57.5t87.5 163.5q-3 231 -338 231h-149
v207h149q130 0 209.5 64t79.5 166q0 96 -73 150.5t-208 55.5q-226 0 -305 -125q23 -13 35 -40.5t12 -55.5q0 -55 -40 -94t-99 -39q-63 0 -102 37.5t-47 99.5q-12 132 57 232.5t196 152.5t291 52q255 0 399 -112t144 -300q0 -117 -64 -205t-178 -139z" />
    <glyph glyph-name="four" unicode="4" horiz-adv-x="1327" 
d="M1284 512v-225h-252v-303h-256v303h-741v155q78 112 136.5 203.5t120 206.5t100.5 215.5t62.5 213.5t20.5 218h264q1 -128 -29 -259.5t-86 -258t-119.5 -237t-146.5 -232.5h418v391h256v-391h252z" />
    <glyph glyph-name="five" unicode="5" horiz-adv-x="1335" 
d="M719 944q252 0 397.5 -122.5t145.5 -352.5q0 -224 -161 -356.5t-425 -132.5q-307 0 -453.5 116.5t-132.5 311.5q5 63 46.5 102t107.5 39t104.5 -39t38.5 -100q0 -57 -45 -91q30 -52 121.5 -85t212.5 -33q150 0 238 71t87 197q0 124 -79.5 191t-225.5 67q-177 0 -319 -43
l-219 66l86 745h891v-225h-684l-50 -396q150 70 318 70z" />
    <glyph glyph-name="six" unicode="6" horiz-adv-x="1355" 
d="M776 903q221 0 350 -126t129 -331q0 -212 -151 -339t-393 -127q-155 0 -273 56t-190 158t-108 238.5t-36 304.5q0 194 49 344.5t136 244.5t201.5 142t250.5 48q119 0 214 -33t151.5 -87t83 -119.5t18.5 -133.5q-8 -63 -49 -100.5t-104 -36.5q-59 1 -99.5 39t-40.5 88
q0 31 11.5 55.5t27.5 34.5q-23 33 -78.5 53t-136.5 20q-373 0 -379 -563q154 173 416 170zM713 201q127 0 205.5 66.5t78.5 178.5q0 109 -70.5 174.5t-193.5 65.5q-133 0 -220 -61t-118 -174q78 -250 318 -250z" />
    <glyph glyph-name="seven" unicode="7" horiz-adv-x="1226" 
d="M1176 1495l32 -152q-181 -215 -284 -405.5t-154.5 -414t-58.5 -523.5h-277q9 391 122.5 704.5t340.5 577.5h-627v-258h-211v471h1117z" />
    <glyph glyph-name="eight" unicode="8" horiz-adv-x="1388" 
d="M1077 797q102 -60 159.5 -151t57.5 -204q0 -215 -162 -338.5t-438 -123.5q-274 0 -436 123.5t-162 338.5q0 113 56.5 204t158.5 151q-141 119 -141 303q0 188 142.5 300.5t381.5 112.5t382 -112.5t143 -300.5q0 -183 -142 -303zM428 1100q0 -97 66 -153t200 -56t200.5 56
t66.5 153q0 86 -72.5 140t-194.5 54q-121 0 -193.5 -54t-72.5 -140zM694 199q158 0 250 64t92 179q0 108 -90.5 172t-251.5 64q-160 0 -250 -64t-90 -172q0 -114 91.5 -178.5t248.5 -64.5z" />
    <glyph glyph-name="nine" unicode="9" horiz-adv-x="1335" 
d="M653 1516q280 0 429 -188.5t149 -518.5q-1 -186 -37.5 -334t-111.5 -260.5t-199 -173.5t-291 -61q-219 0 -339.5 98.5t-100.5 267.5q8 59 50 97t107 38q60 0 98.5 -41t36.5 -98q0 -26 -12 -50t-31 -36q59 -59 199 -59q343 0 369 518q-141 -135 -365 -135
q-242 0 -373.5 123.5t-128.5 326.5q1 227 148.5 356.5t402.5 129.5zM639 793q125 0 206 54.5t111 149.5q-26 149 -99.5 220t-203.5 71q-131 0 -213 -63.5t-82 -194.5q0 -106 77.5 -171.5t203.5 -65.5z" />
    <glyph glyph-name="colon" unicode=":" horiz-adv-x="593" 
d="M295 666q-68 0 -116 49t-48 121q0 65 48.5 112t115.5 47q69 0 118.5 -47t49.5 -112q0 -72 -49.5 -121t-118.5 -49zM295 -20q-68 0 -116 50t-48 120q0 66 48.5 113.5t115.5 47.5q69 0 118.5 -47.5t49.5 -113.5q0 -70 -49.5 -120t-118.5 -50z" />
    <glyph glyph-name="semicolon" unicode=";" horiz-adv-x="610" 
d="M301 657q-72 0 -122 52t-50 127q0 68 50.5 118t121.5 50q70 0 121 -50t51 -118q0 -75 -50.5 -127t-121.5 -52zM150 -252v113q63 0 114 32t70 91q-28 -4 -41 -4q-67 0 -112.5 44.5t-45.5 112.5q0 71 47.5 115.5t120.5 44.5q111 0 156 -97q43 -91 9 -209
q-38 -127 -141 -193q-78 -50 -177 -50z" />
    <glyph glyph-name="less" unicode="&#x3c;" horiz-adv-x="944" 
d="M807 1026v-242l-506 -215l506 -209v-243l-727 348v205z" />
    <glyph glyph-name="equal" unicode="=" horiz-adv-x="1069" 
d="M928 791v-166h-787v166h787zM928 457v-168h-787v168h787z" />
    <glyph glyph-name="greater" unicode="&#x3e;" horiz-adv-x="944" 
d="M137 1026l727 -356v-205l-727 -348v243l508 209l-508 215v242z" />
    <glyph glyph-name="question" unicode="?" horiz-adv-x="1265" 
d="M614 1516q144 0 254.5 -34.5t177.5 -96.5t100.5 -143.5t33.5 -180.5q0 -182 -126 -316t-335 -161l-23 -156h-164l-26 324h59q97 0 168 23.5t110.5 65.5t58 92t18.5 109q0 115 -76 184.5t-228 69.5q-110 0 -189.5 -41t-113.5 -100q23 -13 36 -41.5t13 -54.5
q0 -56 -38.5 -96.5t-98.5 -40.5q-63 0 -106 41t-49 104q-20 194 134 321.5t410 127.5zM618 311q68 0 117 -47.5t49 -113.5q0 -70 -49 -120t-117 -50q-69 0 -117 49.5t-48 120.5q0 66 48 113.5t117 47.5z" />
    <glyph glyph-name="at" unicode="@" horiz-adv-x="1908" 
d="M1081 1518q219 0 389.5 -84.5t265.5 -237.5t95 -350q0 -256 -131 -411.5t-336 -155.5q-75 0 -138 28t-93 86q-119 -119 -297 -119q-156 0 -243 88.5t-87 245.5q0 220 130.5 358t334.5 138q159 0 241 -94l15 80h188l-94 -533q-9 -47 14 -74.5t70 -27.5q104 0 168.5 102.5
t64.5 269.5q0 232 -158.5 372t-424.5 140q-345 0 -555.5 -194.5t-210.5 -511.5q0 -261 161.5 -413t426.5 -152q216 0 401 65l-72 -190q-192 -56 -358 -56q-333 0 -539.5 199.5t-206.5 521.5q0 270 121.5 476.5t344 320t513.5 113.5zM879 440q90 0 154 40t91 110l37 201
q-9 70 -56.5 109.5t-127.5 39.5q-127 0 -204 -82t-77 -221q0 -93 49.5 -145t133.5 -52z" />
    <glyph glyph-name="A" unicode="A" horiz-adv-x="1697" 
d="M1522 209h172v-209h-607v209h170l-69 190h-676l-72 -190h174v-209h-596v209h181l417 1059h-241v227h651zM592 610h518l-254 695z" />
    <glyph glyph-name="B" unicode="B" horiz-adv-x="1632" 
d="M1292 782q246 -96 246 -366q0 -191 -145 -303.5t-424 -112.5h-848v209h158v1077h-158v209h813q247 0 385.5 -104.5t138.5 -300.5q0 -208 -166 -308zM934 1282h-399v-424h391q272 0 272 221q0 203 -264 203zM969 213q162 0 235.5 57t73.5 156q0 120 -89 170.5t-257 50.5
h-397v-434h434z" />
    <glyph glyph-name="C" unicode="C" horiz-adv-x="1660" 
d="M1247 889q0 85 56 123q8 106 -114 192t-308 86q-109 0 -204.5 -35t-168.5 -101.5t-115.5 -171t-42.5 -234.5q0 -104 29 -193t79.5 -152.5t118 -108.5t143.5 -67t157 -22q173 0 290.5 71.5t149.5 206.5h248q-27 -222 -210.5 -362.5t-477.5 -140.5q-228 0 -407.5 100.5
t-278.5 278t-99 399.5q0 163 58 303t160.5 240.5t250 157.5t320.5 57q158 0 293.5 -50.5t225.5 -135t135.5 -198.5t33.5 -237q-8 -69 -51.5 -112.5t-112.5 -43.5q-70 0 -114 45t-44 105z" />
    <glyph glyph-name="D" unicode="D" horiz-adv-x="1679" 
d="M819 1495q344 0 555 -203t211 -534q0 -224 -95.5 -396.5t-269.5 -267t-401 -94.5h-698v209h158v1077h-158v209h698zM819 213q100 0 190 34t162 98.5t114 168.5t42 234q0 106 -27.5 194.5t-75.5 150.5t-113 105t-138.5 63.5t-153.5 20.5h-284v-1069h284z" />
    <glyph glyph-name="E" unicode="E" horiz-adv-x="1474" 
d="M1133 473h219v-473h-1231v209h158v1077h-158v209h1225v-473h-218v260h-593v-432h544v-213h-544v-424h598v260z" />
    <glyph glyph-name="F" unicode="F" horiz-adv-x="1404" 
d="M1354 1495v-473h-219v260h-600v-436h552v-213h-552v-424h223v-209h-637v209h158v1077h-158v209h1233z" />
    <glyph glyph-name="G" unicode="G" horiz-adv-x="1695" 
d="M1567 700v-700h-164l-37 180q-85 -93 -211.5 -146.5t-284.5 -53.5q-171 0 -317 59t-247 162.5t-157.5 247t-56.5 309.5q0 162 57 301.5t159.5 240.5t253.5 158.5t331 57.5q159 0 290 -42.5t215 -115.5t125.5 -170.5t30.5 -206.5q-6 -67 -50 -108.5t-111 -41.5
q-65 0 -108.5 42.5t-43.5 101.5q0 85 57 123q-11 76 -129.5 134t-275.5 58t-277.5 -60.5t-192 -185t-71.5 -296.5q0 -128 43 -232.5t115.5 -171.5t165 -103t194.5 -36q69 0 134.5 13t132 42t119 85t79.5 134v27h-471v194h703z" />
    <glyph glyph-name="H" unicode="H" horiz-adv-x="1857" 
d="M1735 1286h-156v-1077h156v-209h-570v209h158v420h-788v-420h153v-209h-567v209h158v1077h-158v209h567v-209h-153v-436h788v436h-156v209h568v-209z" />
    <glyph glyph-name="I" unicode="I" horiz-adv-x="813" 
d="M690 1286h-155v-1077h155v-209h-567v209h156v1077h-156v209h567v-209z" />
    <glyph glyph-name="J" unicode="J" horiz-adv-x="1398" 
d="M1212 1495v-917h-2q0 -276 -152.5 -437t-441.5 -161h-2q-141 0 -255 41t-186 112.5t-106.5 167t-25.5 203.5q6 65 51 108t115 43q69 0 110 -43.5t41 -103.5q0 -80 -59 -121q14 -74 101 -128t214 -54q155 0 248.5 102.5t93.5 270.5v698h-589v219h845z" />
    <glyph glyph-name="K" unicode="K" horiz-adv-x="1658" 
d="M1450 209h176v-209h-305l-526 639l-260 -262v-168h153v-209h-567v209h158v1077h-158v209h567v-209h-153v-647l626 647h-155v209h573v-209h-137l-488 -487z" />
    <glyph glyph-name="L" unicode="L" horiz-adv-x="1394" 
d="M1122 522h217v-522h-1218v209h158v1077h-158v209h567v-209h-153v-1073h587v309z" />
    <glyph glyph-name="M" unicode="M" horiz-adv-x="2097" 
d="M1843 209h176v-209h-600v209h166l-49 821l-418 -606h-143l-412 614l-47 -829h160v-209h-600v209h182l70 1077h-150v209h361l508 -788l516 788h358v-209h-147z" />
    <glyph glyph-name="N" unicode="N" horiz-adv-x="1835" 
d="M1739 1495v-209h-154v-1286h-203l-858 1049v-840h168v-209h-571v209h158v1077h-158v209h364l854 -1073v864h-172v209h572z" />
    <glyph glyph-name="O" unicode="O" horiz-adv-x="1759" 
d="M881 1516q184 0 333.5 -57.5t247.5 -159t150.5 -240t52.5 -301.5q0 -167 -52.5 -309t-150.5 -246.5t-247.5 -163.5t-333.5 -59q-236 0 -416.5 102t-275.5 278t-95 398q0 162 55 301.5t155 240.5t249 158.5t328 57.5zM881 205q235 0 380.5 143.5t145.5 399.5
q0 173 -68.5 297t-186 184.5t-271.5 60.5q-146 0 -264.5 -60.5t-191.5 -185.5t-73 -296q0 -128 42 -232t115 -171.5t168.5 -103.5t203.5 -36z" />
    <glyph glyph-name="P" unicode="P" horiz-adv-x="1583" 
d="M907 1495q134 0 245 -31.5t196 -95.5t132.5 -169.5t47.5 -244.5q0 -126 -47 -226.5t-130 -166t-196.5 -100.5t-247.5 -35h-372v-217h198v-209h-612v209h158v1077h-158v209h786zM911 637q151 0 254 83t103 234q0 91 -28.5 157t-79.5 102t-112.5 52.5t-136.5 16.5h-376
v-645h376z" />
    <glyph glyph-name="Q" unicode="Q" horiz-adv-x="1759" 
d="M1712 -14q39 -13 57.5 -53.5t10.5 -90.5q-12 -92 -114 -151.5t-267 -59.5q-414 0 -633 355q-205 24 -358 130t-233.5 272t-80.5 370q0 162 55 301.5t155 240.5t249 158.5t328 57.5q184 0 333.5 -57.5t247.5 -159t150.5 -240t52.5 -301.5q0 -201 -73.5 -363.5
t-219.5 -269.5t-348 -135q142 -168 369 -168q97 0 137 31q-5 18 0.5 43.5t19.5 46.5q26 37 72 49.5t90 -6.5zM352 748q0 -128 42 -232t115 -171.5t168.5 -103.5t203.5 -36q235 0 380.5 143.5t145.5 399.5q0 173 -68.5 297t-186 184.5t-271.5 60.5q-146 0 -264.5 -60.5
t-191.5 -185.5t-73 -296z" />
    <glyph glyph-name="R" unicode="R" horiz-adv-x="1634" 
d="M1348 209h204v-209h-333l-437 506h-247v-297h202v-209h-616v209h158v1077h-158v209h782q276 0 436 -128.5t160 -362.5q0 -184 -115 -313t-315 -169zM535 1278v-555h385q146 0 233.5 77.5t87.5 203.5q0 138 -84.5 206t-236.5 68h-385z" />
    <glyph glyph-name="S" unicode="S" horiz-adv-x="1490" 
d="M401 1094q0 -62 34 -106t91.5 -68.5t132 -42t157 -31t165 -30t157 -45.5t132 -70.5t91.5 -111.5t34 -163q0 -205 -168 -325.5t-500 -120.5q-329 0 -487 119.5t-144 318.5q5 63 46.5 102t107.5 39t103.5 -39.5t37.5 -99.5q0 -57 -43 -92q35 -57 136.5 -92t244.5 -35
q408 0 408 217q0 53 -28 91.5t-75.5 60t-111 38t-135 25t-147.5 23t-147.5 30.5t-135 48.5t-111 76t-75.5 113.5t-28 161q0 195 156.5 313t456.5 118h2q173 0 310.5 -54.5t211.5 -155t61 -225.5q-6 -61 -46 -98t-105 -37q-58 0 -98.5 39.5t-40.5 93.5q0 27 12 55.5t35 39.5
q-37 57 -127 89.5t-215 32.5q-179 0 -267 -55t-88 -147z" />
    <glyph glyph-name="T" unicode="T" horiz-adv-x="1495" 
d="M1438 1495v-506h-213v293h-351v-1073h177v-209h-611v209h181v1073h-351v-293h-213v506h1381z" />
    <glyph glyph-name="U" unicode="U" horiz-adv-x="1732" 
d="M1645 1495v-209h-154v-674q0 -157 -45 -278.5t-128.5 -198.5t-197 -116t-254.5 -39q-135 0 -247.5 39t-197 115.5t-132 198.5t-47.5 279v674h-158v209h567v-209h-153v-674q0 -96 23.5 -170t60 -118t87 -71.5t98 -37.5t99.5 -10q57 0 106 10t99 37.5t85 71.5t57 118
t22 170v674h-158v209h568z" />
    <glyph glyph-name="V" unicode="V" horiz-adv-x="1673" 
d="M1667 1495v-209h-160l-530 -1286h-293l-508 1286h-162v209h580v-209h-129l379 -1048l397 1048h-158v209h584z" />
    <glyph glyph-name="W" unicode="W" horiz-adv-x="2299" 
d="M2284 1495v-209h-175l-378 -1286h-209l-367 872l-371 -872h-209l-385 1286h-184v209h625v-209h-178l245 -942l371 883h170l375 -895l250 954h-207v209h627z" />
    <glyph glyph-name="X" unicode="X" horiz-adv-x="1617" 
d="M1419 209h156v-209h-637v209h180l-323 387l-314 -387h162v-209h-602v209h168l455 543l-449 534h-147v209h587v-209h-141l324 -385l309 385h-143v209h546v-209h-147l-442 -530z" />
    <glyph glyph-name="Y" unicode="Y" horiz-adv-x="1525" 
d="M1313 1286l-418 -731v-346h176v-209h-606v209h176v346l-444 731h-168v209h579v-209h-135l305 -555l293 555h-145v209h569v-209h-182z" />
    <glyph glyph-name="Z" unicode="Z" horiz-adv-x="1427" 
d="M1133 473h200v-473h-1247v129l875 1151h-639v-258h-203v473h1196v-123l-887 -1157h705v258z" />
    <glyph glyph-name="bracketleft" unicode="[" horiz-adv-x="722" 
d="M641 1370h-211v-1360h211v-227h-440v1814h440v-227z" />
    <glyph glyph-name="backslash" unicode="\" horiz-adv-x="968" 
d="M905 -20h-184l-658 1521h185z" />
    <glyph glyph-name="bracketright" unicode="]" horiz-adv-x="722" 
d="M522 1597v-1814h-440v227h211v1360h-211v227h440z" />
    <glyph glyph-name="asciicircum" unicode="^" horiz-adv-x="987" 
d="M887 1350l-72 -133l-328 131l-313 -131l-74 133l385 219z" />
    <glyph glyph-name="underscore" unicode="_" horiz-adv-x="1101" 
d="M1028 0v-221h-954v221h954z" />
    <glyph glyph-name="grave" unicode="`" horiz-adv-x="1228" 
d="M508 1604l459 -291l-76 -137l-494 196z" />
    <glyph glyph-name="a" unicode="a" horiz-adv-x="1396" 
d="M1184 209h145v-209h-373v117q-127 -137 -346 -137q-247 0 -387.5 150.5t-140.5 408.5q0 251 138 398.5t374 147.5q217 0 344 -124v104h246v-856zM629 195q121 0 196.5 54t96.5 150v260q-21 95 -96 153t-187 58q-142 0 -223.5 -88.5t-81.5 -249.5q0 -160 81.5 -248.5
t213.5 -88.5z" />
    <glyph glyph-name="b" unicode="b" horiz-adv-x="1335" 
d="M743 1085q237 0 373.5 -146.5t136.5 -399.5q0 -259 -139 -409t-387 -150q-230 0 -360 151l-39 -131h-162v1389h-154v208h369v-655q131 143 362 143zM709 195q131 0 213 88t82 249q0 164 -81 251t-227 87q-110 0 -185 -58t-97 -153v-260q22 -96 97.5 -150t197.5 -54z" />
    <glyph glyph-name="c" unicode="c" horiz-adv-x="1193" 
d="M979 543q-55 0 -95 35t-40 90q0 65 37 92q-77 110 -246 110q-135 0 -220 -90.5t-85 -247.5q0 -158 85.5 -247.5t231.5 -89.5q88 0 155.5 38t90.5 107l225 2q-10 -50 -32 -98.5t-62 -97t-92 -85t-127 -59t-162 -22.5q-258 0 -411.5 158t-153.5 401q0 157 65.5 280
t195.5 194.5t306 71.5q118 0 213.5 -37t152.5 -97t84.5 -131.5t20.5 -143.5q-5 -56 -41.5 -94.5t-95.5 -38.5z" />
    <glyph glyph-name="d" unicode="d" horiz-adv-x="1392" 
d="M1184 209h141v-209h-371v117q-127 -137 -346 -137q-248 0 -387 150t-139 409q0 253 136.5 399.5t373.5 146.5q216 0 342 -120v424h-158v208h408v-1388zM627 195q117 0 191.5 50t99.5 138v289q-24 90 -98.5 144t-182.5 54q-143 0 -223 -87t-80 -251q0 -161 81.5 -249
t211.5 -88z" />
    <glyph glyph-name="e" unicode="e" horiz-adv-x="1212" 
d="M627 1085q79 0 155 -22t146 -71t119.5 -119t73 -174t9.5 -228l-16 -16h-776q17 -125 92.5 -195t196.5 -70q86 0 147.5 34.5t85.5 92.5h248q-25 -140 -154 -238.5t-327 -98.5q-172 0 -297.5 74t-187.5 199.5t-62 285.5q0 238 150 392t397 154zM340 623h547
q-7 68 -34 119.5t-65.5 80t-79 42.5t-81.5 14q-106 0 -184.5 -68.5t-102.5 -187.5z" />
    <glyph glyph-name="f" unicode="f" horiz-adv-x="841" 
d="M612 1597q143 0 237.5 -76.5t82.5 -193.5q-4 -57 -42 -91t-95 -34t-92 34.5t-35 90.5q0 27 12 51q-20 25 -74 25q-46 0 -71 -27.5t-25 -79.5v-231h281v-215h-281v-641h201v-209h-617v209h168v641h-194v215h194v174q0 173 89.5 265.5t260.5 92.5z" />
    <glyph glyph-name="g" unicode="g" horiz-adv-x="1351" 
d="M954 1065h232v-1034q0 -221 -150.5 -347t-400.5 -126q-226 0 -350.5 77.5t-134.5 196.5q-6 69 30.5 109.5t102.5 40.5q54 0 86.5 -31.5t36.5 -63.5q6 -38 -11 -65q34 -26 97 -44t143 -18q153 0 237 68t84 203v106q-130 -137 -348 -137q-242 0 -383 146t-141 393
q0 253 135.5 399.5t372.5 146.5q231 0 362 -143v123zM627 215q121 0 197 54.5t98 150.5v239q-22 95 -97.5 153t-185.5 58q-144 0 -223.5 -87t-79.5 -251q0 -150 80.5 -233.5t210.5 -83.5z" />
    <glyph glyph-name="h" unicode="h" horiz-adv-x="1443" 
d="M1241 209h156v-209h-555v209h151v352q0 153 -57 231t-182 78q-109 0 -186 -63t-103 -148v-450h149v-209h-553v209h156v1180h-156v208h369v-675q129 163 356 163q148 0 252.5 -64t153.5 -171t49 -248v-393z" />
    <glyph glyph-name="i" unicode="i" horiz-adv-x="712" 
d="M360 1262q-68 0 -114.5 47.5t-46.5 117.5q0 65 47 110.5t114 45.5t114.5 -45.5t47.5 -110.5q0 -70 -47 -117.5t-115 -47.5zM498 209h151v-209h-555v209h156v647h-154v209h402v-856z" />
    <glyph glyph-name="j" unicode="j" horiz-adv-x="655" 
d="M360 1262q-68 0 -114.5 47.5t-46.5 117.5q0 65 47 110.5t114 45.5t114.5 -45.5t47.5 -110.5q0 -70 -47 -117.5t-115 -47.5zM489 1065v-1100q0 -210 -82 -308.5t-253 -98.5q-59 0 -112 14t-97 41.5t-71 75.5t-28 110q-1 64 36.5 105t99.5 41q63 0 97 -39t34 -90
q0 -21 -11 -47q13 -17 56 -17q47 0 65.5 35.5t18.5 126.5v942h-156v209h403z" />
    <glyph glyph-name="k" unicode="k" horiz-adv-x="1378" 
d="M1135 209h213v-209h-353l-315 487l-215 -202v-76h166v-209h-570v209h156v1180h-156v208h404v-1087l348 346h-135v209h604v-209h-213l-231 -219z" />
    <glyph glyph-name="l" unicode="l" horiz-adv-x="679" 
d="M465 209h149v-209h-553v209h156v1180h-156v208h404v-1388z" />
    <glyph glyph-name="m" unicode="m" horiz-adv-x="2250" 
d="M2052 209h152v-209h-555v209h155v352q0 151 -59.5 226t-181.5 75q-101 0 -181.5 -57t-109.5 -137q4 -46 4 -68v-391h151v-209h-550v209h151v352q0 301 -242 301q-111 0 -186 -59t-102 -144v-450h151v-209h-555v209h156v647h-154v209h369v-139q131 159 356 159
q269 0 385 -198q121 198 381 198q227 0 346 -133t119 -352v-391z" />
    <glyph glyph-name="n" unicode="n" horiz-adv-x="1462" 
d="M1262 209h151v-209h-549v209h150v352q0 309 -246 309q-101 0 -173.5 -58.5t-96.5 -152.5v-450h147v-209h-551v209h156v647h-154v209h363v-135q125 155 354 155q205 0 327 -123t122 -337v-416z" />
    <glyph glyph-name="o" unicode="o" horiz-adv-x="1302" 
d="M651 1085q182 0 313 -72t195 -194t64 -280q0 -120 -37.5 -221.5t-108 -177t-180 -118t-246.5 -42.5t-246 42.5t-179.5 118t-108 177t-37.5 221.5q0 159 63.5 280.5t194 193.5t313.5 72zM651 195q144 0 232 90t88 247t-88.5 247.5t-231.5 90.5q-145 0 -232 -90t-87 -248
t87 -247.5t232 -89.5z" />
    <glyph glyph-name="p" unicode="p" horiz-adv-x="1402" 
d="M811 1085q237 0 373.5 -146.5t136.5 -399.5q0 -259 -139 -409t-387 -150q-219 0 -349 137v-334h193v-209h-578v209h156v1073h-156v209h388v-123q131 143 362 143zM776 195q131 0 213 88t82 249q0 164 -80.5 251t-226.5 87q-110 0 -185.5 -58t-97.5 -153v-260
q22 -96 97.5 -150t197.5 -54z" />
    <glyph glyph-name="q" unicode="q" horiz-adv-x="1351" 
d="M1188 -217h153v-209h-577v209h192v334q-127 -137 -346 -137q-250 0 -389 150t-139 409q0 253 136.5 399.5t375.5 146.5q228 0 360 -141v121h234v-1282zM629 195q121 0 196.5 54t96.5 150v260q-21 95 -96 153t-187 58q-146 0 -225.5 -87t-79.5 -251q0 -161 81.5 -249
t213.5 -88z" />
    <glyph glyph-name="r" unicode="r" horiz-adv-x="1079" 
d="M780 1085q74 0 131 -26t88.5 -69t44.5 -94.5t5 -104.5q-6 -54 -45 -89t-103 -34q-54 0 -89.5 37t-35.5 88q0 49 21 67q-21 27 -82 27q-83 0 -146.5 -64t-70.5 -180v-434h168v-209h-572v209h156v647h-154v209h353v-164q50 85 133.5 134.5t197.5 49.5z" />
    <glyph glyph-name="s" unicode="s" horiz-adv-x="1114" 
d="M326 233q61 -58 227 -55q235 0 235 125q0 46 -37.5 73t-97 39t-131 21.5t-143.5 28t-131 50t-96 96t-37 157.5q0 141 111.5 229t342.5 88q205 0 324.5 -88t114.5 -215q-1 -54 -38 -91.5t-87 -37.5q-55 0 -90 32.5t-35 78.5q0 41 26 67q-12 21 -69.5 38.5t-145.5 17.5
q-107 0 -161 -33t-54 -90q0 -42 29 -70.5t76.5 -41t108 -25t123.5 -21.5t123.5 -31.5t108 -54t76.5 -89.5t29 -138q0 -64 -25 -118.5t-78.5 -99t-148.5 -70t-223 -25.5q-133 0 -235.5 29t-167.5 93.5t-68 157.5q-3 66 31.5 104.5t97.5 38.5q51 0 90 -33.5t39 -78.5
q0 -36 -14 -58z" />
    <glyph glyph-name="t" unicode="t" horiz-adv-x="897" 
d="M838 850h-371v-473q0 -182 151 -182q98 0 205 43v-211q-118 -47 -258 -47q-346 0 -346 378v492h-160v215h160v250h248v-250h371v-215z" />
    <glyph glyph-name="u" unicode="u" horiz-adv-x="1384" 
d="M1167 209h156v-209h-362v137q-124 -157 -349 -157q-177 0 -295 117.5t-118 289.5v469h-150v209h397v-670q0 -90 60.5 -145t146.5 -55q99 -1 172 58t95 153v450h-150v209h397v-856z" />
    <glyph glyph-name="v" unicode="v" horiz-adv-x="1409" 
d="M1395 1065v-209h-189l-356 -856h-297l-354 856h-183v209h537v-209h-80l234 -649l227 649h-115v209h576z" />
    <glyph glyph-name="w" unicode="w" horiz-adv-x="1865" 
d="M1851 1065v-209h-176l-260 -856h-321l-162 645l-180 -645h-303l-259 856h-174v209h537v-209h-119l174 -651l209 774h236l209 -786l178 663h-109v209h520z" />
    <glyph glyph-name="x" unicode="x" horiz-adv-x="1349" 
d="M1100 209h200v-209h-464v174l-170 240l-152 -215v-199h-461v209h199l246 326l-252 321h-176v209h444v-186l166 -234l156 242v178h446v-209h-205l-237 -321z" />
    <glyph glyph-name="y" unicode="y" horiz-adv-x="1404" 
d="M1393 1065v-209h-193l-422 -1053q-98 -247 -325 -247q-79 0 -140 22.5t-100.5 75t-40.5 129.5q-2 68 31 105.5t96 37.5q50 0 83.5 -31t33.5 -77q2 -26 -13 -56q19 -16 64 -16q65 0 92 70l70 184h-78l-352 856h-183v209h562v-209h-105l236 -655l233 655h-113v209h564z" />
    <glyph glyph-name="z" unicode="z" horiz-adv-x="1148" 
d="M850 328h219v-328h-987l-2 125l661 729h-434v-123h-219v334h952v-193l-606 -663l416 2v117z" />
    <glyph glyph-name="braceleft" unicode="{" horiz-adv-x="679" 
d="M430 889q0 -84 -44.5 -137.5t-98.5 -63.5q55 -10 99 -62t44 -134l2 -318q0 -96 40.5 -136t115.5 -40v-215q-80 0 -144.5 17.5t-117 55.5t-81.5 105.5t-30 161.5l-2 360q0 61 -35.5 83t-101.5 22v200q67 0 102 22.5t35 86.5l2 363q0 173 99 254t274 79v-213
q-80 0 -117.5 -40.5t-38.5 -133.5z" />
    <glyph glyph-name="bar" unicode="|" horiz-adv-x="575" 
d="M201 0l-2 1495l178 -2v-1495z" />
    <glyph glyph-name="braceright" unicode="}" horiz-adv-x="679" 
d="M248 1206q-1 93 -38 133.5t-116 40.5v213q113 1 194 -31.5t129.5 -108.5t49.5 -193l2 -363q0 -64 35 -86.5t102 -22.5v-200q-66 0 -101.5 -22t-35.5 -83l-2 -360q-1 -94 -30 -161.5t-81.5 -105.5t-117 -55.5t-144.5 -17.5v215q73 0 113.5 40t40.5 136l2 318q0 82 44 134
t99 62q-54 10 -98.5 63.5t-44.5 137.5z" />
    <glyph glyph-name="asciitilde" unicode="~" horiz-adv-x="1132" 
d="M991 672q-9 -113 -77 -181t-169 -67q-65 0 -124.5 17.5t-110.5 35t-94 17.5q-42 0 -67.5 -18.5t-35.5 -63.5l-170 32q1 115 60 185.5t153 70.5q76 -1 192.5 -39t164.5 -38q36 0 66.5 19t43.5 60z" />
    <glyph glyph-name="uni00A0" unicode="&#xa0;" horiz-adv-x="522" 
 />
    <glyph glyph-name="exclamdown" unicode="&#xa1;" horiz-adv-x="620" 
d="M475 1010q0 -66 -49 -114t-117 -48q-69 0 -117.5 48t-48.5 114q0 71 48.5 120.5t117.5 49.5q68 0 117 -50t49 -120zM436 -438h-252l33 1136h186z" />
    <glyph glyph-name="cent" unicode="&#xa2;" horiz-adv-x="1236" 
d="M874 750q0 63 37 90q-57 83 -172 104l-63 -668q95 3 160.5 41t87.5 105l225 2q-12 -64 -46 -124t-91.5 -115t-149.5 -89t-205 -35l-20 -211l-129 11l20 211q-205 38 -322.5 187.5t-117.5 361.5q0 154 62.5 275t187 193.5t293.5 77.5l24 258l127 -10l-24 -254
q101 -14 180 -55.5t125 -98t68 -120.5t18 -129q-3 -55 -41.5 -94t-97.5 -39q-54 0 -95 34t-41 91zM340 614q0 -125 55 -208.5t154 -114.5l61 659q-121 -11 -195.5 -100.5t-74.5 -235.5z" />
    <glyph glyph-name="sterling" unicode="&#xa3;" horiz-adv-x="1415" 
d="M1329 264q8 -52 5.5 -103.5t-28 -99t-64.5 -83t-104.5 -57t-148.5 -21.5q-78 0 -155 17t-130 37.5t-129.5 36.5t-156.5 15q-30 -54 -82.5 -77t-101 -14.5t-85.5 43.5t-38 87q-1 89 58 130.5t161 41.5q48 86 51 164h-281v127h254q-9 22 -30.5 71t-34 80.5t-24 84
t-11.5 104.5q0 209 128.5 336t367.5 127q130 0 231 -42.5t158 -112t79 -156.5t5 -179q-14 -64 -55 -101.5t-101 -37.5q-62 0 -102.5 41t-40.5 96q0 74 53 113q19 57 -41.5 108.5t-187.5 51.5q-123 0 -181.5 -69.5t-58.5 -184.5q0 -63 12.5 -117.5t38 -123.5t31.5 -89h360
v-127h-344q-7 -85 -63 -178q44 -8 127 -27t151 -29t144 -10q96 0 148 34t52 93h164z" />
    <glyph glyph-name="currency" unicode="&#xa4;" horiz-adv-x="1384" 
d="M1241 633q0 -191 -121 -328l125 -104l-96 -117l-148 125q-137 -78 -303 -78q-176 0 -309 82l-156 -129l-96 117l133 112q-114 129 -114 320q0 178 110 307l-129 109l96 116l152 -127q138 80 313 80q173 0 306 -76l145 123l96 -116l-121 -103q117 -130 117 -313zM698 346
q131 0 213 76t82 205q0 127 -82 202.5t-213 75.5q-130 0 -212.5 -75.5t-82.5 -202.5q0 -128 82.5 -204.5t212.5 -76.5z" />
    <glyph glyph-name="yen" unicode="&#xa5;" horiz-adv-x="1454" 
d="M1378 1077h-186l-225 -381h194v-123h-266l-39 -65v-35h260v-123h-260v-141h176v-209h-606v209h176v141h-272v123h272v35l-41 65h-276v123h200l-239 381h-170v209h563v-209h-119l213 -381h12l207 381h-127v209h553v-209z" />
    <glyph glyph-name="brokenbar" unicode="&#xa6;" horiz-adv-x="571" 
d="M199 879v616h174v-616h-174zM373 608v-608h-174v608h174z" />
    <glyph glyph-name="section" unicode="&#xa7;" horiz-adv-x="1409" 
d="M1036 467q0 48 -30.5 81.5t-82.5 52t-119 31.5t-141.5 25.5t-148.5 28.5t-141 46.5t-119 73t-82.5 114t-30.5 165.5q0 175 151.5 291.5t405.5 116.5q161 0 294 -54t207 -154.5t61 -225.5q-6 -60 -46.5 -97.5t-105.5 -37.5q-58 0 -98.5 39.5t-40.5 93.5q0 27 12 55.5
t35 40.5q-37 54 -124 87.5t-194 33.5q-149 0 -224 -51t-75 -131q0 -60 30.5 -100.5t81.5 -61.5t117.5 -34.5t140 -25.5t146.5 -27.5t139.5 -47t117.5 -78.5t81.5 -127t30.5 -187zM408 604q0 -53 30.5 -88.5t82.5 -55t119.5 -32.5t142.5 -24.5t149.5 -26t142.5 -42t120 -68.5
t83 -110t31 -161q0 -180 -162 -295t-461 -115q-153 0 -270.5 33.5t-188.5 93t-104.5 140t-26.5 176.5q5 62 46.5 101.5t107.5 39.5t104.5 -39.5t38.5 -99.5q0 -58 -45 -92q36 -57 130 -95.5t210 -38.5q181 0 273 50t92 141q0 55 -30.5 90.5t-82.5 53.5t-119 29t-141.5 21.5
t-148.5 25.5t-141 47.5t-119 81t-82.5 132t-30.5 195.5z" />
    <glyph glyph-name="dieresis" unicode="&#xa8;" horiz-adv-x="1228" 
d="M342 1262q-59 0 -100 43t-41 104q0 58 41 98.5t100 40.5q62 0 104.5 -40.5t42.5 -98.5q0 -61 -42.5 -104t-104.5 -43zM756 1262q-59 0 -101.5 43t-42.5 104q0 58 42.5 98.5t101.5 40.5q61 0 103 -40t42 -99q0 -62 -42 -104.5t-103 -42.5z" />
    <glyph glyph-name="copyright" unicode="&#xa9;" horiz-adv-x="1837" 
d="M920 1530q168 0 321 -66t264 -177t176.5 -264t65.5 -321t-65.5 -321.5t-176 -264.5t-264 -177t-321.5 -66t-322 66t-265 177t-177 264.5t-66 321.5t66 321.5t177 264.5t265 176.5t322 65.5zM920 63q173 0 318.5 86t229.5 233t84 320t-84 319.5t-229.5 232t-318.5 85.5
q-130 0 -247.5 -50.5t-202.5 -135.5t-135 -203t-50 -248q0 -174 84.5 -321t230.5 -232.5t320 -85.5zM1096 809q2 25 11.5 48t25.5 30q-24 35 -75.5 59.5t-119.5 24.5q-115 0 -183.5 -72.5t-68.5 -191.5q0 -120 69.5 -192.5t184.5 -72.5q73 0 130.5 34t70.5 89h192
q-14 -122 -121 -210.5t-272 -88.5q-204 0 -328.5 123t-124.5 324q0 195 123.5 313.5t327.5 118.5q89 0 162 -24t118 -62t73.5 -84.5t37.5 -91.5t2 -84q-9 -47 -41 -75t-80 -28q-46 0 -80 32.5t-34 80.5z" />
    <glyph glyph-name="ordfeminine" unicode="&#xaa;" horiz-adv-x="995" 
d="M801 983h86v-152h-246v72q-84 -84 -223 -84q-148 0 -238 96.5t-90 255.5q0 162 87.5 253.5t234.5 91.5q134 0 217 -74v61h172v-520zM440 975q66 0 114.5 31.5t61.5 85.5v157q-12 50 -61 81.5t-115 31.5q-78 0 -126 -53.5t-48 -139.5q0 -88 48.5 -141t125.5 -53z" />
    <glyph glyph-name="guillemotleft" unicode="&#xab;" horiz-adv-x="1449" 
d="M72 481v172l579 328v-219l-401 -191l401 -194v-219zM1319 981v-219l-401 -191l401 -194v-219l-580 323v172z" />
    <glyph glyph-name="registered" unicode="&#xae;" horiz-adv-x="1837" 
d="M920 1530q168 0 321 -66t264 -177t176.5 -264t65.5 -321t-65.5 -321.5t-176 -264.5t-264 -177t-321.5 -66t-322 66t-265 177t-177 264.5t-66 321.5t66 321.5t177 264.5t265 176.5t322 65.5zM920 55q175 0 323 87t234 236t86 324t-86 324t-234 235.5t-323 86.5
q-131 0 -250.5 -51.5t-206 -138t-138 -206t-51.5 -250.5q0 -132 51 -252t137.5 -206.5t206 -137.5t251.5 -51zM1307 874q0 -92 -53.5 -158.5t-149.5 -94.5l106 -146h97v-141h-183l-190 272h-117v-131h86v-141h-338v145h82v512h-82v146h420q149 0 235.5 -70.5t86.5 -192.5z
M977 748q69 0 110 32t41 94q0 58 -41 86.5t-110 28.5h-160v-241h160z" />
    <glyph glyph-name="macron" unicode="&#xaf;" horiz-adv-x="1228" 
d="M315 1440h652v-197h-652v197z" />
    <glyph glyph-name="degree" unicode="&#xb0;" horiz-adv-x="851" 
d="M428 831q-146 0 -245 98.5t-99 246.5q0 146 98.5 243t245.5 97q143 0 241.5 -98t98.5 -242q0 -147 -98.5 -246t-241.5 -99zM428 993q74 0 125 52.5t51 130.5q0 76 -51 128t-125 52q-76 0 -128 -52t-52 -128q0 -78 51.5 -130.5t128.5 -52.5z" />
    <glyph glyph-name="plusminus" unicode="&#xb1;" horiz-adv-x="1044" 
d="M434 301v313h-305v164h305v312h174v-310h307v-166h-307v-313h-174zM125 158h793v-158h-793v158z" />
    <glyph glyph-name="acute" unicode="&#xb4;" horiz-adv-x="1228" 
d="M852 1604l115 -232l-496 -194l-76 135z" />
    <glyph glyph-name="paragraph" unicode="&#xb6;" horiz-adv-x="1638" 
d="M1540 1262h-176v-1117q1 -146 -45.5 -260.5t-125 -182t-173.5 -102t-201 -34.5q-77 0 -142 11t-112 29.5t-84.5 43t-61 53.5t-39 58.5t-21 59t-4.5 55t7 46.5q30 103 150 103q83 0 119.5 -71t5.5 -138q48 -21 85.5 -30t96.5 -9q132 0 217.5 94t85.5 260v1131h-143v-1266
l-229 -2v510h-119q-137 0 -245 38.5t-177 107t-105 161t-36 201.5q0 215 146 349t417 134h909v-233z" />
    <glyph glyph-name="periodcentered" unicode="&#xb7;" horiz-adv-x="559" 
d="M279 514q-68 0 -116 49t-48 121q0 66 48 113t116 47q69 0 118 -47t49 -113q0 -72 -49 -121t-118 -49z" />
    <glyph glyph-name="cedilla" unicode="&#xb8;" horiz-adv-x="1228" 
d="M449 -188l20 194h172v-78q85 0 141 -45t56 -133q0 -95 -76 -148t-191 -53q-67 0 -126 18.5t-93 49.5l58 107q59 -39 137 -39q90 0 90 65q0 59 -88 62h-100z" />
    <glyph glyph-name="ordmasculine" unicode="&#xba;" horiz-adv-x="901" 
d="M451 1516q164 0 263 -92.5t99 -249.5q0 -160 -99 -255.5t-263 -95.5t-263.5 95.5t-99.5 255.5q0 157 99.5 249.5t263.5 92.5zM451 977q87 0 137.5 51.5t50.5 140.5t-51 141t-137 52q-85 0 -136 -52t-51 -141t51 -140.5t136 -51.5z" />
    <glyph glyph-name="guillemotright" unicode="&#xbb;" horiz-adv-x="1449" 
d="M131 762v219l580 -328v-172l-580 -323v219l401 194zM799 981l579 -328v-172l-579 -323v219l401 194l-401 191v219z" />
    <glyph glyph-name="onequarter" unicode="&#xbc;" horiz-adv-x="1796" 
d="M643 772h-537v150h189v397l-178 -29l-4 150l252 55h102v-573h176v-150zM1300 1288l109 -90l-928 -989l-106 98zM1726 285v-140h-145v-145h-174v145h-397v107q112 134 159.5 244.5t47.5 242.5h174q-1 -126 -42 -234.5t-124 -219.5h182v196h174v-196h145z" />
    <glyph glyph-name="onehalf" unicode="&#xbd;" horiz-adv-x="1728" 
d="M90 772v148h184v399l-176 -29l-4 150l250 55h102v-575h177v-148h-533zM1278 1286l108 -92l-927 -987l-107 98zM1509 223h140v-223h-611l2 100l271 244q86 78 106 104q31 40 31 82q0 37 -29 58.5t-84 21.5q-92 0 -121 -47q23 -19 23 -53q0 -31 -23.5 -55.5t-68.5 -24.5
q-38 0 -65.5 27t-30.5 67q-7 100 77.5 160.5t208.5 60.5q132 0 206.5 -60.5t74.5 -156.5q0 -29 -9.5 -57t-20 -47.5t-35.5 -46.5t-37.5 -38t-45.5 -39.5t-41 -35.5l-139 -125h221v84z" />
    <glyph glyph-name="threequarters" unicode="&#xbe;" horiz-adv-x="1853" 
d="M729 952q0 -108 -91.5 -165.5t-238.5 -57.5q-165 0 -243 62t-72 161q3 37 28 59.5t64 22.5q36 0 57 -21.5t21 -54.5q0 -32 -21 -45q32 -47 166 -47q169 0 166 101q0 52 -42.5 74t-127.5 22h-84v119h84q66 0 106 29.5t40 78.5q0 44 -34.5 68t-100.5 24q-106 0 -136 -51
q23 -9 23 -47q0 -30 -20.5 -52t-59.5 -22q-38 0 -64.5 23t-29.5 65q-10 97 71.5 157.5t215.5 60.5q138 0 216 -57.5t78 -155.5q0 -58 -34 -102.5t-93 -70.5q156 -45 156 -178zM1389 1288l108 -90l-928 -989l-106 98zM1782 285v-140h-142v-145h-178v145h-397v107
q205 245 205 487h178q-3 -231 -168 -454h182v196h178v-196h142z" />
    <glyph glyph-name="questiondown" unicode="&#xbf;" horiz-adv-x="1249" 
d="M637 762q-68 0 -117 48t-49 114q0 70 49 120t117 50q69 0 117.5 -49.5t48.5 -120.5q0 -66 -48.5 -114t-117.5 -48zM1186 6q20 -194 -134.5 -321t-410.5 -127q-144 0 -254 34.5t-177 96.5t-100.5 143t-33.5 180q0 182 126 316t335 161l22 156h164l27 -323h-60
q-97 0 -168 -24t-110 -66t-57.5 -92t-18.5 -109q0 -115 75.5 -184.5t227.5 -69.5q110 0 189.5 41t113.5 100q-23 13 -36 41.5t-13 54.5q0 56 38.5 97t98.5 41q63 0 106.5 -41.5t49.5 -104.5z" />
    <glyph glyph-name="Agrave" unicode="&#xc0;" horiz-adv-x="1697" 
d="M1096 1710l-82 -133l-484 221l123 225zM1522 209h172v-209h-607v209h170l-69 190h-676l-72 -190h174v-209h-596v209h181l417 1059h-241v227h651zM592 610h518l-254 695z" />
    <glyph glyph-name="Aacute" unicode="&#xc1;" horiz-adv-x="1697" 
d="M1169 1815l-473 -246l-88 127l422 338zM1522 209h172v-209h-607v209h170l-69 190h-676l-72 -190h174v-209h-596v209h181l417 1059h-241v227h651zM592 610h518l-254 695z" />
    <glyph glyph-name="Acircumflex" unicode="&#xc2;" horiz-adv-x="1697" 
d="M823 1755l-313 -133l-72 133l383 219l402 -219l-72 -133zM1522 209h172v-209h-607v209h170l-69 190h-676l-72 -190h174v-209h-596v209h181l417 1059h-241v227h651zM592 610h518l-254 695z" />
    <glyph glyph-name="Atilde" unicode="&#xc3;" horiz-adv-x="1697" 
d="M731 1720q-65 0 -86 -61l-172 37q6 120 60.5 175.5t142.5 55.5q58 -1 152.5 -39.5t123.5 -38.5q62 0 82 58l170 -33q-4 -109 -65 -168t-152 -57q-52 1 -101 18t-88 34.5t-67 18.5zM1522 209h172v-209h-607v209h170l-69 190h-676l-72 -190h174v-209h-596v209h181l417 1059
h-241v227h651zM592 610h518l-254 695z" />
    <glyph glyph-name="Adieresis" unicode="&#xc4;" horiz-adv-x="1697" 
d="M623 1632q-59 0 -100.5 43.5t-41.5 104.5q0 58 41.5 98.5t100.5 40.5q62 0 104.5 -40.5t42.5 -98.5q0 -62 -43 -105t-104 -43zM1036 1632q-59 0 -101 43.5t-42 104.5q0 58 42 98.5t101 40.5q61 0 103.5 -40t42.5 -99q0 -62 -42.5 -105t-103.5 -43zM1522 209h172v-209
h-607v209h170l-69 190h-676l-72 -190h174v-209h-596v209h181l417 1059h-241v227h651zM592 610h518l-254 695z" />
    <glyph glyph-name="Aring" unicode="&#xc5;" horiz-adv-x="1697" 
d="M829 1638q-119 0 -187.5 65t-68.5 163q0 96 68.5 160.5t187.5 64.5t187.5 -64.5t68.5 -160.5q0 -98 -68.5 -163t-187.5 -65zM829 1952q-40 0 -64.5 -24t-23.5 -62q-1 -37 23.5 -60.5t64.5 -23.5t65 23.5t24 60.5q1 38 -24 62t-65 24zM1522 209h172v-209h-607v209h170
l-69 190h-676l-72 -190h174v-209h-596v209h181l417 1059h-241v227h651zM592 610h518l-254 695z" />
    <glyph glyph-name="AE" unicode="&#xc6;" horiz-adv-x="2316" 
d="M1976 473h219v-473h-1224v209h162v203h-545l-125 -203h139v-209h-596v209h191l653 1059h-191v227h1530v-473h-217v260h-586v-448h539v-199h-539v-422h590v260zM707 606h426v692z" />
    <glyph glyph-name="Ccedilla" unicode="&#xc7;" horiz-adv-x="1660" 
d="M1247 889q0 85 56 123q8 106 -114 192t-308 86q-109 0 -204.5 -35t-168.5 -101.5t-115.5 -171t-42.5 -234.5q0 -104 29 -193t79.5 -152.5t118 -108.5t143.5 -67t157 -22q173 0 290.5 71.5t149.5 206.5h248q-25 -208 -190.5 -346t-432.5 -155v-54q85 0 141 -45t56 -133
q0 -95 -76 -148t-191 -53q-67 0 -126 18.5t-93 49.5l58 107q59 -39 137 -39q90 0 90 65q0 59 -88 62h-100l18 174q-199 23 -353 128t-238.5 272.5t-84.5 371.5q0 163 58 303t160.5 240.5t250 157.5t320.5 57q158 0 293.5 -50.5t225.5 -135t135.5 -198.5t33.5 -237
q-8 -69 -51.5 -112.5t-112.5 -43.5q-70 0 -114 45t-44 105z" />
    <glyph glyph-name="Egrave" unicode="&#xc8;" horiz-adv-x="1474" 
d="M1038 1710l-82 -133l-483 221l123 225zM1133 473h219v-473h-1231v209h158v1077h-158v209h1225v-473h-218v260h-593v-432h544v-213h-544v-424h598v260z" />
    <glyph glyph-name="Eacute" unicode="&#xc9;" horiz-adv-x="1474" 
d="M1112 1815l-473 -246l-88 127l422 338zM1133 473h219v-473h-1231v209h158v1077h-158v209h1225v-473h-218v260h-593v-432h544v-213h-544v-424h598v260z" />
    <glyph glyph-name="Ecircumflex" unicode="&#xca;" horiz-adv-x="1474" 
d="M766 1755l-313 -133l-72 133l383 219l401 -219l-71 -133zM1133 473h219v-473h-1231v209h158v1077h-158v209h1225v-473h-218v260h-593v-432h544v-213h-544v-424h598v260z" />
    <glyph glyph-name="Edieresis" unicode="&#xcb;" horiz-adv-x="1474" 
d="M565 1632q-59 0 -100 43.5t-41 104.5q0 58 41 98.5t100 40.5q62 0 105 -40.5t43 -98.5q0 -62 -43.5 -105t-104.5 -43zM979 1632q-59 0 -101 43.5t-42 104.5q0 58 42 98.5t101 40.5q61 0 103 -40t42 -99q0 -62 -42 -105t-103 -43zM1133 473h219v-473h-1231v209h158v1077
h-158v209h1225v-473h-218v260h-593v-432h544v-213h-544v-424h598v260z" />
    <glyph glyph-name="Igrave" unicode="&#xcc;" horiz-adv-x="813" 
d="M670 1710l-82 -133l-484 221l123 225zM690 1286h-155v-1077h155v-209h-567v209h156v1077h-156v209h567v-209z" />
    <glyph glyph-name="Iacute" unicode="&#xcd;" horiz-adv-x="813" 
d="M743 1815l-473 -246l-88 127l422 338zM690 1495v-209h-155v-1077h155v-209h-567v209h156v1077h-156v209h567z" />
    <glyph glyph-name="Icircumflex" unicode="&#xce;" horiz-adv-x="813" 
d="M395 1974l402 -219l-72 -133l-328 133l-313 -133l-72 133zM690 1495v-209h-155v-1077h155v-209h-567v209h156v1077h-156v209h567z" />
    <glyph glyph-name="Idieresis" unicode="&#xcf;" horiz-adv-x="813" 
d="M344 1780q0 -62 -43 -105t-104 -43q-59 0 -100.5 43.5t-41.5 104.5q0 58 41.5 98.5t100.5 40.5q62 0 104.5 -40.5t42.5 -98.5zM610 1919q61 0 103.5 -40t42.5 -99q0 -62 -42.5 -105t-103.5 -43q-59 0 -101 43.5t-42 104.5q0 58 42 98.5t101 40.5zM690 1495v-209h-155
v-1077h155v-209h-567v209h156v1077h-156v209h567z" />
    <glyph glyph-name="Eth" unicode="&#xd0;" horiz-adv-x="1679" 
d="M819 1495q344 0 555 -203t211 -534q0 -224 -95.5 -396.5t-269.5 -267t-401 -94.5h-698v209h158v469h-173v160h173v448h-158v209h698zM819 213q100 0 190 34t162 98.5t114 168.5t42 234q0 106 -27.5 194.5t-75.5 150.5t-113 105t-138.5 63.5t-153.5 20.5h-284v-444h264
v-160h-264v-465h284z" />
    <glyph glyph-name="Ntilde" unicode="&#xd1;" horiz-adv-x="1835" 
d="M829 1720q-65 0 -86 -61l-172 37q6 120 60.5 175.5t142.5 55.5q58 -1 153 -39.5t124 -38.5q62 0 82 58l170 -33q-4 -109 -65.5 -168t-152.5 -57q-52 1 -101 18t-88 34.5t-67 18.5zM1739 1495v-209h-154v-1286h-203l-858 1049v-840h168v-209h-571v209h158v1077h-158v209
h364l854 -1073v864h-172v209h572z" />
    <glyph glyph-name="Ograve" unicode="&#xd2;" horiz-adv-x="1759" 
d="M1145 1710l-82 -133l-483 221l122 225zM881 1516q184 0 333.5 -57.5t247.5 -159t150.5 -240t52.5 -301.5q0 -167 -52.5 -309t-150.5 -246.5t-247.5 -163.5t-333.5 -59q-236 0 -416.5 102t-275.5 278t-95 398q0 162 55 301.5t155 240.5t249 158.5t328 57.5zM881 205
q235 0 380.5 143.5t145.5 399.5q0 173 -68.5 297t-186 184.5t-271.5 60.5q-146 0 -264.5 -60.5t-191.5 -185.5t-73 -296q0 -128 42 -232t115 -171.5t168.5 -103.5t203.5 -36z" />
    <glyph glyph-name="Oacute" unicode="&#xd3;" horiz-adv-x="1759" 
d="M1219 1815l-474 -246l-88 127l422 338zM881 1516q184 0 333.5 -57.5t247.5 -159t150.5 -240t52.5 -301.5q0 -167 -52.5 -309t-150.5 -246.5t-247.5 -163.5t-333.5 -59q-236 0 -416.5 102t-275.5 278t-95 398q0 162 55 301.5t155 240.5t249 158.5t328 57.5zM881 205
q235 0 380.5 143.5t145.5 399.5q0 173 -68.5 297t-186 184.5t-271.5 60.5q-146 0 -264.5 -60.5t-191.5 -185.5t-73 -296q0 -128 42 -232t115 -171.5t168.5 -103.5t203.5 -36z" />
    <glyph glyph-name="Ocircumflex" unicode="&#xd4;" horiz-adv-x="1759" 
d="M872 1755l-313 -133l-72 133l383 219l402 -219l-72 -133zM881 1516q184 0 333.5 -57.5t247.5 -159t150.5 -240t52.5 -301.5q0 -167 -52.5 -309t-150.5 -246.5t-247.5 -163.5t-333.5 -59q-236 0 -416.5 102t-275.5 278t-95 398q0 162 55 301.5t155 240.5t249 158.5
t328 57.5zM881 205q235 0 380.5 143.5t145.5 399.5q0 173 -68.5 297t-186 184.5t-271.5 60.5q-146 0 -264.5 -60.5t-191.5 -185.5t-73 -296q0 -128 42 -232t115 -171.5t168.5 -103.5t203.5 -36z" />
    <glyph glyph-name="Otilde" unicode="&#xd5;" horiz-adv-x="1759" 
d="M780 1720q-65 0 -86 -61l-172 37q6 120 60.5 175.5t142.5 55.5q58 -1 152.5 -39.5t123.5 -38.5q62 0 82 58l170 -33q-4 -109 -65 -168t-152 -57q-52 1 -101 18t-88 34.5t-67 18.5zM881 1516q184 0 333.5 -57.5t247.5 -159t150.5 -240t52.5 -301.5q0 -167 -52.5 -309
t-150.5 -246.5t-247.5 -163.5t-333.5 -59q-236 0 -416.5 102t-275.5 278t-95 398q0 162 55 301.5t155 240.5t249 158.5t328 57.5zM881 205q235 0 380.5 143.5t145.5 399.5q0 173 -68.5 297t-186 184.5t-271.5 60.5q-146 0 -264.5 -60.5t-191.5 -185.5t-73 -296
q0 -128 42 -232t115 -171.5t168.5 -103.5t203.5 -36z" />
    <glyph glyph-name="Odieresis" unicode="&#xd6;" horiz-adv-x="1759" 
d="M672 1632q-59 0 -100.5 43.5t-41.5 104.5q0 58 41.5 98.5t100.5 40.5q62 0 104.5 -40.5t42.5 -98.5q0 -62 -43 -105t-104 -43zM1085 1632q-59 0 -101 43.5t-42 104.5q0 58 42 98.5t101 40.5q61 0 103.5 -40t42.5 -99q0 -62 -42.5 -105t-103.5 -43zM881 1516
q184 0 333.5 -57.5t247.5 -159t150.5 -240t52.5 -301.5q0 -167 -52.5 -309t-150.5 -246.5t-247.5 -163.5t-333.5 -59q-236 0 -416.5 102t-275.5 278t-95 398q0 162 55 301.5t155 240.5t249 158.5t328 57.5zM881 205q235 0 380.5 143.5t145.5 399.5q0 173 -68.5 297
t-186 184.5t-271.5 60.5q-146 0 -264.5 -60.5t-191.5 -185.5t-73 -296q0 -128 42 -232t115 -171.5t168.5 -103.5t203.5 -36z" />
    <glyph glyph-name="multiply" unicode="&#xd7;" horiz-adv-x="968" 
d="M848 829l-242 -241l242 -242l-123 -123l-242 242l-239 -242l-125 123l241 242l-241 241l125 123l239 -241l242 241z" />
    <glyph glyph-name="Oslash" unicode="&#xd8;" horiz-adv-x="1759" 
d="M1444 1317q108 -103 164.5 -246t56.5 -313q0 -167 -52.5 -309t-150.5 -246.5t-247.5 -163.5t-333.5 -59q-260 0 -449 120l-94 -114l-125 92l98 119q-105 105 -161 249t-56 312q0 162 55 301.5t155 240.5t249 158.5t328 57.5q251 0 438 -107l86 102l127 -88zM352 748
q0 -215 117 -361l694 836q-119 67 -282 67q-146 0 -264.5 -60.5t-191.5 -185.5t-73 -296zM881 205q235 0 380.5 143.5t145.5 399.5q0 234 -123 376l-698 -839q130 -80 295 -80z" />
    <glyph glyph-name="Ugrave" unicode="&#xd9;" horiz-adv-x="1732" 
d="M1139 1710l-82 -133l-484 221l123 225zM1645 1495v-209h-154v-674q0 -157 -45 -278.5t-128.5 -198.5t-197 -116t-254.5 -39q-135 0 -247.5 39t-197 115.5t-132 198.5t-47.5 279v674h-158v209h567v-209h-153v-674q0 -96 23.5 -170t60 -118t87 -71.5t98 -37.5t99.5 -10
q57 0 106 10t99 37.5t85 71.5t57 118t22 170v674h-158v209h568z" />
    <glyph glyph-name="Uacute" unicode="&#xda;" horiz-adv-x="1732" 
d="M1212 1815l-473 -246l-88 127l422 338zM1645 1495v-209h-154v-674q0 -157 -45 -278.5t-128.5 -198.5t-197 -116t-254.5 -39q-135 0 -247.5 39t-197 115.5t-132 198.5t-47.5 279v674h-158v209h567v-209h-153v-674q0 -96 23.5 -170t60 -118t87 -71.5t98 -37.5t99.5 -10
q57 0 106 10t99 37.5t85 71.5t57 118t22 170v674h-158v209h568z" />
    <glyph glyph-name="Ucircumflex" unicode="&#xdb;" horiz-adv-x="1732" 
d="M866 1755l-313 -133l-72 133l383 219l402 -219l-72 -133zM1645 1495v-209h-154v-674q0 -157 -45 -278.5t-128.5 -198.5t-197 -116t-254.5 -39q-135 0 -247.5 39t-197 115.5t-132 198.5t-47.5 279v674h-158v209h567v-209h-153v-674q0 -96 23.5 -170t60 -118t87 -71.5
t98 -37.5t99.5 -10q57 0 106 10t99 37.5t85 71.5t57 118t22 170v674h-158v209h568z" />
    <glyph glyph-name="Udieresis" unicode="&#xdc;" horiz-adv-x="1732" 
d="M666 1632q-59 0 -100.5 43.5t-41.5 104.5q0 58 41.5 98.5t100.5 40.5q62 0 104.5 -40.5t42.5 -98.5q0 -62 -43 -105t-104 -43zM1079 1632q-59 0 -101 43.5t-42 104.5q0 58 42 98.5t101 40.5q61 0 103.5 -40t42.5 -99q0 -62 -42.5 -105t-103.5 -43zM1645 1495v-209h-154
v-674q0 -157 -45 -278.5t-128.5 -198.5t-197 -116t-254.5 -39q-135 0 -247.5 39t-197 115.5t-132 198.5t-47.5 279v674h-158v209h567v-209h-153v-674q0 -96 23.5 -170t60 -118t87 -71.5t98 -37.5t99.5 -10q57 0 106 10t99 37.5t85 71.5t57 118t22 170v674h-158v209h568z" />
    <glyph glyph-name="Yacute" unicode="&#xdd;" horiz-adv-x="1525" 
d="M1126 1815l-473 -246l-88 127l422 338zM1313 1286l-418 -731v-346h176v-209h-606v209h176v346l-444 731h-168v209h579v-209h-135l305 -555l293 555h-145v209h569v-209h-182z" />
    <glyph glyph-name="Thorn" unicode="&#xde;" horiz-adv-x="1435" 
d="M846 1180q249 0 392.5 -116.5t143.5 -315.5t-143.5 -316t-392.5 -117h-311v-106h198v-209h-612v209h158v1077h-158v209h612v-209h-198v-106h311zM850 528q131 0 201.5 58t70.5 162t-70.5 161.5t-201.5 57.5h-315v-439h315z" />
    <glyph glyph-name="germandbls" unicode="&#xdf;" horiz-adv-x="1470" 
d="M991 860q0 -41 22.5 -74.5t59 -58.5t80 -50t87 -56.5t80 -70.5t59 -98.5t22.5 -134.5q0 -154 -108 -245.5t-289 -91.5q-166 0 -282.5 79.5t-115.5 212.5q1 63 37.5 100.5t95.5 37.5q52 0 88.5 -32t36.5 -81q0 -31 -16 -57q52 -66 162 -66q61 0 105 38.5t44 102.5
q0 47 -22 86t-57 68t-77.5 57t-84.5 59.5t-77 67.5t-57 89.5t-22 117.5q0 210 219 279q-6 112 -67 176.5t-177 64.5q-109 0 -173 -62.5t-64 -164.5v-1153h-398v209h150v641h-170v215h170v88q0 202 130 321t351 119q226 1 353.5 -117t127.5 -307v-180q-223 -7 -223 -129z" />
    <glyph glyph-name="agrave" unicode="&#xe0;" horiz-adv-x="1396" 
d="M950 1313l-76 -137l-493 196l111 232zM1184 209h145v-209h-373v117q-127 -137 -346 -137q-247 0 -387.5 150.5t-140.5 408.5q0 251 138 398.5t374 147.5q217 0 344 -124v104h246v-856zM629 195q121 0 196.5 54t96.5 150v260q-21 95 -96 153t-187 58q-142 0 -223.5 -88.5
t-81.5 -249.5q0 -160 81.5 -248.5t213.5 -88.5z" />
    <glyph glyph-name="aacute" unicode="&#xe1;" horiz-adv-x="1396" 
d="M1016 1372l-496 -194l-76 135l457 291zM1184 209h145v-209h-373v117q-127 -137 -346 -137q-247 0 -387.5 150.5t-140.5 408.5q0 251 138 398.5t374 147.5q217 0 344 -124v104h246v-856zM629 195q121 0 196.5 54t96.5 150v260q-21 95 -96 153t-187 58q-142 0 -223.5 -88.5
t-81.5 -249.5q0 -160 81.5 -248.5t213.5 -88.5z" />
    <glyph glyph-name="acircumflex" unicode="&#xe2;" horiz-adv-x="1396" 
d="M666 1350l-314 -133l-71 133l383 219l401 -219l-72 -133zM1184 209h145v-209h-373v117q-127 -137 -346 -137q-247 0 -387.5 150.5t-140.5 408.5q0 251 138 398.5t374 147.5q217 0 344 -124v104h246v-856zM629 195q121 0 196.5 54t96.5 150v260q-21 95 -96 153t-187 58
q-142 0 -223.5 -88.5t-81.5 -249.5q0 -160 81.5 -248.5t213.5 -88.5z" />
    <glyph glyph-name="atilde" unicode="&#xe3;" horiz-adv-x="1396" 
d="M555 1270q-65 0 -86 -62l-172 37q6 120 60.5 176t142.5 56q58 -1 152.5 -39.5t123.5 -38.5q63 0 82 57l170 -33q-4 -109 -65 -168t-152 -57q-52 1 -101 18.5t-88 35t-67 18.5zM1184 209h145v-209h-373v117q-127 -137 -346 -137q-247 0 -387.5 150.5t-140.5 408.5
q0 251 138 398.5t374 147.5q217 0 344 -124v104h246v-856zM629 195q121 0 196.5 54t96.5 150v260q-21 95 -96 153t-187 58q-142 0 -223.5 -88.5t-81.5 -249.5q0 -160 81.5 -248.5t213.5 -88.5z" />
    <glyph glyph-name="adieresis" unicode="&#xe4;" horiz-adv-x="1396" 
d="M457 1262q-59 0 -100.5 43t-41.5 104q0 58 41.5 98.5t100.5 40.5q62 0 104.5 -40.5t42.5 -98.5q0 -61 -43 -104t-104 -43zM870 1262q-59 0 -101 43t-42 104q0 58 42 98.5t101 40.5q61 0 103.5 -40t42.5 -99q0 -62 -42.5 -104.5t-103.5 -42.5zM1184 209h145v-209h-373v117
q-127 -137 -346 -137q-247 0 -387.5 150.5t-140.5 408.5q0 251 138 398.5t374 147.5q217 0 344 -124v104h246v-856zM629 195q121 0 196.5 54t96.5 150v260q-21 95 -96 153t-187 58q-142 0 -223.5 -88.5t-81.5 -249.5q0 -160 81.5 -248.5t213.5 -88.5z" />
    <glyph glyph-name="aring" unicode="&#xe5;" horiz-adv-x="1396" 
d="M664 1169q-119 0 -187.5 65t-68.5 163q0 96 68.5 160.5t187.5 64.5t187.5 -64.5t68.5 -160.5q0 -98 -68.5 -163t-187.5 -65zM664 1483q-40 0 -65 -24t-24 -62q-1 -37 24 -60.5t65 -23.5t64.5 23.5t23.5 60.5q1 38 -23.5 62t-64.5 24zM1184 209h145v-209h-373v117
q-127 -137 -346 -137q-247 0 -387.5 150.5t-140.5 408.5q0 251 138 398.5t374 147.5q217 0 344 -124v104h246v-856zM629 195q121 0 196.5 54t96.5 150v260q-21 95 -96 153t-187 58q-142 0 -223.5 -88.5t-81.5 -249.5q0 -160 81.5 -248.5t213.5 -88.5z" />
    <glyph glyph-name="ae" unicode="&#xe6;" horiz-adv-x="1923" 
d="M1343 1085q79 0 154.5 -22t144 -70.5t117.5 -118.5t72.5 -173.5t9.5 -227.5l-18 -16h-756q17 -127 88.5 -197t185.5 -70q87 0 151.5 35t88.5 90h236q-27 -139 -153.5 -237t-322.5 -98q-146 0 -256 56t-178 157q-63 -99 -179 -156t-282 -57q-163 0 -262.5 82.5
t-99.5 220.5q0 156 128.5 245.5t356.5 89.5h242q-2 123 -68.5 187.5t-195.5 64.5q-49 0 -92.5 -14.5t-62.5 -27t-46 -33.5q13 -27 4 -62q-9 -38 -40 -63t-77 -25q-47 0 -80 31.5t-38 77.5q-15 138 104 234.5t328 96.5q274 0 403 -161q151 161 393 161zM1071 625h539
q-9 68 -37.5 119.5t-67.5 79.5t-80 41.5t-82 13.5q-98 0 -173.5 -68.5t-98.5 -185.5zM526 174q107 0 187 50t98 134v88q-98 -2 -264 -2q-215 0 -215 -143q0 -58 49 -92.5t145 -34.5z" />
    <glyph glyph-name="ccedilla" unicode="&#xe7;" horiz-adv-x="1193" 
d="M1118 342q-12 -59 -42 -116t-80 -110t-128 -89.5t-172 -44.5v-54q85 0 141 -45t56 -133q0 -95 -75.5 -148t-190.5 -53q-67 0 -126 18.5t-93 49.5l57 107q59 -39 137 -39q90 0 90 65q0 59 -88 62h-100l18 178q-206 36 -325 186.5t-119 362.5q0 157 65.5 280t195.5 194.5
t306 71.5q118 0 213.5 -37t152.5 -97t84.5 -131.5t20.5 -143.5q-5 -56 -41.5 -94.5t-95.5 -38.5q-55 0 -95 35t-40 90q0 65 37 92q-77 110 -246 110q-135 0 -220 -90.5t-85 -247.5q0 -158 85.5 -247.5t231.5 -89.5q88 0 155.5 38t90.5 107z" />
    <glyph glyph-name="egrave" unicode="&#xe8;" horiz-adv-x="1212" 
d="M893 1313l-76 -137l-493 196l110 232zM627 1085q79 0 155 -22t146 -71t119.5 -119t73 -174t9.5 -228l-16 -16h-776q17 -125 92.5 -195t196.5 -70q86 0 147.5 34.5t85.5 92.5h248q-25 -140 -154 -238.5t-327 -98.5q-172 0 -297.5 74t-187.5 199.5t-62 285.5q0 238 150 392
t397 154zM340 623h547q-7 68 -34 119.5t-65.5 80t-79 42.5t-81.5 14q-106 0 -184.5 -68.5t-102.5 -187.5z" />
    <glyph glyph-name="eacute" unicode="&#xe9;" horiz-adv-x="1212" 
d="M958 1372l-495 -194l-76 135l457 291zM627 1085q79 0 155 -22t146 -71t119.5 -119t73 -174t9.5 -228l-16 -16h-776q17 -125 92.5 -195t196.5 -70q86 0 147.5 34.5t85.5 92.5h248q-25 -140 -154 -238.5t-327 -98.5q-172 0 -297.5 74t-187.5 199.5t-62 285.5q0 238 150 392
t397 154zM340 623h547q-7 68 -34 119.5t-65.5 80t-79 42.5t-81.5 14q-106 0 -184.5 -68.5t-102.5 -187.5z" />
    <glyph glyph-name="ecircumflex" unicode="&#xea;" horiz-adv-x="1212" 
d="M608 1350l-313 -133l-72 133l383 219l402 -219l-72 -133zM627 1085q79 0 155 -22t146 -71t119.5 -119t73 -174t9.5 -228l-16 -16h-776q17 -125 92.5 -195t196.5 -70q86 0 147.5 34.5t85.5 92.5h248q-25 -140 -154 -238.5t-327 -98.5q-172 0 -297.5 74t-187.5 199.5
t-62 285.5q0 238 150 392t397 154zM340 623h547q-7 68 -34 119.5t-65.5 80t-79 42.5t-81.5 14q-106 0 -184.5 -68.5t-102.5 -187.5z" />
    <glyph glyph-name="edieresis" unicode="&#xeb;" horiz-adv-x="1212" 
d="M399 1262q-59 0 -100 43t-41 104q0 58 41 98.5t100 40.5q62 0 105 -40.5t43 -98.5q0 -61 -43 -104t-105 -43zM813 1262q-59 0 -101 43t-42 104q0 58 42 98.5t101 40.5q61 0 103 -40t42 -99q0 -62 -42 -104.5t-103 -42.5zM627 1085q79 0 155 -22t146 -71t119.5 -119
t73 -174t9.5 -228l-16 -16h-776q17 -125 92.5 -195t196.5 -70q86 0 147.5 34.5t85.5 92.5h248q-25 -140 -154 -238.5t-327 -98.5q-172 0 -297.5 74t-187.5 199.5t-62 285.5q0 238 150 392t397 154zM340 623h547q-7 68 -34 119.5t-65.5 80t-79 42.5t-81.5 14
q-106 0 -184.5 -68.5t-102.5 -187.5z" />
    <glyph glyph-name="igrave" unicode="&#xec;" horiz-adv-x="712" 
d="M647 1313l-76 -137l-493 196l110 232zM498 209h151v-209h-555v209h156v647h-154v209h402v-856z" />
    <glyph glyph-name="iacute" unicode="&#xed;" horiz-adv-x="712" 
d="M709 1372l-490 -194l-76 135l451 291zM498 1065v-856h151v-209h-555v209h156v647h-154v209h402z" />
    <glyph glyph-name="icircumflex" unicode="&#xee;" horiz-adv-x="712" 
d="M360 1569l394 -219l-70 -133l-322 133l-307 -133l-69 133zM498 1065v-856h151v-209h-555v209h156v647h-154v209h402z" />
    <glyph glyph-name="idieresis" unicode="&#xef;" horiz-adv-x="712" 
d="M301 1409q0 -61 -42.5 -104t-104.5 -43q-59 0 -100.5 43t-41.5 104q0 58 41.5 98.5t100.5 40.5q62 0 104.5 -40.5t42.5 -98.5zM567 1548q61 0 103.5 -40t42.5 -99q0 -62 -42.5 -104.5t-103.5 -42.5q-59 0 -101 43t-42 104q0 58 42 98.5t101 40.5zM498 1065v-856h151v-209
h-555v209h156v647h-154v209h402z" />
    <glyph glyph-name="eth" unicode="&#xf0;" horiz-adv-x="1280" 
d="M930 1300q117 -132 179 -310t62 -390q0 -282 -149.5 -451t-396.5 -169q-245 0 -394 149t-149 393q0 232 135 366t375 134q154 0 276 -88q-65 154 -178 262l-297 -131l-57 117l237 104q-152 89 -329 103l55 208q307 -21 530 -200l201 88l53 -117zM920 512v55
q-25 104 -100.5 175t-182.5 71q-146 0 -224.5 -79t-78.5 -218q0 -146 79.5 -233.5t211.5 -87.5q127 0 211 87t84 230z" />
    <glyph glyph-name="ntilde" unicode="&#xf1;" horiz-adv-x="1462" 
d="M639 1270q-65 0 -86 -62l-172 37q6 120 60.5 176t142.5 56q58 -1 152.5 -39.5t123.5 -38.5q63 0 82 57l170 -33q-4 -109 -65 -168t-152 -57q-52 1 -101 18.5t-88 35t-67 18.5zM1262 209h151v-209h-549v209h150v352q0 309 -246 309q-101 0 -173.5 -58.5t-96.5 -152.5v-450
h147v-209h-551v209h156v647h-154v209h363v-135q125 155 354 155q205 0 327 -123t122 -337v-416z" />
    <glyph glyph-name="ograve" unicode="&#xf2;" horiz-adv-x="1302" 
d="M932 1313l-76 -137l-494 196l111 232zM651 1085q182 0 313 -72t195 -194t64 -280q0 -120 -37.5 -221.5t-108 -177t-180 -118t-246.5 -42.5t-246 42.5t-179.5 118t-108 177t-37.5 221.5q0 159 63.5 280.5t194 193.5t313.5 72zM651 195q144 0 232 90t88 247t-88.5 247.5
t-231.5 90.5q-145 0 -232 -90t-87 -248t87 -247.5t232 -89.5z" />
    <glyph glyph-name="oacute" unicode="&#xf3;" horiz-adv-x="1302" 
d="M997 1372l-495 -194l-76 135l457 291zM651 1085q182 0 313 -72t195 -194t64 -280q0 -120 -37.5 -221.5t-108 -177t-180 -118t-246.5 -42.5t-246 42.5t-179.5 118t-108 177t-37.5 221.5q0 159 63.5 280.5t194 193.5t313.5 72zM651 195q144 0 232 90t88 247t-88.5 247.5
t-231.5 90.5q-145 0 -232 -90t-87 -248t87 -247.5t232 -89.5z" />
    <glyph glyph-name="ocircumflex" unicode="&#xf4;" horiz-adv-x="1302" 
d="M647 1350l-313 -133l-72 133l383 219l402 -219l-72 -133zM651 1085q182 0 313 -72t195 -194t64 -280q0 -120 -37.5 -221.5t-108 -177t-180 -118t-246.5 -42.5t-246 42.5t-179.5 118t-108 177t-37.5 221.5q0 159 63.5 280.5t194 193.5t313.5 72zM651 195q144 0 232 90
t88 247t-88.5 247.5t-231.5 90.5q-145 0 -232 -90t-87 -248t87 -247.5t232 -89.5z" />
    <glyph glyph-name="otilde" unicode="&#xf5;" horiz-adv-x="1302" 
d="M537 1270q-65 0 -86 -62l-172 37q6 120 60.5 176t141.5 56q58 -1 153 -39.5t124 -38.5q63 0 82 57l170 -33q-4 -109 -65 -168t-152 -57q-52 1 -101 18.5t-88 35t-67 18.5zM651 1085q182 0 313 -72t195 -194t64 -280q0 -120 -37.5 -221.5t-108 -177t-180 -118
t-246.5 -42.5t-246 42.5t-179.5 118t-108 177t-37.5 221.5q0 159 63.5 280.5t194 193.5t313.5 72zM651 195q144 0 232 90t88 247t-88.5 247.5t-231.5 90.5q-145 0 -232 -90t-87 -248t87 -247.5t232 -89.5z" />
    <glyph glyph-name="odieresis" unicode="&#xf6;" horiz-adv-x="1302" 
d="M438 1262q-59 0 -100 43t-41 104q0 58 41 98.5t100 40.5q62 0 105 -40.5t43 -98.5q0 -61 -43 -104t-105 -43zM852 1262q-59 0 -101 43t-42 104q0 58 42 98.5t101 40.5q61 0 103 -40t42 -99q0 -62 -42 -104.5t-103 -42.5zM651 1085q182 0 313 -72t195 -194t64 -280
q0 -120 -37.5 -221.5t-108 -177t-180 -118t-246.5 -42.5t-246 42.5t-179.5 118t-108 177t-37.5 221.5q0 159 63.5 280.5t194 193.5t313.5 72zM651 195q144 0 232 90t88 247t-88.5 247.5t-231.5 90.5q-145 0 -232 -90t-87 -248t87 -247.5t232 -89.5z" />
    <glyph glyph-name="divide" unicode="&#xf7;" horiz-adv-x="1079" 
d="M541 770q-59 0 -100.5 42t-41.5 103q0 56 42 97t100 41t99.5 -41t41.5 -97q0 -61 -41 -103t-100 -42zM979 647v-178h-877v178h877zM543 39q-60 0 -102 42.5t-42 102.5q0 56 42.5 98t101.5 42q58 0 98.5 -42t40.5 -98q0 -60 -40.5 -102.5t-98.5 -42.5z" />
    <glyph glyph-name="oslash" unicode="&#xf8;" horiz-adv-x="1302" 
d="M1102 903q121 -145 121 -364q0 -120 -37.5 -221.5t-108 -177t-180 -118t-246.5 -42.5q-210 0 -356 100l-98 -100l-93 86l99 100q-123 147 -123 373q0 159 63.5 280.5t194 193.5t313.5 72q213 0 355 -96l92 94l94 -88zM332 532q0 -109 45 -188l461 473q-77 53 -187 53
q-145 0 -232 -90t-87 -248zM651 195q144 0 232 90t88 247q0 112 -45 191l-465 -473q76 -55 190 -55z" />
    <glyph glyph-name="ugrave" unicode="&#xf9;" horiz-adv-x="1384" 
d="M926 1313l-76 -137l-494 196l111 232zM1167 209h156v-209h-362v137q-124 -157 -349 -157q-177 0 -295 117.5t-118 289.5v469h-150v209h397v-670q0 -90 60.5 -145t146.5 -55q99 -1 172 58t95 153v450h-150v209h397v-856z" />
    <glyph glyph-name="uacute" unicode="&#xfa;" horiz-adv-x="1384" 
d="M991 1372l-495 -194l-76 135l457 291zM1167 209h156v-209h-362v137q-124 -157 -349 -157q-177 0 -295 117.5t-118 289.5v469h-150v209h397v-670q0 -90 60.5 -145t146.5 -55q99 -1 172 58t95 153v450h-150v209h397v-856z" />
    <glyph glyph-name="ucircumflex" unicode="&#xfb;" horiz-adv-x="1384" 
d="M641 1350l-313 -133l-72 133l383 219l401 -219l-71 -133zM1167 209h156v-209h-362v137q-124 -157 -349 -157q-177 0 -295 117.5t-118 289.5v469h-150v209h397v-670q0 -90 60.5 -145t146.5 -55q99 -1 172 58t95 153v450h-150v209h397v-856z" />
    <glyph glyph-name="udieresis" unicode="&#xfc;" horiz-adv-x="1384" 
d="M432 1262q-59 0 -100 43t-41 104q0 58 41 98.5t100 40.5q62 0 105 -40.5t43 -98.5q0 -61 -43 -104t-105 -43zM846 1262q-59 0 -101.5 43t-42.5 104q0 58 42.5 98.5t101.5 40.5q61 0 103 -40t42 -99q0 -62 -42 -104.5t-103 -42.5zM1167 209h156v-209h-362v137
q-124 -157 -349 -157q-177 0 -295 117.5t-118 289.5v469h-150v209h397v-670q0 -90 60.5 -145t146.5 -55q99 -1 172 58t95 153v450h-150v209h397v-856z" />
    <glyph glyph-name="yacute" unicode="&#xfd;" horiz-adv-x="1404" 
d="M1059 1372l-496 -194l-76 135l457 291zM1393 1065v-209h-193l-422 -1053q-98 -247 -325 -247q-79 0 -140 22.5t-100.5 75t-40.5 129.5q-2 68 31 105.5t96 37.5q50 0 83.5 -31t33.5 -77q2 -26 -13 -56q19 -16 64 -16q65 0 92 70l70 184h-78l-352 856h-183v209h562v-209
h-105l236 -655l233 655h-113v209h564z" />
    <glyph glyph-name="thorn" unicode="&#xfe;" horiz-adv-x="1341" 
d="M750 1085q237 0 373.5 -146.5t136.5 -399.5q0 -259 -139.5 -409t-387.5 -150q-218 0 -348 137v-334h193v-209h-578v209h156v1794h231v-635q131 143 363 143zM154 1577v-209h-154v209h154zM715 195q131 0 213 88t82 249q0 164 -81 251t-227 87q-110 0 -185 -58t-97 -153
v-260q22 -96 97.5 -150t197.5 -54z" />
    <glyph glyph-name="ydieresis" unicode="&#xff;" horiz-adv-x="1404" 
d="M500 1262q-59 0 -100.5 43t-41.5 104q0 58 41.5 98.5t100.5 40.5q62 0 104.5 -40.5t42.5 -98.5q0 -61 -42.5 -104t-104.5 -43zM913 1262q-59 0 -101 43t-42 104q0 58 42 98.5t101 40.5q61 0 103.5 -40t42.5 -99q0 -62 -42.5 -104.5t-103.5 -42.5zM1393 1065v-209h-193
l-422 -1053q-98 -247 -325 -247q-79 0 -140 22.5t-100.5 75t-40.5 129.5q-2 68 31 105.5t96 37.5q50 0 83.5 -31t33.5 -77q2 -26 -13 -56q19 -16 64 -16q65 0 92 70l70 184h-78l-352 856h-183v209h562v-209h-105l236 -655l233 655h-113v209h564z" />
    <glyph glyph-name="Amacron" unicode="&#x100;" horiz-adv-x="1697" 
d="M1157 1835v-197h-651v197h651zM1522 209h172v-209h-607v209h170l-69 190h-676l-72 -190h174v-209h-596v209h181l417 1059h-241v227h651zM592 610h518l-254 695z" />
    <glyph glyph-name="amacron" unicode="&#x101;" horiz-adv-x="1396" 
d="M991 1440v-197h-651v197h651zM1184 209h145v-209h-373v117q-127 -137 -346 -137q-247 0 -387.5 150.5t-140.5 408.5q0 251 138 398.5t374 147.5q217 0 344 -124v104h246v-856zM629 195q121 0 196.5 54t96.5 150v260q-21 95 -96 153t-187 58q-142 0 -223.5 -88.5
t-81.5 -249.5q0 -160 81.5 -248.5t213.5 -88.5z" />
    <glyph glyph-name="Abreve" unicode="&#x102;" horiz-adv-x="1697" 
d="M831 1612q-182 0 -291 87.5t-100 235.5l181 13q3 -69 60.5 -110.5t149.5 -41.5q93 0 153 41t63 111l176 -13q9 -148 -99.5 -235.5t-292.5 -87.5zM1522 209h172v-209h-607v209h170l-69 190h-676l-72 -190h174v-209h-596v209h181l417 1059h-241v227h651zM592 610h518
l-254 695z" />
    <glyph glyph-name="abreve" unicode="&#x103;" horiz-adv-x="1396" 
d="M666 1182q-182 0 -291.5 87.5t-100.5 235.5l181 13q3 -69 61 -110.5t150 -41.5q93 0 152.5 41t62.5 111l176 -13q9 -148 -99.5 -235.5t-291.5 -87.5zM1184 209h145v-209h-373v117q-127 -137 -346 -137q-247 0 -387.5 150.5t-140.5 408.5q0 251 138 398.5t374 147.5
q217 0 344 -124v104h246v-856zM629 195q121 0 196.5 54t96.5 150v260q-21 95 -96 153t-187 58q-142 0 -223.5 -88.5t-81.5 -249.5q0 -160 81.5 -248.5t213.5 -88.5z" />
    <glyph glyph-name="Aogonek" unicode="&#x104;" horiz-adv-x="1697" 
d="M1536 0q-135 -93 -135 -203q0 -36 23 -58t57 -22q49 0 90 13v-144q-78 -20 -137 -20q-104 0 -170 55.5t-66 161.5q0 131 139 217h-250v209h170l-69 190h-676l-72 -190h174v-209h-596v209h181l417 1059h-241v227h651l496 -1286h172v-209h-158zM592 610h518l-254 695z" />
    <glyph glyph-name="aogonek" unicode="&#x105;" horiz-adv-x="1396" 
d="M1184 209h145v-209h-186q-160 -100 -160 -219q0 -36 23 -58t57 -22q53 0 90 12v-143q-82 -21 -137 -21q-104 0 -170 56t-66 162q0 146 176 237v113q-127 -137 -346 -137q-247 0 -387.5 150.5t-140.5 408.5q0 251 138 398.5t374 147.5q217 0 344 -124v104h246v-856z
M629 195q121 0 196.5 54t96.5 150v260q-21 95 -96 153t-187 58q-142 0 -223.5 -88.5t-81.5 -249.5q0 -160 81.5 -248.5t213.5 -88.5z" />
    <glyph glyph-name="Cacute" unicode="&#x106;" horiz-adv-x="1660" 
d="M1217 1815l-474 -246l-88 127l422 338zM1247 889q0 85 56 123q8 106 -114 192t-308 86q-109 0 -204.5 -35t-168.5 -101.5t-115.5 -171t-42.5 -234.5q0 -104 29 -193t79.5 -152.5t118 -108.5t143.5 -67t157 -22q173 0 290.5 71.5t149.5 206.5h248q-27 -222 -210.5 -362.5
t-477.5 -140.5q-228 0 -407.5 100.5t-278.5 278t-99 399.5q0 163 58 303t160.5 240.5t250 157.5t320.5 57q158 0 293.5 -50.5t225.5 -135t135.5 -198.5t33.5 -237q-8 -69 -51.5 -112.5t-112.5 -43.5q-70 0 -114 45t-44 105z" />
    <glyph glyph-name="cacute" unicode="&#x107;" horiz-adv-x="1193" 
d="M872 1604l115 -232l-495 -194l-76 135zM979 543q-55 0 -95 35t-40 90q0 65 37 92q-77 110 -246 110q-135 0 -220 -90.5t-85 -247.5q0 -158 85.5 -247.5t231.5 -89.5q88 0 155.5 38t90.5 107l225 2q-10 -50 -32 -98.5t-62 -97t-92 -85t-127 -59t-162 -22.5
q-258 0 -411.5 158t-153.5 401q0 157 65.5 280t195.5 194.5t306 71.5q118 0 213.5 -37t152.5 -97t84.5 -131.5t20.5 -143.5q-5 -56 -41.5 -94.5t-95.5 -38.5z" />
    <glyph glyph-name="Cdotaccent" unicode="&#x10a;" horiz-adv-x="1660" 
d="M877 1632q-68 0 -115 48t-47 118q0 65 47.5 110.5t114.5 45.5t114 -45.5t47 -110.5q0 -70 -46.5 -118t-114.5 -48zM1247 889q0 85 56 123q8 106 -114 192t-308 86q-109 0 -204.5 -35t-168.5 -101.5t-115.5 -171t-42.5 -234.5q0 -104 29 -193t79.5 -152.5t118 -108.5
t143.5 -67t157 -22q173 0 290.5 71.5t149.5 206.5h248q-27 -222 -210.5 -362.5t-477.5 -140.5q-228 0 -407.5 100.5t-278.5 278t-99 399.5q0 163 58 303t160.5 240.5t250 157.5t320.5 57q158 0 293.5 -50.5t225.5 -135t135.5 -198.5t33.5 -237q-8 -69 -51.5 -112.5
t-112.5 -43.5q-70 0 -114 45t-44 105z" />
    <glyph glyph-name="cdotaccent" unicode="&#x10b;" horiz-adv-x="1193" 
d="M635 1262q-68 0 -115 47.5t-47 117.5q0 65 47.5 110.5t114.5 45.5t114.5 -45.5t47.5 -110.5q0 -70 -47 -117.5t-115 -47.5zM979 543q-55 0 -95 35t-40 90q0 65 37 92q-77 110 -246 110q-135 0 -220 -90.5t-85 -247.5q0 -158 85.5 -247.5t231.5 -89.5q88 0 155.5 38
t90.5 107l225 2q-10 -50 -32 -98.5t-62 -97t-92 -85t-127 -59t-162 -22.5q-258 0 -411.5 158t-153.5 401q0 157 65.5 280t195.5 194.5t306 71.5q118 0 213.5 -37t152.5 -97t84.5 -131.5t20.5 -143.5q-5 -56 -41.5 -94.5t-95.5 -38.5z" />
    <glyph glyph-name="Ccaron" unicode="&#x10c;" horiz-adv-x="1660" 
d="M1303 1843l-422 -278l-422 278l73 133l347 -182l348 182zM1247 889q0 85 56 123q8 106 -114 192t-308 86q-109 0 -204.5 -35t-168.5 -101.5t-115.5 -171t-42.5 -234.5q0 -104 29 -193t79.5 -152.5t118 -108.5t143.5 -67t157 -22q173 0 290.5 71.5t149.5 206.5h248
q-27 -222 -210.5 -362.5t-477.5 -140.5q-228 0 -407.5 100.5t-278.5 278t-99 399.5q0 163 58 303t160.5 240.5t250 157.5t320.5 57q158 0 293.5 -50.5t225.5 -135t135.5 -198.5t33.5 -237q-8 -69 -51.5 -112.5t-112.5 -43.5q-70 0 -114 45t-44 105z" />
    <glyph glyph-name="ccaron" unicode="&#x10d;" horiz-adv-x="1193" 
d="M1059 1454l-422 -278l-422 278l74 133l346 -182l348 182zM893 340l225 2q-10 -50 -32 -98.5t-62 -97t-92 -85t-127 -59t-162 -22.5q-258 0 -411.5 158t-153.5 401q0 157 65.5 280t195.5 194.5t306 71.5q118 0 213.5 -37t152.5 -97t84.5 -131.5t20.5 -143.5
q-5 -56 -41.5 -94.5t-95.5 -38.5q-55 0 -95 35t-40 90q0 65 37 92q-77 110 -246 110q-135 0 -220 -90.5t-85 -247.5q0 -158 85.5 -247.5t231.5 -89.5q88 0 155.5 38t90.5 107z" />
    <glyph glyph-name="Dcaron" unicode="&#x10e;" horiz-adv-x="1679" 
d="M1292 1843l-422 -278l-421 278l73 133l346 -182l349 182zM819 1495q344 0 555 -203t211 -534q0 -224 -95.5 -396.5t-269.5 -267t-401 -94.5h-698v209h158v1077h-158v209h698zM819 213q100 0 190 34t162 98.5t114 168.5t42 234q0 106 -27.5 194.5t-75.5 150.5t-113 105
t-138.5 63.5t-153.5 20.5h-284v-1069h284z" />
    <glyph glyph-name="dcaron" unicode="&#x10f;" horiz-adv-x="1392" 
d="M1346 1683h233l-88 -479h-193zM1184 1597v-1388h141v-209h-371v117q-127 -137 -346 -137q-248 0 -387 150t-139 409q0 253 136.5 399.5t373.5 146.5q216 0 342 -120v424h-158v208h408zM627 195q117 0 191.5 50t99.5 138v289q-24 90 -98.5 144t-182.5 54q-143 0 -223 -87
t-80 -251q0 -161 81.5 -249t211.5 -88z" />
    <glyph glyph-name="Dcroat" unicode="&#x110;" horiz-adv-x="1679" 
d="M819 1495q344 0 555 -203t211 -534q0 -224 -95.5 -396.5t-269.5 -267t-401 -94.5h-698v209h158v469h-173v160h173v448h-158v209h698zM819 213q100 0 190 34t162 98.5t114 168.5t42 234q0 106 -27.5 194.5t-75.5 150.5t-113 105t-138.5 63.5t-153.5 20.5h-284v-444h264
v-160h-264v-465h284z" />
    <glyph glyph-name="dcroat" unicode="&#x111;" horiz-adv-x="1392" 
d="M1399 1149h-215v-940h141v-209h-371v117q-127 -137 -346 -137q-248 0 -387 150t-139 409q0 253 136.5 399.5t373.5 146.5q216 0 342 -120v184h-227v160h227v80h-158v208h408v-288h215v-160zM627 195q117 0 191.5 50t99.5 138v289q-24 90 -98.5 144t-182.5 54
q-143 0 -223 -87t-80 -251q0 -161 81.5 -249t211.5 -88z" />
    <glyph glyph-name="Emacron" unicode="&#x112;" horiz-adv-x="1474" 
d="M1100 1835v-197h-651v197h651zM1133 473h219v-473h-1231v209h158v1077h-158v209h1225v-473h-218v260h-593v-432h544v-213h-544v-424h598v260z" />
    <glyph glyph-name="emacron" unicode="&#x113;" horiz-adv-x="1212" 
d="M934 1440v-197h-651v197h651zM627 1085q79 0 155 -22t146 -71t119.5 -119t73 -174t9.5 -228l-16 -16h-776q17 -125 92.5 -195t196.5 -70q86 0 147.5 34.5t85.5 92.5h248q-25 -140 -154 -238.5t-327 -98.5q-172 0 -297.5 74t-187.5 199.5t-62 285.5q0 238 150 392t397 154
zM340 623h547q-7 68 -34 119.5t-65.5 80t-79 42.5t-81.5 14q-106 0 -184.5 -68.5t-102.5 -187.5z" />
    <glyph glyph-name="Edotaccent" unicode="&#x116;" horiz-adv-x="1474" 
d="M772 1632q-68 0 -115 48t-47 118q0 65 47.5 110.5t114.5 45.5t114.5 -45.5t47.5 -110.5q0 -70 -47 -118t-115 -48zM1133 473h219v-473h-1231v209h158v1077h-158v209h1225v-473h-218v260h-593v-432h544v-213h-544v-424h598v260z" />
    <glyph glyph-name="edotaccent" unicode="&#x117;" horiz-adv-x="1212" 
d="M606 1262q-68 0 -115 47.5t-47 117.5q0 65 47.5 110.5t114.5 45.5t114.5 -45.5t47.5 -110.5q0 -70 -47 -117.5t-115 -47.5zM627 1085q79 0 155 -22t146 -71t119.5 -119t73 -174t9.5 -228l-16 -16h-776q17 -125 92.5 -195t196.5 -70q86 0 147.5 34.5t85.5 92.5h248
q-25 -140 -154 -238.5t-327 -98.5q-172 0 -297.5 74t-187.5 199.5t-62 285.5q0 238 150 392t397 154zM340 623h547q-7 68 -34 119.5t-65.5 80t-79 42.5t-81.5 14q-106 0 -184.5 -68.5t-102.5 -187.5z" />
    <glyph glyph-name="Eogonek" unicode="&#x118;" horiz-adv-x="1474" 
d="M1272 -299q52 0 90 12v-143q-82 -21 -137 -21q-104 0 -170 56t-66 162q0 140 168 233h-1036v209h158v1077h-158v209h1225v-473h-218v260h-593v-432h544v-213h-544v-424h598v260h219v-473q-160 -100 -160 -219q0 -36 23 -58t57 -22z" />
    <glyph glyph-name="eogonek" unicode="&#x119;" horiz-adv-x="1212" 
d="M627 1085q79 0 155 -22t146 -71t119.5 -119t73 -174t9.5 -228l-16 -16h-776q17 -125 92.5 -195t196.5 -70q86 0 147.5 34.5t85.5 92.5h248q-19 -111 -107.5 -199t-226.5 -122q-141 -94 -141 -207q0 -36 23 -58t57 -22q52 0 90 12v-143q-78 -20 -137 -20q-104 0 -170 55.5
t-66 161.5q0 124 127 209q-151 14 -260 91t-163 196t-54 268q0 238 150 392t397 154zM340 623h547q-7 68 -34 119.5t-65.5 80t-79 42.5t-81.5 14q-106 0 -184.5 -68.5t-102.5 -187.5z" />
    <glyph glyph-name="Ecaron" unicode="&#x11a;" horiz-adv-x="1474" 
d="M1198 1843l-422 -278l-422 278l74 133l346 -182l348 182zM1133 473h219v-473h-1231v209h158v1077h-158v209h1225v-473h-218v260h-593v-432h544v-213h-544v-424h598v260z" />
    <glyph glyph-name="ecaron" unicode="&#x11b;" horiz-adv-x="1212" 
d="M1030 1454l-422 -278l-422 278l74 133l346 -182l348 182zM627 1085q79 0 155 -22t146 -71t119.5 -119t73 -174t9.5 -228l-16 -16h-776q17 -125 92.5 -195t196.5 -70q86 0 147.5 34.5t85.5 92.5h248q-25 -140 -154 -238.5t-327 -98.5q-172 0 -297.5 74t-187.5 199.5
t-62 285.5q0 238 150 392t397 154zM340 623h547q-7 68 -34 119.5t-65.5 80t-79 42.5t-81.5 14q-106 0 -184.5 -68.5t-102.5 -187.5z" />
    <glyph glyph-name="Gbreve" unicode="&#x11e;" horiz-adv-x="1695" 
d="M895 1612q-182 0 -291 87.5t-100 235.5l180 13q3 -69 61 -110.5t150 -41.5q93 0 152.5 41t62.5 111l176 -13q9 -148 -99.5 -235.5t-291.5 -87.5zM1567 700v-700h-164l-37 180q-85 -93 -211.5 -146.5t-284.5 -53.5q-171 0 -317 59t-247 162.5t-157.5 247t-56.5 309.5
q0 162 57 301.5t159.5 240.5t253.5 158.5t331 57.5q159 0 290 -42.5t215 -115.5t125.5 -170.5t30.5 -206.5q-6 -67 -50 -108.5t-111 -41.5q-65 0 -108.5 42.5t-43.5 101.5q0 85 57 123q-11 76 -129.5 134t-275.5 58t-277.5 -60.5t-192 -185t-71.5 -296.5q0 -128 43 -232.5
t115.5 -171.5t165 -103t194.5 -36q69 0 134.5 13t132 42t119 85t79.5 134v27h-471v194h703z" />
    <glyph glyph-name="gbreve" unicode="&#x11f;" horiz-adv-x="1351" 
d="M653 1182q-182 0 -291 87.5t-100 235.5l180 13q3 -69 61 -110.5t150 -41.5q93 0 152.5 41t62.5 111l176 -13q9 -148 -99.5 -235.5t-291.5 -87.5zM954 1065h232v-1034q0 -221 -150.5 -347t-400.5 -126q-226 0 -350.5 77.5t-134.5 196.5q-6 69 30.5 109.5t102.5 40.5
q54 0 86.5 -31.5t36.5 -63.5q6 -38 -11 -65q34 -26 97 -44t143 -18q153 0 237 68t84 203v106q-130 -137 -348 -137q-242 0 -383 146t-141 393q0 253 135.5 399.5t372.5 146.5q231 0 362 -143v123zM627 215q121 0 197 54.5t98 150.5v239q-22 95 -97.5 153t-185.5 58
q-144 0 -223.5 -87t-79.5 -251q0 -150 80.5 -233.5t210.5 -83.5z" />
    <glyph glyph-name="Gdotaccent" unicode="&#x120;" horiz-adv-x="1695" 
d="M893 1632q-68 0 -115 48t-47 118q0 65 47.5 110.5t114.5 45.5t114.5 -45.5t47.5 -110.5q0 -70 -47 -118t-115 -48zM1567 700v-700h-164l-37 180q-85 -93 -211.5 -146.5t-284.5 -53.5q-171 0 -317 59t-247 162.5t-157.5 247t-56.5 309.5q0 162 57 301.5t159.5 240.5
t253.5 158.5t331 57.5q159 0 290 -42.5t215 -115.5t125.5 -170.5t30.5 -206.5q-6 -67 -50 -108.5t-111 -41.5q-65 0 -108.5 42.5t-43.5 101.5q0 85 57 123q-11 76 -129.5 134t-275.5 58t-277.5 -60.5t-192 -185t-71.5 -296.5q0 -128 43 -232.5t115.5 -171.5t165 -103
t194.5 -36q69 0 134.5 13t132 42t119 85t79.5 134v27h-471v194h703z" />
    <glyph glyph-name="gdotaccent" unicode="&#x121;" horiz-adv-x="1351" 
d="M651 1262q-68 0 -115 47.5t-47 117.5q0 65 47.5 110.5t114.5 45.5t114.5 -45.5t47.5 -110.5q0 -70 -47 -117.5t-115 -47.5zM954 1065h232v-1034q0 -221 -150.5 -347t-400.5 -126q-226 0 -350.5 77.5t-134.5 196.5q-6 69 30.5 109.5t102.5 40.5q54 0 86.5 -31.5
t36.5 -63.5q6 -38 -11 -65q34 -26 97 -44t143 -18q153 0 237 68t84 203v106q-130 -137 -348 -137q-242 0 -383 146t-141 393q0 253 135.5 399.5t372.5 146.5q231 0 362 -143v123zM627 215q121 0 197 54.5t98 150.5v239q-22 95 -97.5 153t-185.5 58q-144 0 -223.5 -87
t-79.5 -251q0 -150 80.5 -233.5t210.5 -83.5z" />
    <glyph glyph-name="Gcommaaccent" unicode="&#x122;" horiz-adv-x="1695" 
d="M1567 700v-700h-164l-37 180q-85 -93 -211.5 -146.5t-284.5 -53.5q-171 0 -317 59t-247 162.5t-157.5 247t-56.5 309.5q0 162 57 301.5t159.5 240.5t253.5 158.5t331 57.5q159 0 290 -42.5t215 -115.5t125.5 -170.5t30.5 -206.5q-6 -67 -50 -108.5t-111 -41.5
q-65 0 -108.5 42.5t-43.5 101.5q0 85 57 123q-11 76 -129.5 134t-275.5 58t-277.5 -60.5t-192 -185t-71.5 -296.5q0 -128 43 -232.5t115.5 -171.5t165 -103t194.5 -36q69 0 134.5 13t132 42t119 85t79.5 134v27h-471v194h703zM874 -70q112 0 158 -94q42 -87 7 -198
q-38 -118 -138 -177q-73 -43 -162 -43v101q55 0 100.5 28t57.5 68q-10 -2 -33 -2q-67 0 -112 44t-45 112q0 71 47 116t120 45z" />
    <glyph glyph-name="gcommaaccent" unicode="&#x123;" horiz-adv-x="1355" 
d="M651 1157q-112 0 -158 94q-42 87 -7 198q38 118 138 177q73 43 162 43v-100q-55 0 -100 -28t-57 -68q10 2 33 2q67 0 112 -44t45 -112q0 -71 -47.5 -116.5t-120.5 -45.5zM954 1065h232v-1034q0 -221 -150.5 -347t-400.5 -126q-226 0 -350.5 77.5t-134.5 196.5
q-6 69 30.5 109.5t102.5 40.5q54 0 86.5 -31.5t36.5 -63.5q6 -38 -11 -65q34 -26 97 -44t143 -18q153 0 237 68t84 203v106q-130 -137 -348 -137q-242 0 -383 146t-141 393q0 253 135.5 399.5t372.5 146.5q231 0 362 -143v123zM627 215q121 0 197 54.5t98 150.5v239
q-22 95 -97.5 153t-185.5 58q-144 0 -223.5 -87t-79.5 -251q0 -150 80.5 -233.5t210.5 -83.5z" />
    <glyph glyph-name="Hbar" unicode="&#x126;" horiz-adv-x="1857" 
d="M1735 1286h-156v-137h145v-135h-145v-805h156v-209h-570v209h158v420h-788v-420h153v-209h-567v209h158v805h-152v135h152v137h-158v209h567v-209h-153v-137h788v137h-156v209h568v-209zM1323 850v164h-788v-164h788z" />
    <glyph glyph-name="hbar" unicode="&#x127;" horiz-adv-x="1443" 
d="M1241 209h156v-209h-555v209h151v352q0 153 -57 231t-182 78q-109 0 -186 -63t-103 -148v-450h149v-209h-553v209h156v946h-188v160h188v74h-156v208h369v-282h291v-160h-291v-233q129 163 356 163q148 0 252.5 -64t153.5 -171t49 -248v-393z" />
    <glyph glyph-name="Itilde" unicode="&#x128;" horiz-adv-x="813" 
d="M608 1907l170 -33q-4 -109 -65 -168t-152 -57q-52 1 -101 18t-88 34.5t-67 18.5q-65 0 -86 -61l-172 37q6 120 60.5 175.5t142.5 55.5q58 -1 152.5 -39.5t123.5 -38.5q62 0 82 58zM690 1495v-209h-155v-1077h155v-209h-567v209h156v1077h-156v209h567z" />
    <glyph glyph-name="itilde" unicode="&#x129;" horiz-adv-x="712" 
d="M553 1456l168 -33q-4 -109 -64.5 -168t-150.5 -57q-51 1 -99.5 18.5t-87 35t-65.5 18.5q-65 0 -86 -62l-168 37q4 119 58.5 175.5t140.5 56.5q57 -1 151 -39.5t121 -38.5q63 0 82 57zM498 1065v-856h151v-209h-555v209h156v647h-154v209h402z" />
    <glyph glyph-name="Imacron" unicode="&#x12a;" horiz-adv-x="813" 
d="M80 1835h651v-197h-651v197zM690 1495v-209h-155v-1077h155v-209h-567v209h156v1077h-156v209h567z" />
    <glyph glyph-name="imacron" unicode="&#x12b;" horiz-adv-x="712" 
d="M45 1440h635v-197h-635v197zM498 1065v-856h151v-209h-555v209h156v647h-154v209h402z" />
    <glyph glyph-name="Iogonek" unicode="&#x12e;" horiz-adv-x="813" 
d="M690 1286h-155v-1077h155v-209h-180q-160 -100 -160 -219q0 -36 23 -58t57 -22q52 0 90 12v-143q-82 -21 -137 -21q-104 0 -170 56t-66 162q0 140 168 233h-192v209h156v1077h-156v209h567v-209z" />
    <glyph glyph-name="iogonek" unicode="&#x12f;" horiz-adv-x="712" 
d="M360 1262q-68 0 -114.5 47.5t-46.5 117.5q0 65 47 110.5t114 45.5t114.5 -45.5t47.5 -110.5q0 -70 -47 -117.5t-115 -47.5zM498 0q-160 -100 -160 -219q0 -36 23 -58t57 -22q52 0 90 12v-143q-82 -21 -137 -21q-104 0 -170 56t-66 162q0 140 168 233h-209v209h156v647
h-154v209h402v-856h151v-209h-151z" />
    <glyph glyph-name="Idotaccent" unicode="&#x130;" horiz-adv-x="813" 
d="M403 1632q-68 0 -114.5 48t-46.5 118q0 65 47 110.5t114 45.5t114.5 -45.5t47.5 -110.5q0 -70 -47 -118t-115 -48zM690 1286h-155v-1077h155v-209h-567v209h156v1077h-156v209h567v-209z" />
    <glyph glyph-name="dotlessi" unicode="&#x131;" horiz-adv-x="712" 
d="M498 209h151v-209h-555v209h156v647h-154v209h402v-856z" />
    <glyph glyph-name="IJ" unicode="&#x132;" horiz-adv-x="2211" 
d="M690 1495v-209h-155v-1077h155v-209h-567v209h156v1077h-156v209h567zM2025 1495v-917h-2q0 -276 -152 -437t-441 -161h-3q-141 0 -255 41t-186 112.5t-106.5 167t-25.5 203.5q6 65 51 108t115 43q69 0 110 -43.5t41 -103.5q0 -80 -59 -121q14 -74 101 -128t214 -54
q155 0 248.5 102.5t93.5 270.5v698h-589v219h845z" />
    <glyph glyph-name="ij" unicode="&#x133;" horiz-adv-x="1368" 
d="M360 1262q-68 0 -114.5 47.5t-46.5 117.5q0 65 47 110.5t114 45.5t114.5 -45.5t47.5 -110.5q0 -70 -47 -117.5t-115 -47.5zM1073 1262q-68 0 -115 47.5t-47 117.5q0 65 47.5 110.5t114.5 45.5t114.5 -45.5t47.5 -110.5q0 -70 -47 -117.5t-115 -47.5zM649 209v-209h-555
v209h156v647h-154v209h402v-856h151zM1202 1065v-1100q0 -210 -82.5 -308.5t-253.5 -98.5q-80 0 -146.5 23.5t-112.5 79.5t-48 138q-2 65 36 105.5t99 40.5q63 0 97 -39t34 -90q0 -24 -10 -47q13 -17 55 -17q47 0 65.5 35.5t18.5 126.5v942h-155v209h403z" />
    <glyph glyph-name="Kcommaaccent" unicode="&#x136;" horiz-adv-x="1658" 
d="M1450 209h176v-209h-305l-526 639l-260 -262v-168h153v-209h-567v209h158v1077h-158v209h567v-209h-153v-647l626 647h-155v209h573v-209h-137l-488 -487zM911 -70q112 0 158 -94q42 -87 7 -198q-38 -118 -138 -177q-73 -43 -162 -43v101q55 0 100.5 28t57.5 68
q-10 -2 -33 -2q-67 0 -112.5 44t-45.5 112q0 71 47.5 116t120.5 45z" />
    <glyph glyph-name="kcommaaccent" unicode="&#x137;" horiz-adv-x="1378" 
d="M1135 209h213v-209h-353l-315 487l-215 -202v-76h166v-209h-570v209h156v1180h-156v208h404v-1087l348 346h-135v209h604v-209h-213l-231 -219zM707 -70q112 0 157 -94q42 -87 7 -198q-37 -118 -139 -178q-72 -42 -161 -42v101q55 0 100.5 28t57.5 68q-10 -2 -33 -2
q-67 0 -112 44t-45 112q0 71 47.5 116t120.5 45z" />
    <glyph glyph-name="kgreenlandic" unicode="&#x138;" horiz-adv-x="1413" 
d="M1167 209h213v-209h-350l-317 487l-215 -202v-76h168v-209h-572v209h156v647h-154v209h402v-557l348 348h-133v209h604v-209h-213l-234 -219z" />
    <glyph glyph-name="Lacute" unicode="&#x139;" horiz-adv-x="1394" 
d="M743 1815l-473 -246l-88 127l422 338zM1122 522h217v-522h-1218v209h158v1077h-158v209h567v-209h-153v-1073h587v309z" />
    <glyph glyph-name="lacute" unicode="&#x13a;" horiz-adv-x="679" 
d="M666 1917l-473 -246l-89 127l422 338zM465 1597v-1388h149v-209h-553v209h156v1180h-156v208h404z" />
    <glyph glyph-name="Lcommaaccent" unicode="&#x13b;" horiz-adv-x="1394" 
d="M1122 522h217v-522h-1218v209h158v1077h-158v209h567v-209h-153v-1073h587v309zM811 -70q112 0 158 -94q42 -87 7 -198q-38 -118 -138 -177q-73 -43 -162 -43v101q55 0 100.5 28t57.5 68q-10 -2 -33 -2q-67 0 -112.5 44t-45.5 112q0 71 47.5 116t120.5 45z" />
    <glyph glyph-name="lcommaaccent" unicode="&#x13c;" horiz-adv-x="679" 
d="M465 209h149v-209h-553v209h156v1180h-156v208h404v-1388zM334 -70q112 0 158 -94q42 -87 7 -198q-38 -118 -138 -177q-72 -43 -162 -43v101q55 0 100 28t57 68q-10 -2 -32 -2q-67 0 -112.5 44t-45.5 112q0 71 47.5 116t120.5 45z" />
    <glyph glyph-name="Lcaron" unicode="&#x13d;" horiz-adv-x="1394" 
d="M1165 1604l-88 -480h-192l47 480h233zM1122 522h217v-522h-1218v209h158v1077h-158v209h567v-209h-153v-1073h587v309z" />
    <glyph glyph-name="lcaron" unicode="&#x13e;" horiz-adv-x="679" 
d="M616 1706h234l-88 -479h-193zM465 1597v-1388h149v-209h-553v209h156v1180h-156v208h404z" />
    <glyph glyph-name="Ldot" unicode="&#x13f;" horiz-adv-x="1394" 
d="M403 1692q-68 0 -114.5 48t-46.5 118q0 65 47 110t114 45t114.5 -45t47.5 -110q0 -70 -47 -118t-115 -48zM1122 522h217v-522h-1218v209h158v1077h-158v209h567v-209h-153v-1073h587v309z" />
    <glyph glyph-name="ldot" unicode="&#x140;" horiz-adv-x="679" 
d="M465 1597v-1388h149v-209h-553v209h156v1180h-156v208h404zM745 868q69 0 118.5 -46.5t49.5 -112.5q0 -71 -49.5 -120.5t-118.5 -49.5q-68 0 -115.5 49t-47.5 121q0 66 47.5 112.5t115.5 46.5z" />
    <glyph glyph-name="Lslash" unicode="&#x141;" horiz-adv-x="1394" 
d="M1122 522h217v-522h-1218v209h158v364l-144 -73l-78 135l222 119v532h-158v209h567v-209h-153v-397l215 115l81 -142l-296 -153v-496h587v309z" />
    <glyph glyph-name="lslash" unicode="&#x142;" horiz-adv-x="679" 
d="M465 834v-625h149v-209h-553v209h156v469l-127 -78l-84 115l211 131v543h-156v208h404v-596l137 86l82 -118z" />
    <glyph glyph-name="Nacute" unicode="&#x143;" horiz-adv-x="1835" 
d="M1268 1815l-473 -246l-88 127l421 338zM1739 1495v-209h-154v-1286h-203l-858 1049v-840h168v-209h-571v209h158v1077h-158v209h364l854 -1073v864h-172v209h572z" />
    <glyph glyph-name="nacute" unicode="&#x144;" horiz-adv-x="1462" 
d="M1100 1372l-496 -194l-76 135l457 291zM1262 209h151v-209h-549v209h150v352q0 309 -246 309q-101 0 -173.5 -58.5t-96.5 -152.5v-450h147v-209h-551v209h156v647h-154v209h363v-135q125 155 354 155q205 0 327 -123t122 -337v-416z" />
    <glyph glyph-name="Ncommaaccent" unicode="&#x145;" horiz-adv-x="1835" 
d="M1739 1495v-209h-154v-1286h-203l-858 1049v-840h168v-209h-571v209h158v1077h-158v209h364l854 -1073v864h-172v209h572zM956 -70q112 0 158 -94q42 -87 7 -198q-38 -118 -138 -177q-73 -43 -162 -43v101q55 0 100.5 28t57.5 68q-10 -2 -33 -2q-67 0 -112.5 44
t-45.5 112q0 71 47.5 116t120.5 45z" />
    <glyph glyph-name="ncommaaccent" unicode="&#x146;" horiz-adv-x="1462" 
d="M1262 209h151v-209h-549v209h150v352q0 309 -246 309q-101 0 -173.5 -58.5t-96.5 -152.5v-450h147v-209h-551v209h156v647h-154v209h363v-135q125 155 354 155q205 0 327 -123t122 -337v-416zM754 -70q112 0 157 -94q42 -87 7 -198q-37 -118 -139 -178q-72 -42 -161 -42
v101q55 0 100.5 28t57.5 68q-10 -2 -33 -2q-67 0 -112 44t-45 112q0 71 47.5 116t120.5 45z" />
    <glyph glyph-name="Ncaron" unicode="&#x147;" horiz-adv-x="1835" 
d="M1354 1843l-422 -278l-422 278l74 133l346 -182l348 182zM1739 1495v-209h-154v-1286h-203l-858 1049v-840h168v-209h-571v209h158v1077h-158v209h364l854 -1073v864h-172v209h572z" />
    <glyph glyph-name="ncaron" unicode="&#x148;" horiz-adv-x="1462" 
d="M1171 1454l-421 -278l-422 278l73 133l347 -182l348 182zM1262 209h151v-209h-549v209h150v352q0 309 -246 309q-101 0 -173.5 -58.5t-96.5 -152.5v-450h147v-209h-551v209h156v647h-154v209h363v-135q125 155 354 155q205 0 327 -123t122 -337v-416z" />
    <glyph glyph-name="napostrophe" unicode="&#x149;" horiz-adv-x="1462" 
d="M1262 209h151v-209h-549v209h150v352q0 309 -246 309q-101 0 -173.5 -58.5t-96.5 -152.5v-450h147v-209h-551v209h156v647h-154v193q-61 -23 -125 -23v117q61 0 111.5 32t71.5 91q-24 -4 -41 -4q-66 0 -112 44.5t-46 112.5q0 71 48 115.5t122 44.5q70 0 115.5 -41
t56.5 -104.5t-0.5 -133t-56.5 -134.5t-111 -101h330v-135q125 155 354 155q205 0 327 -123t122 -337v-416z" />
    <glyph glyph-name="Eng" unicode="&#x14a;" horiz-adv-x="1835" 
d="M1739 1495v-209h-154v-1343q0 -169 -110 -279t-285 -110q-165 0 -267 101.5t-87 258.5q8 69 50 109t109 40t103.5 -38.5t36.5 -90.5q0 -36 -15 -65t-41 -41q12 -24 42 -42.5t69 -18.5q67 0 104 45.5t37 119.5v127l-801 967v-817h162v-209h-571v209h158v1077h-158v209h366
l846 -1051v842h-166v209h572z" />
    <glyph glyph-name="eng" unicode="&#x14b;" horiz-adv-x="1406" 
d="M813 1085q205 0 327 -123t122 -337v-746q0 -148 -90 -234.5t-242 -86.5q-130 0 -206 64t-81 161q-2 65 36 105t101 40q46 1 79.5 -26.5t41.5 -67.5q10 -38 -4 -63q15 -19 53 -19q64 0 64 101v708q0 309 -246 309q-101 0 -173.5 -58.5t-96.5 -152.5v-450h147v-209h-551
v209h156v647h-154v209h363v-135q125 155 354 155z" />
    <glyph glyph-name="Omacron" unicode="&#x14c;" horiz-adv-x="1759" 
d="M1206 1835v-197h-651v197h651zM881 1516q184 0 333.5 -57.5t247.5 -159t150.5 -240t52.5 -301.5q0 -167 -52.5 -309t-150.5 -246.5t-247.5 -163.5t-333.5 -59q-236 0 -416.5 102t-275.5 278t-95 398q0 162 55 301.5t155 240.5t249 158.5t328 57.5zM881 205
q235 0 380.5 143.5t145.5 399.5q0 173 -68.5 297t-186 184.5t-271.5 60.5q-146 0 -264.5 -60.5t-191.5 -185.5t-73 -296q0 -128 42 -232t115 -171.5t168.5 -103.5t203.5 -36z" />
    <glyph glyph-name="omacron" unicode="&#x14d;" horiz-adv-x="1302" 
d="M973 1440v-197h-651v197h651zM651 1085q182 0 313 -72t195 -194t64 -280q0 -120 -37.5 -221.5t-108 -177t-180 -118t-246.5 -42.5t-246 42.5t-179.5 118t-108 177t-37.5 221.5q0 159 63.5 280.5t194 193.5t313.5 72zM651 195q144 0 232 90t88 247t-88.5 247.5
t-231.5 90.5q-145 0 -232 -90t-87 -248t87 -247.5t232 -89.5z" />
    <glyph glyph-name="Ohungarumlaut" unicode="&#x150;" horiz-adv-x="1759" 
d="M983 2001l-233 -393h-162l145 393h250zM1104 1608h-160l146 393h247zM881 1516q184 0 333.5 -57.5t247.5 -159t150.5 -240t52.5 -301.5q0 -167 -52.5 -309t-150.5 -246.5t-247.5 -163.5t-333.5 -59q-236 0 -416.5 102t-275.5 278t-95 398q0 162 55 301.5t155 240.5
t249 158.5t328 57.5zM881 205q235 0 380.5 143.5t145.5 399.5q0 173 -68.5 297t-186 184.5t-271.5 60.5q-146 0 -264.5 -60.5t-191.5 -185.5t-73 -296q0 -128 42 -232t115 -171.5t168.5 -103.5t203.5 -36z" />
    <glyph glyph-name="ohungarumlaut" unicode="&#x151;" horiz-adv-x="1302" 
d="M729 1583l-233 -393h-162l145 393h250zM850 1190h-160l146 393h247zM651 1085q182 0 313 -72t195 -194t64 -280q0 -120 -37.5 -221.5t-108 -177t-180 -118t-246.5 -42.5t-246 42.5t-179.5 118t-108 177t-37.5 221.5q0 159 63.5 280.5t194 193.5t313.5 72zM651 195
q144 0 232 90t88 247t-88.5 247.5t-231.5 90.5q-145 0 -232 -90t-87 -248t87 -247.5t232 -89.5z" />
    <glyph glyph-name="OE" unicode="&#x152;" horiz-adv-x="2605" 
d="M2265 473h219v-473h-1073v156q-208 -176 -530 -176q-236 0 -416.5 102t-275.5 278t-95 398q0 162 55 301.5t155 240.5t249 158.5t328 57.5q320 0 530 -170v149h1067v-473h-217v260h-596v-432h547v-213h-547v-424h600v260zM881 205q235 0 380.5 143.5t145.5 399.5
q0 173 -68.5 297t-186 184.5t-271.5 60.5q-146 0 -264.5 -60.5t-191.5 -185.5t-73 -296q0 -128 42 -232t115 -171.5t168.5 -103.5t203.5 -36z" />
    <glyph glyph-name="oe" unicode="&#x153;" horiz-adv-x="2103" 
d="M1518 1085q79 0 155 -22t146 -71t119.5 -119t73 -174t9.5 -228l-16 -16h-776q17 -125 92.5 -195t196.5 -70q86 0 147.5 34.5t85.5 92.5h248q-25 -140 -154 -238.5t-327 -98.5q-277 0 -424 180q-153 -180 -443 -180q-137 0 -246 42.5t-179.5 118t-108 177t-37.5 221.5
q0 159 63.5 280.5t194 193.5t313.5 72q293 0 447 -178q154 178 420 178zM1231 623h547q-7 68 -34 119.5t-65.5 80t-79 42.5t-81.5 14q-106 0 -184.5 -68.5t-102.5 -187.5zM651 195q144 0 232 90t88 247t-88.5 247.5t-231.5 90.5q-145 0 -232 -90t-87 -248t87 -247.5
t232 -89.5z" />
    <glyph glyph-name="Racute" unicode="&#x154;" horiz-adv-x="1634" 
d="M1139 1815l-473 -246l-88 127l421 338zM1348 209h204v-209h-333l-437 506h-247v-297h202v-209h-616v209h158v1077h-158v209h782q276 0 436 -128.5t160 -362.5q0 -184 -115 -313t-315 -169zM535 1278v-555h385q146 0 233.5 77.5t87.5 203.5q0 138 -84.5 206t-236.5 68
h-385z" />
    <glyph glyph-name="racute" unicode="&#x155;" horiz-adv-x="1079" 
d="M913 1372l-495 -194l-76 135l457 291zM780 1085q74 0 131 -26t88.5 -69t44.5 -94.5t5 -104.5q-6 -54 -45 -89t-103 -34q-54 0 -89.5 37t-35.5 88q0 49 21 67q-21 27 -82 27q-83 0 -146.5 -64t-70.5 -180v-434h168v-209h-572v209h156v647h-154v209h353v-164
q50 85 133.5 134.5t197.5 49.5z" />
    <glyph glyph-name="Rcommaaccent" unicode="&#x156;" horiz-adv-x="1634" 
d="M1348 209h204v-209h-333l-437 506h-247v-297h202v-209h-616v209h158v1077h-158v209h782q276 0 436 -128.5t160 -362.5q0 -184 -115 -313t-315 -169zM535 1278v-555h385q146 0 233.5 77.5t87.5 203.5q0 138 -84.5 206t-236.5 68h-385zM870 -70q112 0 158 -94
q42 -87 7 -198q-38 -118 -138 -177q-73 -43 -162 -43v101q55 0 100.5 28t57.5 68q-10 -2 -33 -2q-67 0 -112.5 44t-45.5 112q0 71 47.5 116t120.5 45z" />
    <glyph glyph-name="rcommaaccent" unicode="&#x157;" horiz-adv-x="1079" 
d="M780 1085q74 0 131 -26t88.5 -69t44.5 -94.5t5 -104.5q-6 -54 -45 -89t-103 -34q-54 0 -89.5 37t-35.5 88q0 49 21 67q-21 27 -82 27q-83 0 -146.5 -64t-70.5 -180v-434h168v-209h-572v209h156v647h-154v209h353v-164q50 85 133.5 134.5t197.5 49.5zM373 -70
q112 0 158 -94q42 -87 7 -198q-38 -118 -138 -177q-72 -43 -162 -43v101q55 0 100 28t57 68q-10 -2 -33 -2q-67 0 -112 44t-45 112q0 71 47.5 116t120.5 45z" />
    <glyph glyph-name="Rcaron" unicode="&#x158;" horiz-adv-x="1634" 
d="M1225 1843l-422 -278l-422 278l74 133l346 -182l348 182zM1348 209h204v-209h-333l-437 506h-247v-297h202v-209h-616v209h158v1077h-158v209h782q276 0 436 -128.5t160 -362.5q0 -184 -115 -313t-315 -169zM535 1278v-555h385q146 0 233.5 77.5t87.5 203.5
q0 138 -84.5 206t-236.5 68h-385z" />
    <glyph glyph-name="rcaron" unicode="&#x159;" horiz-adv-x="1079" 
d="M985 1454l-422 -278l-422 278l74 133l346 -182l348 182zM780 1085q74 0 131 -26t88.5 -69t44.5 -94.5t5 -104.5q-6 -54 -45 -89t-103 -34q-54 0 -89.5 37t-35.5 88q0 49 21 67q-21 27 -82 27q-83 0 -146.5 -64t-70.5 -180v-434h168v-209h-572v209h156v647h-154v209h353
v-164q50 85 133.5 134.5t197.5 49.5z" />
    <glyph glyph-name="Sacute" unicode="&#x15a;" horiz-adv-x="1490" 
d="M1090 1815l-474 -246l-88 127l422 338zM401 1094q0 -62 34 -106t91.5 -68.5t132 -42t157 -31t165 -30t157 -45.5t132 -70.5t91.5 -111.5t34 -163q0 -205 -168 -325.5t-500 -120.5q-329 0 -487 119.5t-144 318.5q5 63 46.5 102t107.5 39t103.5 -39.5t37.5 -99.5
q0 -57 -43 -92q35 -57 136.5 -92t244.5 -35q408 0 408 217q0 53 -28 91.5t-75.5 60t-111 38t-135 25t-147.5 23t-147.5 30.5t-135 48.5t-111 76t-75.5 113.5t-28 161q0 195 156.5 313t456.5 118h2q173 0 310.5 -54.5t211.5 -155t61 -225.5q-6 -61 -46 -98t-105 -37
q-58 0 -98.5 39.5t-40.5 93.5q0 27 12 55.5t35 39.5q-37 57 -127 89.5t-215 32.5q-179 0 -267 -55t-88 -147z" />
    <glyph glyph-name="sacute" unicode="&#x15b;" horiz-adv-x="1114" 
d="M791 1604l114 -232l-495 -194l-76 135zM326 233q61 -58 227 -55q235 0 235 125q0 46 -37.5 73t-97 39t-131 21.5t-143.5 28t-131 50t-96 96t-37 157.5q0 141 111.5 229t342.5 88q205 0 324.5 -88t114.5 -215q-1 -54 -38 -91.5t-87 -37.5q-55 0 -90 32.5t-35 78.5
q0 41 26 67q-12 21 -69.5 38.5t-145.5 17.5q-107 0 -161 -33t-54 -90q0 -42 29 -70.5t76.5 -41t108 -25t123.5 -21.5t123.5 -31.5t108 -54t76.5 -89.5t29 -138q0 -64 -25 -118.5t-78.5 -99t-148.5 -70t-223 -25.5q-133 0 -235.5 29t-167.5 93.5t-68 157.5q-3 66 31.5 104.5
t97.5 38.5q51 0 90 -33.5t39 -78.5q0 -36 -14 -58z" />
    <glyph glyph-name="Scedilla" unicode="&#x15e;" horiz-adv-x="1490" 
d="M1395 426q0 -190 -144.5 -308t-431.5 -136v-54q85 0 141 -45t56 -133q0 -95 -75.5 -148t-190.5 -53q-67 0 -126.5 18.5t-93.5 49.5l58 107q59 -39 137 -39q90 0 90 65q0 59 -88 62h-100l18 170q-146 7 -255 42.5t-174.5 94t-95.5 133.5t-24 166q5 63 46.5 102t107.5 39
t103.5 -39.5t37.5 -99.5q0 -57 -43 -92q35 -57 136.5 -92t244.5 -35q408 0 408 217q0 53 -28 91.5t-75.5 60t-111 38t-135 25t-147.5 23t-147.5 30.5t-135 48.5t-111 76t-75.5 113.5t-28 161q0 195 156.5 313t456.5 118h2q173 0 310.5 -54.5t211.5 -155t61 -225.5
q-6 -61 -46 -98t-105 -37q-58 0 -98.5 39.5t-40.5 93.5q0 27 12 55.5t35 39.5q-37 57 -127 89.5t-215 32.5q-179 0 -267 -55t-88 -147q0 -62 34 -106t91.5 -68.5t132 -42t157 -31t165 -30t157 -45.5t132 -70.5t91.5 -111.5t34 -163z" />
    <glyph glyph-name="scedilla" unicode="&#x15f;" horiz-adv-x="1114" 
d="M1028 293q0 -121 -90.5 -205.5t-284.5 -103.5v-56q85 0 141 -45t56 -133q0 -95 -75.5 -148t-190.5 -53q-67 0 -126 18.5t-93 49.5l57 107q59 -39 137 -39q90 0 90 65q0 59 -88 62h-100l18 170q-176 13 -284.5 83t-112.5 195q-3 66 31.5 104.5t97.5 38.5q51 0 90 -33.5
t39 -78.5q0 -36 -14 -58q61 -58 227 -55q235 0 235 125q0 46 -37.5 73t-97 39t-131 21.5t-143.5 28t-131 50t-96 96t-37 157.5q0 141 111.5 229t342.5 88q205 0 324.5 -88t114.5 -215q-1 -54 -38 -91.5t-87 -37.5q-55 0 -90 32.5t-35 78.5q0 41 26 67q-12 21 -69.5 38.5
t-145.5 17.5q-107 0 -161 -33t-54 -90q0 -42 29 -70.5t76.5 -41t108 -25t123.5 -21.5t123.5 -31.5t108 -54t76.5 -89.5t29 -138z" />
    <glyph glyph-name="Scaron" unicode="&#x160;" horiz-adv-x="1490" 
d="M1176 1843l-422 -278l-422 278l74 133l346 -182l348 182zM401 1094q0 -62 34 -106t91.5 -68.5t132 -42t157 -31t165 -30t157 -45.5t132 -70.5t91.5 -111.5t34 -163q0 -205 -168 -325.5t-500 -120.5q-329 0 -487 119.5t-144 318.5q5 63 46.5 102t107.5 39t103.5 -39.5
t37.5 -99.5q0 -57 -43 -92q35 -57 136.5 -92t244.5 -35q408 0 408 217q0 53 -28 91.5t-75.5 60t-111 38t-135 25t-147.5 23t-147.5 30.5t-135 48.5t-111 76t-75.5 113.5t-28 161q0 195 156.5 313t456.5 118h2q173 0 310.5 -54.5t211.5 -155t61 -225.5q-6 -61 -46 -98
t-105 -37q-58 0 -98.5 39.5t-40.5 93.5q0 27 12 55.5t35 39.5q-37 57 -127 89.5t-215 32.5q-179 0 -267 -55t-88 -147z" />
    <glyph glyph-name="scaron" unicode="&#x161;" horiz-adv-x="1114" 
d="M977 1454l-422 -278l-422 278l74 133l346 -182l348 182zM354 764q0 -42 29 -70.5t76.5 -41t108 -25t123.5 -21.5t123.5 -31.5t108 -54t76.5 -89.5t29 -138q0 -64 -25 -118.5t-78.5 -99t-148.5 -70t-223 -25.5q-133 0 -235.5 29t-167.5 93.5t-68 157.5q-3 66 31.5 104.5
t97.5 38.5q51 0 90 -33.5t39 -78.5q0 -36 -14 -58q61 -58 227 -55q235 0 235 125q0 46 -37.5 73t-97 39t-131 21.5t-143.5 28t-131 50t-96 96t-37 157.5q0 141 111.5 229t342.5 88q205 0 324.5 -88t114.5 -215q-1 -54 -38 -91.5t-87 -37.5q-55 0 -90 32.5t-35 78.5
q0 41 26 67q-12 21 -69.5 38.5t-145.5 17.5q-107 0 -161 -33t-54 -90z" />
    <glyph glyph-name="uni0162" unicode="&#x162;" horiz-adv-x="1495" 
d="M1438 1495v-506h-213v293h-351v-1073h177v-209h-209v-72q85 0 140.5 -45t55.5 -133q0 -95 -75.5 -148t-190.5 -53q-67 0 -126 18.5t-93 49.5l57 107q59 -39 138 -39q90 0 90 65q0 59 -88 62h-101l21 188h-230v209h181v1073h-351v-293h-213v506h1381z" />
    <glyph glyph-name="uni0163" unicode="&#x163;" horiz-adv-x="897" 
d="M838 850h-371v-473q0 -182 151 -182q98 0 205 43v-211q-93 -38 -219 -45v-54q85 0 141 -45t56 -133q0 -95 -75.5 -148t-190.5 -53q-67 0 -126.5 18.5t-93.5 49.5l58 107q59 -39 137 -39q90 0 90 65q0 59 -88 62h-100l20 186q-213 63 -213 360v492h-160v215h160v250h248
v-250h371v-215z" />
    <glyph glyph-name="Tcaron" unicode="&#x164;" horiz-adv-x="1495" 
d="M1163 1843l-422 -278l-422 278l74 133l346 -182l348 182zM1438 1495v-506h-213v293h-351v-1073h177v-209h-611v209h181v1073h-351v-293h-213v506h1381z" />
    <glyph glyph-name="tcaron" unicode="&#x165;" horiz-adv-x="897" 
d="M874 1683l-88 -479h-192l47 479h233zM467 1315v-250h371v-215h-371v-473q0 -182 151 -182q98 0 205 43v-211q-118 -47 -258 -47q-346 0 -346 378v492h-160v215h160v250h248z" />
    <glyph glyph-name="Tbar" unicode="&#x166;" horiz-adv-x="1495" 
d="M1438 1495v-506h-213v293h-351v-444h222v-160h-222v-469h177v-209h-611v209h181v469h-218v160h218v444h-351v-293h-213v506h1381z" />
    <glyph glyph-name="tbar" unicode="&#x167;" horiz-adv-x="897" 
d="M838 850h-371v-162h281v-160h-281v-151q0 -182 151 -182q98 0 205 43v-211q-118 -47 -258 -47q-346 0 -346 378v170h-164v160h164v162h-160v215h160v250h248v-250h371v-215z" />
    <glyph glyph-name="Utilde" unicode="&#x168;" horiz-adv-x="1732" 
d="M774 1720q-65 0 -86 -61l-172 37q6 120 60.5 175.5t142.5 55.5q58 -1 152.5 -39.5t123.5 -38.5q62 0 82 58l170 -33q-4 -109 -65 -168t-152 -57q-52 1 -101 18t-88 34.5t-67 18.5zM1645 1495v-209h-154v-674q0 -157 -45 -278.5t-128.5 -198.5t-197 -116t-254.5 -39
q-135 0 -247.5 39t-197 115.5t-132 198.5t-47.5 279v674h-158v209h567v-209h-153v-674q0 -96 23.5 -170t60 -118t87 -71.5t98 -37.5t99.5 -10q57 0 106 10t99 37.5t85 71.5t57 118t22 170v674h-158v209h568z" />
    <glyph glyph-name="utilde" unicode="&#x169;" horiz-adv-x="1384" 
d="M530 1270q-65 0 -86 -62l-172 37q6 120 60.5 176t142.5 56q58 -1 153 -39.5t124 -38.5q63 0 82 57l170 -33q-4 -109 -65.5 -168t-152.5 -57q-52 1 -101 18.5t-88 35t-67 18.5zM1167 209h156v-209h-362v137q-124 -157 -349 -157q-177 0 -295 117.5t-118 289.5v469h-150
v209h397v-670q0 -90 60.5 -145t146.5 -55q99 -1 172 58t95 153v450h-150v209h397v-856z" />
    <glyph glyph-name="Umacron" unicode="&#x16a;" horiz-adv-x="1732" 
d="M1200 1835v-197h-651v197h651zM1645 1495v-209h-154v-674q0 -157 -45 -278.5t-128.5 -198.5t-197 -116t-254.5 -39q-135 0 -247.5 39t-197 115.5t-132 198.5t-47.5 279v674h-158v209h567v-209h-153v-674q0 -96 23.5 -170t60 -118t87 -71.5t98 -37.5t99.5 -10q57 0 106 10
t99 37.5t85 71.5t57 118t22 170v674h-158v209h568z" />
    <glyph glyph-name="umacron" unicode="&#x16b;" horiz-adv-x="1384" 
d="M967 1440v-197h-652v197h652zM1167 209h156v-209h-362v137q-124 -157 -349 -157q-177 0 -295 117.5t-118 289.5v469h-150v209h397v-670q0 -90 60.5 -145t146.5 -55q99 -1 172 58t95 153v450h-150v209h397v-856z" />
    <glyph glyph-name="Uring" unicode="&#x16e;" horiz-adv-x="1732" 
d="M872 1638q-119 0 -187.5 65t-68.5 163q0 96 68.5 160.5t187.5 64.5t187.5 -64.5t68.5 -160.5q0 -98 -68.5 -163t-187.5 -65zM872 1952q-40 0 -64.5 -24t-23.5 -62q-1 -37 23.5 -60.5t64.5 -23.5t65 23.5t24 60.5q1 38 -24 62t-65 24zM1645 1495v-209h-154v-674
q0 -157 -45 -278.5t-128.5 -198.5t-197 -116t-254.5 -39q-135 0 -247.5 39t-197 115.5t-132 198.5t-47.5 279v674h-158v209h567v-209h-153v-674q0 -96 23.5 -170t60 -118t87 -71.5t98 -37.5t99.5 -10q57 0 106 10t99 37.5t85 71.5t57 118t22 170v674h-158v209h568z" />
    <glyph glyph-name="uring" unicode="&#x16f;" horiz-adv-x="1384" 
d="M639 1169q-119 0 -187.5 65t-68.5 163q0 96 68.5 160.5t187.5 64.5t187.5 -64.5t68.5 -160.5q0 -98 -68.5 -163t-187.5 -65zM639 1483q-40 0 -64.5 -24t-23.5 -62q-1 -37 23.5 -60.5t64.5 -23.5t64.5 23.5t23.5 60.5q1 38 -23.5 62t-64.5 24zM1167 209h156v-209h-362v137
q-124 -157 -349 -157q-177 0 -295 117.5t-118 289.5v469h-150v209h397v-670q0 -90 60.5 -145t146.5 -55q99 -1 172 58t95 153v450h-150v209h397v-856z" />
    <glyph glyph-name="Uhungarumlaut" unicode="&#x170;" horiz-adv-x="1732" 
d="M977 2001l-234 -393h-161l145 393h250zM1098 1608h-160l145 393h248zM1645 1495v-209h-154v-674q0 -157 -45 -278.5t-128.5 -198.5t-197 -116t-254.5 -39q-135 0 -247.5 39t-197 115.5t-132 198.5t-47.5 279v674h-158v209h567v-209h-153v-674q0 -96 23.5 -170t60 -118
t87 -71.5t98 -37.5t99.5 -10q57 0 106 10t99 37.5t85 71.5t57 118t22 170v674h-158v209h568z" />
    <glyph glyph-name="uhungarumlaut" unicode="&#x171;" horiz-adv-x="1384" 
d="M723 1583l-234 -393h-161l145 393h250zM844 1190h-160l145 393h248zM1167 209h156v-209h-362v137q-124 -157 -349 -157q-177 0 -295 117.5t-118 289.5v469h-150v209h397v-670q0 -90 60.5 -145t146.5 -55q99 -1 172 58t95 153v450h-150v209h397v-856z" />
    <glyph glyph-name="Uogonek" unicode="&#x172;" horiz-adv-x="1732" 
d="M1645 1495v-209h-154v-674q0 -278 -134.5 -435t-371.5 -189q-139 -94 -139 -207q0 -36 23 -58t57 -22q52 0 90 12v-143q-82 -21 -137 -21q-104 0 -170 56t-66 162q0 131 139 217q-118 12 -215.5 56.5t-170.5 121t-113.5 191.5t-40.5 259v674h-158v209h567v-209h-153v-674
q0 -96 23.5 -170t60 -118t87 -71.5t98 -37.5t99.5 -10q57 0 106 10t99 37.5t85 71.5t57 118t22 170v674h-158v209h568z" />
    <glyph glyph-name="uogonek" unicode="&#x173;" horiz-adv-x="1384" 
d="M1167 209h156v-209h-178q-160 -100 -160 -219q0 -36 23 -58t57 -22q53 0 90 12v-143q-82 -21 -137 -21q-104 0 -170 56t-66 162q0 146 179 239v131q-124 -157 -349 -157q-177 0 -295 117.5t-118 289.5v469h-150v209h397v-670q0 -90 60.5 -145t146.5 -55q99 -1 172 58
t95 153v450h-150v209h397v-856z" />
    <glyph glyph-name="Wcircumflex" unicode="&#x174;" horiz-adv-x="2299" 
d="M1161 1755l-313 -133l-72 133l383 219l402 -219l-72 -133zM2284 1495v-209h-175l-378 -1286h-209l-367 872l-371 -872h-209l-385 1286h-184v209h625v-209h-178l245 -942l371 883h170l375 -895l250 954h-207v209h627z" />
    <glyph glyph-name="wcircumflex" unicode="&#x175;" horiz-adv-x="1865" 
d="M934 1350l-313 -133l-72 133l383 219l401 -219l-71 -133zM1851 1065v-209h-176l-260 -856h-321l-162 645l-180 -645h-303l-259 856h-174v209h537v-209h-119l174 -651l209 774h236l209 -786l178 663h-109v209h520z" />
    <glyph glyph-name="Ycircumflex" unicode="&#x176;" horiz-adv-x="1525" 
d="M780 1755l-313 -133l-72 133l383 219l402 -219l-72 -133zM1313 1286l-418 -731v-346h176v-209h-606v209h176v346l-444 731h-168v209h579v-209h-135l305 -555l293 555h-145v209h569v-209h-182z" />
    <glyph glyph-name="ycircumflex" unicode="&#x177;" horiz-adv-x="1404" 
d="M709 1350l-314 -133l-71 133l383 219l401 -219l-72 -133zM1393 1065v-209h-193l-422 -1053q-98 -247 -325 -247q-79 0 -140 22.5t-100.5 75t-40.5 129.5q-2 68 31 105.5t96 37.5q50 0 83.5 -31t33.5 -77q2 -26 -13 -56q19 -16 64 -16q65 0 92 70l70 184h-78l-352 856
h-183v209h562v-209h-105l236 -655l233 655h-113v209h564z" />
    <glyph glyph-name="Ydieresis" unicode="&#x178;" horiz-adv-x="1525" 
d="M580 1632q-59 0 -100.5 43.5t-41.5 104.5q0 58 41.5 98.5t100.5 40.5q62 0 104.5 -40.5t42.5 -98.5q0 -62 -43 -105t-104 -43zM993 1632q-59 0 -101 43.5t-42 104.5q0 58 42 98.5t101 40.5q61 0 103.5 -40t42.5 -99q0 -62 -42.5 -105t-103.5 -43zM1313 1286l-418 -731
v-346h176v-209h-606v209h176v346l-444 731h-168v209h579v-209h-135l305 -555l293 555h-145v209h569v-209h-182z" />
    <glyph glyph-name="Zacute" unicode="&#x179;" horiz-adv-x="1427" 
d="M1094 1815l-473 -246l-89 127l422 338zM1133 473h200v-473h-1247v129l875 1151h-639v-258h-203v473h1196v-123l-887 -1157h705v258z" />
    <glyph glyph-name="zacute" unicode="&#x17a;" horiz-adv-x="1148" 
d="M926 1372l-496 -194l-76 135l457 291zM850 328h219v-328h-987l-2 125l661 729h-434v-123h-219v334h952v-193l-606 -663l416 2v117z" />
    <glyph glyph-name="Zdotaccent" unicode="&#x17b;" horiz-adv-x="1427" 
d="M754 1632q-68 0 -115 48t-47 118q0 65 47.5 110.5t114.5 45.5t114 -45.5t47 -110.5q0 -70 -46.5 -118t-114.5 -48zM1133 473h200v-473h-1247v129l875 1151h-639v-258h-203v473h1196v-123l-887 -1157h705v258z" />
    <glyph glyph-name="zdotaccent" unicode="&#x17c;" horiz-adv-x="1148" 
d="M573 1262q-68 0 -114.5 47.5t-46.5 117.5q0 65 47 110.5t114 45.5t114.5 -45.5t47.5 -110.5q0 -70 -47 -117.5t-115 -47.5zM850 328h219v-328h-987l-2 125l661 729h-434v-123h-219v334h952v-193l-606 -663l416 2v117z" />
    <glyph glyph-name="Zcaron" unicode="&#x17d;" horiz-adv-x="1427" 
d="M1180 1843l-422 -278l-422 278l74 133l346 -182l348 182zM1133 473h200v-473h-1247v129l875 1151h-639v-258h-203v473h1196v-123l-887 -1157h705v258z" />
    <glyph glyph-name="zcaron" unicode="&#x17e;" horiz-adv-x="1148" 
d="M997 1454l-422 -278l-421 278l73 133l346 -182l349 182zM850 328h219v-328h-987l-2 125l661 729h-434v-123h-219v334h952v-193l-606 -663l416 2v117z" />
    <glyph glyph-name="uni01EA" unicode="&#x1ea;" horiz-adv-x="1759" 
d="M1001 -14q-139 -92 -139 -205q0 -36 23 -58t57 -22q52 0 90 12v-143q-82 -21 -137 -21q-104 0 -170 56t-66 162q0 130 140 217q-214 17 -375 122t-245.5 274t-84.5 378q0 162 55 301.5t155 240.5t249 158.5t328 57.5q184 0 333.5 -57.5t247.5 -159t150.5 -240
t52.5 -301.5q0 -205 -76 -370t-227.5 -271.5t-360.5 -130.5zM352 748q0 -128 42 -232t115 -171.5t168.5 -103.5t203.5 -36q235 0 380.5 143.5t145.5 399.5q0 173 -68.5 297t-186 184.5t-271.5 60.5q-146 0 -264.5 -60.5t-191.5 -185.5t-73 -296z" />
    <glyph glyph-name="uni01EB" unicode="&#x1eb;" horiz-adv-x="1302" 
d="M737 -16q-135 -93 -135 -203q0 -36 23 -58t57 -22q52 0 90 12v-143q-82 -21 -137 -21q-104 0 -170 56t-66 162q0 132 146 219q-149 21 -255 99t-158 194t-52 260q0 159 63.5 280.5t194 193.5t313.5 72q182 0 313 -72t195 -194t64 -280q0 -226 -127 -377.5t-359 -177.5z
M332 532q0 -158 87 -247.5t232 -89.5q144 0 232 90t88 247t-88.5 247.5t-231.5 90.5q-145 0 -232 -90t-87 -248z" />
    <glyph glyph-name="AEacute" unicode="&#x1fc;" horiz-adv-x="2316" 
d="M1786 1815l-473 -246l-88 127l422 338zM1976 473h219v-473h-1224v209h162v203h-545l-125 -203h139v-209h-596v209h191l653 1059h-191v227h1530v-473h-217v260h-586v-448h539v-199h-539v-422h590v260zM707 606h426v692z" />
    <glyph glyph-name="aeacute" unicode="&#x1fd;" horiz-adv-x="1923" 
d="M1329 1372l-495 -194l-76 135l456 291zM1343 1085q79 0 154.5 -22t144 -70.5t117.5 -118.5t72.5 -173.5t9.5 -227.5l-18 -16h-756q17 -127 88.5 -197t185.5 -70q87 0 151.5 35t88.5 90h236q-27 -139 -153.5 -237t-322.5 -98q-146 0 -256 56t-178 157q-63 -99 -179 -156
t-282 -57q-163 0 -262.5 82.5t-99.5 220.5q0 156 128.5 245.5t356.5 89.5h242q-2 123 -68.5 187.5t-195.5 64.5q-49 0 -92.5 -14.5t-62.5 -27t-46 -33.5q13 -27 4 -62q-9 -38 -40 -63t-77 -25q-47 0 -80 31.5t-38 77.5q-15 138 104 234.5t328 96.5q274 0 403 -161
q151 161 393 161zM1071 625h539q-9 68 -37.5 119.5t-67.5 79.5t-80 41.5t-82 13.5q-98 0 -173.5 -68.5t-98.5 -185.5zM526 174q107 0 187 50t98 134v88q-98 -2 -264 -2q-215 0 -215 -143q0 -58 49 -92.5t145 -34.5z" />
    <glyph glyph-name="Oslashacute" unicode="&#x1fe;" horiz-adv-x="1759" 
d="M1217 1815l-474 -246l-88 127l422 338zM1444 1317q108 -103 164.5 -246t56.5 -313q0 -167 -52.5 -309t-150.5 -246.5t-247.5 -163.5t-333.5 -59q-260 0 -449 120l-94 -114l-125 92l98 119q-105 105 -161 249t-56 312q0 162 55 301.5t155 240.5t249 158.5t328 57.5
q251 0 438 -107l86 102l127 -88zM352 748q0 -215 117 -361l694 836q-119 67 -282 67q-146 0 -264.5 -60.5t-191.5 -185.5t-73 -296zM881 205q235 0 380.5 143.5t145.5 399.5q0 234 -123 376l-698 -839q130 -80 295 -80z" />
    <glyph glyph-name="oslashacute" unicode="&#x1ff;" horiz-adv-x="1302" 
d="M979 1372l-496 -194l-75 135l456 291zM1102 903q121 -145 121 -364q0 -120 -37.5 -221.5t-108 -177t-180 -118t-246.5 -42.5q-210 0 -356 100l-98 -100l-93 86l99 100q-123 147 -123 373q0 159 63.5 280.5t194 193.5t313.5 72q213 0 355 -96l92 94l94 -88zM332 532
q0 -109 45 -188l461 473q-77 53 -187 53q-145 0 -232 -90t-87 -248zM651 195q144 0 232 90t88 247q0 112 -45 191l-465 -473q76 -55 190 -55z" />
    <glyph glyph-name="Scommaaccent" unicode="&#x218;" horiz-adv-x="1490" 
d="M401 1094q0 -62 34 -106t91.5 -68.5t132 -42t157 -31t165 -30t157 -45.5t132 -70.5t91.5 -111.5t34 -163q0 -205 -168 -325.5t-500 -120.5q-329 0 -487 119.5t-144 318.5q5 63 46.5 102t107.5 39t103.5 -39.5t37.5 -99.5q0 -57 -43 -92q35 -57 136.5 -92t244.5 -35
q408 0 408 217q0 53 -28 91.5t-75.5 60t-111 38t-135 25t-147.5 23t-147.5 30.5t-135 48.5t-111 76t-75.5 113.5t-28 161q0 195 156.5 313t456.5 118h2q173 0 310.5 -54.5t211.5 -155t61 -225.5q-6 -61 -46 -98t-105 -37q-58 0 -98.5 39.5t-40.5 93.5q0 27 12 55.5t35 39.5
q-37 57 -127 89.5t-215 32.5q-179 0 -267 -55t-88 -147zM725 -70q112 0 158 -94q42 -87 7 -198q-38 -118 -138 -177q-73 -43 -162 -43v101q55 0 100.5 28t57.5 68q-10 -2 -33 -2q-67 0 -112.5 44t-45.5 112q0 71 47.5 116t120.5 45z" />
    <glyph glyph-name="scommaaccent" unicode="&#x219;" horiz-adv-x="1114" 
d="M326 233q61 -58 227 -55q235 0 235 125q0 46 -37.5 73t-97 39t-131 21.5t-143.5 28t-131 50t-96 96t-37 157.5q0 141 111.5 229t342.5 88q205 0 324.5 -88t114.5 -215q-1 -54 -38 -91.5t-87 -37.5q-55 0 -90 32.5t-35 78.5q0 41 26 67q-12 21 -69.5 38.5t-145.5 17.5
q-107 0 -161 -33t-54 -90q0 -42 29 -70.5t76.5 -41t108 -25t123.5 -21.5t123.5 -31.5t108 -54t76.5 -89.5t29 -138q0 -64 -25 -118.5t-78.5 -99t-148.5 -70t-223 -25.5q-133 0 -235.5 29t-167.5 93.5t-68 157.5q-3 66 31.5 104.5t97.5 38.5q51 0 90 -33.5t39 -78.5
q0 -36 -14 -58zM424 -582v101q55 0 100.5 28t57.5 68q-10 -2 -33 -2q-67 0 -112.5 44t-45.5 112q0 71 47.5 116t120.5 45q112 0 158 -94q42 -87 7 -198q-38 -118 -138 -177q-72 -43 -162 -43z" />
    <glyph glyph-name="uni021A" unicode="&#x21a;" horiz-adv-x="1495" 
d="M1438 1495v-506h-213v293h-351v-1073h177v-209h-611v209h181v1073h-351v-293h-213v506h1381zM748 -70q112 0 157 -94q42 -87 7 -198q-37 -118 -139 -178q-72 -42 -161 -42v101q55 0 100.5 28t57.5 68q-10 -2 -33 -2q-67 0 -112 44t-45 112q0 71 47.5 116t120.5 45z" />
    <glyph glyph-name="uni021B" unicode="&#x21b;" horiz-adv-x="897" 
d="M838 850h-371v-473q0 -182 151 -182q98 0 205 43v-211q-118 -47 -258 -47q-346 0 -346 378v492h-160v215h160v250h248v-250h371v-215zM510 -70q112 0 158 -94q42 -87 7 -198q-38 -118 -138 -177q-72 -43 -162 -43v101q55 0 100 28t57 68q-10 -2 -32 -2q-67 0 -112.5 44
t-45.5 112q0 71 47.5 116t120.5 45z" />
    <glyph glyph-name="circumflex" unicode="&#x2c6;" horiz-adv-x="1228" 
d="M1038 1350l-71 -133l-328 133l-313 -133l-72 133l383 219z" />
    <glyph glyph-name="caron" unicode="&#x2c7;" horiz-adv-x="1228" 
d="M918 1587l75 -133l-422 -278l-421 278l73 133l346 -182z" />
    <glyph glyph-name="breve" unicode="&#x2d8;" horiz-adv-x="1228" 
d="M391 1518q3 -69 61 -110.5t150 -41.5q93 0 152.5 41t62.5 111l176 -13q9 -148 -99.5 -235.5t-291.5 -87.5q-182 0 -291 87.5t-100 235.5z" />
    <glyph glyph-name="dotaccent" unicode="&#x2d9;" horiz-adv-x="612" 
d="M311 1282q-66 0 -111.5 47.5t-45.5 116.5q0 63 45.5 108t111.5 45q65 0 111.5 -45t46.5 -108q0 -69 -46.5 -116.5t-111.5 -47.5z" />
    <glyph glyph-name="ring" unicode="&#x2da;" horiz-adv-x="1228" 
d="M307 1169q-119 0 -187.5 65t-68.5 163q0 96 68.5 160.5t187.5 64.5t187.5 -64.5t68.5 -160.5q0 -98 -68.5 -163t-187.5 -65zM307 1313q40 0 64.5 23.5t23.5 60.5q1 38 -23.5 62t-64.5 24t-64.5 -24t-23.5 -62q-1 -37 23.5 -60.5t64.5 -23.5z" />
    <glyph glyph-name="ogonek" unicode="&#x2db;" horiz-adv-x="1228" 
d="M764 -430q-82 -21 -137 -21q-104 0 -170 56t-66 162q0 100 75.5 167.5t203.5 114.5l84 -49q-160 -100 -160 -219q0 -36 23 -58t57 -22q52 0 90 12v-143z" />
    <glyph glyph-name="tilde" unicode="&#x2dc;" horiz-adv-x="1228" 
d="M952 1423q-4 -109 -65 -168t-152 -57q-52 1 -101 18.5t-88 35t-67 18.5q-65 0 -86 -62l-172 37q6 120 60.5 176t142.5 56q58 -1 152.5 -39.5t123.5 -38.5q63 0 82 57z" />
    <glyph glyph-name="hungarumlaut" unicode="&#x2dd;" horiz-adv-x="1228" 
d="M449 1583h249l-233 -393h-162zM805 1583h248l-234 -393h-160z" />
    <glyph glyph-name="gravecomb" unicode="&#x300;" 
d="M-721 1604l459 -291l-76 -137l-493 196z" />
    <glyph glyph-name="acutecomb" unicode="&#x301;" 
d="M-377 1604l115 -232l-496 -194l-76 135z" />
    <glyph glyph-name="uni0302" unicode="&#x302;" 
d="M-170 1350l-72 -133l-327 133l-314 -133l-71 133l383 219z" />
    <glyph glyph-name="tildecomb" unicode="&#x303;" 
d="M-248 1423q-4 -109 -65 -168t-152 -57q-52 1 -101 18.5t-88 35t-67 18.5q-65 0 -86 -62l-172 37q6 120 60.5 176t142.5 56q58 -1 152.5 -39.5t123.5 -38.5q63 0 82 57z" />
    <glyph glyph-name="uni0304" unicode="&#x304;" 
d="M-913 1440h651v-197h-651v197z" />
    <glyph glyph-name="uni0306" unicode="&#x306;" 
d="M-838 1518q3 -69 61 -110.5t150 -41.5q93 0 152.5 41t62.5 111l176 -13q9 -148 -99.5 -235.5t-291.5 -87.5q-182 0 -291 87.5t-100 235.5z" />
    <glyph glyph-name="uni0307" unicode="&#x307;" 
d="M-305 1262q-68 0 -115 47.5t-47 117.5q0 65 47.5 110.5t114.5 45.5t114.5 -45.5t47.5 -110.5q0 -70 -47 -117.5t-115 -47.5z" />
    <glyph glyph-name="uni0308" unicode="&#x308;" 
d="M-756 1262q-59 0 -100 43t-41 104q0 58 41 98.5t100 40.5q62 0 105 -40.5t43 -98.5q0 -61 -43 -104t-105 -43zM-342 1262q-59 0 -101 43t-42 104q0 58 42 98.5t101 40.5q61 0 103 -40t42 -99q0 -62 -42 -104.5t-103 -42.5z" />
    <glyph glyph-name="uni030A" unicode="&#x30a;" 
d="M-307 1169q-119 0 -187.5 65t-68.5 163q0 96 68.5 160.5t187.5 64.5t187.5 -64.5t68.5 -160.5q0 -98 -68.5 -163t-187.5 -65zM-307 1313q40 0 64.5 23.5t23.5 60.5q1 38 -23.5 62t-64.5 24t-64.5 -24t-23.5 -62q-1 -37 23.5 -60.5t64.5 -23.5z" />
    <glyph glyph-name="uni030B" unicode="&#x30b;" 
d="M-780 1583h250l-234 -393h-162zM-424 1583h248l-234 -393h-159z" />
    <glyph glyph-name="uni030C" unicode="&#x30c;" 
d="M-225 1587l75 -133l-421 -278l-422 278l73 133l347 -182z" />
    <glyph glyph-name="uni0326" unicode="&#x326;" 
d="M-446 -582v101q55 0 100 28t57 68q-10 -2 -33 -2q-67 0 -112 44t-45 112q0 71 47.5 116t120.5 45q112 0 158 -94q42 -87 7 -198q-38 -118 -138 -177q-72 -43 -162 -43z" />
    <glyph glyph-name="uni0327" unicode="&#x327;" 
d="M-780 -188l20 194h172v-78q85 0 141 -45t56 -133q0 -95 -75.5 -148t-190.5 -53q-67 0 -126.5 18.5t-93.5 49.5l58 107q59 -39 137 -39q90 0 90 65q0 59 -88 62h-100z" />
    <glyph glyph-name="uni0328" unicode="&#x328;" 
d="M-465 -430q-82 -21 -137 -21q-104 0 -170 56t-66 162q0 100 75.5 167.5t203.5 114.5l84 -49q-160 -100 -160 -219q0 -36 23 -58t57 -22q53 0 90 12v-143z" />
    <glyph glyph-name="uni0335" unicode="&#x335;" 
d="M-854 893h692v-160h-692v160z" />
    <glyph glyph-name="uni0336" unicode="&#x336;" 
d="M-1622 879h1597v-136h-1597v136z" />
    <glyph glyph-name="uni0337" unicode="&#x337;" 
d="M-182 1231l82 -119l-594 -369l-84 115z" />
    <glyph glyph-name="uni0338" unicode="&#x338;" 
d="M-111 1108l95 -88l-996 -1016l-92 86z" />
    <glyph glyph-name="Wgrave" unicode="&#x1e80;" horiz-adv-x="2299" 
d="M1434 1710l-82 -133l-484 221l123 225zM2284 1495v-209h-175l-378 -1286h-209l-367 872l-371 -872h-209l-385 1286h-184v209h625v-209h-178l245 -942l371 883h170l375 -895l250 954h-207v209h627z" />
    <glyph glyph-name="wgrave" unicode="&#x1e81;" horiz-adv-x="1865" 
d="M1219 1313l-76 -137l-494 196l111 232zM1851 1065v-209h-176l-260 -856h-321l-162 645l-180 -645h-303l-259 856h-174v209h537v-209h-119l174 -651l209 774h236l209 -786l178 663h-109v209h520z" />
    <glyph glyph-name="Wacute" unicode="&#x1e82;" horiz-adv-x="2299" 
d="M1507 1815l-473 -246l-88 127l422 338zM2284 1495v-209h-175l-378 -1286h-209l-367 872l-371 -872h-209l-385 1286h-184v209h625v-209h-178l245 -942l371 883h170l375 -895l250 954h-207v209h627z" />
    <glyph glyph-name="wacute" unicode="&#x1e83;" horiz-adv-x="1865" 
d="M1284 1372l-496 -194l-75 135l456 291zM1851 1065v-209h-176l-260 -856h-321l-162 645l-180 -645h-303l-259 856h-174v209h537v-209h-119l174 -651l209 774h236l209 -786l178 663h-109v209h520z" />
    <glyph glyph-name="Wdieresis" unicode="&#x1e84;" horiz-adv-x="2299" 
d="M961 1632q-59 0 -100.5 43.5t-41.5 104.5q0 58 41.5 98.5t100.5 40.5q62 0 104.5 -40.5t42.5 -98.5q0 -62 -43 -105t-104 -43zM1374 1632q-59 0 -101 43.5t-42 104.5q0 58 42 98.5t101 40.5q61 0 103.5 -40t42.5 -99q0 -62 -42.5 -105t-103.5 -43zM2284 1495v-209h-175
l-378 -1286h-209l-367 872l-371 -872h-209l-385 1286h-184v209h625v-209h-178l245 -942l371 883h170l375 -895l250 954h-207v209h627z" />
    <glyph glyph-name="wdieresis" unicode="&#x1e85;" horiz-adv-x="1865" 
d="M725 1262q-59 0 -100 43t-41 104q0 58 41 98.5t100 40.5q62 0 104.5 -40.5t42.5 -98.5q0 -61 -43 -104t-104 -43zM1139 1262q-59 0 -101.5 43t-42.5 104q0 58 42.5 98.5t101.5 40.5q61 0 103 -40t42 -99q0 -62 -42 -104.5t-103 -42.5zM1851 1065v-209h-176l-260 -856
h-321l-162 645l-180 -645h-303l-259 856h-174v209h537v-209h-119l174 -651l209 774h236l209 -786l178 663h-109v209h520z" />
    <glyph glyph-name="uni1E9E" unicode="&#x1e9e;" horiz-adv-x="1779" 
d="M1206 1079q0 -61 28 -106t73 -73.5t99.5 -54t109 -59t99.5 -77.5t73 -119.5t28 -175.5q0 -197 -132.5 -315.5t-371.5 -118.5q-245 0 -371 109.5t-114 285.5q5 66 46 105.5t108 39.5q66 0 104.5 -39t38.5 -100q0 -73 -57 -102q68 -78 245 -78q108 0 177 57.5t69 153.5
q0 48 -17.5 87.5t-47 67.5t-68 53t-81 48.5t-85 48.5t-81 58.5t-68 74t-47 99.5t-17.5 130q0 113 64 197h-277q-111 -2 -173 -54t-62 -151v-1071h-408v209h152v862q0 200 132 312t357 112h658v-219h-3q-39 0 -78.5 -19t-70.5 -66t-31 -112z" />
    <glyph glyph-name="Ygrave" unicode="&#x1ef2;" horiz-adv-x="1525" 
d="M1053 1710l-82 -133l-484 221l123 225zM1313 1286l-418 -731v-346h176v-209h-606v209h176v346l-444 731h-168v209h579v-209h-135l305 -555l293 555h-145v209h569v-209h-182z" />
    <glyph glyph-name="ygrave" unicode="&#x1ef3;" horiz-adv-x="1404" 
d="M993 1313l-75 -137l-494 196l111 232zM1393 1065v-209h-193l-422 -1053q-98 -247 -325 -247q-79 0 -140 22.5t-100.5 75t-40.5 129.5q-2 68 31 105.5t96 37.5q50 0 83.5 -31t33.5 -77q2 -26 -13 -56q19 -16 64 -16q65 0 92 70l70 184h-78l-352 856h-183v209h562v-209
h-105l236 -655l233 655h-113v209h564z" />
    <glyph glyph-name="uni1EF8" unicode="&#x1ef8;" horiz-adv-x="1525" 
d="M688 1720q-65 0 -86 -61l-172 37q6 120 60.5 175.5t142.5 55.5q58 -1 152.5 -39.5t123.5 -38.5q62 0 82 58l170 -33q-4 -109 -65 -168t-152 -57q-52 1 -101 18t-88 34.5t-67 18.5zM1313 1286l-418 -731v-346h176v-209h-606v209h176v346l-444 731h-168v209h579v-209h-135
l305 -555l293 555h-145v209h569v-209h-182z" />
    <glyph glyph-name="uni1EF9" unicode="&#x1ef9;" horiz-adv-x="1404" 
d="M598 1270q-65 0 -86 -62l-172 37q6 120 60.5 176t142.5 56q58 -1 152.5 -39.5t123.5 -38.5q63 0 82 57l170 -33q-4 -109 -65 -168t-152 -57q-52 1 -101 18.5t-88 35t-67 18.5zM1393 1065v-209h-193l-422 -1053q-98 -247 -325 -247q-79 0 -140 22.5t-100.5 75t-40.5 129.5
q-2 68 31 105.5t96 37.5q50 0 83.5 -31t33.5 -77q2 -26 -13 -56q19 -16 64 -16q65 0 92 70l70 184h-78l-352 856h-183v209h562v-209h-105l236 -655l233 655h-113v209h564z" />
    <glyph glyph-name="endash" unicode="&#x2013;" horiz-adv-x="1218" 
d="M1087 674v-221h-954v221h954z" />
    <glyph glyph-name="emdash" unicode="&#x2014;" horiz-adv-x="1456" 
d="M1323 674v-221h-1190v221h1190z" />
    <glyph glyph-name="quoteleft" unicode="&#x2018;" horiz-adv-x="548" 
d="M426 1544v-117q-61 0 -111 -31.5t-71 -90.5q24 4 41 4q65 0 111 -45t46 -113q0 -71 -48 -115.5t-122 -44.5q-110 0 -156 96q-43 91 -9 210q37 127 139 195q79 52 180 52z" />
    <glyph glyph-name="quoteright" unicode="&#x2019;" horiz-adv-x="552" 
d="M135 963v116q61 0 111 32t71 91q-24 -4 -41 -4q-65 0 -111 45t-46 113q0 71 48 115.5t122 44.5q110 0 156 -96q43 -91 9 -210q-37 -127 -139 -195q-80 -52 -180 -52z" />
    <glyph glyph-name="quotesinglbase" unicode="&#x201a;" horiz-adv-x="569" 
d="M127 -256v117q61 0 111 32t71 91q-24 -4 -41 -4q-66 0 -111.5 44.5t-45.5 112.5q0 71 48 115.5t122 44.5q110 0 156 -96q43 -91 9 -210q-37 -127 -139 -195q-79 -52 -180 -52z" />
    <glyph glyph-name="quotedblleft" unicode="&#x201c;" horiz-adv-x="935" 
d="M426 1544v-117q-61 0 -111 -31.5t-71 -90.5q24 4 41 4q65 0 111 -45t46 -113q0 -71 -48 -115.5t-122 -44.5q-110 0 -156 96q-43 91 -9 210q37 127 139 195q79 52 180 52zM811 1544v-117q-61 0 -111 -31.5t-71 -90.5q24 4 41 4q65 0 111 -45t46 -113q0 -71 -48 -115.5
t-122 -44.5q-110 0 -156 96q-43 91 -9 210q37 127 139 195q79 52 180 52z" />
    <glyph glyph-name="quotedblright" unicode="&#x201d;" horiz-adv-x="940" 
d="M135 963v116q61 0 111 32t71 91q-24 -4 -41 -4q-65 0 -111 45t-46 113q0 71 48 115.5t122 44.5q110 0 156 -96q43 -91 9 -210q-37 -127 -139 -195q-80 -52 -180 -52zM520 963v116q61 0 111 32t71 91q-24 -4 -40 -4q-66 0 -112 45t-46 113q0 71 48 115.5t122 44.5
q110 0 156 -96q43 -91 9 -210q-37 -127 -139 -195q-80 -52 -180 -52z" />
    <glyph glyph-name="quotedblbase" unicode="&#x201e;" horiz-adv-x="954" 
d="M127 -256v117q61 0 111 32t71 91q-24 -4 -41 -4q-66 0 -111.5 44.5t-45.5 112.5q0 71 48 115.5t122 44.5q110 0 156 -96q43 -91 9 -210q-37 -127 -139 -195q-79 -52 -180 -52zM512 -256v117q61 0 111 32t71 91q-24 -4 -41 -4q-66 0 -111.5 44.5t-45.5 112.5
q0 71 48 115.5t122 44.5q110 0 156 -96q43 -91 9 -210q-37 -127 -139 -195q-79 -52 -180 -52z" />
    <glyph glyph-name="dagger" unicode="&#x2020;" horiz-adv-x="1136" 
d="M1055 1063v-176h-369l-10 -1010h-215l-10 1010h-367v176h365l-7 534h252l-6 -534h367z" />
    <glyph glyph-name="daggerdbl" unicode="&#x2021;" horiz-adv-x="1136" 
d="M1055 973h-367l-4 -246h371v-168h-371l-8 -682h-215l-8 682h-369v168h369l-4 246h-365v168h362l-4 456h252l-4 -456h365v-168z" />
    <glyph glyph-name="bullet" unicode="&#x2022;" horiz-adv-x="903" 
d="M451 303q-124 0 -212.5 90.5t-88.5 220.5q0 116 89.5 203.5t211.5 87.5t211.5 -87.5t89.5 -203.5q0 -130 -88.5 -220.5t-212.5 -90.5z" />
    <glyph glyph-name="ellipsis" unicode="&#x2026;" horiz-adv-x="1638" 
d="M272 -20q-68 0 -115.5 50t-47.5 120q0 66 48 113.5t115 47.5q69 0 117.5 -47.5t48.5 -113.5q0 -71 -48.5 -120.5t-117.5 -49.5zM813 -20q-68 0 -116 50t-48 120q0 66 48.5 113.5t115.5 47.5q69 0 117.5 -47.5t48.5 -113.5q0 -71 -48.5 -120.5t-117.5 -49.5zM1364 -20
q-68 0 -116 50t-48 120q0 66 48.5 113.5t115.5 47.5q69 0 117.5 -47.5t48.5 -113.5q0 -71 -48.5 -120.5t-117.5 -49.5z" />
    <glyph glyph-name="perthousand" unicode="&#x2030;" horiz-adv-x="2750" 
d="M768 1124q0 -179 -95 -285t-253 -106t-253 106t-95 285q0 180 95 286t253 106t253 -106t95 -286zM1214 1491l142 -49l-627 -1405l-141 57zM420 881q84 0 134 65.5t50 177.5q0 113 -50 177.5t-134 64.5t-134 -64.5t-50 -177.5q0 -112 50 -177.5t134 -65.5zM1509 762
q158 0 253.5 -105t95.5 -284t-96 -286t-253 -107t-252.5 107t-95.5 286t95 284t253 105zM2329 762q158 0 253 -105t95 -284t-95.5 -286t-252.5 -107t-253 107t-96 286t95.5 284t253.5 105zM1509 129q84 0 134.5 65.5t50.5 178.5q0 112 -50.5 176.5t-134.5 64.5t-134 -64.5
t-50 -176.5q0 -113 50 -178.5t134 -65.5zM2329 129q84 0 134 65.5t50 178.5q0 112 -50 176.5t-134 64.5t-134.5 -64.5t-50.5 -176.5q0 -113 50.5 -178.5t134.5 -65.5z" />
    <glyph glyph-name="guilsinglleft" unicode="&#x2039;" horiz-adv-x="782" 
d="M651 981v-219l-401 -191l401 -194v-219l-579 323v172z" />
    <glyph glyph-name="guilsinglright" unicode="&#x203a;" horiz-adv-x="768" 
d="M131 981l565 -328v-172l-565 -323v219l401 194l-401 193v217z" />
    <glyph glyph-name="fraction" unicode="&#x2044;" horiz-adv-x="794" 
d="M14 -20l576 1521h192l-575 -1521h-193z" />
    <glyph glyph-name="Euro" unicode="&#x20ac;" horiz-adv-x="1675" 
d="M1257 774q0 79 56 113q3 68 -101 136.5t-260 68.5q-154 0 -263 -74.5t-152 -206.5h491l-31 -123h-485q-2 -14 -2 -45q0 -35 2 -51h463l-29 -123h-405q47 -129 159.5 -201.5t255.5 -72.5q131 0 230 65t125 170h239q-26 -201 -191 -325.5t-403 -124.5q-256 0 -439 130
t-238 359h-209l28 123h162q-2 20 -2 61v35h-137l31 123h122q46 232 226.5 366t451.5 134q121 0 224.5 -30t176 -81.5t122 -119.5t69.5 -145.5t12 -158.5q-8 -63 -50 -101t-105 -38q-62 0 -103 41t-41 96z" />
    <glyph glyph-name="uni2116" unicode="&#x2116;" horiz-adv-x="3153" 
d="M1849 1536q123 0 192 -63t58 -144q-8 -56 -47 -91t-102 -36q-53 -3 -95.5 35.5t-44.5 81.5q-8 4 -20 4q-31 0 -49.5 -27t-18.5 -77v-1219h-219l-776 1044v-698q0 -207 -97 -318.5t-282 -111.5q-127 0 -207 71.5t-67 182.5q7 61 46.5 94t100.5 33q71 0 110.5 -47.5
t30.5 -116.5q8 -8 27 -8q40 0 65 39t25 115v989h-235v227h450l781 -1094v729q0 193 97 299.5t277 106.5zM2574 406q-112 0 -202.5 34t-148.5 94t-89 139.5t-31 172.5q0 187 124 308.5t347 121.5q225 0 350 -121t125 -309q0 -192 -125 -316t-350 -124zM2574 1083
q-116 0 -183 -66t-67 -177q0 -110 67 -177t183 -67t184 67t68 177q0 111 -68 177t-184 66zM2148 113l-4 186h856v-186h-852z" />
    <glyph glyph-name="trademark" unicode="&#x2122;" horiz-adv-x="1787" 
d="M731 1495v-248h-113v133h-124v-428h98v-121h-346v121h98v428h-121v-133h-117v248h625zM1561 952h90v-121h-332v121h100l-24 291l-123 -205h-139l-125 207l-23 -293h100v-121h-331v121h90l35 424h-88v119h219l190 -330l193 330h221v-119h-88z" />
    <glyph glyph-name="minus" unicode="&#x2212;" horiz-adv-x="1085" 
d="M944 657v-192h-803v192h803z" />
    <glyph glyph-name="approxequal" unicode="&#x2248;" horiz-adv-x="1132" 
d="M991 831q-11 -113 -79 -180.5t-169 -66.5q-65 -1 -124.5 16t-111 34.5t-93.5 18.5q-84 0 -103 -82l-170 33q3 114 61 184.5t152 71.5q76 -1 193.5 -40t165.5 -40q36 0 66.5 20.5t41.5 61.5zM991 451q-11 -113 -79 -181t-169 -67q-65 -1 -124.5 16t-111 34.5t-93.5 18.5
q-84 0 -103 -82l-170 33q3 114 61 184.5t152 71.5q76 -1 193.5 -40t165.5 -40q36 0 66.5 20t41.5 62z" />
    <glyph glyph-name="notequal" unicode="&#x2260;" horiz-adv-x="1069" 
d="M928 625h-297l-47 -168h344v-168h-391l-68 -244h-160l68 244h-236v168h283l47 168h-330v166h377l66 233h157l-65 -233h252v-166z" />
    <glyph glyph-name="dotlessj" unicode="&#xf6be;" horiz-adv-x="655" 
d="M489 1065v-1100q0 -210 -82 -308.5t-253 -98.5q-59 0 -112 14t-97 41.5t-71 75.5t-28 110q-1 64 36.5 105t99.5 41q63 0 97 -39t34 -90q0 -21 -11 -47q13 -17 56 -17q47 0 65.5 35.5t18.5 126.5v942h-156v209h403z" />
    <glyph glyph-name="uniF8FF" unicode="&#xf8ff;" horiz-adv-x="2971" 
d="M1415 1194q0 54 36 90.5t89 36.5q54 0 90.5 -36.5t36.5 -90.5q0 -53 -36.5 -89t-90.5 -36q-52 0 -88.5 36.5t-36.5 88.5zM449 553h-244q0 159 4.5 320t8.5 242l5 81h205q19 -286 21 -643zM1421 553q0 187 6 301h-124l6 -133q7 -8 30 -8q13 0 22 2.5t12 4.5l3 3v-152
q-2 -3 -8.5 -8t-41 -13.5t-85.5 -8.5q-172 0 -172 135q0 30 4 102t4 76h-45v162l244 61l2 -35h364q21 -132 21 -489h-242zM672 543q-90 0 -139.5 57.5t-49.5 173.5q0 279 281 279q124 0 185 -62t63 -178v-260h-170l-17 125q-13 -67 -48 -101t-105 -34zM2232 553h-233
q0 53 2 114.5t2 82.5q0 29 -6.5 41t-24.5 12q-20 0 -28.5 -12.5t-8.5 -40.5q0 -21 3.5 -82.5t3.5 -114.5h-234q0 159 5 281.5t11 165.5l5 42h163q13 -92 13 -155q0 7 3 22.5t14 41.5t27.5 48t48.5 38t73 16q83 0 117.5 -49.5t37.5 -167.5zM2767 786q0 -112 -63.5 -177.5
t-190.5 -65.5q-123 0 -185.5 67t-62.5 176q0 267 250 267q75 0 127 -21t78 -60t36.5 -83t10.5 -103zM799 768q0 53 -47 53q-25 0 -36 -12t-11 -41q0 -61 47 -61q22 0 34.5 16t12.5 45zM2562 768q0 53 -47 53q-22 0 -32.5 -12t-10.5 -41q0 -61 43 -61q22 0 34.5 16t12.5 45z
M877 487h213q20 -123 20 -301q0 -150 -71.5 -219t-233.5 -69q-64 0 -111 8.5t-62 17.5l-14 8v170q42 -32 142 -32q31 0 54 6t33.5 14.5t16.5 16.5t7 14l1 6q-26 -23 -100 -23q-184 0 -184 170v27h-113l6 -133q8 -8 31 -8q13 0 22 2.5t12 5.5l3 2v-150q-2 -3 -8.5 -8
t-41.5 -13.5t-87 -8.5q-168 0 -168 131q0 93 6 180h-37v164l240 59l-2 -35l362 -2v-243q0 -31 6 -43.5t23 -12.5q20 0 27.5 12.5t7.5 43.5v243zM1501 498q76 0 120 -59.5t44 -170.5q0 -278 -281 -278q2 -27 2 -80h-243q0 156 5 300t10 210l5 67h160q14 -106 14 -155
q1 9 4.5 23t15.5 41t28.5 48t47 37.5t68.5 16.5zM2191 264q0 -23 -1.5 -42t-3.5 -26l-1 -8h-254q2 -4 7.5 -10t31.5 -16t62 -10q34 0 62.5 6t39.5 12l12 6v-153q-5 -4 -14.5 -9.5t-50.5 -14.5t-94 -9q-142 0 -215.5 63t-73.5 176q0 131 66.5 200t191.5 69q110 0 172.5 -62
t62.5 -172zM2003 223q6 56 -35 56q-47 0 -47 -56h82zM1372 147q3 0 8 1t18.5 5.5t23.5 12t18 23t8 36.5q0 45 -41 45q-45 0 -45 -65q0 -14 2.5 -28.5t5.5 -22.5zM2202 27q0 -20 13.5 -33.5t33.5 -13.5q19 0 32 13.5t13 33.5t-13 32.5t-32 12.5q-20 0 -33.5 -12.5
t-13.5 -32.5zM2212 27q0 15 11 25.5t26 10.5q14 0 24.5 -10.5t10.5 -25.5t-10.5 -26t-24.5 -11q-15 0 -26 11t-11 26zM2269 4l-12 19q14 0 14 14t-20 14h-23v-47h10v19h11l8 -19h12zM2251 31h-13v12h11q12 0 12 -4q0 -8 -10 -8z" />
    <glyph glyph-name="i.loclTRK" horiz-adv-x="712" 
d="M360 1262q-68 0 -114.5 47.5t-46.5 117.5q0 65 47 110.5t114 45.5t114.5 -45.5t47.5 -110.5q0 -70 -47 -117.5t-115 -47.5zM498 209h151v-209h-555v209h156v647h-154v209h402v-856z" />
    <glyph glyph-name="zero.zero" horiz-adv-x="1531" 
d="M768 1516q145 0 265 -48t209 -140.5t138.5 -238t49.5 -331.5q0 -185 -49.5 -333.5t-138 -245t-209.5 -148t-265 -51.5q-147 0 -268.5 49t-210.5 144t-138 244.5t-49 340.5q0 186 49 331.5t138 238t210.5 140.5t268.5 48zM768 1290q-186 0 -297 -134.5t-111 -407.5
q0 -172 48 -293l604 751q-100 84 -244 84zM768 205q178 0 290.5 140.5t112.5 402.5q0 200 -65 333l-612 -766q101 -110 274 -110z" />
    <glyph glyph-name="caroncomb.alt" 
d="M-365 1204l89 479h-234l-47 -479h192z" />
    <glyph glyph-name="acutecomb.case" 
d="M-428 2034l139 -219l-473 -246l-88 127z" />
    <glyph glyph-name="uni0306.case" 
d="M-838 1948q3 -69 61 -110.5t150 -41.5q93 0 152.5 41t62.5 111l176 -13q9 -148 -99.5 -235.5t-291.5 -87.5q-182 0 -291 87.5t-100 235.5z" />
    <glyph glyph-name="uni030C.case" 
d="M-250 1976l76 -133l-422 -278l-422 278l74 133l346 -182z" />
    <glyph glyph-name="uni0302.case" 
d="M-209 1755l-72 -133l-327 133l-314 -133l-71 133l383 219z" />
    <glyph glyph-name="uni0308.case" 
d="M-756 1632q-59 0 -100 43.5t-41 104.5q0 58 41 98.5t100 40.5q62 0 105 -40.5t43 -98.5q0 -62 -43 -105t-105 -43zM-342 1632q-59 0 -101 43.5t-42 104.5q0 58 42 98.5t101 40.5q61 0 103 -40t42 -99q0 -62 -42 -105t-103 -43z" />
    <glyph glyph-name="uni0307.case" 
d="M-305 1632q-68 0 -115 48t-47 118q0 65 47.5 110.5t114.5 45.5t114.5 -45.5t47.5 -110.5q0 -70 -47 -118t-115 -48z" />
    <glyph glyph-name="gravecomb.case" 
d="M-709 2023l443 -313l-82 -133l-483 221z" />
    <glyph glyph-name="uni030B.case" 
d="M-780 2001h250l-234 -393h-162zM-424 2001h248l-234 -393h-159z" />
    <glyph glyph-name="uni0304.case" 
d="M-913 1835h651v-197h-651v197z" />
    <glyph glyph-name="uni030A.case" 
d="M-307 1638q-119 0 -187.5 65t-68.5 163q0 96 68.5 160.5t187.5 64.5t187.5 -64.5t68.5 -160.5q0 -98 -68.5 -163t-187.5 -65zM-307 1782q40 0 64.5 23.5t23.5 60.5q1 38 -23.5 62t-64.5 24t-64.5 -24t-23.5 -62q-1 -37 23.5 -60.5t64.5 -23.5z" />
    <glyph glyph-name="uni0338.case" 
d="M-172 1456l127 -88l-1194 -1438l-125 93z" />
    <glyph glyph-name="uni0337.case" 
d="M-395 1229l82 -142l-697 -362l-77 135z" />
    <glyph glyph-name="tildecomb.case" 
d="M-244 1874q-4 -109 -65 -168t-152 -57q-52 1 -101 18t-88 34.5t-67 18.5q-65 0 -86 -61l-172 37q6 120 60.5 175.5t142.5 55.5q58 -1 152.5 -39.5t123.5 -38.5q62 0 82 58z" />
    <glyph glyph-name="acute.case" horiz-adv-x="1228" 
d="M801 2034l139 -219l-473 -246l-88 127z" />
    <glyph glyph-name="breve.case" horiz-adv-x="1228" 
d="M391 1948q3 -69 61 -110.5t150 -41.5q93 0 152.5 41t62.5 111l176 -13q9 -148 -99.5 -235.5t-291.5 -87.5q-182 0 -291 87.5t-100 235.5z" />
    <glyph glyph-name="caron.case" horiz-adv-x="1228" 
d="M944 1976l76 -133l-422 -278l-422 278l74 133l346 -182z" />
    <glyph glyph-name="circumflex.case" horiz-adv-x="1228" 
d="M1010 1755l-72 -133l-328 133l-313 -133l-72 133l383 219z" />
    <glyph glyph-name="dieresis.case" horiz-adv-x="1228" 
d="M342 1632q-59 0 -100 43.5t-41 104.5q0 58 41 98.5t100 40.5q62 0 104.5 -40.5t42.5 -98.5q0 -62 -43 -105t-104 -43zM756 1632q-59 0 -101.5 43.5t-42.5 104.5q0 58 42.5 98.5t101.5 40.5q61 0 103 -40t42 -99q0 -62 -42 -105t-103 -43z" />
    <glyph glyph-name="dotaccent.case" horiz-adv-x="743" 
d="M303 1632q-68 0 -115 48t-47 118q0 65 47.5 110.5t114.5 45.5t114.5 -45.5t47.5 -110.5q0 -70 -47 -118t-115 -48z" />
    <glyph glyph-name="grave.case" horiz-adv-x="1228" 
d="M356 2023l443 -313l-82 -133l-484 221z" />
    <glyph glyph-name="hungarumlaut.case" horiz-adv-x="1228" 
d="M449 2001h249l-233 -393h-162zM805 2001h248l-234 -393h-160z" />
    <glyph glyph-name="macron.case" horiz-adv-x="1228" 
d="M315 1835h652v-197h-652v197z" />
    <glyph glyph-name="ring.case" horiz-adv-x="1228" 
d="M307 1638q-119 0 -187.5 65t-68.5 163q0 96 68.5 160.5t187.5 64.5t187.5 -64.5t68.5 -160.5q0 -98 -68.5 -163t-187.5 -65zM307 1782q40 0 64.5 23.5t23.5 60.5q1 38 -23.5 62t-64.5 24t-64.5 -24t-23.5 -62q-1 -37 23.5 -60.5t64.5 -23.5z" />
    <glyph glyph-name="tilde.case" horiz-adv-x="1228" 
d="M948 1874q-4 -109 -65 -168t-152 -57q-52 1 -101 18t-88 34.5t-67 18.5q-65 0 -86 -61l-172 37q6 120 60.5 175.5t142.5 55.5q58 -1 152.5 -39.5t123.5 -38.5q62 0 82 58z" />
    <glyph glyph-name="IJacute" horiz-adv-x="2209" 
d="M244 1696l422 338l139 -219l-473 -246zM2048 1815l-473 -246l-88 127l422 338zM690 1495v-209h-155v-1077h155v-209h-567v209h156v1077h-156v209h567zM2025 1495v-917h-2q0 -276 -152 -437t-441 -161h-3q-141 0 -255 41t-186 112.5t-106.5 167t-25.5 203.5q6 65 51 108
t115 43q69 0 110 -43.5t41 -103.5q0 -80 -59 -121q14 -74 101 -128t214 -54q155 0 248.5 102.5t93.5 270.5v698h-589v219h845z" />
    <glyph glyph-name="ijacute" horiz-adv-x="1437" 
d="M1380 1384l-495 -194l-76 135l457 291zM713 1372l-496 -194l-76 135l457 291zM649 209v-209h-555v209h156v647h-154v209h402v-856h151zM1270 1065v-1100q0 -210 -82.5 -308.5t-253.5 -98.5q-80 0 -146.5 23.5t-112.5 79.5t-48 138q-2 65 36 105.5t99 40.5q63 0 97 -39
t34 -90q0 -24 -10 -47q13 -17 55 -17q47 0 65.5 35.5t18.5 126.5v942h-156v209h404z" />
    <glyph glyph-name="slashlong" horiz-adv-x="1228" 
 />
    <glyph glyph-name="slashshort" horiz-adv-x="1228" 
 />
    <glyph glyph-name="stroke" horiz-adv-x="1228" 
 />
    <glyph glyph-name="caronalt" horiz-adv-x="1228" 
 />
    <glyph glyph-name="slashlong.case" horiz-adv-x="1228" 
 />
    <glyph glyph-name="slashshort.case" horiz-adv-x="1228" 
 />
    <glyph glyph-name="sign" horiz-adv-x="1228" 
 />
    </font>
</defs>
</svg>
